<svg xmlns="http://www.w3.org/2000/svg" width="141" height="140" viewBox="0 0 141 140" fill="none">
<g id="Design" clip-path="url(#clip0_7695_3596)">
<path id="Vector_67" d="M31.5084 36.5294C33.2555 37.8145 33.0494 39.6876 31.985 41.1339C30.9039 42.6046 29.1783 43.3595 27.4303 42.0743L22.9332 38.7677C21.1139 37.4288 21.402 35.5977 22.4742 34.1387C23.5465 32.6807 25.1676 31.8663 27.0113 33.2227L31.5084 36.5294ZM24.9469 35.1964C24.6217 34.9571 24.2457 35.0137 24.0328 35.3038C23.8199 35.5928 23.8649 35.96 24.2027 36.2091L29.4342 40.0567C29.7721 40.3048 30.1666 40.2979 30.4059 39.9727C30.6363 39.6593 30.5289 39.3009 30.191 39.0528L24.9469 35.1964Z" fill="black"/>
<path id="Vector_68" d="M34.2178 24.8428L32.1348 26.7334L33.9648 28.75L35.7373 27.1406L37.1055 28.6475L35.333 30.2568L38.4297 33.668L36.3584 35.5488L28.7158 27.1299L32.8701 23.3584L34.2178 24.8428Z" fill="black"/>
<path id="Vector_69" d="M43.1836 18.8125L40.7852 20.2842L42.21 22.6065L44.251 21.3535L45.3154 23.0889L43.2744 24.3408L45.6855 28.2695L43.2998 29.7334L37.3516 20.0391L42.1348 17.1035L43.1836 18.8125Z" fill="black"/>
<path id="Vector_70" d="M60.3726 14.669L58.2027 15.0586C58.19 14.8155 58.1412 14.4268 58.0738 14.1504C57.8619 13.2784 57.5103 13.1631 57.19 13.2413C56.856 13.3223 56.6509 13.6192 56.771 14.1133L56.8101 14.2735C56.98 14.9717 57.5406 15.3126 58.5757 15.8311C60.2037 16.6358 61.2759 17.6221 61.6265 19.0626L61.6724 19.251C62.1119 21.0548 61.1089 22.377 59.233 22.8331C57.2408 23.3184 56.0513 22.545 55.6158 20.7569C55.4917 20.2471 55.4439 19.7969 55.438 19.5216L57.5787 19.1387C57.5884 19.3673 57.6402 19.7706 57.7144 20.0762C57.9165 20.9053 58.2749 21.0489 58.6236 20.9639C59.0162 20.8682 59.1236 20.5499 58.9996 20.0401L58.9322 19.7637C58.7515 19.0225 58.399 18.585 56.8423 17.8243C55.3736 17.1036 54.441 16.4366 54.1119 15.0841L54.0865 14.9825C53.733 13.5284 54.3013 11.9425 56.5123 11.4044C58.65 10.8839 59.8013 11.9434 60.1724 13.4708C60.3003 13.9942 60.3453 14.3682 60.3726 14.669Z" fill="black"/>
<path id="Vector_71" d="M72.501 21.1543L69.6299 21.2685L69.3789 19.8711L67.7041 19.9375L67.5811 21.3506L65.1582 21.4463L66.8145 9.99805L69.9102 9.875L72.501 21.1543ZM69.0459 17.8916L68.3184 13.1728L68.2295 13.1768L67.8643 17.9395L69.0459 17.8916Z" fill="black"/>
<path id="Vector_72" d="M83.832 11.1963L80.1328 22.1299L76.6582 21.585L76.3809 10.0273L79.3672 10.4961L79.0195 18.4102L79.123 18.4268L81.2305 10.7881L83.832 11.1963Z" fill="black"/>
<path id="Vector_73" d="M87.9014 24.3555L85.2559 23.4424L88.9668 12.6924L91.6123 13.6055L87.9014 24.3555Z" fill="black"/>
<path id="Vector_74" d="M97.7588 29.3164L95.4844 28.0244L97.0527 21.418L96.9746 21.374L93.7549 27.042L91.5059 25.7646L97.1182 15.8838L99.5371 17.2578L98.1328 23.1494L98.1982 23.1865L101.07 18.1289L103.372 19.4365L97.7588 29.3164Z" fill="black"/>
<path id="Vector_75" d="M105.661 35.9609L104.851 35.2275L105.204 34.2353L105.138 34.1758C104.635 34.2851 103.732 34.457 102.712 33.5342C101.391 32.3389 101.172 30.9092 102.638 29.29L106.343 25.1963C107.839 23.543 109.584 23.9121 110.981 25.1768C112.291 26.3613 112.746 27.8437 111.37 29.3633C111.039 29.7295 110.644 30.0986 110.308 30.3799L108.779 28.8144C109.034 28.6211 109.258 28.4199 109.579 28.0644C110.02 27.5762 110.197 27.0908 109.754 26.6894C109.399 26.3681 108.971 26.4844 108.659 26.8291L104.402 31.5322C104.051 31.9209 104.098 32.2461 104.398 32.5176C104.676 32.7685 105.047 32.7822 105.378 32.416L107.497 30.0752L109.416 31.8125L105.661 35.9609Z" fill="black"/>
<path id="Vector_76" d="M117.472 38.8301L116.273 36.9834C116.492 36.877 116.832 36.6817 117.06 36.5127C117.781 35.9786 117.751 35.6104 117.555 35.3457C117.35 35.0694 116.998 34.9952 116.589 35.2979L116.457 35.3956C115.879 35.8223 115.783 36.4708 115.707 37.625C115.595 39.4375 115.102 40.8077 113.912 41.6885L113.755 41.8038C112.264 42.9073 110.658 42.4952 109.51 40.9444C108.292 39.2969 108.543 37.9014 110.022 36.8077C110.443 36.4961 110.839 36.2774 111.091 36.1651L112.273 37.9893C112.066 38.086 111.714 38.2901 111.462 38.4776C110.776 38.9844 110.783 39.3702 110.997 39.6592C111.237 39.9834 111.572 39.959 111.993 39.6475L112.221 39.4785C112.835 39.0244 113.101 38.5293 113.199 36.8018C113.294 35.169 113.546 34.0518 114.664 33.2246L114.749 33.1621C115.951 32.2725 117.632 32.1817 118.985 34.0088C120.293 35.7764 119.762 37.2481 118.5 38.1817C118.067 38.502 117.74 38.6885 117.472 38.8301Z" fill="black"/>
<path id="Vector_77" d="M27.1807 106.324C25.4415 107.618 23.713 106.874 22.6417 105.435C21.5528 103.972 21.335 102.102 23.0743 100.808L27.5479 97.4775C29.3585 96.1298 31.0245 96.9404 32.1046 98.3916C33.1846 99.8427 33.4893 101.629 31.6544 102.995L27.1807 106.324ZM30.3721 100.445C30.6954 100.204 30.7511 99.8281 30.5362 99.54C30.3223 99.2519 29.9581 99.1884 29.6221 99.4375L24.4171 103.312C24.0811 103.561 23.9718 103.941 24.213 104.265C24.4454 104.577 24.8184 104.578 25.1544 104.328L30.3721 100.445Z" fill="black"/>
<path id="Vector_78" d="M39.4072 109.174L37.3135 107.295L35.4941 109.322L37.2764 110.921L35.917 112.437L34.1348 110.837L31.0566 114.268L28.9736 112.398L36.5693 103.934L40.7471 107.681L39.4072 109.174Z" fill="black"/>
<path id="Vector_79" d="M47.2617 114.311L44.8584 112.854L43.4473 115.181L45.4932 116.421L44.4395 118.16L42.3936 116.92L40.0059 120.858L37.6143 119.408L43.5059 109.69L48.3008 112.598L47.2617 114.311Z" fill="black"/>
<path id="Vector_80" d="M61.5155 121.166L59.4071 120.528C59.5057 120.306 59.6395 119.937 59.705 119.661C59.912 118.787 59.6512 118.526 59.3309 118.45C58.996 118.371 58.6786 118.542 58.5614 119.036L58.5233 119.196C58.3583 119.895 58.702 120.453 59.3885 121.385C60.4735 122.841 60.9803 124.206 60.6385 125.647L60.5936 125.837C60.1659 127.642 58.6727 128.364 56.7948 127.919C54.8007 127.447 54.0926 126.219 54.5165 124.428C54.6376 123.918 54.7997 123.495 54.9198 123.247L56.9989 123.878C56.9042 124.086 56.7674 124.469 56.6942 124.774C56.4979 125.604 56.7518 125.895 57.1014 125.978C57.494 126.071 57.7342 125.836 57.8553 125.326L57.9208 125.05C58.0966 124.308 57.9813 123.757 56.9403 122.373C55.9589 121.064 55.4315 120.048 55.7518 118.694L55.7762 118.592C56.121 117.137 57.3475 115.981 59.5604 116.506C61.7001 117.013 62.245 118.479 61.8827 120.008C61.7587 120.532 61.6288 120.886 61.5155 121.166Z" fill="black"/>
<path id="Vector_81" d="M72.3848 129.471L69.5137 129.374L69.3662 127.962L67.6914 127.905L67.4648 129.306L65.043 129.224L67.5342 117.93L70.6289 118.034L72.3848 129.471ZM69.1797 125.965L68.8008 121.206L68.7109 121.203L67.998 125.925L69.1797 125.965Z" fill="black"/>
<path id="Vector_82" d="M82.3418 116.77L82.2393 128.311L78.7676 128.877L74.8975 117.984L77.8809 117.498L80.0205 125.125L80.124 125.107L79.7422 117.193L82.3418 116.77Z" fill="black"/>
<path id="Vector_83" d="M91.9541 125.538L89.3145 126.469L85.5342 115.742L88.1738 114.812L91.9541 125.538Z" fill="black"/>
<path id="Vector_84" d="M103.684 119.649L101.414 120.955L96.5137 116.248L96.4355 116.292L99.6895 121.947L97.4453 123.238L91.7744 113.381L94.1875 111.993L98.5557 116.195L98.6201 116.158L95.7178 111.112L98.0137 109.792L103.684 119.649Z" fill="black"/>
<path id="Vector_85" d="M113.512 111.523L112.706 112.26L111.751 111.814L111.684 111.875C111.747 112.386 111.833 113.301 110.816 114.231C109.502 115.433 108.057 115.517 106.583 113.903L102.855 109.827C101.35 108.181 101.881 106.478 103.273 105.205C104.577 104.013 106.095 103.699 107.479 105.213C107.813 105.577 108.143 106.005 108.392 106.366L106.688 107.741C106.52 107.469 106.34 107.228 106.017 106.874C105.573 106.389 105.106 106.166 104.664 106.57C104.31 106.894 104.386 107.331 104.7 107.674L108.982 112.357C109.336 112.744 109.665 112.728 109.963 112.455C110.24 112.202 110.288 111.833 109.955 111.469L107.823 109.138L109.734 107.391L113.512 111.523Z" fill="black"/>
<path id="Vector_86" d="M114.742 98.0615L113.337 99.7578C113.17 99.581 112.883 99.3154 112.653 99.1474C111.928 98.6181 111.585 98.7578 111.392 99.0234C111.189 99.3017 111.223 99.6601 111.634 99.9599L111.767 100.057C112.347 100.48 112.995 100.379 114.119 100.107C115.883 99.6709 117.338 99.7334 118.534 100.606L118.692 100.721C120.19 101.814 120.278 103.471 119.14 105.03C117.931 106.686 116.525 106.862 115.037 105.777C114.614 105.469 114.287 105.156 114.106 104.949L115.492 103.276C115.648 103.444 115.947 103.719 116.201 103.904C116.89 104.407 117.257 104.285 117.468 103.995C117.706 103.669 117.582 103.356 117.159 103.048L116.93 102.881C116.314 102.431 115.762 102.324 114.082 102.747C112.495 103.145 111.354 103.237 110.23 102.417L110.146 102.355C108.937 101.474 108.348 99.8955 109.688 98.0586C110.985 96.2822 112.547 96.3486 113.817 97.2744C114.251 97.5918 114.528 97.8486 114.742 98.0615Z" fill="black"/>
</g>
<defs>
<clipPath id="clip0_7695_3596">
<rect width="139.194" height="139.181" fill="white" transform="translate(0.941406 0.282227)"/>
</clipPath>
</defs>
</svg>