<svg width="91" height="27" viewBox="0 0 91 27" fill="none" xmlns="http://www.w3.org/2000/svg">
<path d="M56.081 21.1149C50.8744 24.9525 43.3278 27 36.8303 27C27.7198 27 19.518 23.6304 13.3131 18.026C12.8256 17.5853 13.2624 16.9847 13.8474 17.3279C20.5437 21.2241 28.8235 23.568 37.3763 23.568C43.1445 23.568 49.4899 22.3746 55.3244 19.898C56.2058 19.5236 56.9429 20.4753 56.081 21.1149Z" fill="black"/>
<path d="M58.2456 18.6383C57.5826 17.7881 53.8463 18.2366 52.1693 18.4355C51.6584 18.4979 51.5804 18.0533 52.0406 17.7335C55.0164 15.6391 59.8992 16.2436 60.4686 16.9457C61.038 17.6516 60.3204 22.5461 57.5241 24.8822C57.0951 25.2411 56.6856 25.05 56.8767 24.5741C57.5046 23.0063 58.9125 19.4924 58.2456 18.6383Z" fill="black"/>
<path d="M52.2863 2.94833V0.912511C52.2863 0.604407 52.5203 0.397705 52.8011 0.397705H61.9155C62.208 0.397705 62.442 0.608308 62.442 0.912511V2.65583C62.4381 2.94833 62.1924 3.33054 61.7556 3.93505L57.0326 10.6782C58.7877 10.6353 60.6402 10.8966 62.2314 11.7936C62.5902 11.9964 62.6877 12.2928 62.715 12.5854V14.7577C62.715 15.0541 62.3874 15.4012 62.0442 15.2218C59.2401 13.7515 55.5155 13.5916 52.415 15.2374C52.0991 15.409 51.7676 15.0658 51.7676 14.7694V12.7063C51.7676 12.3747 51.7715 11.8092 52.103 11.3061L57.5747 3.45924H52.8128C52.5203 3.45924 52.2863 3.25254 52.2863 2.94833Z" fill="black"/>
<path d="M19.0384 15.6509H16.2654C16.0002 15.6314 15.7896 15.4325 15.7701 15.179V0.947687C15.7701 0.662983 16.008 0.436779 16.3044 0.436779H18.8902C19.1593 0.448471 19.3738 0.655181 19.3933 0.912584V2.77291H19.444C20.1187 0.974984 21.3862 0.136475 23.0944 0.136475C24.8299 0.136475 25.9142 0.974984 26.6942 2.77291C27.365 0.974984 28.8899 0.136475 30.524 0.136475C31.6862 0.136475 32.9576 0.61618 33.7338 1.69259C34.6113 2.88991 34.4319 4.62933 34.4319 6.15425L34.428 15.1361C34.428 15.4208 34.1901 15.6509 33.8937 15.6509H31.1246C30.8477 15.6314 30.6254 15.4091 30.6254 15.1361V7.59336C30.6254 6.99276 30.68 5.49514 30.5474 4.92573C30.3407 3.97022 29.7206 3.70112 28.9172 3.70112C28.2464 3.70112 27.5444 4.14962 27.2597 4.86723C26.975 5.58484 27.0023 6.78605 27.0023 7.59336V15.1361C27.0023 15.4208 26.7644 15.6509 26.468 15.6509H23.6989C23.4181 15.6314 23.1997 15.4091 23.1997 15.1361L23.1958 7.59336C23.1958 6.00605 23.4571 3.66992 21.4876 3.66992C19.4947 3.66992 19.5727 5.94754 19.5727 7.59336V15.1361C19.5727 15.4208 19.3348 15.6509 19.0384 15.6509Z" fill="black"/>
<path d="M70.2889 0.136475C74.4035 0.136475 76.6304 3.66992 76.6304 8.16277C76.6304 12.5035 74.1695 15.9473 70.2889 15.9473C66.2485 15.9473 64.0488 12.4138 64.0488 8.01067C64.0488 3.58022 66.2758 0.136475 70.2889 0.136475ZM70.3123 3.04201C68.2687 3.04201 68.14 5.82664 68.14 7.56216C68.14 9.30159 68.1127 13.0144 70.2889 13.0144C72.4378 13.0144 72.5392 10.0192 72.5392 8.19397C72.5392 6.99276 72.4885 5.55754 72.1258 4.41873C71.8138 3.42812 71.1937 3.04201 70.3123 3.04201Z" fill="black"/>
<path d="M81.9656 15.6509H79.2044C78.9275 15.6314 78.7052 15.4091 78.7052 15.1361L78.7013 0.900883C78.7247 0.63958 78.9548 0.436779 79.2356 0.436779H81.8057C82.0475 0.448471 82.2464 0.612281 82.301 0.834584V3.01081H82.3517C83.1278 1.06469 84.216 0.136475 86.1309 0.136475C87.375 0.136475 88.5879 0.58498 89.3679 1.81349C90.0933 2.95231 90.0933 4.86723 90.0933 6.24395V15.2024C90.0621 15.452 89.832 15.6509 89.559 15.6509H86.7783C86.5248 15.6314 86.3142 15.4442 86.2869 15.2024V7.47246C86.2869 5.91634 86.4663 3.63872 84.5514 3.63872C83.8767 3.63872 83.2565 4.09112 82.9484 4.77753C82.5584 5.64724 82.5077 6.51305 82.5077 7.47246V15.1361C82.5038 15.4208 82.262 15.6509 81.9656 15.6509Z" fill="black"/>
<path d="M45.0205 8.85311V8.2525C43.0158 8.2525 40.8981 8.6815 40.8981 11.0449C40.8981 12.2422 41.5182 13.0535 42.5829 13.0535C43.3629 13.0535 44.061 12.5738 44.5017 11.7937C45.0477 10.8343 45.0205 9.93342 45.0205 8.85311ZM47.8168 15.6119C47.6335 15.7757 47.3683 15.7874 47.1616 15.6782C46.2412 14.9138 46.0774 14.5589 45.5704 13.8296C44.0493 15.3818 42.9729 15.8459 40.9995 15.8459C38.6673 15.8459 36.8499 14.4068 36.8499 11.5246C36.8499 9.27431 38.0706 7.74159 39.8061 6.99278C41.3115 6.32977 43.4136 6.21278 45.0205 6.02947V5.67067C45.0205 5.01156 45.0712 4.23155 44.685 3.66215C44.3457 3.15124 43.6983 2.94063 43.1289 2.94063C42.072 2.94063 41.1282 3.48274 40.8981 4.60595C40.8513 4.85556 40.668 5.10126 40.4184 5.11296L37.7274 4.82436C37.5012 4.77366 37.2516 4.59035 37.314 4.24325C37.9341 0.982814 40.8786 0 43.515 0C44.8644 0 46.6273 0.358804 47.692 1.38062C49.0414 2.64033 48.9127 4.32125 48.9127 6.15037V10.4716C48.9127 11.7703 49.4509 12.3397 49.9579 13.0418C50.1373 13.2914 50.1763 13.5917 49.9501 13.7789C49.3846 14.2508 48.3784 15.1283 47.8246 15.6197L47.8168 15.6119Z" fill="black"/>
<path d="M8.66816 8.85311V8.2525C6.66353 8.2525 4.54581 8.6815 4.54581 11.0449C4.54581 12.2422 5.16591 13.0535 6.23063 13.0535C7.01063 13.0535 7.70874 12.5738 8.14945 11.7937C8.69545 10.8343 8.66816 9.93342 8.66816 8.85311ZM11.4645 15.6119C11.2812 15.7757 11.016 15.7874 10.8093 15.6782C9.88887 14.9138 9.72507 14.5589 9.21806 13.8296C7.69704 15.3818 6.62063 15.8459 4.64721 15.8459C2.31498 15.8459 0.497559 14.4068 0.497559 11.5246C0.497559 9.27431 1.71827 7.74159 3.45379 6.99278C4.95921 6.32977 7.06134 6.21278 8.66816 6.02947V5.67067C8.66816 5.01156 8.71886 4.23155 8.33275 3.66215C7.99345 3.15124 7.34604 2.94063 6.77663 2.94063C5.71972 2.94063 4.77591 3.48274 4.54581 4.60595C4.499 4.85556 4.3157 5.10126 4.0661 5.11296L1.37507 4.82436C1.14887 4.77366 0.899263 4.59035 0.961663 4.24325C1.58177 0.982814 4.5263 0 7.16274 0C8.51215 0 10.275 0.358804 11.3397 1.38062C12.6891 2.64033 12.5604 4.32125 12.5604 6.15037V10.4716C12.5604 11.7703 13.0986 12.3397 13.6056 13.0418C13.785 13.2914 13.824 13.5917 13.5978 13.7789C13.0323 14.2508 12.0261 15.1283 11.4723 15.6197L11.4645 15.6119Z" fill="black"/>
</svg>
