<svg width="226" height="47" viewBox="0 0 226 47" fill="none" xmlns="http://www.w3.org/2000/svg">
<g id="Group 1643">
<path id="Vector" d="M54.6046 40.0545L53.2639 35.9139L51.9231 40.0545H47.5854L51.1049 42.5881L49.7641 46.7287L53.2737 44.1655L56.7834 46.7287L55.4426 42.5881L58.9522 40.0446H54.6145L54.6046 40.0545ZM50.4936 13.9294L59.2677 6.1609L53.1357 0.718994L38.4169 13.752V24.5963L50.4936 13.9294ZM59.2677 23.7879L53.1357 18.346L38.4169 31.379V42.2234L50.4936 31.5762L59.2677 23.7879ZM59.9775 24.4189L53.8357 29.8608L68.0319 42.4008V31.5565L59.9775 24.4189ZM53.8357 12.2338L68.0319 24.7541V13.9294L59.9775 6.79184L53.8357 12.2338ZM8.71321 28.2637H21.8941V37.6786H8.71321V28.2637ZM8.71321 10.8338H21.8941V20.2487H8.71321V10.8338ZM24.408 45.733L30.2245 39.9165V28.0863L25.9065 24.2217L30.2442 20.436V8.60581L24.3981 2.75971H0.363037V45.7429L24.408 45.733ZM97.4202 21.3233H84.7027V10.824H97.4202V21.3233ZM105.77 22.9993V8.60581L99.8553 2.78928H76.3525V45.7724H84.7027V29.3679H92.2149L97.5385 45.733H105.948L100.131 28.6975L105.77 22.9993ZM134.961 21.3233H122.244V10.824H134.961V21.3233ZM143.312 22.9993V8.60581L137.397 2.78928H113.894V45.7724H122.244V29.3679H129.756L135.08 45.733H143.489L137.673 28.6975L143.312 22.9993ZM160.889 45.7429H169.24V28.6876L182.529 2.75971H173.498L165.02 19.4009L156.64 2.75971H147.669L160.88 28.8158V45.7429H160.889ZM219.794 45.7429L225.67 39.9263V27.5342L220.908 22.4275L204.612 18.6812V10.8338H217.329V16.2067H225.68V8.60581L219.804 2.78928H202.157L196.262 8.60581V20.998L201.142 26.2033L217.329 29.8509V37.6885H204.612V32.3156H196.262V39.9362L202.147 45.7527H219.794V45.7429ZM194.477 2.75971H187.872L183.041 12.3619H188.878L194.468 2.76957L194.477 2.75971Z" fill="black"/>
</g>
</svg>
