<svg width="72" height="121" viewBox="0 0 72 121" fill="none" xmlns="http://www.w3.org/2000/svg">
<path fill-rule="evenodd" clip-rule="evenodd" d="M12.7697 8.82833C12.651 11.03 11.2882 13.5086 8.22731 13.9609C7.08991 14.1282 5.97256 14.055 4.88969 13.6599C3.12343 13.0145 1.95073 11.764 1.34433 9.99919C0.697821 8.11857 0.735521 6.23069 1.4815 4.37983C2.46169 1.94795 4.75013 0.511513 7.36342 0.638651C8.72462 0.705452 9.97351 1.06112 11.0211 1.97288C11.99 2.81704 12.5283 3.89134 12.6815 5.20144H10.1227C10.0119 5.03741 9.91167 4.87039 9.81345 4.70672C9.60663 4.36211 9.40877 4.03242 9.14012 3.77707C7.79977 2.50321 5.45518 2.78484 4.5135 4.38948C3.40016 6.28702 3.38011 8.29399 4.45173 10.2237C5.20411 11.5789 6.98964 12.0826 8.41019 11.4509C9.38396 11.0188 9.81148 10.1706 10.0112 9.18724C10.0666 8.91361 10.1532 8.81545 10.4355 8.82189C10.9821 8.83512 11.529 8.83273 12.0896 8.83029H12.0896H12.0897H12.0897H12.0898H12.0899H12.0899H12.09H12.09H12.0901H12.0902H12.0902H12.0903H12.0904H12.0904H12.0905H12.0906H12.0906H12.0907H12.0908H12.0909H12.0909H12.091H12.0911H12.0911H12.0912C12.3149 8.82931 12.5408 8.82833 12.7697 8.82833ZM36.3774 90.9414C55.8793 90.9696 71.7227 75.0827 71.7572 55.4636C71.7925 35.8991 55.9796 20.0203 36.4023 19.9615C16.9268 19.9028 1.0505 35.8251 1.02965 55.4378C1.00879 75.0208 16.8314 90.9133 36.3774 90.9414ZM67.0929 55.4612C67.0937 72.4738 53.3374 86.2748 36.3782 86.2748C19.423 86.2748 5.6635 72.4609 5.67552 55.4507C5.68756 38.4525 19.4126 24.6764 36.3654 24.6467C53.2852 24.6177 67.0913 38.463 67.0929 55.4612ZM1.1057 98.4751H71.6544V103.057H1.1057V98.4751ZM69.2794 13.7336H71.6465V0.968289H69.1166V5.4353C68.9832 5.3405 68.854 5.23938 68.7255 5.1388C68.4461 4.92008 68.1698 4.70389 67.8605 4.56059C66.0686 3.7285 63.9718 4.38033 63.0261 6.14024C61.9072 8.22126 61.9673 10.3514 63.2363 12.3511C64.5405 14.408 67.5958 14.5528 69.1623 12.7012C69.1694 12.6926 69.1864 12.6929 69.215 12.6933C69.2322 12.6935 69.2536 12.6938 69.2794 12.6923V13.7336ZM69.2076 8.56484C69.2402 8.74828 69.2735 8.935 69.3139 9.12417C69.275 9.29684 69.241 9.47296 69.2068 9.65013C69.1292 10.0526 69.0506 10.4605 68.9097 10.8455C68.6466 11.5657 68.0923 11.9817 67.3022 12.0558C66.4945 12.1314 65.8472 11.861 65.3908 11.1907C64.7788 10.2918 64.7451 9.27866 64.8903 8.24943C64.9344 7.93638 65.0346 7.62093 65.1662 7.33284C65.5496 6.49192 66.2258 6.11529 67.1418 6.14427C68.0217 6.17081 68.6338 6.61583 68.9313 7.41332C69.0668 7.77524 69.1357 8.16182 69.2074 8.56421L69.2074 8.56432L69.2074 8.56442L69.2075 8.56451L69.2075 8.5646L69.2075 8.56469L69.2075 8.56477L69.2076 8.56484ZM61.3305 10.8716C60.822 12.8762 59.2474 13.9972 57.0448 13.9843C54.0882 13.9666 52.1415 11.8615 52.3356 8.89202C52.4799 6.67419 53.6037 5.08807 55.4678 4.47006C58.422 3.49152 61.1853 5.31098 61.491 8.44378C61.5178 8.72011 61.5274 8.99825 61.5375 9.29244V9.2926L61.5376 9.29288L61.5376 9.29312L61.5376 9.29334L61.5376 9.29352V9.29367C61.5426 9.43859 61.5477 9.5874 61.5551 9.74181H54.9152C54.8286 10.7976 55.3163 11.6313 56.1609 11.9307C57.2293 12.3097 58.4493 11.9934 58.9755 11.1597C59.1295 10.9159 59.2932 10.862 59.5474 10.8676C59.9572 10.8772 60.367 10.8753 60.7894 10.8733H60.7895C60.9673 10.8725 61.1473 10.8716 61.3305 10.8716ZM58.9354 8.08969C58.8039 6.72327 58.0282 6.05534 56.7151 6.15352C55.6563 6.23319 54.8743 7.06124 54.9136 8.08969H58.9354ZM15.8661 9.76711H22.4755C22.4791 9.69659 22.4839 9.63261 22.4884 9.57301L22.4884 9.5729L22.4884 9.57285C22.4971 9.45639 22.5046 9.3567 22.4988 9.25772C22.4946 9.18644 22.4907 9.11508 22.4869 9.04369L22.4868 9.04326V9.04322C22.4704 8.73758 22.4539 8.43156 22.4058 8.1303C21.9349 5.18179 19.3032 3.56189 16.4749 4.4712C14.3389 5.15844 13.0186 7.37868 13.3154 9.74297C13.5456 11.5745 14.3525 12.9981 16.1388 13.6636C17.4799 14.1633 18.85 14.1287 20.1759 13.5469C21.3333 13.0391 21.9437 12.0799 22.3279 10.8728C22.1524 10.8728 21.9802 10.8722 21.8105 10.8716L21.8099 10.8716H21.8099H21.8099H21.8098H21.8098H21.8098H21.8098H21.8098H21.8097H21.8097H21.8097H21.8097H21.8096H21.8096H21.8096H21.8096H21.8095H21.8095H21.8095H21.8095H21.8095H21.8094H21.8094C21.2958 10.8698 20.8054 10.8681 20.3154 10.8833C20.2095 10.8865 20.0772 10.9991 20.0098 11.0973C19.4155 11.9688 18.3334 12.306 17.2161 11.9535C16.3121 11.6687 15.8332 10.9042 15.8661 9.76711ZM17.8497 6.14826C19.0754 6.12493 19.8951 6.89987 19.8847 8.09408H15.891C15.8308 7.00851 16.6842 6.17078 17.8497 6.14826ZM45.4982 13.7337H42.9266V6.19103H41.4395V4.47616H42.9274C42.9274 4.38496 42.9271 4.29899 42.9267 4.21642C42.926 4.06074 42.9253 3.91718 42.9274 3.77362C42.9523 2.14084 43.8707 1.10998 45.4846 0.963546C45.8999 0.926055 46.3194 0.935761 46.7446 0.945599C46.9402 0.950124 47.1369 0.954678 47.3351 0.954678V2.85625C47.1412 2.89339 46.9343 2.87617 46.7306 2.85921C46.3384 2.82657 45.958 2.79491 45.7052 3.154C45.5492 3.37448 45.51 3.67788 45.4679 4.00405C45.4481 4.15766 45.4276 4.31632 45.3939 4.47375H47.1987V6.15481H45.4982L45.4982 13.7337ZM34.5194 4.46625V1.72133L31.9582 1.72132V4.48876H30.4695V6.19478H31.9686C31.9686 6.63269 31.9684 7.06755 31.9682 7.50011V7.50388V7.50764V7.51139V7.51515V7.5189V7.52266V7.52641V7.53015V7.5339V7.53764V7.54138V7.54511V7.54884V7.55257V7.5563V7.56002V7.56374V7.56746V7.57118V7.57489C31.9675 8.82088 31.9669 10.0482 31.971 11.275C31.9718 11.5816 31.9887 11.8906 32.0296 12.1948C32.1114 12.808 32.4347 13.2739 32.9986 13.5186C34.0003 13.9528 35.0393 13.8659 36.0707 13.7796C36.1633 13.7719 36.2558 13.7641 36.3482 13.7568V11.7981C36.2684 11.8039 36.1919 11.8104 36.1177 11.8168L36.1175 11.8168C35.9537 11.8308 35.8011 11.8439 35.6488 11.8456C34.748 11.8544 34.5402 11.6516 34.5346 10.7399C34.5294 9.97053 34.5304 9.20118 34.5314 8.43183C34.5318 8.12365 34.5322 7.81547 34.5322 7.5073V6.16824H36.3602V4.46625H34.5194ZM9.1873 112.209H7.30071C7.1066 111.445 6.62693 110.925 5.84808 110.72C4.76361 110.436 3.70722 110.922 3.2452 111.951C2.76073 113.031 2.74308 114.152 3.15215 115.259C3.53396 116.29 4.39463 116.824 5.46867 116.757C6.42721 116.695 7.04002 116.111 7.31434 114.997C7.32703 114.946 7.33744 114.894 7.35003 114.832L7.36327 114.767H9.22338C9.22258 116.218 8.19026 118.037 6.09673 118.358C2.8674 118.852 0.605421 116.471 0.935099 113.132C1.09713 111.49 1.79175 110.139 3.34466 109.412C4.64971 108.8 5.99726 108.795 7.30151 109.442C8.42286 110 9.01403 110.952 9.1873 112.209ZM22.7873 120.496H24.5752V117.424C25.6854 118.845 28.1711 118.71 29.0286 116.759C29.3719 115.977 29.4385 115.165 29.3446 114.336C29.1265 112.408 27.7781 111.299 25.987 111.547C25.383 111.631 24.9194 111.954 24.4975 112.463C24.483 112.159 24.4726 111.942 24.4614 111.714H22.7873V120.496ZM27.5729 114.567C27.5998 114.69 27.6261 114.81 27.6554 114.924C27.6284 115.061 27.6063 115.191 27.5851 115.316L27.5851 115.316C27.54 115.582 27.4988 115.825 27.4236 116.056C27.2094 116.711 26.7426 117.028 26.0752 117.033C25.4054 117.039 24.9218 116.732 24.6908 116.096C24.4084 115.321 24.4132 114.531 24.7108 113.762C24.933 113.186 25.3693 112.881 25.9966 112.868C26.619 112.854 27.0907 113.124 27.3257 113.692C27.4432 113.975 27.5098 114.28 27.5729 114.567ZM29.2822 6.6263L29.2821 6.6263C29.0715 6.60575 28.8728 6.58636 28.6737 6.58691C27.3165 6.58853 26.4382 7.35784 26.2617 8.70496C26.2096 9.1057 26.1895 9.5129 26.1871 9.91767C26.1801 10.833 26.1812 11.7483 26.1823 12.6772V12.6775V12.6779V12.6782V12.6785V12.6789V12.6792V12.6795V12.6799V12.6802V12.6805V12.6809V12.6812V12.6816V12.6819V12.6823V12.6826V12.683C26.1827 13.0287 26.1831 13.3763 26.1831 13.7264H23.6901V4.49543H26.062V6.07914C27.3438 4.48337 28.3873 3.97074 29.5833 4.32323L29.5833 6.65371C29.4795 6.64556 29.3796 6.63581 29.2822 6.6263ZM48.1455 118.211C48.2758 118.209 48.4031 118.206 48.5262 118.206C48.5168 117.973 48.5064 117.744 48.496 117.516L48.496 117.516C48.4728 117.006 48.4501 116.507 48.4412 116.008C48.4327 115.507 48.4345 115.006 48.4362 114.505C48.4374 114.152 48.4387 113.8 48.4364 113.448C48.43 112.548 48.0449 111.99 47.1875 111.732C46.1359 111.416 45.0651 111.399 44.0191 111.751C43.1408 112.047 42.6026 112.657 42.5255 113.68C42.6468 113.68 42.7672 113.68 42.8871 113.68C43.3163 113.681 43.7382 113.682 44.1595 113.673C44.2172 113.672 44.2974 113.593 44.3279 113.531C44.6953 112.766 45.2744 112.519 46.0942 112.775C46.4704 112.892 46.6252 113.157 46.6412 113.527C46.6573 113.895 46.4503 114.1 46.1223 114.19C45.9308 114.243 45.7347 114.277 45.5389 114.312L45.4276 114.332C45.232 114.367 45.0349 114.397 44.8377 114.427L44.8375 114.428L44.8373 114.428L44.8372 114.428L44.837 114.428L44.8368 114.428L44.8366 114.428L44.8364 114.428L44.8362 114.428L44.8361 114.428L44.8359 114.428L44.8357 114.428C44.4135 114.492 43.9913 114.557 43.5844 114.674C42.6948 114.932 42.3066 115.554 42.325 116.513C42.3427 117.394 42.8151 118.051 43.6686 118.265C44.6696 118.516 45.633 118.419 46.4952 117.785C46.5546 117.741 46.626 117.716 46.6124 117.723C46.6682 117.786 46.7186 117.857 46.7663 117.924C46.8618 118.057 46.9463 118.176 47.0415 118.186C47.4136 118.224 47.7904 118.217 48.1455 118.211ZM46.4853 115.138L46.5601 115.119C46.5997 115.109 46.6406 115.098 46.6829 115.087C46.6679 115.228 46.6589 115.366 46.6501 115.502L46.65 115.502L46.65 115.502L46.65 115.503V115.503C46.6309 115.796 46.6125 116.077 46.5369 116.343C46.306 117.151 45.0362 117.507 44.3688 116.985C43.9726 116.674 43.9983 115.969 44.4442 115.68C44.6472 115.548 44.8998 115.482 45.1389 115.419C45.2777 115.382 45.4205 115.361 45.5634 115.341C45.6691 115.326 45.7749 115.31 45.8792 115.288C46.0452 115.254 46.2096 115.211 46.4026 115.16L46.4853 115.138ZM33.3032 118.38C31.2771 118.377 29.9496 117.021 29.9504 114.955C29.9504 112.873 31.31 111.488 33.3337 111.506C35.3631 111.525 36.6786 112.873 36.6882 114.943C36.6986 117.02 35.3559 118.384 33.3032 118.38ZM34.9339 114.906C34.9118 114.801 34.8926 114.69 34.873 114.578C34.8289 114.324 34.7827 114.057 34.6949 113.805C34.4791 113.188 34.0027 112.887 33.3458 112.878C32.6575 112.869 32.1915 113.16 31.9429 113.789C31.6661 114.49 31.6717 115.213 31.8739 115.928C32.0808 116.663 32.5838 117.034 33.3081 117.034C34.0436 117.035 34.5417 116.676 34.7543 115.945C34.8176 115.728 34.8486 115.503 34.8819 115.26C34.8975 115.146 34.9137 115.028 34.9339 114.906ZM10.0341 114.962C10.0365 117.021 11.372 118.378 13.3982 118.381C15.4332 118.384 16.7574 117.051 16.7759 114.979C16.7936 112.901 15.4516 111.515 13.415 111.508C11.3857 111.5 10.0309 112.884 10.0341 114.962ZM11.8485 115.295C11.8331 115.192 11.818 115.091 11.8004 114.994C11.8181 114.878 11.8321 114.766 11.8458 114.657L11.8459 114.657L11.8459 114.657C11.875 114.426 11.9022 114.209 11.9584 114.001C12.1565 113.266 12.6554 112.887 13.3789 112.879C14.1297 112.871 14.6487 113.245 14.8516 113.989C15.0345 114.661 15.0433 115.345 14.8203 116.013C14.5917 116.7 14.1193 117.033 13.411 117.035C12.7068 117.038 12.2159 116.707 11.9969 116.022C11.9213 115.784 11.884 115.534 11.8485 115.295ZM61.0378 118.381C59.0077 118.379 57.689 117.03 57.6898 114.957C57.6906 112.866 59.0398 111.488 61.0659 111.508C63.1129 111.528 64.4316 112.894 64.4212 114.985C64.4099 117.046 63.0784 118.383 61.0378 118.381ZM59.4376 114.995C59.4557 115.089 59.4716 115.188 59.4879 115.291C59.5266 115.534 59.5682 115.795 59.6494 116.043C59.87 116.718 60.3416 117.033 61.0346 117.035C61.7405 117.038 62.2354 116.703 62.4624 116.031C62.6878 115.365 62.6886 114.682 62.5009 114.007C62.2923 113.254 61.7894 112.877 61.0402 112.878C60.2975 112.88 59.7882 113.268 59.5908 114.022C59.539 114.22 59.513 114.425 59.4844 114.65C59.4705 114.76 59.456 114.874 59.4376 114.995ZM69.8866 118.185H71.6433C71.6433 117.703 71.6492 117.225 71.655 116.75C71.6682 115.678 71.6812 114.622 71.6256 113.571C71.5478 112.1 70.6551 111.418 69.1864 111.512C68.4075 111.563 67.7995 111.918 67.2589 112.619V111.721H65.617V118.178H67.3608C67.3608 117.977 67.3598 117.778 67.3589 117.582C67.3569 117.148 67.3549 116.726 67.3632 116.303L67.3668 116.098L67.3689 115.973L67.3691 115.962V115.962C67.3801 115.307 67.3911 114.652 67.4458 114.001C67.4859 113.515 67.7434 113.131 68.2511 112.986C69.196 112.714 69.8257 113.15 69.8642 114.148C69.8887 114.783 69.8873 115.42 69.8858 116.057C69.8853 116.316 69.8847 116.574 69.8858 116.833C69.8876 117.149 69.8872 117.464 69.8869 117.788L69.8866 118.185ZM51.4413 4.49585H48.9628V13.7124H51.4413V4.49585ZM37.8999 4.48284H40.3753V13.7122H37.8999V4.48284ZM52.0332 111.689H53.331V112.86H52.0388V113.893C52.0388 114.116 52.0385 114.34 52.0382 114.563C52.0375 115.066 52.0368 115.57 52.0396 116.074C52.0428 116.738 52.1896 116.876 52.8618 116.866C52.9579 116.864 53.0543 116.865 53.1627 116.865H53.1645L53.2389 116.865L53.3551 116.866C53.3551 116.974 53.3564 117.081 53.3577 117.187V117.188V117.188V117.188V117.188V117.188V117.188V117.188V117.188V117.188C53.361 117.467 53.3642 117.737 53.3439 118.007C53.3367 118.098 53.1866 118.253 53.1024 118.252C53.0122 118.252 52.9218 118.253 52.8313 118.253H52.8309H52.8306H52.8302C52.3365 118.256 51.8393 118.259 51.357 118.18C50.6407 118.065 50.2806 117.596 50.2678 116.857C50.2538 116.068 50.255 115.279 50.2562 114.49C50.2567 114.147 50.2573 113.803 50.2565 113.46V112.905H49.1977V111.696C49.2785 111.696 49.3569 111.695 49.4335 111.694C49.6019 111.691 49.7619 111.689 49.9212 111.699C50.1731 111.716 50.2685 111.626 50.2613 111.366C50.25 110.994 50.2523 110.621 50.2546 110.239L50.2546 110.238C50.2556 110.079 50.2565 109.919 50.2565 109.756H52.0332L52.0332 111.689ZM17.9064 118.18H19.6598C19.6598 118.136 19.6596 118.09 19.6593 118.044V118.044V118.044V118.043C19.6588 117.948 19.6582 117.85 19.6598 117.751C19.6654 117.443 19.666 117.134 19.6666 116.826C19.668 116.113 19.6694 115.4 19.732 114.693C19.8243 113.649 20.5253 113.122 21.5681 113.17C21.6772 113.175 21.7863 113.184 21.9 113.194L21.9806 113.201L22.0614 113.208V111.547C20.9641 111.383 20.2061 111.892 19.5684 112.842V111.703H17.9064V118.18ZM39.5713 118.186H37.8227V111.704H39.4855V112.854C40.1176 111.887 40.8724 111.395 41.9681 111.544V113.205C41.8904 113.201 41.8149 113.195 41.7409 113.189L41.7405 113.189L41.7401 113.189L41.7399 113.189L41.7396 113.189L41.7393 113.189L41.739 113.189C41.5832 113.177 41.4341 113.166 41.2855 113.169C40.3959 113.191 39.7831 113.668 39.662 114.552C39.5904 115.074 39.5858 115.605 39.5812 116.136C39.5796 116.319 39.5781 116.502 39.5738 116.685C39.5655 117.019 39.5674 117.354 39.5695 117.702C39.5704 117.861 39.5713 118.022 39.5713 118.186ZM54.7387 111.707H56.4456V118.187H54.7387V111.707ZM40.3724 0.965492H37.8954V3.00628H40.3724V0.965492ZM48.9729 0.95011H51.4346V3.0086H48.9729V0.95011ZM69.5064 95.5554C68.3096 95.5602 67.3984 94.6388 67.3968 93.4213C67.3952 92.2608 68.3465 91.3234 69.5144 91.3322C70.6767 91.341 71.6192 92.293 71.612 93.4502C71.6055 94.6203 70.6751 95.5506 69.5064 95.5554ZM71.2245 93.447C71.2301 92.4298 70.4978 91.6533 69.5256 91.6452C68.5302 91.6372 67.781 92.4065 67.7754 93.443C67.7698 94.4473 68.5142 95.2367 69.4799 95.252C70.4649 95.2673 71.2189 94.4875 71.2245 93.447ZM54.7197 109.228H56.4498V110.63H54.7197V109.228ZM21.6037 75.7132V35.2236C21.65 35.2209 21.6942 35.2178 21.737 35.2148L21.7371 35.2147C21.8253 35.2085 21.9074 35.2026 21.9896 35.2026C23.4779 35.2035 24.9663 35.2033 26.4546 35.2032H26.4567C30.5894 35.2027 34.7218 35.2023 38.8541 35.2236C40.7359 35.2332 42.6192 35.3354 44.4633 35.77C47.8523 36.5674 50.0902 38.7072 51.1329 41.9647C52.2102 45.3293 51.769 48.5522 49.5391 51.4001C48.6183 52.5766 47.4215 53.416 46.0667 54.0316C45.9797 54.071 45.8943 54.1139 45.7802 54.1713C45.7198 54.2017 45.6513 54.2361 45.5702 54.2762C45.7333 54.3221 45.883 54.3632 46.0238 54.402C46.2833 54.4734 46.5128 54.5365 46.7405 54.6053C50.5795 55.7754 53.0395 58.9484 53.3059 62.9769C53.4944 65.8417 52.9136 68.4925 51.2621 70.8535C49.3883 73.5325 46.7518 75.0019 43.5697 75.5072C42.6521 75.6529 41.7104 75.702 40.7792 75.7044C36.031 75.7167 31.2829 75.7154 26.5344 75.7141C25.0612 75.7137 23.588 75.7132 22.1147 75.7132H21.6037ZM26.9699 71.1625H27.3806C28.3937 71.1625 29.4067 71.1627 30.4198 71.1629C33.7166 71.1635 37.0134 71.164 40.3107 71.1585C40.8113 71.1577 41.3166 71.1368 41.8115 71.066C44.2692 70.7167 46.1991 69.5821 47.3036 67.2628C47.7488 66.327 47.9461 65.3267 47.9838 64.2982C48.1001 61.1317 46.7951 58.7746 43.4847 57.7261C42.0602 57.2746 40.5883 57.1571 39.1068 57.1539C36.1408 57.1478 33.1749 57.1491 30.2093 57.1505H30.2049C29.2805 57.1509 28.3562 57.1513 27.4319 57.1515C27.3302 57.1515 27.2288 57.1575 27.1216 57.1639H27.1216C27.0724 57.1669 27.0221 57.1699 26.9699 57.1724V71.1625ZM26.9739 52.5758C27.007 52.5795 27.0378 52.5837 27.0671 52.5876C27.1279 52.5959 27.1821 52.6032 27.2362 52.6032C28.2489 52.6023 29.2615 52.6026 30.2741 52.6029C33.109 52.6036 35.9436 52.6044 38.7787 52.5806C40.0629 52.5702 41.331 52.3594 42.5487 51.9159C44.3598 51.2561 45.6128 50.0595 46.0731 48.1418C46.4012 46.7746 46.386 45.3913 46.0643 44.0248C45.6408 42.2255 44.5339 41.0232 42.8013 40.3955C41.4185 39.895 39.9779 39.7542 38.526 39.7469C35.7756 39.7326 33.0247 39.7333 30.274 39.734C29.3025 39.7342 28.3311 39.7345 27.3597 39.734C27.2775 39.734 27.1949 39.7404 27.1056 39.7472C27.0634 39.7504 27.0198 39.7537 26.9739 39.7566V52.5758ZM69.0171 92.2156C68.9173 92.216 68.816 92.2164 68.7124 92.2164L68.7124 94.7368C69.0705 94.5976 69.0699 94.354 69.0693 94.0998C69.0688 93.9161 69.0684 93.7269 69.2033 93.5675C69.2406 93.5935 69.282 93.6187 69.3246 93.6447C69.4259 93.7065 69.5344 93.7727 69.614 93.8645C69.6899 93.9526 69.7499 94.0548 69.8098 94.1569C69.8708 94.2608 69.9318 94.3646 70.0095 94.4535C70.0811 94.5354 70.1845 94.5895 70.288 94.6436C70.3341 94.6677 70.3801 94.6917 70.4233 94.7183C70.4466 94.6804 70.4699 94.6426 70.4939 94.6048C70.4105 94.4718 70.3271 94.3388 70.2437 94.2056C70.1226 94.0124 70.0012 93.8187 69.8787 93.6238C70.4169 93.4001 70.5533 93.2038 70.4851 92.7829C70.4209 92.3878 70.1843 92.226 69.6461 92.2172C69.4391 92.2139 69.2317 92.2147 69.0171 92.2156ZM69.3685 93.3243C69.2828 93.3475 69.1944 93.3715 69.1031 93.3977V92.4715C69.1884 92.4911 69.2721 92.5092 69.3541 92.5269C69.5973 92.5794 69.8264 92.6288 70.0447 92.7089C70.0937 92.7266 70.1017 93.0847 70.052 93.1056C69.8401 93.1963 69.6151 93.2574 69.3685 93.3243Z" fill="white"/>
</svg>
