<svg width="56" height="96" viewBox="0 0 56 96" fill="none" xmlns="http://www.w3.org/2000/svg">
<g id="BCORP-PENDING">
<path id="BCORP" fill-rule="evenodd" clip-rule="evenodd" d="M9.38841 7.00842C9.29461 8.74822 8.21772 10.7068 5.79901 11.0641C4.90023 11.1964 4.0173 11.1385 3.16161 10.8263C1.76591 10.3163 0.83924 9.32817 0.36006 7.93364C-0.150811 6.44757 -0.12102 4.95576 0.468453 3.4932C1.243 1.57153 3.05133 0.436454 5.11636 0.536919C6.19199 0.589705 7.17886 0.870757 8.00666 1.59123C8.77232 2.25829 9.19763 3.1072 9.31869 4.14245H7.29675C7.2092 4.01283 7.12999 3.88085 7.05238 3.75152L7.05238 3.75152C6.88895 3.47921 6.7326 3.21868 6.52031 3.0169C5.46117 2.01029 3.60847 2.23284 2.86434 3.50083C1.98458 5.00027 1.96874 6.58618 2.81554 8.11106C3.41007 9.1819 4.82099 9.57998 5.94352 9.0808C6.71299 8.73931 7.05082 8.06909 7.20865 7.29203C7.25238 7.07581 7.32084 6.99824 7.54394 7.00333C7.97581 7.01378 8.40801 7.0119 8.85091 7.00997H8.85096H8.85106H8.85117H8.85128H8.85139H8.8515H8.85161H8.85172H8.85183H8.85194H8.85205H8.85217H8.85228H8.8524H8.85252H8.85263H8.85275H8.85286H8.85299H8.85311H8.85322H8.85334H8.85346H8.85359H8.85371H8.85383C9.03011 7.0092 9.20808 7.00842 9.38841 7.00842ZM28.043 71.8943C43.4535 71.9166 55.973 59.3628 56.0002 43.8597C56.0281 28.3998 43.5327 15.8523 28.0627 15.8059C12.6731 15.7595 0.127636 28.3413 0.111156 43.8393C0.0946703 59.3138 12.5977 71.8721 28.043 71.8943ZM52.3145 43.8578C52.3151 57.3012 41.4448 68.2068 28.0436 68.2068C14.6456 68.2068 3.77284 57.291 3.78233 43.8495C3.79184 30.4175 14.6374 19.5316 28.0335 19.5081C41.4036 19.4852 52.3132 30.4258 52.3145 43.8578ZM0.1711 77.8474H55.9188V81.4682H0.1711V77.8474ZM54.0428 10.8846H55.9133V0.797363H53.9142V4.32721C53.8087 4.25229 53.7066 4.17239 53.6051 4.09291C53.3843 3.92008 53.166 3.74925 52.9216 3.636C51.5056 2.97849 49.8487 3.49356 49.1014 4.88425C48.2172 6.52867 48.2648 8.21189 49.2675 9.7921C50.2981 11.4174 52.7124 11.5319 53.9503 10.0687C53.9558 10.062 53.9693 10.0622 53.9919 10.0625C54.0055 10.0627 54.0224 10.0629 54.0428 10.0617V10.8846ZM53.986 6.80021L53.986 6.80027L53.986 6.8003L53.9861 6.80034L53.9861 6.80039C54.0119 6.94527 54.0382 7.09275 54.0701 7.24216C54.0393 7.3786 54.0124 7.51777 53.9854 7.65777C53.9241 7.97581 53.862 8.29812 53.7506 8.60233C53.5427 9.17145 53.1047 9.50021 52.4804 9.55872C51.8421 9.61849 51.3306 9.40483 50.97 8.87513C50.4864 8.16483 50.4597 7.36424 50.5745 6.55093C50.6093 6.30356 50.6886 6.05429 50.7925 5.82664C51.0955 5.16214 51.6298 4.86453 52.3536 4.88743C53.049 4.90841 53.5326 5.26007 53.7677 5.89024C53.8749 6.17639 53.9293 6.48205 53.986 6.80021ZM47.7611 8.62299C47.3593 10.207 46.1151 11.0928 44.3745 11.0826C42.0382 11.0686 40.4999 9.40514 40.6533 7.05869C40.7674 5.30616 41.6554 4.0528 43.1284 3.56445C45.4628 2.7912 47.6464 4.22895 47.8879 6.70449C47.9091 6.92287 47.9167 7.14268 47.9247 7.37516V7.37523C47.9287 7.49001 47.9327 7.60788 47.9386 7.7302H42.6917C42.6233 8.56448 43.0086 9.22327 43.6761 9.45983C44.5203 9.75932 45.4844 9.50943 45.9002 8.85064C46.0219 8.65795 46.1512 8.61536 46.3521 8.6198C46.676 8.62741 46.9998 8.62589 47.3336 8.62432C47.4741 8.62365 47.6164 8.62299 47.7611 8.62299ZM45.8685 6.42469C45.7645 5.34494 45.1516 4.81714 44.114 4.89472C43.2774 4.95768 42.6594 5.61201 42.6904 6.42469H45.8685ZM11.8364 7.75028H17.0592C17.062 7.69459 17.0658 7.64406 17.0693 7.597L17.0694 7.59682C17.0763 7.50477 17.0822 7.42598 17.0776 7.34776C17.0742 7.29132 17.0712 7.23481 17.0681 7.17828V7.17827V7.17825V7.17823V7.17821V7.1782V7.17818V7.17816V7.17814V7.17813V7.17811V7.17809V7.17808V7.17806V7.17804V7.17802V7.17801V7.17799V7.17797V7.17796V7.17794V7.17792V7.1779C17.0551 6.9365 17.0421 6.6948 17.0041 6.45687C16.632 4.12696 14.5524 2.8469 12.3175 3.56544C10.6296 4.1085 9.5863 5.86294 9.82082 7.73121C10.0027 9.1785 10.6404 10.3034 12.0519 10.8293C13.1117 11.2242 14.1943 11.1968 15.242 10.7371C16.1566 10.3358 16.639 9.57784 16.9426 8.624C16.8037 8.624 16.6675 8.62353 16.5332 8.62306H16.5332C16.1272 8.62166 15.7396 8.62032 15.3523 8.63226C15.2686 8.63481 15.1641 8.72382 15.1108 8.80141C14.6411 9.49009 13.7861 9.75653 12.9032 9.478C12.1888 9.25289 11.8104 8.6488 11.8364 7.75028ZM13.4039 4.89066C14.3724 4.87223 15.0202 5.48458 15.0119 6.42825H11.8561C11.8085 5.57043 12.4829 4.90845 13.4039 4.89066ZM35.2492 10.8847H33.2171V4.92446H32.042V3.56936H33.2178C33.2178 3.4973 33.2175 3.42936 33.2172 3.36412C33.2166 3.24109 33.2161 3.12765 33.2178 3.01421C33.2374 1.72399 33.9631 0.9094 35.2384 0.793686C35.5666 0.764061 35.8981 0.771731 36.2341 0.779505C36.3886 0.78308 36.5441 0.786678 36.7007 0.786678V2.2893C36.5475 2.31865 36.384 2.30505 36.223 2.29165C35.9131 2.26585 35.6125 2.24083 35.4127 2.52458C35.2895 2.69881 35.2585 2.93856 35.2253 3.1963C35.2096 3.31768 35.1934 3.44306 35.1668 3.56746H36.5929V4.89584H35.2492L35.2492 10.8847ZM26.5752 3.56153V1.39248L24.5514 1.39247V3.57931H23.375V4.92741H24.5596C24.5596 5.29333 24.5594 5.65655 24.5592 6.01778C24.5587 7.00243 24.5582 7.97229 24.5615 8.94182C24.5621 9.18409 24.5754 9.42828 24.6078 9.66866C24.6724 10.1532 24.9279 10.5214 25.3734 10.7147C26.1651 11.0578 26.986 10.9891 27.8011 10.921L27.8012 10.9209C27.8743 10.9148 27.9474 10.9087 28.0203 10.9029V9.35515C27.9572 9.35972 27.8967 9.3649 27.8381 9.36993C27.7086 9.38102 27.588 9.39136 27.4676 9.39266C26.7558 9.39967 26.5917 9.23942 26.5872 8.51895C26.5832 7.91098 26.5839 7.30299 26.5847 6.69501C26.585 6.45153 26.5853 6.20805 26.5853 5.96456V4.90644H28.0298V3.56153H26.5752ZM6.55879 88.6999H5.06801C4.91462 88.0965 4.53558 87.685 3.92014 87.5235C3.06319 87.299 2.22842 87.6831 1.86334 88.4958C1.48051 89.3498 1.46656 90.235 1.78981 91.11C2.09152 91.9246 2.77162 92.3468 3.62033 92.2934C4.37777 92.245 4.86201 91.7834 5.07878 90.9027C5.08881 90.8624 5.09703 90.8218 5.10698 90.7727L5.11744 90.7214H6.5873C6.58668 91.868 5.77093 93.3051 4.11662 93.5588C1.5648 93.9492 -0.222622 92.0676 0.0378902 89.4293C0.165925 88.1321 0.71482 87.0644 1.94193 86.4896C2.97318 86.0063 4.03802 86.0018 5.06864 86.5137C5.95474 86.9544 6.42188 87.7067 6.55879 88.6999ZM17.3047 95.2482H18.7175V92.821C19.5947 93.944 21.559 93.8372 22.2366 92.2951C22.5078 91.6777 22.5604 91.0361 22.4863 90.3811C22.3139 88.8575 21.2484 87.9812 19.8331 88.1771C19.3558 88.2432 18.9894 88.4982 18.656 88.9007C18.6446 88.6603 18.6364 88.4887 18.6275 88.3087H17.3047V95.2482ZM21.0862 90.5634C21.1075 90.6605 21.1283 90.7552 21.1514 90.8453C21.1301 90.9533 21.1127 91.0562 21.0959 91.1551L21.0959 91.1553C21.0602 91.3654 21.0277 91.5571 20.9683 91.74C20.799 92.2576 20.4301 92.5081 19.9028 92.512C19.3735 92.5164 18.9913 92.2741 18.8088 91.7718C18.5857 91.1594 18.5895 90.535 18.8246 89.927C19.0002 89.4724 19.345 89.2314 19.8407 89.2206C20.3325 89.2097 20.7052 89.4228 20.8909 89.8717C20.9837 90.0958 21.0364 90.3362 21.0862 90.5634ZM22.6744 5.29001C22.5924 5.28357 22.5134 5.27586 22.4364 5.26835C22.2699 5.25211 22.1129 5.23679 21.9556 5.23722C20.8831 5.2385 20.1891 5.84642 20.0496 6.91091C20.0085 7.22758 19.9926 7.54935 19.9907 7.8692C19.9852 8.594 19.986 9.31882 19.9869 10.0545V10.0548V10.0551V10.0555V10.0558V10.0561V10.0565V10.0568V10.0572V10.0575V10.0578V10.0582V10.0585V10.0589V10.0592V10.0596V10.06V10.0603C19.9872 10.3315 19.9875 10.6042 19.9875 10.8789H18.0176V3.58453H19.8918V4.83599C20.9047 3.57501 21.7293 3.16992 22.6744 3.44846L22.6744 5.29001ZM37.3411 93.4428H37.3416H37.342H37.3425H37.343H37.3434C37.4455 93.441 37.5454 93.4392 37.6419 93.4392C37.6345 93.2551 37.6262 93.0736 37.618 92.894C37.5997 92.4904 37.5817 92.0962 37.5747 91.7019C37.568 91.3061 37.5694 90.9101 37.5708 90.5141C37.5718 90.2357 37.5727 89.9574 37.5709 89.6791C37.5658 88.9682 37.2616 88.5269 36.584 88.3234C35.7531 88.0735 34.9069 88.0602 34.0804 88.3381C33.3863 88.5721 32.961 89.0541 32.9002 89.8623C32.9959 89.8623 33.0911 89.8624 33.1858 89.8626H33.1871H33.1873H33.1876H33.1878H33.188H33.1882H33.1884H33.1887H33.1889H33.1891H33.1893H33.1895H33.1897H33.19H33.1902H33.1904C33.528 89.8631 33.8599 89.8637 34.1913 89.8572C34.2369 89.8559 34.3003 89.7936 34.3244 89.7446C34.6147 89.1399 35.0723 88.9453 35.7201 89.1475C36.0174 89.2398 36.1397 89.449 36.1524 89.7415C36.165 90.0321 36.0015 90.1942 35.7423 90.2654C35.591 90.3071 35.4361 90.3344 35.2814 90.3617L35.1934 90.3774C35.0384 90.4055 34.8822 90.4294 34.726 90.4532H34.726H34.7259L34.7258 90.4533C34.3921 90.5042 34.0584 90.5551 33.7368 90.6483C33.0339 90.8517 32.7271 91.3433 32.7417 92.1013C32.7556 92.7969 33.129 93.3165 33.8034 93.4856C34.5944 93.684 35.3557 93.6071 36.037 93.106C36.0839 93.0716 36.1403 93.0513 36.1296 93.057C36.1737 93.1068 36.2135 93.1627 36.2512 93.2156C36.3267 93.3215 36.3934 93.4152 36.4687 93.4233C36.7627 93.4531 37.0605 93.4478 37.3411 93.4428ZM35.9638 91.032L36.0863 91L36.1853 90.9745C36.1735 91.0856 36.1663 91.1951 36.1593 91.3026C36.1442 91.5342 36.1297 91.7567 36.07 91.9665C35.8874 92.6049 34.8841 92.8866 34.3567 92.4739C34.0436 92.2284 34.0639 91.6714 34.4163 91.4431C34.5767 91.3388 34.7763 91.286 34.9652 91.2365C35.0744 91.2073 35.1867 91.1912 35.2991 91.1751L35.2992 91.1751L35.2993 91.1751L35.2994 91.175L35.2995 91.175L35.2996 91.175L35.2997 91.175L35.2998 91.1749L35.2999 91.1749L35.3 91.1749L35.3001 91.1749L35.3002 91.1749L35.3003 91.1748L35.3004 91.1748L35.3005 91.1748L35.3006 91.1748C35.3842 91.1628 35.4678 91.1507 35.5502 91.1334C35.6814 91.1062 35.8113 91.0721 35.9638 91.032ZM25.6141 93.5766C24.013 93.5741 22.964 92.5026 22.9647 90.8696C22.9647 89.2246 24.039 88.1302 25.6382 88.1448C27.2418 88.1594 28.2813 89.2246 28.2889 90.8607C28.2971 92.5013 27.2361 93.5792 25.6141 93.5766ZM26.9027 90.8315C26.8851 90.748 26.87 90.6608 26.8545 90.5717C26.8197 90.371 26.7831 90.1606 26.7138 89.9616C26.5433 89.4738 26.1668 89.236 25.6477 89.229C25.1039 89.2214 24.7356 89.4516 24.5391 89.9482C24.3204 90.5027 24.3249 91.0737 24.4846 91.6391C24.6481 92.2196 25.0455 92.5128 25.6179 92.5128C26.1991 92.5134 26.5927 92.2298 26.7607 91.6524C26.8107 91.4811 26.8352 91.3027 26.8615 91.111C26.8739 91.021 26.8867 90.928 26.9027 90.8315ZM7.22646 90.8757C7.22836 92.5023 8.2837 93.5744 9.88477 93.5769C11.4928 93.5795 12.5393 92.5258 12.5538 90.889C12.5678 89.2471 11.5074 88.1515 9.89808 88.1458C8.29448 88.1394 7.22393 89.2331 7.22646 90.8757ZM8.66017 91.1386L8.66016 91.1385C8.64802 91.0569 8.63613 90.977 8.62217 90.9005C8.63618 90.8088 8.64733 90.7202 8.65815 90.6342C8.68113 90.4516 8.70266 90.2804 8.74703 90.1158C8.90359 89.5352 9.29783 89.2357 9.86956 89.2293C10.4628 89.223 10.8729 89.5187 11.0333 90.1069C11.1778 90.6378 11.1848 91.1777 11.0086 91.7061C10.8279 92.2486 10.4546 92.5118 9.89491 92.5137C9.33841 92.5156 8.9505 92.2543 8.77746 91.7131C8.71772 91.5254 8.68826 91.3274 8.66017 91.1386ZM47.5306 93.5771C45.9263 93.5752 44.8843 92.5094 44.8849 90.8713C44.8856 89.2193 45.9517 88.1306 47.5528 88.1459C49.1703 88.1618 50.2123 89.2416 50.2041 90.8936C50.1952 92.5221 49.143 93.579 47.5306 93.5771ZM46.2661 90.9012C46.2804 90.9755 46.2929 91.0541 46.3058 91.1353C46.3364 91.3273 46.3692 91.5336 46.4334 91.7298C46.6077 92.2627 46.9804 92.5119 47.528 92.5138C48.0858 92.5158 48.4769 92.2512 48.6563 91.7203C48.8344 91.1937 48.835 90.6539 48.6867 90.121C48.5219 89.5258 48.1245 89.2282 47.5325 89.2288C46.9455 89.2301 46.5431 89.5372 46.3871 90.1324C46.3462 90.289 46.3256 90.451 46.303 90.629L46.303 90.6292C46.292 90.7157 46.2806 90.806 46.2661 90.9012ZM54.5233 93.4222H55.9114C55.9114 93.0412 55.9161 92.6636 55.9207 92.2886C55.9311 91.4412 55.9414 90.6069 55.8975 89.776C55.836 88.6142 55.1305 88.0749 53.97 88.1493C53.3545 88.1894 52.8741 88.4705 52.4469 89.0243V88.3147H51.1494V93.4171H52.5274C52.5274 93.2583 52.5266 93.1022 52.5259 92.9478L52.5259 92.9459V92.9455C52.5243 92.6029 52.5227 92.269 52.5293 91.9355C52.531 91.8456 52.5325 91.7556 52.534 91.6656C52.5427 91.1485 52.5514 90.6307 52.5946 90.1162C52.6262 89.7321 52.8297 89.4288 53.2309 89.3137C53.9776 89.0987 54.4752 89.444 54.5056 90.2325C54.525 90.7344 54.5238 91.2376 54.5227 91.7407C54.5222 91.9451 54.5218 92.1495 54.5227 92.3539C54.524 92.603 54.5238 92.8522 54.5235 93.1075V93.1086L54.5233 93.4222ZM39.9466 3.58486H37.9881V10.8678H39.9466V3.58486ZM29.2459 3.57459H31.2019V10.8677H29.2459V3.57459ZM40.4143 88.2889H41.4399V89.2148H40.4188V90.0306C40.4188 90.2072 40.4185 90.3837 40.4183 90.5602V90.5618C40.4177 90.959 40.4172 91.3563 40.4194 91.7539C40.4219 92.2792 40.5379 92.3879 41.0691 92.3796C41.1454 92.3788 41.2221 92.379 41.3083 92.3793L41.3133 92.3793C41.3587 92.3795 41.4068 92.3796 41.4589 92.3796C41.4589 92.4655 41.4599 92.5502 41.4609 92.634C41.4635 92.8543 41.4661 93.0685 41.45 93.2813C41.4443 93.3538 41.3258 93.4759 41.2592 93.4753C41.1877 93.4753 41.116 93.4757 41.0441 93.4761C40.654 93.4783 40.2611 93.4804 39.88 93.4187C39.314 93.3271 39.0294 92.957 39.0193 92.3726C39.0082 91.7493 39.0092 91.126 39.0101 90.5028C39.0105 90.2313 39.011 89.9599 39.0104 89.6885V89.2498H38.1737V88.2947C38.2376 88.2947 38.2995 88.2937 38.3601 88.2928C38.4931 88.2908 38.6196 88.2889 38.7454 88.2972C38.9445 88.3106 39.0199 88.2393 39.0142 88.0339C39.0052 87.7397 39.007 87.4451 39.0089 87.1435V87.1434V87.1433V87.1432V87.1431V87.143V87.1429V87.1427C39.0096 87.0171 39.0104 86.8901 39.0104 86.7615H40.4143L40.4143 88.2889ZM13.4471 93.4184H14.8327C14.8327 93.3831 14.8324 93.347 14.8322 93.3103C14.8318 93.235 14.8314 93.1572 14.8327 93.0794C14.8371 92.8359 14.8375 92.592 14.838 92.3481C14.8391 91.7849 14.8402 91.2217 14.8897 90.663C14.9626 89.8383 15.5166 89.4211 16.3405 89.4593C16.4266 89.4632 16.5127 89.4706 16.6024 89.4784L16.6026 89.4784C16.6443 89.4821 16.6868 89.4857 16.7304 89.4892V88.1767C15.8633 88.0476 15.2643 88.4495 14.7604 89.1998V88.3H13.4471V93.4184ZM30.5673 93.4234H29.1855V88.3012H30.4995V89.2099C30.9989 88.4456 31.5954 88.0564 32.4612 88.1747V89.4872C32.3993 89.4837 32.3393 89.4791 32.2804 89.4745C32.1572 89.4651 32.0393 89.456 31.9218 89.4586C31.2189 89.4757 30.7346 89.8528 30.6389 90.5517C30.5824 90.9641 30.5787 91.3839 30.5751 91.8036C30.5739 91.9481 30.5726 92.0926 30.5692 92.2368C30.5627 92.5012 30.5642 92.7659 30.5658 93.0408L30.5658 93.0413C30.5666 93.1663 30.5673 93.2933 30.5673 93.4234ZM42.5525 88.3036H43.9013V93.4238H42.5525V88.3036ZM31.1987 0.795228H29.2414V2.40786H31.1987V0.795228ZM37.9951 0.783022H39.9404V2.40965H37.9951V0.783022ZM54.2217 75.5404C53.276 75.5442 52.556 74.8161 52.5547 73.854C52.5534 72.937 53.3051 72.1962 54.228 72.2032C55.1464 72.2102 55.8912 72.9624 55.8855 73.8769C55.8804 74.8014 55.1452 75.5365 54.2217 75.5404ZM55.5794 73.8743C55.5838 73.0705 55.0051 72.4569 54.2369 72.4505C53.4503 72.4442 52.8583 73.0521 52.8539 73.8711C52.8494 74.6647 53.4376 75.2885 54.2008 75.3006C54.9791 75.3127 55.5749 74.6965 55.5794 73.8743ZM42.5379 86.3448H43.9051V87.4525H42.5379V86.3448ZM16.3691 59.8609V27.8659C16.4056 27.8638 16.4405 27.8614 16.4742 27.859L16.4744 27.8589L16.4745 27.8589C16.5442 27.854 16.6091 27.8494 16.6739 27.8494C17.8501 27.85 19.0262 27.8499 20.2023 27.8498C23.4685 27.8494 26.7344 27.8491 30.0003 27.8659C31.4873 27.8735 32.9755 27.9543 34.4328 28.2977C37.1107 28.9278 38.8791 30.6187 39.7031 33.1928C40.5543 35.8515 40.2057 38.3982 38.4437 40.6487C37.716 41.5784 36.7703 42.2416 35.6998 42.728C35.631 42.7592 35.5636 42.7931 35.4734 42.8384L35.4733 42.8385C35.4256 42.8625 35.3715 42.8897 35.3074 42.9214C35.4359 42.9575 35.5539 42.9899 35.6649 43.0205L35.6658 43.0207L35.666 43.0208C35.871 43.0772 36.0523 43.127 36.2322 43.1814C39.2657 44.106 41.2097 46.6134 41.4201 49.7966C41.5691 52.0604 41.1102 54.1551 39.8051 56.0208C38.3245 58.1377 36.2411 59.2988 33.7266 59.6982C33.0015 59.8132 32.2574 59.852 31.5215 59.8539C27.7698 59.8637 24.018 59.8626 20.2659 59.8616H20.2659C19.1015 59.8613 17.9372 59.8609 16.7728 59.8609H16.3691ZM20.6094 56.265H20.934L23.3358 56.2652C25.9408 56.2657 28.5459 56.2662 31.1514 56.2618C31.5469 56.2611 31.9462 56.2446 32.3373 56.1887C34.2794 55.9127 35.8044 55.0161 36.6771 53.1834C37.0289 52.4439 37.1849 51.6535 37.2146 50.8408C37.3065 48.3385 36.2753 46.476 33.6595 45.6474C32.5338 45.2907 31.3707 45.1978 30.2 45.1953C27.857 45.1905 25.5141 45.1915 23.1714 45.1926H23.1671H23.1669C22.4361 45.1929 21.7053 45.1932 20.9745 45.1934C20.8941 45.1934 20.814 45.1982 20.7293 45.2032L20.7284 45.2033C20.6899 45.2056 20.6504 45.208 20.6094 45.2099V56.265ZM20.6126 41.5777C20.6387 41.5806 20.6631 41.5839 20.6862 41.587L20.6863 41.587C20.7343 41.5935 20.7771 41.5993 20.8199 41.5993C21.6202 41.5986 22.4204 41.5989 23.2207 41.5991C25.4607 41.5997 27.7006 41.6003 29.9407 41.5815C30.9555 41.5732 31.9576 41.4067 32.9198 41.0563C34.351 40.5348 35.341 39.5893 35.7048 38.0739C35.9641 36.9935 35.952 35.9004 35.6979 34.8207C35.3632 33.3988 34.4885 32.4488 33.1194 31.9528C32.0267 31.5573 30.8883 31.446 29.7411 31.4403C27.5676 31.429 25.3937 31.4295 23.2201 31.4301H23.22C22.4525 31.4302 21.685 31.4304 20.9175 31.4301C20.8525 31.4301 20.7872 31.4351 20.7167 31.4405C20.6833 31.443 20.6488 31.4457 20.6126 31.4479V41.5777ZM53.8352 72.9011C53.7564 72.9014 53.6764 72.9017 53.5946 72.9017L53.5946 74.8934C53.8775 74.7834 53.877 74.5909 53.8765 74.3901C53.8762 74.2449 53.8758 74.0953 53.9825 73.9694C54.012 73.99 54.0446 74.0099 54.0783 74.0305C54.1583 74.0793 54.2441 74.1316 54.307 74.2041C54.367 74.2737 54.4144 74.3544 54.4617 74.4351C54.5099 74.5172 54.5581 74.5993 54.6195 74.6695C54.6761 74.7342 54.7578 74.777 54.8396 74.8197C54.876 74.8388 54.9124 74.8578 54.9465 74.8787C54.9649 74.8488 54.9833 74.819 55.0023 74.7891C54.9366 74.6844 54.871 74.5797 54.8053 74.4748C54.7094 74.3217 54.6132 74.1683 54.5162 74.0139C54.9415 73.8371 55.0492 73.682 54.9953 73.3494C54.9446 73.0372 54.7576 72.9094 54.3323 72.9024C54.1688 72.8998 54.0049 72.9004 53.8352 72.9011ZM54.1131 73.7772C54.0453 73.7956 53.9754 73.8145 53.9032 73.8352V73.1033C53.9707 73.1189 54.0368 73.1331 54.1017 73.1471C54.2938 73.1886 54.4748 73.2277 54.6474 73.2909C54.686 73.3049 54.6924 73.5879 54.6531 73.6044C54.4857 73.6761 54.3078 73.7243 54.1131 73.7772Z" fill="black"/>
</g>
</svg>
