<svg width="169" height="48" viewBox="0 0 169 48" fill="none" xmlns="http://www.w3.org/2000/svg">
<g id="BHF">
<mask id="mask0_7597_1166" style="mask-type:luminance" maskUnits="userSpaceOnUse" x="0" y="0" width="169" height="48">
<g id="clip0_211_25180">
<path id="Vector" d="M0.263184 0H168.363V47.4475H0.263184V0Z" fill="white"/>
</g>
</mask>
<g mask="url(#mask0_7597_1166)">
<g id="Group">
<path id="Vector_2" d="M49.8146 36.3246C48.5999 36.2365 48.9253 33.3463 46.355 33.6662C44.533 33.8872 44.3378 36.0928 44.186 37.8145C44.0016 39.7354 43.7847 41.3676 43.2316 41.125C42.6785 40.8823 42.8846 40.0215 42.6785 37.34C42.4507 34.2722 41.7133 32.5844 39.913 32.2862C37.7439 31.9337 36.8655 35.3093 36.4859 36.6242C36.1063 37.9365 35.4014 38.5221 35.0218 38.5221C34.6422 38.5221 34.0458 38.3445 33.8722 36.8005C33.6987 35.255 34.9567 32.5953 36.6811 30.7313C41.8868 25.1474 49.3699 21.2079 49.3699 12.5792C49.3591 4.41414 43.6437 0.0991211 38.2971 0.0991211C36.9591 0.103467 35.6372 0.391312 34.4186 0.943687C33.1939 1.49935 32.0994 2.30569 31.2057 3.31064C29.9354 4.57952 29.3932 6.00295 28.9052 6.00295C28.4171 6.00295 27.8857 4.57952 26.6277 3.31064C25.7334 2.30666 24.639 1.50086 23.4148 0.945043C22.1956 0.392601 20.8734 0.104316 19.5349 0.0991211C14.2317 0.0991211 8.47289 4.40329 8.47289 12.5575C8.47289 21.1862 15.9452 25.1243 21.1617 30.7096C22.8861 32.5736 24.1116 35.2211 23.9706 36.7774C23.8296 38.3337 23.1789 38.3771 22.8861 38.3662C22.5933 38.3554 21.8992 38.068 21.4003 36.1592C20.9014 34.2505 20.3809 32.8488 18.483 32.7159C16.3682 32.5844 15.8151 35.5411 15.6307 37.8918C15.4789 39.9117 15.4246 43.7075 14.6763 43.4092C14.2425 43.2208 14.0256 38.8746 13.6677 35.5411C13.3966 32.9599 13.0604 27.4425 11.5854 26.461C9.796 25.268 8.22345 26.6033 7.73542 28.7222C7.36668 30.3002 7.31246 31.6138 6.84612 33.7313C6.49907 35.3106 6.10865 36.3043 4.60117 36.3043H0.360718V38.6225H1.34763C6.83527 38.8529 8.37528 38.2795 9.03684 35.7634C9.44353 33.9428 9.7594 32.1005 9.98037 30.2459C10.1756 29.1438 10.8371 28.6029 11.13 31.6477C11.2709 33.1592 11.4119 35.091 11.6397 37.0431C12.3121 42.8046 12.4856 46.7875 14.9583 46.9746C17.7021 47.2186 17.7238 42.0861 17.9082 40.0567C18.0166 38.7648 18.1793 35.0802 18.8192 35.4774C19.7085 36.0169 19.3723 40.6519 23.591 40.8389C26.0095 40.9609 26.8988 39.0956 27.0615 37.0214C27.2242 34.9473 25.3805 32.1777 22.8861 29.6833C16.8779 23.6697 12.7025 20.5693 12.7025 13.9484C12.7025 7.32877 17.3334 3.81901 21.3786 3.81901C22.2679 3.81901 25.0009 3.66446 28.2978 9.09382C28.3613 9.20488 28.4528 9.29737 28.5632 9.36207C28.6735 9.42677 28.7989 9.46141 28.9268 9.46255C29.0551 9.46295 29.1811 9.42895 29.2917 9.36409C29.4023 9.29924 29.4936 9.20591 29.5559 9.09382C32.8094 3.66446 35.5749 3.82036 36.4751 3.82036C40.5203 3.82036 45.1512 7.12949 45.1512 13.9484C45.1512 20.7673 40.9324 23.5368 34.9676 29.5505C32.4841 32.0449 30.7814 35.068 30.8247 37.054C30.8681 39.04 31.9093 40.9921 34.2952 40.8715C38.373 40.683 38.1452 37.2844 38.9803 35.4421C39.4358 34.4606 40.0648 34.4606 40.1624 35.9396C40.26 37.4173 40.3143 37.9365 40.4769 39.5145C40.6721 41.5439 41.3879 43.8281 43.1882 43.6519C44.7391 43.4973 45.6284 42.5484 45.9212 39.6026C45.9971 38.7526 46.0622 38.3662 46.1706 37.1312C46.2357 36.425 46.4418 35.8949 46.7454 36.0278C47.0491 36.1592 47.3311 36.8547 47.5371 37.34C47.7608 37.7982 48.116 38.1764 48.5566 38.4245C48.9958 38.6726 49.4987 38.7797 49.999 38.7309H56.3542V36.4128C53.8707 36.4128 50.5846 36.4128 49.8471 36.3368M71.6784 6.05718C74.3138 6.05718 75.8213 7.59041 75.8213 9.3663C75.879 10.0009 75.6955 10.634 75.3075 11.1395C74.9211 11.6411 74.3585 11.9746 73.739 12.0708C73.316 12.1928 73.2727 12.6768 73.739 12.7541C74.4955 12.845 75.1859 13.2297 75.6613 13.825C76.1425 14.425 76.3745 15.187 76.3093 15.9534C76.3093 18.0289 74.4222 19.4198 72.1773 19.4198H66.1474V6.05853L71.6784 6.05718ZM68.5876 17.29H71.8411C73.0666 17.29 73.7715 16.7383 73.7715 15.6782C73.7715 14.3768 72.5677 14.1666 71.6676 13.7369C71.4243 13.646 71.215 13.4822 71.0684 13.2678C70.9584 13.1069 70.8861 12.9232 70.857 12.7304C70.8279 12.5377 70.8427 12.3408 70.9003 12.1546C70.9579 11.9683 71.0568 11.7975 71.1897 11.6548C71.3225 11.5122 71.4859 11.4013 71.6676 11.3306C72.4159 11.0107 73.3052 10.8019 73.3269 9.63201C73.3269 8.71559 72.6762 8.13131 71.5374 8.13131H68.5876V17.29ZM79.9316 10.2949V11.3089C80.2571 10.8988 80.6789 10.5755 81.1594 10.3676C81.64 10.1597 82.1645 10.0737 82.6862 10.1173V12.3907C80.9836 12.3907 80.1376 13.1852 80.1376 14.5977V19.4198H77.6758V10.2949H79.9316ZM83.7708 7.83307C83.7702 7.44434 83.9215 7.07076 84.1924 6.79194C84.4635 6.51403 84.8295 6.35813 85.2132 6.35406C85.5995 6.35406 85.9683 6.50996 86.2408 6.78787C86.5148 7.06674 86.6684 7.44208 86.6684 7.83307C86.6684 8.22405 86.5148 8.5994 86.2408 8.87827C85.9696 9.15618 85.5995 9.31208 85.2132 9.31208C85.0225 9.31025 84.8341 9.27061 84.6589 9.19545C84.4837 9.12028 84.3251 9.01109 84.1924 8.8742C83.922 8.59516 83.7712 8.22161 83.7721 7.83307H83.7708ZM86.3845 10.2936V19.375H83.9226V10.2949L86.3845 10.2936ZM94.6159 17.8187C94.3886 18.3494 94.0082 18.8002 93.5233 19.1134C93.0393 19.4252 92.4767 19.5811 91.9046 19.5621C91.5387 19.5987 91.1692 19.5523 90.8237 19.4262C90.4782 19.3002 90.1655 19.0978 89.9091 18.8341C89.6498 18.5677 89.4515 18.2481 89.3279 17.8974C89.2044 17.5468 89.1584 17.1735 89.1933 16.8034V12.3365H87.7184V10.2949H89.1933V7.26099H91.601V10.2949H93.6399V12.3365H91.6227V16.8169C91.6227 17.2914 91.8287 17.5219 92.1432 17.5219C92.4577 17.5219 92.6638 17.3239 92.9458 16.8047L93.1844 16.3424L94.8437 17.2914L94.6159 17.8201V17.8187ZM95.592 7.83307C95.5914 7.44434 95.7427 7.07076 96.0136 6.79194C96.2847 6.51403 96.6507 6.35813 97.0344 6.35406C97.4207 6.35406 97.7895 6.50996 98.062 6.78787C98.336 7.06674 98.4896 7.44208 98.4896 7.83307C98.4896 8.22405 98.336 8.5994 98.062 8.87827C97.7908 9.15618 97.4207 9.31208 97.0344 9.31208C96.8437 9.31025 96.6553 9.27061 96.4801 9.19545C96.3049 9.12028 96.1463 9.01109 96.0136 8.8742C95.7432 8.59516 95.5911 8.22161 95.592 7.83307ZM98.2057 10.2936V19.375H95.7872V10.2949L98.2057 10.2936ZM102.262 16.7817C102.262 17.2561 102.804 17.5002 103.617 17.5002C104.431 17.5002 104.886 17.2345 104.886 16.7383C104.886 15.06 100.255 16.1743 100.255 12.9194C100.255 11.2764 101.633 10.1607 103.932 10.1607C104.533 10.1334 105.132 10.2331 105.692 10.4535C106.251 10.6745 106.76 11.0093 107.185 11.4418L105.982 12.9425C105.449 12.4095 104.728 12.108 103.975 12.1033C103.064 12.1033 102.706 12.4233 102.706 12.8313C102.706 14.2439 107.359 13.4495 107.359 16.6271C107.359 18.403 105.906 19.5187 103.585 19.5187C101.416 19.5187 99.8975 18.5806 99.8975 17.0243C99.9062 16.5429 100.049 16.0735 100.31 15.6687L102.414 16.3845C102.333 16.5036 102.282 16.6395 102.262 16.7817ZM117.196 13.5281C117.196 14.2778 117.011 15.2484 117.011 16.4726C117.007 17.452 117.131 18.4278 117.38 19.375H114.961C114.714 18.4538 114.59 17.5038 114.593 16.5499C114.593 15.4464 114.755 14.6086 114.755 13.9579C114.791 13.7214 114.773 13.4799 114.7 13.2519C114.628 13.0239 114.505 12.8155 114.339 12.6429C114.174 12.4736 113.972 12.3455 113.749 12.269C113.525 12.1924 113.287 12.1696 113.053 12.2023C112.764 12.1744 112.473 12.2133 112.201 12.316C111.93 12.4187 111.686 12.5825 111.488 12.7947C111.286 13.0078 111.135 13.2636 111.045 13.543C110.956 13.8225 110.93 14.1186 110.97 14.4093V19.4306H108.552V5.77113H110.938V11.2886C111.273 10.8967 111.694 10.5867 112.168 10.3821C112.641 10.1774 113.155 10.0836 113.671 10.1078C114.13 10.0672 114.593 10.1282 115.026 10.2841C115.463 10.4429 115.86 10.6921 116.193 11.0155C116.526 11.3388 116.787 11.729 116.958 12.1603C117.132 12.5941 117.213 13.0591 117.196 13.5281ZM134.483 6.05718V19.375H132.01V13.4509H130.405C127.542 13.4509 126.132 14.8743 126.132 17.2561V19.375H123.648V6.05853H126.132V12.9764C126.758 12.4082 127.491 11.9702 128.288 11.6878C129.084 11.4055 129.93 11.2846 130.774 11.332H131.999V6.05989H134.483V6.05718ZM144.265 18.1834C143.755 18.6731 143.148 19.0493 142.482 19.2872C141.817 19.525 141.109 19.6192 140.404 19.5635C139.782 19.6154 139.157 19.5302 138.571 19.314C137.983 19.0971 137.449 18.7548 137.006 18.3108C136.56 17.8614 136.216 17.3228 135.994 16.7304C135.772 16.1381 135.679 15.5055 135.719 14.8743C135.699 14.2345 135.812 13.5975 136.05 13.0032C136.287 12.4089 136.645 11.87 137.1 11.4201C137.549 10.9734 138.086 10.6266 138.678 10.4023C139.27 10.178 139.903 10.0814 140.534 10.1187C142.942 10.1173 144.048 11.5624 144.048 13.0523C144.048 15.5358 141.055 16.3628 138.278 16.3628C138.593 17.1016 139.244 17.4663 140.448 17.4663C141.407 17.4832 142.341 17.1584 143.083 16.5499L144.265 18.1834ZM137.997 14.6411C140.241 14.6411 141.673 14.2778 141.673 13.1635C141.673 12.5778 141.283 12.1467 140.372 12.1467C140.052 12.1418 139.735 12.2037 139.44 12.3284C139.143 12.454 138.875 12.6394 138.652 12.8731C138.429 13.1068 138.257 13.3837 138.146 13.6867C138.033 13.9917 137.982 14.3162 137.997 14.6411ZM151.705 19.375C151.578 18.9672 151.465 18.5548 151.369 18.1387C151.015 18.6093 150.551 18.9859 150.018 19.2354C149.488 19.483 148.905 19.5952 148.321 19.5621C146.326 19.5621 145.154 18.4044 145.154 16.7383C145.154 15.0709 146.239 14.0785 149.134 14.0134C149.991 14.0134 150.87 13.9579 150.87 13.2407C150.87 12.5222 150.36 12.224 149.286 12.224C148.901 12.1934 148.514 12.2635 148.164 12.4273C147.811 12.5929 147.507 12.8459 147.28 13.1621L145.415 11.9935C145.841 11.372 146.42 10.8714 147.097 10.5403C147.77 10.212 148.518 10.0661 149.265 10.1173C151.683 10.1173 153.288 11.3089 153.299 13.924C153.221 15.7634 153.437 17.6035 153.939 19.375H151.705ZM151.087 16.5499C151.087 16.1974 151.087 15.7893 151 15.3813C150.481 15.5588 149.931 15.6298 149.384 15.5901C148.668 15.5901 147.562 15.7012 147.562 16.7925C147.561 16.9456 147.592 17.0972 147.652 17.2379C147.713 17.3786 147.801 17.5052 147.913 17.61C148.024 17.7129 148.155 17.7914 148.298 17.8407C148.441 17.89 148.593 17.9088 148.744 17.896C149.21 17.8689 149.663 17.7333 150.07 17.5002C150.475 17.267 150.824 16.9403 151.087 16.5499ZM157.431 10.2936V11.3089C157.755 10.9022 158.171 10.5823 158.643 10.3735C159.114 10.1661 159.629 10.0776 160.142 10.116V12.3907C158.44 12.3907 157.605 13.1852 157.605 14.5977V19.4198H155.186V10.2949L157.431 10.2936ZM167.864 17.8187C167.637 18.3494 167.256 18.8002 166.771 19.1134C166.287 19.4252 165.725 19.5811 165.153 19.5621C164.792 19.5895 164.429 19.5367 164.091 19.4076C163.75 19.2768 163.442 19.0729 163.188 18.8101C162.934 18.5473 162.741 18.232 162.622 17.8865C162.499 17.5394 162.453 17.1701 162.485 16.8034V12.3365H160.999V10.2949H162.485V7.26099H164.903V10.2949H166.91V12.3365H164.903V16.8169C164.903 17.2914 165.109 17.5219 165.424 17.5219C165.738 17.5219 165.944 17.3239 166.226 16.8047L166.465 16.3424L168.124 17.2914L167.864 17.8201V17.8187ZM68.5876 27.4316V31.5365C69.5384 30.8752 70.6854 30.5559 71.8411 30.6309H73.6089V32.7281H71.4398C69.4986 32.7281 68.6526 33.5998 68.6526 35.0341V38.6197H66.1474V25.3792H74.3355V27.475L68.5876 27.4316ZM74.5958 34.1407C74.5605 33.1728 74.8103 32.2158 75.3143 31.3887C75.8145 30.5681 76.5486 29.9156 77.4223 29.5152C78.2903 29.118 79.2583 28.9932 80.1986 29.1573C81.1381 29.3214 82.0084 29.7674 82.6971 30.4371C83.3888 31.1108 83.8661 31.9739 84.069 32.9179C84.2724 33.8669 84.1951 34.8538 83.844 35.7566C83.4964 36.6554 82.8896 37.4306 82.1006 37.9839C81.3181 38.5321 80.3881 38.8307 79.4327 38.8407C78.8043 38.8854 78.1736 38.7962 77.5823 38.5791C76.9883 38.3607 76.447 38.0198 75.9934 37.5786C75.5366 37.134 75.177 36.5995 74.9374 36.0088C74.6968 35.416 74.5805 34.7802 74.5958 34.1407ZM81.7319 34.1407C81.7319 32.4733 80.8643 31.4701 79.3893 31.4701C79.0449 31.4547 78.7015 31.5181 78.3853 31.6556C78.069 31.793 77.7884 32.0008 77.5646 32.2631C77.3361 32.5268 77.1692 32.8381 77.0758 33.1743C76.9825 33.5106 76.9652 33.8634 77.0251 34.2071C76.9938 34.54 77.0313 34.8757 77.135 35.1936C77.2388 35.5114 77.4067 35.8046 77.6283 36.0549C77.8469 36.3038 78.1161 36.5033 78.4179 36.6399C78.7197 36.7765 79.0472 36.8472 79.3785 36.8472C79.7098 36.8472 80.0373 36.7765 80.3391 36.6399C80.6409 36.5033 80.91 36.3038 81.1286 36.0549C81.3517 35.8054 81.5204 35.5124 81.6243 35.1943C81.7281 34.8763 81.7648 34.5401 81.7319 34.2071V34.1407ZM85.3433 35.4096C85.3433 34.6586 85.5277 33.6771 85.5277 32.4855C85.5342 31.5019 85.4102 30.5218 85.159 29.5708H87.5774C87.8269 30.4954 87.9516 31.4497 87.9462 32.4082C87.9462 33.5117 87.7726 34.3386 87.7726 34.9785C87.7726 36.082 88.2823 36.7327 89.3777 36.7327C89.661 36.7622 89.9472 36.7274 90.2151 36.6306C90.483 36.5339 90.7255 36.3779 90.9245 36.1742C91.127 35.9695 91.282 35.7228 91.3783 35.4514C91.4746 35.1801 91.5099 34.8909 91.4817 34.6043V29.5722H93.9001V38.6197H91.6443V37.6274C91.262 38.0246 90.8 38.3364 90.2887 38.5425C89.779 38.7485 89.2313 38.8421 88.6836 38.819C88.2363 38.8435 87.7889 38.7717 87.3717 38.6084C86.9545 38.4452 86.5771 38.1943 86.2652 37.8728C85.95 37.5479 85.7055 37.1614 85.5468 36.7375C85.3882 36.3136 85.3189 35.8615 85.3433 35.4096ZM104.29 32.8054C104.29 33.5551 104.105 34.5271 104.105 35.7512C104.101 36.7302 104.225 37.7055 104.474 38.6523H102.056C101.808 37.7315 101.684 36.7819 101.687 35.8285C101.687 34.725 101.85 33.8763 101.85 33.2351C101.885 33 101.866 32.7599 101.794 32.5331C101.723 32.3064 101.6 32.0991 101.436 31.9269C101.273 31.7579 101.072 31.6295 100.85 31.552C100.628 31.4746 100.391 31.4502 100.158 31.4809C99.8742 31.4543 99.5882 31.4921 99.3212 31.5917C99.0543 31.6912 98.8133 31.8498 98.6164 32.0557C98.4159 32.2626 98.2634 32.5111 98.1699 32.7836C98.0764 33.0561 98.0442 33.3459 98.0755 33.6323V38.6211H95.7004V29.5722H97.8695V30.5659C98.2462 30.1919 98.693 29.8961 99.1843 29.6953C99.6757 29.4946 100.202 29.3928 100.733 29.3959C101.193 29.3514 101.658 29.4074 102.095 29.56C102.533 29.7132 102.933 29.9585 103.269 30.2812C103.606 30.6073 103.87 31.0002 104.046 31.4347C104.222 31.8692 104.305 32.3369 104.29 32.8054ZM113.053 38.6211C112.934 38.225 112.854 37.8182 112.814 37.4064C112.467 37.8767 112.01 38.2551 111.483 38.5086C110.958 38.7601 110.38 38.8779 109.799 38.8516C109.203 38.8528 108.613 38.7295 108.067 38.4896C107.518 38.2477 107.025 37.8946 106.619 37.4525C106.211 37.0076 105.898 36.484 105.7 35.9139C105.5 35.3414 105.419 34.7345 105.461 34.1298C105.445 33.5153 105.55 32.9035 105.77 32.3296C105.989 31.7583 106.32 31.2362 106.742 30.7936C107.16 30.3538 107.663 30.0031 108.22 29.7627C108.777 29.5223 109.377 29.397 109.983 29.3946C110.82 29.3698 111.632 29.6713 112.25 30.2351V25.0484H114.701V32.6712C114.679 34.6837 114.897 36.6916 115.352 38.6523L113.053 38.6184V38.6211ZM112.359 34.0743C112.359 32.3865 111.469 31.4484 110.092 31.4484C108.715 31.4484 107.847 32.3865 107.847 34.0743C107.847 35.762 108.715 36.7001 110.092 36.7001C111.469 36.7001 112.391 35.8054 112.391 34.1068L112.359 34.0743ZM123.009 38.6197C122.88 38.2137 122.771 37.8015 122.683 37.3848C122.327 37.8548 121.862 38.2308 121.328 38.4801C120.796 38.7283 120.211 38.841 119.625 38.8082C117.64 38.8082 116.469 37.6491 116.469 35.983C116.469 34.3156 117.553 33.3232 120.449 33.2582C121.306 33.2582 122.173 33.2026 122.173 32.4855C122.173 31.767 121.675 31.4592 120.601 31.4592C120.213 31.4313 119.825 31.5036 119.473 31.6694C119.121 31.8347 118.814 32.0896 118.584 32.4082L116.729 31.2383C117.158 30.6147 117.738 30.1131 118.412 29.785C119.085 29.4564 119.833 29.3105 120.581 29.3621C122.998 29.3621 124.593 30.555 124.614 33.1687C124.532 35.0097 124.745 36.8493 125.243 38.6197H123.009ZM122.401 35.7404C122.401 35.3757 122.347 34.9785 122.304 34.5704C121.785 34.7509 121.234 34.8188 120.688 34.7697C119.983 34.7697 118.866 34.8917 118.866 35.983C118.865 36.137 118.896 36.2895 118.958 36.4309C119.019 36.5722 119.108 36.6994 119.221 36.8045C119.333 36.9079 119.465 36.9865 119.61 37.0351C119.754 37.0837 119.907 37.1012 120.059 37.0865C120.522 37.0631 120.974 36.9327 121.379 36.7056C121.786 36.4778 122.135 36.1592 122.401 35.7729V35.7404ZM132.921 37.0974C132.694 37.628 132.313 38.0788 131.828 38.392C131.347 38.7017 130.782 38.8582 130.21 38.8407C129.847 38.8688 129.482 38.8156 129.143 38.685C128.803 38.5543 128.497 38.3496 128.247 38.0856C127.992 37.8203 127.798 37.5027 127.678 37.1548C127.558 36.807 127.515 36.4372 127.553 36.0711V31.6572H126.067V29.5722H127.553V26.5382H129.971V29.5722H131.977V31.6138H129.971V36.0928C129.971 36.5673 130.177 36.7883 130.492 36.7883C130.806 36.7883 131.012 36.6012 131.283 36.0711L131.533 35.6183L133.181 36.5673L132.921 37.0974ZM133.93 27.113C133.93 26.7199 134.083 26.3444 134.355 26.0678C134.628 25.7899 134.998 25.634 135.383 25.634C135.584 25.6161 135.787 25.6411 135.978 25.7072C136.169 25.7733 136.343 25.8791 136.49 26.0177C136.64 26.1567 136.76 26.3254 136.841 26.513C136.922 26.7007 136.963 26.9032 136.962 27.1076C136.962 27.3119 136.92 27.5139 136.839 27.7014C136.758 27.8888 136.639 28.0577 136.49 28.1975C136.343 28.3356 136.168 28.4411 135.977 28.507C135.787 28.5728 135.584 28.5977 135.383 28.5798C134.999 28.5798 134.632 28.4267 134.359 28.1515C134.086 27.8746 133.932 27.502 133.93 27.113ZM136.554 29.5735V38.6211H134.136V29.5735H136.554ZM138.192 34.142C138.159 33.1752 138.411 32.2201 138.917 31.3955C139.418 30.5772 140.153 29.9276 141.026 29.5302C141.895 29.1364 142.862 29.0154 143.8 29.1831C144.741 29.3523 145.609 29.8016 146.29 30.4723C146.978 31.1485 147.451 32.013 147.649 32.9572C147.848 33.9046 147.765 34.8898 147.41 35.7905C147.058 36.686 146.447 37.4565 145.656 38.0043C144.871 38.547 143.94 38.8391 142.985 38.8421C142.36 38.8804 141.735 38.7867 141.148 38.5669C140.56 38.3452 140.024 38.003 139.574 37.5623C139.123 37.1184 138.768 36.5863 138.531 35.9993C138.293 35.4096 138.177 34.7777 138.192 34.142ZM145.328 34.142C145.328 32.4746 144.449 31.4714 142.985 31.4714C142.642 31.4566 142.3 31.5201 141.985 31.6572C141.668 31.7974 141.386 32.0062 141.159 32.2685C140.932 32.5308 140.767 32.8401 140.674 33.1741C140.581 33.5108 140.562 33.864 140.621 34.2085C140.589 34.5414 140.626 34.8773 140.73 35.1952C140.834 35.5132 141.002 35.8063 141.224 36.0562C141.443 36.3044 141.713 36.5031 142.014 36.6393C142.316 36.7754 142.643 36.8458 142.974 36.8458C143.305 36.8458 143.633 36.7754 143.934 36.6393C144.236 36.5031 144.506 36.3044 144.725 36.0562C144.947 35.8067 145.116 35.5136 145.22 35.1956C145.324 34.8775 145.36 34.5414 145.328 34.2085V34.142ZM158.006 32.8067C158.006 33.5564 157.821 34.5284 157.821 35.7526C157.818 36.7315 157.942 37.7067 158.19 38.6536H155.772C155.529 37.7318 155.405 36.7829 155.403 35.8298C155.403 34.7263 155.577 33.8777 155.577 33.2365C155.613 33.0013 155.594 32.761 155.522 32.5341C155.451 32.3073 155.328 32.1 155.163 31.9283C155 31.7588 154.799 31.6301 154.577 31.5526C154.355 31.4751 154.118 31.451 153.885 31.4823C153.601 31.4557 153.315 31.4936 153.048 31.5932C152.781 31.6927 152.54 31.8513 152.343 32.0571C152.143 32.2639 151.99 32.5124 151.897 32.7849C151.803 33.0575 151.771 33.3473 151.802 33.6337V38.6225H149.384V29.5735H151.629V30.5672C152.006 30.1933 152.452 29.8975 152.944 29.6968C153.435 29.496 153.961 29.3942 154.492 29.3973C154.95 29.3592 155.412 29.4202 155.844 29.5762C156.277 29.7323 156.671 29.9796 157 30.3015C157.333 30.6262 157.594 31.0167 157.767 31.448C157.94 31.8794 158.022 32.3422 158.006 32.8067Z" fill="black"/>
</g>
</g>
</g>
</svg>
