<svg width="39" height="40" viewBox="0 0 39 40" fill="none" xmlns="http://www.w3.org/2000/svg">
<circle cx="19.4314" cy="19.6494" r="19.3789" fill="black"/>
<path d="M19.4315 14.7824V27.4491M19.4315 14.7824H16.485C16.0509 14.7824 15.6346 14.6156 15.3276 14.3186C15.0206 14.0217 14.8481 13.619 14.8481 13.1991C14.8481 12.7791 15.0206 12.3764 15.3276 12.0795C15.6346 11.7825 16.0509 11.6157 16.485 11.6157C18.7767 11.6157 19.4315 14.7824 19.4315 14.7824ZM19.4315 14.7824H22.3779C22.812 14.7824 23.2284 14.6156 23.5354 14.3186C23.8424 14.0217 24.0148 13.619 24.0148 13.1991C24.0148 12.7791 23.8424 12.3764 23.5354 12.0795C23.2284 11.7825 22.812 11.6157 22.3779 11.6157C20.0862 11.6157 19.4315 14.7824 19.4315 14.7824ZM26.0981 18.7407V24.9157C26.0981 25.8025 26.0981 26.2458 25.9165 26.5845C25.7567 26.8825 25.5017 27.1247 25.1881 27.2765C24.8316 27.4491 24.3649 27.4491 23.4315 27.4491L15.4315 27.4491C14.4981 27.4491 14.0313 27.4491 13.6748 27.2765C13.3612 27.1247 13.1063 26.8825 12.9465 26.5845C12.7648 26.2458 12.7648 25.8025 12.7648 24.9157V18.7407M11.0981 16.0491L11.0981 17.4741C11.0981 17.9174 11.0981 18.1391 11.189 18.3085C11.2689 18.4574 11.3964 18.5785 11.5532 18.6544C11.7314 18.7407 11.9648 18.7407 12.4315 18.7407L26.4315 18.7407C26.8982 18.7407 27.1315 18.7407 27.3098 18.6544C27.4666 18.5785 27.5941 18.4574 27.674 18.3085C27.7648 18.1391 27.7648 17.9174 27.7648 17.4741V16.0491C27.7648 15.6057 27.7648 15.384 27.674 15.2146C27.5941 15.0657 27.4666 14.9446 27.3098 14.8687C27.1315 14.7824 26.8982 14.7824 26.4315 14.7824L12.4315 14.7824C11.9648 14.7824 11.7314 14.7824 11.5532 14.8687C11.3964 14.9446 11.2689 15.0657 11.189 15.2146C11.0981 15.384 11.0981 15.6057 11.0981 16.0491Z" stroke="white" stroke-linecap="round" stroke-linejoin="round"/>
</svg>
