<svg width="32" height="36" viewBox="0 0 32 36" fill="none" xmlns="http://www.w3.org/2000/svg">
<path d="M2.769 36C2.021 36 1.3725 35.7255 0.8235 35.1765C0.2745 34.6275 0 33.979 0 33.231V10.5385C0 9.7905 0.2745 9.142 0.8235 8.593C1.3725 8.04367 2.021 7.769 2.769 7.769H8.231C8.231 5.605 8.96867 3.76917 10.444 2.2615C11.9197 0.753832 13.7397 0 15.904 0C18.095 0 19.9537 0.75 21.48 2.25C23.006 3.75 23.769 5.58967 23.769 7.769H29.231C29.979 7.769 30.6275 8.04367 31.1765 8.593C31.7255 9.142 32 9.7905 32 10.5385V33.231C32 33.979 31.7255 34.6275 31.1765 35.1765C30.6275 35.7255 29.979 36 29.231 36H2.769ZM2.769 34.4615H29.231C29.5387 34.4615 29.8207 34.3333 30.077 34.077C30.3333 33.8207 30.4615 33.5387 30.4615 33.231V10.5385C30.4615 10.2308 30.3333 9.94883 30.077 9.6925C29.8207 9.43583 29.5387 9.3075 29.231 9.3075H2.769C2.46133 9.3075 2.17933 9.43583 1.923 9.6925C1.66667 9.94883 1.5385 10.2308 1.5385 10.5385V33.231C1.5385 33.5387 1.66667 33.8207 1.923 34.077C2.17933 34.3333 2.46133 34.4615 2.769 34.4615ZM9.769 7.769H22.231C22.231 6.03833 21.6252 4.56733 20.4135 3.356C19.2018 2.14433 17.7307 1.5385 16 1.5385C14.2693 1.5385 12.7982 2.14433 11.5865 3.356C10.3748 4.56733 9.769 6.03833 9.769 7.769Z" fill="white"/>
</svg>
