<svg width="29" height="29" viewBox="0 0 29 29" fill="none" xmlns="http://www.w3.org/2000/svg">
<g id="Frame">
<path id="Vector" d="M25.0659 9.8742L11.5678 23.3723C11.3887 23.5516 11.176 23.6938 10.9419 23.7908C10.7078 23.8879 10.4569 23.9378 10.2035 23.9378C9.95011 23.9378 9.69918 23.8879 9.46509 23.7908C9.231 23.6938 9.01833 23.5516 8.83924 23.3723L3.05436 17.5874C2.69253 17.2256 2.48926 16.7348 2.48926 16.2231C2.48926 15.7114 2.69253 15.2207 3.05436 14.8588C3.41618 14.497 3.90693 14.2938 4.41863 14.2938C4.93033 14.2938 5.42107 14.497 5.7829 14.8588L10.2035 19.2819L22.3373 7.14566C22.5165 6.96651 22.7292 6.82439 22.9632 6.72743C23.1973 6.63047 23.4482 6.58057 23.7016 6.58057C23.955 6.58057 24.2058 6.63047 24.4399 6.72743C24.674 6.82439 24.8867 6.96651 25.0659 7.14566C25.245 7.32482 25.3871 7.53751 25.4841 7.7716C25.5811 8.00568 25.631 8.25657 25.631 8.50993C25.631 8.7633 25.5811 9.01419 25.4841 9.24827C25.3871 9.48235 25.245 9.69505 25.0659 9.8742Z" fill="black"/>
</g>
</svg>
