<svg width="28" height="29" viewBox="0 0 28 29" fill="none" xmlns="http://www.w3.org/2000/svg">
<g id="Frame">
<path id="Vector" d="M22.4384 20.7235C22.605 20.89 22.7371 21.0878 22.8272 21.3054C22.9173 21.523 22.9637 21.7562 22.9637 21.9917C22.9637 22.2273 22.9173 22.4605 22.8272 22.6781C22.7371 22.8957 22.605 23.0934 22.4384 23.26C22.2719 23.4265 22.0742 23.5586 21.8566 23.6487C21.639 23.7389 21.4057 23.7853 21.1702 23.7853C20.9347 23.7853 20.7014 23.7389 20.4838 23.6487C20.2662 23.5586 20.0685 23.4265 19.902 23.26L14 17.3557L8.09803 23.26C7.93148 23.4265 7.73376 23.5586 7.51616 23.6487C7.29856 23.7389 7.06533 23.7853 6.8298 23.7853C6.59427 23.7853 6.36104 23.7389 6.14344 23.6487C5.92584 23.5586 5.72812 23.4265 5.56157 23.26C5.39502 23.0934 5.26291 22.8957 5.17278 22.6781C5.08265 22.4605 5.03625 22.2273 5.03625 21.9917C5.03625 21.7562 5.08265 21.523 5.17278 21.3054C5.26291 21.0878 5.39502 20.89 5.56157 20.7235L11.4658 14.8215L5.56157 8.91956C5.22522 8.58321 5.03625 8.12701 5.03625 7.65133C5.03625 7.17566 5.22522 6.71946 5.56157 6.3831C5.89793 6.04675 6.35412 5.85779 6.8298 5.85779C7.30548 5.85779 7.76168 6.04675 8.09803 6.3831L14 12.2873L19.902 6.3831C20.0685 6.21656 20.2662 6.08445 20.4838 5.99431C20.7014 5.90418 20.9347 5.85779 21.1702 5.85779C21.4057 5.85779 21.639 5.90418 21.8566 5.99431C22.0742 6.08445 22.2719 6.21656 22.4384 6.3831C22.605 6.54965 22.7371 6.74737 22.8272 6.96497C22.9173 7.18258 22.9637 7.4158 22.9637 7.65133C22.9637 7.88687 22.9173 8.12009 22.8272 8.33769C22.7371 8.5553 22.605 8.75302 22.4384 8.91956L16.5342 14.8215L22.4384 20.7235Z" fill="#EE3124"/>
</g>
</svg>
