<svg width="126" height="52" viewBox="0 0 126 52" fill="none" xmlns="http://www.w3.org/2000/svg">
<g id="Group 1647">
<path id="Vector" d="M109.959 28.7813C109.959 20.0331 105.776 19.526 101.713 19.526L96.1507 19.5261C95.8345 19.5262 95.5781 19.7825 95.5781 20.0987V50.6588C95.5781 50.975 95.8345 51.2314 96.1507 51.2314H101.141C101.457 51.2314 101.713 50.975 101.713 50.6588V38.6909C103.124 38.6909 103.661 38.7134 103.661 41.8427V50.6588C103.661 50.975 103.917 51.2314 104.233 51.2314H109.223C109.539 51.2314 109.796 50.975 109.796 50.6588V42.4332C109.796 38.1266 108.368 36.4481 106.296 35.794C108.514 35.0991 109.959 33.3209 109.959 28.7813ZM101.713 33.5171V24.6999C103.124 24.6999 103.661 24.7861 103.661 28.904C103.661 33.0218 103.281 33.5171 101.713 33.5171Z" fill="black"/>
<path id="Vector_2" d="M12.6033 11.0966H15.9572C16.183 11.0966 16.3662 10.9135 16.3662 10.6876V7.13459H18.1357V10.6876C18.1357 10.9134 18.3188 11.0966 18.5447 11.0966H21.8985C22.1244 11.0966 22.3075 10.9135 22.3075 10.6876V1.19746C22.3075 0.971568 22.1244 0.788452 21.8985 0.788452H18.5447C18.3188 0.788452 18.1357 0.971567 18.1357 1.19746V4.68058H16.3662V1.19746C16.3662 0.971568 16.183 0.788452 15.9572 0.788452H12.6033C12.3774 0.788452 12.1943 0.971567 12.1943 1.19746V10.6876C12.1943 10.9135 12.3774 11.0966 12.6033 11.0966Z" fill="black"/>
<path id="Vector_3" d="M32.031 8.62974H28.3947V7.12812H31.377C31.6028 7.12812 31.786 6.945 31.786 6.71912V5.08311C31.786 4.85722 31.6028 4.67411 31.377 4.67411H28.3947V3.22964H31.9719C32.1977 3.22964 32.3809 3.04653 32.3809 2.82064V1.18464C32.3809 0.958751 32.1977 0.775635 31.9719 0.775635H24.6319C24.406 0.775635 24.2229 0.958749 24.2229 1.18464V10.6747C24.2229 10.9006 24.406 11.0837 24.6319 11.0837H32.031C32.2569 11.0837 32.44 10.9006 32.44 10.6747V9.03874C32.44 8.81285 32.2569 8.62974 32.031 8.62974Z" fill="black"/>
<path id="Vector_4" d="M32.0314 13.9062H1.45295C1.22706 13.9062 1.04395 14.0894 1.04395 14.3153V16.3071C1.04395 16.533 1.22706 16.7161 1.45295 16.7161H32.0314C32.2573 16.7161 32.4404 16.533 32.4404 16.3071V14.3153C32.4404 14.0894 32.2573 13.9062 32.0314 13.9062Z" fill="black"/>
<path id="Vector_5" d="M77.7269 19.5262H64.4908C64.1746 19.5262 63.9182 19.7826 63.9182 20.0988V24.1275C63.9182 24.4438 64.1746 24.7001 64.4908 24.7001H68.0414V50.6589C68.0414 50.9751 68.2977 51.2315 68.614 51.2315H73.6038C73.92 51.2315 74.1764 50.9751 74.1764 50.6589V24.7001H77.7269C78.0432 24.7001 78.2995 24.4438 78.2995 24.1275V20.0988C78.2995 19.7826 78.0432 19.5262 77.7269 19.5262Z" fill="black"/>
<path id="Vector_6" d="M61.493 19.5262H53.4924C53.1987 19.5262 52.9526 19.7485 52.9228 20.0407L49.8067 50.5782C49.771 50.9277 50.0454 51.2315 50.3967 51.2315H55.373C55.6774 51.2315 55.9286 50.9932 55.9448 50.6892L56.1995 45.8908H58.7859L59.0406 50.6892C59.0568 50.9932 59.308 51.2315 59.6124 51.2315H64.5887C64.94 51.2315 65.2144 50.9277 65.1787 50.5782L62.0626 20.0407C62.0328 19.7485 61.7867 19.5262 61.493 19.5262ZM56.4742 40.7169L57.3066 25.0387H57.6788L58.5112 40.7169H56.4742Z" fill="black"/>
<path id="Vector_7" d="M86.2937 19.0087C84.5021 19.0087 81.4052 19.6522 80.1523 22.5035C79.2076 24.6533 78.9316 29.4791 78.9316 35.379C78.9316 41.2788 79.2076 46.1046 80.1523 48.2545C81.4052 51.1057 84.5021 51.7493 86.2937 51.7493C88.0852 51.7493 91.1822 51.1057 92.4351 48.2545C93.3798 46.1046 93.6557 41.2788 93.6557 35.379C93.6557 29.4791 93.3798 24.6533 92.4351 22.5035C91.1822 19.6522 88.0852 19.0087 86.2937 19.0087ZM87.3493 45.4147C87.3493 46.5356 86.6554 46.5765 86.2937 46.5765C85.932 46.5765 85.238 46.5356 85.238 45.4147V25.343C85.238 24.2221 85.932 24.1812 86.2937 24.1812C86.6554 24.1812 87.3493 24.2221 87.3493 25.343V45.4147Z" fill="black"/>
<path id="Vector_8" d="M48.8257 28.7813C48.8257 20.0331 44.6424 19.526 40.5794 19.526L35.0169 19.5261C34.7007 19.5262 34.4443 19.7825 34.4443 20.0987V50.6588C34.4443 50.975 34.7007 51.2314 35.0169 51.2314H40.0068C40.323 51.2314 40.5794 50.975 40.5794 50.6588V38.6909C41.9898 38.6909 42.527 38.7134 42.527 41.8427V50.6588C42.527 50.975 42.7834 51.2314 43.0996 51.2314H48.0895C48.4057 51.2314 48.6621 50.975 48.6621 50.6588V42.4332C48.6621 38.1266 47.2341 36.4481 45.1626 35.794C47.3798 35.0991 48.8257 33.3209 48.8257 28.7813ZM40.5794 33.5171V24.6999C41.9898 24.6999 42.527 24.7861 42.527 28.904C42.527 33.0218 42.1472 33.5171 40.5794 33.5171Z" fill="black"/>
<path id="Vector_9" d="M117.527 26.6172C117.527 24.6999 117.844 24.1808 118.542 24.1808C119.29 24.1808 119.475 24.6999 119.475 26.1593C119.475 27.1105 119.416 28.0571 119.372 28.6341C119.348 28.9459 119.578 29.2184 119.89 29.2473L123.842 29.6137C124.155 29.6428 124.434 29.4134 124.464 29.0997C124.54 28.3153 124.664 26.8648 124.664 25.7161C124.664 22.0902 122.848 19.0081 118.048 19.0081C113.247 19.0081 111.392 22.8237 111.392 26.6172C111.392 35.2349 119.018 38.1945 119.018 44.1398C119.018 46.1679 118.668 46.5762 117.855 46.5762C117.041 46.5762 116.661 46.0861 116.661 44.0488C116.661 42.8751 116.724 41.7942 116.768 41.1717C116.791 40.8644 116.565 40.595 116.258 40.5622L112.208 40.1283C111.894 40.0947 111.613 40.3208 111.578 40.6345C111.489 41.4261 111.35 42.9993 111.35 45.0411C111.35 48.6669 113.238 51.7491 118.231 51.7491C123.224 51.7491 125.153 47.9318 125.153 44.1398C125.153 35.5221 117.527 32.5625 117.527 26.6172Z" fill="black"/>
<path id="Vector_10" d="M15.5637 37.2868H11.8934C11.6011 37.2868 11.3443 37.4806 11.2641 37.7616L8.39021 47.8286H8.1448V37.2868L4.91326 37.2868L9.10081 22.9293H9.34622V32.8786C9.34622 33.1948 9.60257 33.4512 9.91881 33.4512H15.5634C15.8838 33.4512 16.1413 33.188 16.136 32.8676C16.0568 28.1269 15.7247 24.3392 14.8844 22.5035C13.5793 19.6522 10.3533 19.0087 8.48714 19.0087C6.62094 19.0087 3.39497 19.6522 2.08984 22.5035C1.10578 24.6533 0.818359 29.4791 0.818359 35.379C0.818359 41.2788 1.10578 46.1046 2.08984 48.2545C3.39497 51.1057 6.62093 51.7493 8.48714 51.7493C10.3534 51.7493 13.5793 51.1057 14.8844 48.2545C15.7259 46.4162 16.0578 42.6203 16.1363 37.8702C16.1416 37.5499 15.8841 37.2868 15.5637 37.2868Z" fill="black"/>
<path id="Vector_11" d="M1.45295 3.24246H3.86694V10.6876C3.86694 10.9134 4.05007 11.0966 4.27595 11.0966H7.62977C7.85565 11.0966 8.03876 10.9134 8.03876 10.6876V3.24246H10.4528C10.6787 3.24246 10.8618 3.05935 10.8618 2.83346V1.19746C10.8618 0.971568 10.6787 0.788452 10.4528 0.788452H1.45295C1.22706 0.788452 1.04395 0.971567 1.04395 1.19746V2.83346C1.04395 3.05935 1.22706 3.24246 1.45295 3.24246Z" fill="black"/>
<path id="Vector_12" d="M31.8676 19.526H26.8777C26.5614 19.526 26.3051 19.7824 26.3051 20.0986V45.4145C26.3051 46.5354 25.6111 46.5763 25.2494 46.5763C24.8877 46.5763 24.1938 46.5354 24.1938 45.4145V20.0986C24.1938 19.7824 23.9374 19.526 23.6212 19.526H18.6312C18.315 19.526 18.0586 19.7824 18.0586 20.0986V43.3926C18.0586 50.5241 21.87 51.7491 25.2494 51.7491C28.6288 51.7491 32.4402 50.5241 32.4402 43.3926V20.0986C32.4402 19.7824 32.1839 19.526 31.8676 19.526Z" fill="black"/>
</g>
</svg>
