<svg width="225" height="13" viewBox="0 0 225 13" fill="none" xmlns="http://www.w3.org/2000/svg">
<path d="M97.934 10.9254C96.5368 10.9807 95.1896 10.7047 93.7862 10.9769C93.456 11.0409 92.8371 10.9699 92.6621 10.8726C92.3935 10.7243 91.9675 10.665 91.3272 10.8078C90.1083 11.0794 88.922 11.2967 87.4716 10.9062C87.0656 10.797 86.6984 10.8788 86.2673 10.9104C83.5308 11.1109 80.6624 11.0677 77.8653 11.1604C76.8506 11.1941 75.889 11.1985 75.0945 11.0523C74.7604 10.9908 74.0079 10.9012 73.9216 10.9172C71.7272 11.3247 69.4772 10.9729 67.2884 11.0241C65.2622 11.0715 63.1985 11.1475 61.2608 11.2791C59.104 11.4255 56.9112 11.3436 54.8278 11.3742C52.759 11.4045 50.809 11.4019 48.7301 11.5359C46.7617 11.6629 44.6149 11.664 42.5657 11.7453C40.6258 11.8222 38.6215 11.7935 36.7612 12.029C35.904 12.1377 34.5684 12.1493 33.4381 12.0208C30.1785 11.6497 26.819 11.7637 23.8134 12.1954C22.0882 12.4429 20.3266 12.3875 18.5746 12.4496C16.268 12.5314 14.0601 12.5147 11.7609 12.3899C9.83624 12.2855 7.25604 12.5515 6.02487 12.0498C5.94358 12.0161 5.44626 12.0083 5.14579 12.013C4.27121 12.0266 3.27602 12.3665 2.68336 12.1197C1.97697 11.8256 1.89393 11.4653 2.63853 11.1137C3.73403 10.5963 3.26702 10.3292 0.880275 10.0026C0.637494 9.96931 0.295507 9.96106 0 9.94116C1.32597 9.65044 -0.0868977 9.26001 1.38935 8.95453C2.69116 8.6851 3.83498 8.50799 5.67728 8.71197C6.26481 8.77705 7.01951 8.74665 7.1843 8.58889C7.33844 8.44125 6.79749 8.36447 6.05519 8.35399C5.44745 8.34548 5.04208 8.17872 4.29133 8.2907C3.82203 8.36063 3.12685 8.32045 3.4128 8.25065C4.56773 7.96773 2.33071 7.70474 3.56868 7.46942C5.1638 7.16617 5.06174 6.81465 4.68549 6.48896C4.16971 6.04104 5.58699 5.56968 4.40799 5.13715C4.11873 5.03101 4.24935 4.86876 4.972 4.80825C6.40673 4.68789 7.06158 4.37162 8.62693 4.28895C9.04516 4.26687 9.2128 4.15842 9.87666 4.19352C13.2126 4.36954 16.5799 4.23837 19.9679 4.11238C21.4951 4.05571 22.6999 4.44858 24.4801 4.22166C26.1957 4.00295 27.608 4.3146 29.2692 4.27066C30.8575 4.22872 32.4963 4.28641 34.0689 4.23222C34.8595 4.20504 35.2099 4.25969 35.7745 4.30464C36.8722 4.39208 38.765 4.34928 39.7546 4.1848C40.9521 3.9859 41.9753 3.93981 43.3371 4.08336C44.6681 4.22348 46.8721 4.23155 47.9183 4.04655C50.1491 3.65207 53.2238 3.89888 55.4412 3.55711C56.7531 3.77009 59.1656 3.58616 59.7896 3.73593C60.7086 3.95659 61.4845 3.83982 62.081 3.80283C64.1757 3.67293 66.1105 3.84311 68.1322 3.80454C69.0438 3.787 69.1756 3.92181 69.2119 4.04658C69.2501 4.17754 69.0651 4.28705 68.1966 4.32529C65.4719 4.44487 62.7437 4.74646 60.0049 4.49021C58.5108 4.35022 58.4042 4.5244 58.1127 4.70797C57.9861 4.78736 57.5532 4.93068 58.2613 4.91789C59.6775 4.89236 60.958 5.13894 62.034 5.04652C64.16 4.86399 66.1604 4.98766 68.1171 4.99625C70.0799 5.00484 72.054 4.94665 74.0219 4.9858C76.2925 5.03083 78.6502 4.79725 80.9365 4.94946C82.0819 4.5251 83.9131 4.82754 85.3965 4.76026C87.0509 4.68529 88.6315 4.5197 90.5001 4.62426C91.6573 4.68916 93.0657 4.67754 94.3222 4.69328L96.0647 4.51545C96.0647 4.51545 98.5411 4.60556 98.762 4.54857C98.9824 4.49161 99.8345 4.39564 100.006 4.28482C100.177 4.17396 98.9117 3.98518 98.9117 3.98518C97.5774 3.95763 96.3411 3.95701 95.0505 4.07438C93.6174 4.20483 92.2679 4.18698 90.8288 4.04979C88.3782 3.81626 88.3249 3.84259 86.0671 4.08413C84.8298 4.2164 83.5655 4.4327 82.3068 4.10948C82.1162 4.06061 81.2242 4.04409 80.9702 4.08486C78.2583 4.52035 75.1383 4.1399 72.3647 4.34731C71.1318 4.43945 71.101 4.23876 70.4534 4.15209C70.8033 3.97415 70.986 3.77697 71.5462 3.62893C72.0132 3.50497 72.6366 3.66634 73.1861 3.69147C74.4066 3.74745 75.4663 3.91569 76.7832 3.65415C77.9555 3.42119 79.6628 3.82838 81.1743 3.47496C82.2155 3.2317 84.1256 3.47535 85.6781 3.45338C88.1467 3.41847 90.6097 3.19723 93.1013 3.34975C93.3227 3.3634 93.7567 3.27961 93.949 3.29603L95.6557 3.24688C97.004 3.26524 96.2999 2.71339 98.034 2.82091C98.8536 2.87188 99.5471 2.63062 100.067 2.81354C100.382 2.925 103.19 3.19137 104.779 3.18987C106.37 3.18841 107.202 3.39494 107.202 3.39494C108.811 3.7552 110.307 3.51898 111.979 3.38793C112.645 3.3358 113.649 3.32228 114.224 3.45914C114.361 3.49203 114.293 3.58992 114.127 3.63119C113.539 3.77819 113.103 4.46969 114.973 4.4368C117.139 4.39877 118.094 4.53571 119.692 4.32329C121.756 4.04948 123.92 4.45304 125.639 4.07734C125.897 4.0211 126.924 4.05807 127.513 4.09397C129.313 4.20364 131.059 4.19414 132.74 3.98191C134.133 3.80602 135.843 3.76874 137.09 3.83471C140.553 4.01791 143.983 3.8229 147.421 3.78918C148.254 3.78104 149.095 3.76693 149.92 3.73619C151.09 3.69261 152.609 3.97314 153.463 3.51351C153.654 3.41162 155.943 3.42718 157.266 3.39032C157.758 3.3766 158.415 3.33748 158.357 3.25261C158.28 3.13747 157.812 3.03615 157.498 2.9305C157.164 2.81746 156.751 2.87022 156.356 2.93089C155.861 3.00666 155.252 3.16291 154.907 3.14743C153.689 3.09228 152.999 2.71539 151.842 2.81588C151.136 2.87712 150.264 3.24659 149.443 3.22403C148.115 3.18766 146.807 3.39473 145.623 3.24571C145.29 3.20392 145.128 3.03361 144.62 3.16662C143.393 3.48814 142.13 3.4152 140.808 3.26776C140.236 3.204 139.371 3.11091 139.041 3.20859C137.679 3.61119 135.824 3.48879 133.983 3.54601C132.804 3.58266 131.947 3.75118 131.328 3.45229C131.189 3.38477 130.768 3.38547 130.548 3.46049C129.056 3.96632 127.012 3.57799 125.257 3.64644C123.426 3.7178 123.592 3.45693 123.517 3.23835C123.419 2.95761 124.45 2.94736 125.477 2.91751C126.365 2.89167 127.047 2.98337 127.824 3.0093C129.643 3.07003 131.55 3.20071 133.284 2.87185C133.613 2.80939 134.392 2.73075 134.56 2.75544C136.1 2.98342 138.155 2.55773 139.675 2.7708C140.861 2.46054 142.63 2.4857 144.217 2.46726C145.933 2.44731 147.663 2.47706 149.358 2.51527C150.498 2.5408 151.148 2.37995 151.998 2.2998C153.519 2.15625 155.023 1.94405 156.301 2.30696C156.882 2.47164 157.34 2.3117 157.88 2.28613C160.998 2.14154 164.102 2.17555 167.266 2.02897C168.34 1.9753 169.908 2.13262 169.937 2.10505C170.652 1.45378 173.215 2.04041 174.82 1.78696C175.872 1.62072 178.117 1.64751 179.651 1.45512C180.106 1.39821 180.543 1.39025 181.03 1.43684C183.531 1.67503 185.7 1.71773 187.208 1.42856C188.177 1.24253 188.446 1.28686 188.923 1.3923C190.037 1.63836 191.27 1.21368 192.503 1.40231C193.801 1.60085 194.512 1.30725 195.337 1.16235C196.195 1.01172 197.105 1.02687 198.133 1.05745C199.308 1.09245 200.932 1.17335 201.676 1.06225C203.349 0.812228 204.702 0.616338 207.006 0.670783C208.789 0.712908 210.777 0.585652 212.642 0.499613C214.673 0.405921 215.37 0.556419 215.32 0.919486C215.311 0.988639 215.743 1.05434 215.973 1.12158C216.128 1.03372 216.342 0.946955 216.42 0.857569C216.502 0.764034 216.355 0.663987 216.484 0.573772C216.692 0.42701 218.055 0.392692 218.055 0.392692C218.055 0.392692 221.11 0.313501 221.312 0.356585C222.485 0.606844 222.226 1.35368 221.825 1.89902C222.618 2.2273 223.469 2.5505 224.189 2.88514C224.922 3.22525 224.396 3.42754 222.649 3.50946C221.999 3.53986 223.209 3.60434 223.105 4.11511C223.033 4.47353 221.537 4.825 223.123 4.66859C223.566 4.62481 223.836 5.26407 224.294 5.77717C224.405 5.9016 224.46 6.11059 223.552 6.14026C222.496 6.17473 223.434 6.37763 222.758 6.54392C222.021 6.72531 222.838 6.857 222.838 6.857C223.378 6.87884 222.307 7.00701 222.604 7.10913C222.812 7.18062 222.769 7.29791 222.637 7.38642C222.48 7.49365 221.818 7.53318 221.425 7.49391C219.748 7.3259 218.361 7.35404 217.039 7.67356C216.07 7.90748 214.35 7.95941 213.417 7.83656C211.98 7.64695 210.581 8.02472 209.32 7.81464C209.084 7.77534 208.187 7.81262 208.085 7.91993C207.716 8.30548 205.993 8.29965 204.988 8.23068C202.529 8.06194 200.086 8.19042 197.631 8.22014C196.154 8.23796 194.593 8.15548 193.327 8.17888C190.295 8.23493 186.998 8.10293 184.3 8.35062C182.225 8.54103 180.3 8.32924 178.352 8.57203C176.575 8.79391 174.028 8.59198 172.23 8.92345C169.424 8.68165 166.563 9.31889 163.762 9.01024C160.375 9.33902 156.98 9.37232 153.56 9.1561C153.289 9.13903 152.844 9.15656 152.592 9.19005C151.618 9.31972 150.604 9.51517 149.488 9.34719C148.536 9.2038 149.094 8.93414 148.848 8.72689C148.783 8.67127 148.621 8.57974 148.457 8.57787C147.843 8.57123 147.805 8.663 147.822 8.7543L147.859 9.22816C147.855 9.38221 147.36 9.45297 146.616 9.47489C146.283 9.48467 145.951 9.49655 145.619 9.49974C142.349 9.53193 139.034 9.75028 135.824 9.53675C132.955 9.91538 129.702 9.78372 126.634 9.8965C125.651 9.93268 124.718 9.90469 123.726 9.85896C121.309 9.74743 106.578 9.77311 104.362 9.99701L97.934 10.9254ZM6.72648 11.0847C6.63793 11.0145 6.03691 10.9231 5.67186 10.928C4.7361 10.9406 5.08599 11.0977 5.00865 11.1889C5.02325 11.2989 5.22451 11.3967 5.756 11.3658C6.389 11.3291 6.88347 11.2092 6.72648 11.0847ZM39.8007 5.29898C39.2439 5.19821 38.5829 5.11783 38.0963 5.04782C37.3041 5.12436 36.6924 5.17471 36.1356 5.24262C35.9674 5.26303 35.8116 5.35182 35.8985 5.37605C36.3284 5.49625 39.3728 5.59012 39.9682 5.51049C40.7105 5.41138 40.0569 5.34557 39.8007 5.29898ZM53.7745 4.67904C52.3476 4.95641 51.5341 4.58053 50.382 4.62522C49.0728 4.67601 46.2555 4.68353 45.368 4.63285C45.1236 4.61892 44.9312 4.57669 44.7143 4.5474C44.5051 4.80407 42.2832 4.8678 42.7172 5.13528C43.012 5.31631 44.2741 5.42424 45.4683 5.34202C45.9696 5.30754 46.321 5.28189 46.9092 5.3561C48.9247 5.24503 51.044 5.12815 53.2418 5.00709C53.5182 4.99106 53.7604 4.92417 53.9471 4.87193C54.2381 4.79019 53.9741 4.64011 53.7745 4.67904ZM93.5031 8.48968C93.5749 8.46122 92.9559 8.35547 92.5685 8.31303C91.8267 8.23205 91.8318 8.37459 91.7555 8.44563C91.6608 8.5346 91.7225 8.62783 91.7174 8.71949C91.7718 8.80974 91.7803 8.90244 91.8946 8.98916C91.9642 9.04191 92.1963 9.08521 92.3566 9.13278C92.5522 9.0974 92.9021 9.06272 92.9189 9.02643C92.9986 8.84364 93.0557 8.66539 93.5031 8.48968ZM55.9611 6.97661C54.6049 6.89049 54.2196 7.09995 53.2795 7.16326C52.0796 7.24425 52.1301 7.14861 51.8503 7.10449C51.0851 6.98429 50.3226 7.06135 49.7423 7.14791C48.6596 7.30907 52.0348 7.51961 48.0042 7.64998C48.2817 7.68386 48.483 7.73275 48.6837 7.7291C50.4218 7.69763 52.2276 7.68041 53.8731 7.61138C55.2506 7.55359 54.9423 7.40922 55.1778 7.29514C55.4015 7.18653 57.0241 7.04415 55.9611 6.97661ZM113.427 8.33402C113.584 8.18303 113.002 8.11727 111.943 8.12492C108.696 8.14811 105.357 8.33018 102.208 8.14713C101.827 8.12479 100.818 8.19651 100.474 8.26147C99.283 8.48755 101.027 8.57172 101.479 8.71853C101.655 8.77581 101.795 8.95097 102.604 8.78753C104.553 8.39412 107.403 8.6562 109.598 8.47121C110.535 8.35121 111.176 8.49429 111.984 8.48838C112.679 8.4834 113.318 8.44 113.427 8.33402ZM99.8476 6.70524C100.245 6.55207 100.98 6.35776 100.98 6.35776C99.1557 6.03881 87.9919 6.47101 85.4489 6.312C85.3984 6.30886 83.9962 6.42476 84.0024 6.47015C84.0444 6.783 80.4826 6.87679 79.16 7.1022C79.1466 6.94115 79.2077 6.77818 79.0781 6.61997C79.0277 6.55954 78.5472 6.50986 78.2618 6.45529C77.5767 6.50307 77.2834 6.56472 77.3804 6.63232C77.7992 6.92128 76.9723 7.08573 73.467 6.99116C70.7231 7.25646 67.4097 7.05372 64.4214 7.24847C63.304 7.3211 61.3259 7.24871 61.5996 7.07995C62.0352 6.81226 59.3967 6.94457 58.4739 6.86084C57.2825 6.99339 58.3719 7.05699 58.6859 7.15623C58.9566 7.24183 58.0563 7.37329 57.9638 7.48135C57.8808 7.57512 58.3321 7.65756 59.5571 7.64718C64.4393 7.60586 69.3725 7.38112 74.2693 7.41679C74.6634 7.41967 74.9919 7.08405 76.5242 7.3522C77.1493 7.46128 77.5177 7.31397 77.7196 7.26469C78.0128 7.19327 78.3056 7.12991 79.16 7.1022C79.881 7.23496 80.4163 7.38286 82.8226 7.21014C84.3611 7.09974 86.1221 7.1028 87.8338 7.10724C92.1447 7.11855 92.1581 7.11468 92.7894 6.69585C92.8982 6.62283 93.1106 6.5585 94.0021 6.52854C94.1232 6.66334 94.121 6.80256 94.3979 6.93186C94.6351 7.04236 95.9257 7.16376 96.7202 7.10423C96.7202 7.10423 99.4507 6.8584 99.8476 6.70524ZM191.415 4.91882C191.094 4.834 191.842 4.57511 190.47 4.63749C189.781 4.66875 189.198 4.80783 188.565 4.8982C189.372 5.02538 190.104 5.17953 191.029 5.26127C191.274 5.28285 191.482 5.05752 191.415 4.91882ZM199.94 4.5776C199.69 4.50639 198.883 4.4154 198.842 4.42368C197.684 4.66068 195.843 4.521 194.706 4.7394C194.51 4.7774 194.519 4.85442 194.435 4.91335L194.713 4.98297C196.106 4.69383 197.776 5.07171 199.164 4.86889C199.618 4.80243 200.474 4.7289 199.94 4.5776ZM181.597 5.25932C181.597 5.25932 181.923 5.01991 181.903 4.94263C181.883 4.86541 179.78 4.90186 179.78 4.90186C179.154 4.93573 177.574 4.95462 176.715 4.95057C173.614 4.93592 170.363 5.03428 167.175 5.10011C161.64 5.21434 156.139 5.39343 151.151 5.42909C149.214 5.47296 147.842 5.49879 146.519 5.53581C145.705 5.55855 145.474 5.59845 145.312 5.64132C145.138 5.68752 148.108 5.69061 145.127 5.76726C143.829 5.80062 141.158 5.89309 141.223 5.81112C141.294 5.72021 140.612 5.68747 139.705 5.76708C136.948 6.0095 131.924 5.91428 128.379 6.07889C127.28 6.12994 125.979 6.01905 124.422 6.12088C124.044 6.14563 123.602 6.35867 123.321 6.38484C122.508 6.46076 123.4 6.6421 124.026 6.63344C128.771 6.56794 134.093 6.17533 138.694 6.20264C139.02 6.20459 139.667 6.17037 140.177 6.15816C145.347 6.03407 150.446 5.74557 155.749 5.83662C155.943 5.83991 156.644 5.79709 157.099 5.78889C159.455 5.74622 162.021 5.53368 164.169 5.66682C167.951 5.47062 172.835 5.50984 176.632 5.309C178.19 5.22651 179.05 5.25849 179.625 5.31042L181.597 5.25932ZM164.25 2.73837C164.334 2.70452 163.693 2.61402 163.15 2.50033C162.26 2.57161 162.487 2.83715 161.54 2.89191C160.675 2.94189 160.641 3.0367 161.286 3.14515C161.865 3.24231 162.39 3.23713 162.886 3.11594C163.382 2.99475 163.919 2.87396 164.25 2.73837Z" fill="#FFD750"/>
</svg>
