<svg width="40" height="41" viewBox="0 0 40 41" fill="none" xmlns="http://www.w3.org/2000/svg">
<g id="facebook">
<path id="bg" d="M20 40.2007C9.23045 40.2007 0.5 31.4702 0.5 20.7007C0.5 9.93113 9.23045 1.20068 20 1.20068C30.7696 1.20068 39.5 9.93113 39.5 20.7007C39.5 31.4702 30.7696 40.2007 20 40.2007Z" fill="#FFD750" stroke="#FFD750"/>
<path id="Fill-1" fill-rule="evenodd" clip-rule="evenodd" d="M25 14.3928L23.1875 14.394C21.7662 14.394 21.4906 15.0562 21.4906 16.0276V18.1711H24.8809L24.4392 21.5292H21.4906V30.1434H17.9558V21.5292H15V18.1711H17.9558V15.6959C17.9558 12.8218 19.7455 11.2578 22.3583 11.2578C23.6099 11.2578 24.6859 11.3487 25 11.39V14.3928Z" fill="black"/>
</g>
</svg>
