<svg width="352" height="751" viewBox="0 0 352 751" fill="none" xmlns="http://www.w3.org/2000/svg">
<path d="M338.33 419.18H254.252C247.557 419.18 241.674 423.618 239.837 430.056L174.003 660.664H168.382V419.18L94.3555 419.179L190.281 90.2886H195.903V318.199C195.903 325.443 201.775 331.315 209.019 331.315H338.322C345.661 331.315 351.561 325.287 351.438 317.949C349.625 209.351 342.017 122.584 322.769 80.5331C292.871 15.2187 218.973 0.476318 176.224 0.476318C133.474 0.476318 59.5756 15.2188 29.6785 80.5331C7.13626 129.78 0.552246 240.327 0.552246 375.476C0.552246 510.626 7.13626 621.173 29.6785 670.419C59.5756 735.734 133.474 750.476 176.224 750.476C218.973 750.476 292.871 735.734 322.769 670.419C342.044 628.309 349.647 541.356 351.446 432.544C351.568 425.207 345.668 419.18 338.33 419.18Z" fill="black"/>
</svg>
