<svg width="192" height="13" viewBox="0 0 192 13" fill="none" xmlns="http://www.w3.org/2000/svg">
<path d="M83.6071 10.5816C82.4144 10.6369 81.2642 10.3609 80.0662 10.6332C79.7843 10.6971 79.2559 10.6261 79.1065 10.5289C78.8772 10.3806 78.5135 10.3213 77.9669 10.4641C76.9263 10.7356 75.9135 10.953 74.6753 10.5624C74.3287 10.4532 74.0152 10.5351 73.6472 10.5667C71.311 10.7671 68.8622 10.7239 66.4743 10.8167C65.608 10.8504 64.7871 10.8548 64.1089 10.7085C63.8236 10.647 63.1812 10.5575 63.1075 10.5735C61.2342 10.981 59.3133 10.6291 57.4448 10.6803C55.715 10.7278 53.9531 10.8038 52.2989 10.9353C50.4576 11.0818 48.5856 10.9998 46.807 11.0304C45.0408 11.0608 43.3761 11.0582 41.6013 11.1922C39.9209 11.3192 38.0881 11.3203 36.3387 11.4015C34.6826 11.4785 32.9715 11.4498 31.3834 11.6853C30.6515 11.7939 29.5114 11.8056 28.5464 11.677C25.7636 11.306 22.8957 11.4199 20.3297 11.8516C18.8569 12.0992 17.353 12.0438 15.8573 12.1059C13.8882 12.1876 12.0033 12.171 10.0404 12.0462C8.39729 11.9418 6.19455 12.2078 5.14349 11.7061C5.07409 11.6724 4.64952 11.6645 4.39301 11.6692C3.64637 11.6828 2.79677 12.0228 2.2908 11.776C1.68775 11.4818 1.61686 11.1216 2.25254 10.77C3.18777 10.2525 2.78909 9.98549 0.751499 9.65884C0.544235 9.62556 0.252277 9.61731 0 9.59741C1.13199 9.30669 -0.0741853 8.91626 1.1861 8.61078C2.29747 8.34135 3.27396 8.16424 4.84675 8.36822C5.34832 8.4333 5.99262 8.4029 6.13331 8.24514C6.26489 8.0975 5.80308 8.02072 5.16937 8.01024C4.65054 8.00173 4.30447 7.83497 3.66355 7.94695C3.2629 8.01688 2.66942 7.9767 2.91354 7.9069C3.89951 7.62398 1.98975 7.36099 3.04662 7.12567C4.40838 6.82242 4.32125 6.4709 4.00005 6.14521C3.55972 5.69729 4.76966 5.22593 3.76314 4.7934C3.5162 4.68726 3.62771 4.52501 4.24464 4.4645C5.46948 4.34414 6.02854 4.02787 7.36489 3.9452C7.72194 3.92312 7.86505 3.81467 8.43179 3.84977C11.2797 4.02579 14.1544 3.89462 17.0468 3.76863C18.3506 3.71196 19.3791 4.10483 20.8988 3.87791C22.3635 3.6592 23.5692 3.97085 24.9874 3.92691C26.3433 3.88497 27.7424 3.94266 29.085 3.88847C29.7598 3.86129 30.059 3.91594 30.541 3.96089C31.4782 4.04833 33.094 4.00553 33.9388 3.84105C34.9612 3.64215 35.8347 3.59606 36.9973 3.73961C38.1336 3.87973 40.0151 3.8878 40.9083 3.7028C42.8128 3.30832 45.4376 3.55513 47.3306 3.21336C48.4506 3.42634 50.5102 3.24241 51.0429 3.39218C51.8274 3.61284 52.4899 3.49607 52.9991 3.45908C54.7873 3.32918 56.4391 3.49936 58.165 3.46079C58.9433 3.44325 59.0558 3.57806 59.0869 3.70283C59.1194 3.83379 58.9615 3.9433 58.2201 3.98154C55.8939 4.10112 53.5648 4.40271 51.2268 4.14646C49.9512 4.00647 49.8602 4.18065 49.6114 4.36422C49.5032 4.44361 49.1337 4.58693 49.7382 4.57414C50.9472 4.54861 52.0404 4.79519 52.959 4.70277C54.774 4.52024 56.4818 4.64391 58.1522 4.6525C59.8279 4.66109 61.5132 4.6029 63.1932 4.64205C65.1316 4.68708 67.1444 4.4535 69.0962 4.60571C70.0741 4.18135 71.6374 4.48379 72.9038 4.41651C74.3162 4.34154 75.6655 4.17595 77.2608 4.28051C78.2487 4.34541 79.451 4.33379 80.5237 4.34953L82.0113 4.1717C82.0113 4.1717 84.1254 4.26181 84.314 4.20482C84.5022 4.14786 85.2297 4.05189 85.3757 3.94107C85.5222 3.83021 84.4418 3.64143 84.4418 3.64143C83.3027 3.61388 82.2473 3.61326 81.1455 3.73063C79.922 3.86108 78.77 3.84323 77.5414 3.70604C75.4493 3.47251 75.4038 3.49884 73.4763 3.74038C72.42 3.87265 71.3406 4.08895 70.2661 3.76573C70.1034 3.71686 69.3419 3.70034 69.125 3.74111C66.8098 4.1766 64.1462 3.79615 61.7784 4.00356C60.7258 4.0957 60.6996 3.89501 60.1467 3.80834C60.4454 3.6304 60.6014 3.43322 61.0796 3.28518C61.4783 3.16122 62.0105 3.32259 62.4796 3.34772C63.5216 3.4037 64.4262 3.57194 65.5506 3.3104C66.5513 3.07744 68.0089 3.48463 69.2993 3.13121C70.1881 2.88795 71.8188 3.1316 73.1442 3.10963C75.2517 3.07472 77.3543 2.85348 79.4814 3.006C79.6705 3.01965 80.0409 2.93586 80.2051 2.95228L81.6621 2.90313C82.8132 2.92149 82.2121 2.36964 83.6925 2.47716C84.3922 2.52813 84.9843 2.28687 85.428 2.46979C85.6974 2.58125 88.094 2.84762 89.4505 2.84612C90.8088 2.84466 91.5196 3.05119 91.5196 3.05119C92.8928 3.41145 94.1702 3.17523 95.5976 3.04418C96.1657 2.99205 97.0234 2.97853 97.514 3.11539C97.6308 3.14828 97.5729 3.24617 97.4312 3.28744C96.9291 3.43444 96.5572 4.12594 98.1539 4.09305C100.003 4.05502 100.818 4.19196 102.183 3.97954C103.944 3.70573 105.792 4.10929 107.259 3.73359C107.479 3.67735 108.356 3.71432 108.859 3.75022C110.396 3.85989 111.886 3.85039 113.321 3.63816C114.51 3.46227 115.971 3.42499 117.035 3.49096C119.991 3.67416 122.92 3.47915 125.855 3.44543C126.566 3.43729 127.284 3.42318 127.988 3.39244C128.987 3.34886 130.283 3.62939 131.013 3.16976C131.175 3.06787 133.13 3.08343 134.259 3.04657C134.679 3.03285 135.24 2.99373 135.191 2.90886C135.125 2.79372 134.725 2.6924 134.457 2.58675C134.172 2.47371 133.82 2.52647 133.482 2.58714C133.06 2.66291 132.54 2.81916 132.246 2.80368C131.206 2.74853 130.616 2.37164 129.629 2.47213C129.026 2.53337 128.282 2.90284 127.581 2.88028C126.447 2.84391 125.331 3.05098 124.319 2.90196C124.036 2.86017 123.897 2.68986 123.464 2.82287C122.416 3.14439 121.338 3.07145 120.209 2.92401C119.721 2.86025 118.982 2.76716 118.7 2.86484C117.538 3.26744 115.954 3.14504 114.382 3.20226C113.376 3.23891 112.644 3.40743 112.116 3.10854C111.997 3.04102 111.638 3.04172 111.45 3.11674C110.177 3.62257 108.432 3.23424 106.933 3.30269C105.37 3.37405 105.511 3.11318 105.447 2.8946C105.364 2.61386 106.244 2.60361 107.121 2.57376C107.879 2.54792 108.461 2.63962 109.125 2.66555C110.678 2.72628 112.306 2.85696 113.786 2.5281C114.067 2.46564 114.732 2.387 114.875 2.41169C116.19 2.63967 117.945 2.21398 119.242 2.42705C120.254 2.11679 121.765 2.14195 123.119 2.12351C124.584 2.10356 126.062 2.13331 127.509 2.17152C128.481 2.19705 129.036 2.0362 129.762 1.95605C131.061 1.8125 132.344 1.6003 133.435 1.96321C133.932 2.12789 134.323 1.96795 134.784 1.94238C137.446 1.79779 140.095 1.8318 142.796 1.68522C143.713 1.63155 145.052 1.78887 145.077 1.7613C145.687 1.11003 147.875 1.69666 149.245 1.44321C150.144 1.27697 152.06 1.30376 153.37 1.11137C153.758 1.05446 154.131 1.0465 154.547 1.09309C156.682 1.33128 158.533 1.37398 159.821 1.08481C160.649 0.898779 160.878 0.943108 161.286 1.04855C162.236 1.29461 163.289 0.869934 164.341 1.05856C165.449 1.2571 166.057 0.963496 166.761 0.818601C167.493 0.667974 168.27 0.683123 169.148 0.713705C170.151 0.748696 171.538 0.829599 172.173 0.718503C173.601 0.468478 174.756 0.272588 176.723 0.327033C178.245 0.369158 179.942 0.241902 181.534 0.155863C183.268 0.0621712 183.863 0.212669 183.82 0.575736C183.813 0.644889 184.182 0.710592 184.378 0.777825C184.511 0.68997 184.693 0.603205 184.76 0.513819C184.83 0.420284 184.704 0.320237 184.814 0.230022C184.992 0.0832596 186.156 0.0489424 186.156 0.0489424C186.156 0.0489424 188.763 -0.0302491 188.936 0.0128355C189.937 0.263094 189.717 1.00993 189.374 1.55527C190.051 1.88355 190.777 2.20675 191.392 2.54139C192.018 2.8815 191.568 3.08379 190.077 3.16571C189.523 3.19611 190.555 3.26059 190.467 3.77136C190.405 4.12978 189.128 4.48125 190.482 4.32484C190.861 4.28106 191.091 4.92032 191.482 5.43342C191.577 5.55785 191.624 5.76684 190.848 5.79651C189.947 5.83098 190.748 6.03388 190.171 6.20017C189.541 6.38156 190.239 6.51325 190.239 6.51325C190.7 6.53509 189.786 6.66326 190.039 6.76538C190.216 6.83687 190.18 6.95416 190.068 7.04267C189.933 7.1499 189.368 7.18943 189.033 7.15016C187.601 6.98215 186.416 7.01029 185.288 7.32981C184.461 7.56373 182.992 7.61566 182.196 7.49281C180.969 7.3032 179.775 7.68097 178.698 7.47089C178.497 7.43159 177.731 7.46887 177.644 7.57618C177.329 7.96173 175.858 7.9559 175 7.88693C172.901 7.71819 170.815 7.84667 168.719 7.87639C167.458 7.89421 166.126 7.81173 165.045 7.83513C162.456 7.89118 159.642 7.75918 157.338 8.00687C155.567 8.19728 153.924 7.98549 152.261 8.22828C150.744 8.45016 148.569 8.24823 147.035 8.5797C144.639 8.3379 142.197 8.97514 139.805 8.66649C136.914 8.99527 134.016 9.02857 131.095 8.81235C130.864 8.79528 130.484 8.81281 130.269 8.8463C129.437 8.97597 128.572 9.17142 127.62 9.00344C126.807 8.86005 127.283 8.59039 127.073 8.38314C127.017 8.32752 126.879 8.23599 126.739 8.23412C126.215 8.22748 126.183 8.31925 126.197 8.41055L126.229 8.88441C126.225 9.03846 125.802 9.10922 125.168 9.13114C124.883 9.14092 124.6 9.1528 124.316 9.15599C121.525 9.18818 118.695 9.40653 115.954 9.193C113.505 9.57163 110.728 9.43997 108.108 9.55275C107.269 9.58893 106.473 9.56094 105.626 9.51521C103.563 9.40368 90.9866 9.42936 89.0946 9.65326L83.6071 10.5816ZM5.74246 10.7409C5.66686 10.6708 5.15376 10.5794 4.84212 10.5843C4.04326 10.5968 4.34196 10.754 4.27593 10.8451C4.2884 10.9552 4.46021 11.0529 4.91395 11.0221C5.45434 10.9853 5.87648 10.8655 5.74246 10.7409ZM33.9782 4.95523C33.5029 4.85446 32.9386 4.77408 32.5231 4.70407C31.8468 4.78061 31.3246 4.83096 30.8493 4.89887C30.7057 4.91928 30.5727 5.00807 30.6468 5.0323C31.0139 5.1525 33.6129 5.24637 34.1212 5.16674C34.755 5.06763 34.1969 5.00182 33.9782 4.95523ZM45.9078 4.33529C44.6897 4.61266 43.9951 4.23678 43.0116 4.28147C41.8939 4.33226 39.4888 4.33978 38.7311 4.2891C38.5224 4.27517 38.3582 4.23294 38.173 4.20365C37.9944 4.46032 36.0976 4.52405 36.468 4.79153C36.7198 4.97256 37.7972 5.08049 38.8167 4.99827C39.2447 4.96379 39.5447 4.93814 40.0468 5.01235C41.7675 4.90128 43.5767 4.7844 45.453 4.66334C45.689 4.64731 45.8958 4.58042 46.0551 4.52818C46.3035 4.44644 46.0782 4.29636 45.9078 4.33529ZM79.8245 8.14593C79.8857 8.11747 79.3573 8.01172 79.0266 7.96928C78.3933 7.8883 78.3976 8.03084 78.3325 8.10188C78.2517 8.19085 78.3043 8.28408 78.3 8.37574C78.3464 8.46599 78.3536 8.55869 78.4513 8.64541C78.5106 8.69816 78.7088 8.74146 78.8456 8.78903C79.0127 8.75365 79.3114 8.71897 79.3257 8.68268C79.3937 8.49989 79.4425 8.32164 79.8245 8.14593ZM47.7745 6.63286C46.6167 6.54674 46.2878 6.7562 45.4852 6.81951C44.4608 6.9005 44.504 6.80486 44.2651 6.76074C43.6118 6.64054 42.9608 6.7176 42.4654 6.80416C41.5412 6.96532 44.4226 7.17586 40.9817 7.30623C41.2186 7.34011 41.3904 7.389 41.5617 7.38535C43.0455 7.35388 44.5872 7.33666 45.992 7.26763C47.168 7.20984 46.9047 7.06547 47.1058 6.95139C47.2967 6.84278 48.6819 6.7004 47.7745 6.63286ZM96.8339 7.99027C96.9674 7.83928 96.4705 7.77352 95.5664 7.78117C92.7952 7.80436 89.9439 7.98643 87.2559 7.80338C86.9309 7.78104 86.0688 7.85276 85.7759 7.91772C84.7588 8.1438 86.2474 8.22797 86.6337 8.37478C86.7835 8.43206 86.9031 8.60722 87.5943 8.44378C89.2581 8.05037 91.6905 8.31245 93.5648 8.12746C94.3646 8.00746 94.9122 8.15054 95.6014 8.14463C96.1949 8.13965 96.7405 8.09625 96.8339 7.99027ZM85.2408 6.36149C85.5796 6.20832 86.2072 6.01401 86.2072 6.01401C84.6501 5.69506 75.1195 6.12726 72.9485 5.96825C72.9054 5.96511 71.7083 6.08101 71.7136 6.1264C71.7495 6.43925 68.7087 6.53304 67.5796 6.75845C67.5681 6.5974 67.6203 6.43443 67.5097 6.27622C67.4667 6.21579 67.0564 6.16611 66.8128 6.11154C66.2279 6.15932 65.9776 6.22097 66.0604 6.28857C66.4179 6.57753 65.7119 6.74198 62.7194 6.64741C60.377 6.91271 57.5483 6.70997 54.9971 6.90472C54.0432 6.97735 52.3545 6.90496 52.5881 6.7362C52.96 6.46851 50.7075 6.60082 49.9197 6.51709C48.9026 6.64964 49.8326 6.71324 50.1006 6.81248C50.3318 6.89808 49.5632 7.02954 49.4842 7.1376C49.4134 7.23137 49.7986 7.31381 50.8445 7.30343C55.0124 7.26211 59.2239 7.03737 63.4044 7.07304C63.7409 7.07592 64.0213 6.7403 65.3294 7.00845C65.8631 7.11753 66.1775 6.97022 66.3499 6.92094C66.6002 6.84952 66.8502 6.78616 67.5796 6.75845C68.1951 6.89121 68.6521 7.03911 70.7064 6.86639C72.0198 6.75599 73.5232 6.75905 74.9845 6.76349C78.6647 6.7748 78.6762 6.77093 79.2152 6.3521C79.308 6.27908 79.4894 6.21475 80.2505 6.18479C80.3538 6.31959 80.3519 6.45881 80.5884 6.58811C80.7909 6.69861 81.8927 6.82001 82.5709 6.76048C82.5709 6.76048 84.9019 6.51465 85.2408 6.36149ZM163.412 4.57507C163.139 4.49025 163.778 4.23136 162.606 4.29374C162.018 4.325 161.52 4.46408 160.98 4.55445C161.668 4.68163 162.293 4.83578 163.083 4.91752C163.292 4.9391 163.47 4.71377 163.412 4.57507ZM170.691 4.23385C170.477 4.16264 169.788 4.07165 169.753 4.07993C168.764 4.31693 167.193 4.17725 166.222 4.39565C166.055 4.43365 166.063 4.51067 165.991 4.5696L166.229 4.63922C167.417 4.35008 168.843 4.72796 170.028 4.52514C170.416 4.45868 171.147 4.38515 170.691 4.23385ZM155.031 4.91557C155.031 4.91557 155.309 4.67616 155.292 4.59888C155.275 4.52166 153.48 4.55811 153.48 4.55811C152.945 4.59198 151.596 4.61087 150.863 4.60682C148.215 4.59217 145.441 4.69053 142.719 4.75636C137.993 4.87059 133.297 5.04968 129.039 5.08534C127.385 5.12921 126.214 5.15504 125.084 5.19206C124.39 5.2148 124.192 5.2547 124.054 5.29757C123.906 5.34377 126.441 5.34686 123.896 5.42351C122.788 5.45687 120.508 5.54934 120.563 5.46737C120.624 5.37646 120.041 5.34372 119.267 5.42333C116.914 5.66575 112.625 5.57053 109.599 5.73514C108.66 5.78619 107.549 5.6753 106.22 5.77713C105.897 5.80188 105.52 6.01492 105.28 6.04109C104.586 6.11701 105.348 6.29835 105.882 6.28969C109.933 6.22419 114.476 5.83158 118.405 5.85889C118.683 5.86084 119.235 5.82662 119.671 5.81441C124.084 5.69032 128.437 5.40182 132.964 5.49287C133.13 5.49616 133.729 5.45334 134.117 5.44514C136.128 5.40247 138.319 5.18993 140.153 5.32307C143.381 5.12687 147.551 5.16609 150.792 4.96525C152.123 4.88276 152.857 4.91474 153.347 4.96667L155.031 4.91557ZM140.221 2.39462C140.293 2.36077 139.747 2.27027 139.282 2.15658C138.523 2.22786 138.717 2.4934 137.909 2.54816C137.17 2.59814 137.141 2.69295 137.691 2.8014C138.186 2.89856 138.634 2.89338 139.057 2.77219C139.481 2.651 139.939 2.53021 140.221 2.39462Z" fill="#FFD750"/>
</svg>
