<svg width="219" height="91" viewBox="0 0 219 91" fill="none" xmlns="http://www.w3.org/2000/svg">
<g id="Group 1647">
<path id="Vector" d="M191.517 49.789C191.517 34.438 184.177 33.5481 177.047 33.5481L167.286 33.5483C166.731 33.5484 166.281 33.9982 166.281 34.5531V88.1791C166.281 88.734 166.731 89.1839 167.286 89.1839H176.042C176.597 89.1839 177.047 88.734 177.047 88.1791V67.1782C179.522 67.1782 180.464 67.2177 180.464 72.7088V88.1791C180.464 88.734 180.914 89.1839 181.469 89.1839H190.225C190.78 89.1839 191.23 88.734 191.23 88.1791V73.7451C191.23 66.1879 188.724 63.2426 185.089 62.0947C188.98 60.8754 191.517 57.755 191.517 49.789ZM177.047 58.0992V42.6271C179.522 42.6271 180.465 42.7784 180.465 50.0043C180.465 57.2303 179.798 58.0992 177.047 58.0992Z" fill="black"/>
<path id="Vector_2" d="M20.6786 18.7561H26.5638C26.9602 18.7561 27.2815 18.4348 27.2815 18.0384V11.8038H30.3867V18.0384C30.3867 18.4348 30.708 18.7561 31.1044 18.7561H36.9896C37.386 18.7561 37.7073 18.4348 37.7073 18.0384V1.38543C37.7073 0.989052 37.386 0.667725 36.9896 0.667725H31.1044C30.708 0.667725 30.3867 0.989049 30.3867 1.38543V7.49753H27.2815V1.38543C27.2815 0.989052 26.9602 0.667725 26.5638 0.667725H20.6786C20.2823 0.667725 19.9609 0.989049 19.9609 1.38543V18.0384C19.9609 18.4348 20.2823 18.7561 20.6786 18.7561Z" fill="black"/>
<path id="Vector_3" d="M54.771 14.4274H48.3901V11.7924H53.6233C54.0196 11.7924 54.341 11.4711 54.341 11.0747V8.20391C54.341 7.80753 54.0196 7.4862 53.6233 7.4862H48.3901V4.9515H54.6672C55.0636 4.9515 55.3849 4.63017 55.3849 4.23379V1.36297C55.3849 0.966591 55.0636 0.645264 54.6672 0.645264H41.7872C41.3908 0.645264 41.0695 0.966588 41.0695 1.36297V18.016C41.0695 18.4124 41.3908 18.7337 41.7872 18.7337H54.771C55.1674 18.7337 55.4887 18.4124 55.4887 18.016V15.1452C55.4887 14.7488 55.1674 14.4274 54.771 14.4274Z" fill="black"/>
<path id="Vector_4" d="M54.7716 23.6863H1.11322C0.716837 23.6863 0.395508 24.0076 0.395508 24.404V27.8992C0.395508 28.2956 0.716837 28.6169 1.11322 28.6169H54.7716C55.1679 28.6169 55.4893 28.2956 55.4893 27.8992V24.404C55.4893 24.0076 55.1679 23.6863 54.7716 23.6863Z" fill="black"/>
<path id="Vector_5" d="M134.957 33.5486H111.73C111.175 33.5486 110.726 33.9984 110.726 34.5534V41.6228C110.726 42.1777 111.175 42.6276 111.73 42.6276H117.961V88.1793C117.961 88.7343 118.411 89.1841 118.966 89.1841H127.722C128.277 89.1841 128.726 88.7343 128.726 88.1793V42.6276H134.957C135.512 42.6276 135.962 42.1777 135.962 41.6228V34.5534C135.962 33.9985 135.512 33.5486 134.957 33.5486Z" fill="black"/>
<path id="Vector_6" d="M106.47 33.5486H92.4311C91.9156 33.5486 91.4838 33.9386 91.4315 34.4514L85.9634 88.0378C85.9008 88.6511 86.3822 89.1841 86.9987 89.1841H95.7309C96.2652 89.1841 96.706 88.7661 96.7343 88.2326L97.1814 79.8124H101.72L102.167 88.2326C102.195 88.7661 102.636 89.1841 103.17 89.1841H111.903C112.519 89.1841 113 88.6511 112.938 88.0378L107.47 34.4514C107.417 33.9386 106.986 33.5486 106.47 33.5486ZM97.6634 70.7334L99.124 43.2216H99.7772L101.238 70.7334H97.6634Z" fill="black"/>
<path id="Vector_7" d="M149.989 32.6399C146.845 32.6399 141.411 33.7692 139.212 38.7725C137.555 42.545 137.07 51.0132 137.07 61.3661C137.07 71.719 137.555 80.1872 139.212 83.9597C141.411 88.963 146.845 90.0923 149.989 90.0923C153.133 90.0923 158.567 88.963 160.766 83.9597C162.424 80.1872 162.908 71.719 162.908 61.3661C162.908 51.0132 162.424 42.5449 160.766 38.7725C158.567 33.7692 153.133 32.6399 149.989 32.6399ZM151.841 78.9765C151.841 80.9434 150.624 81.0152 149.989 81.0152C149.354 81.0152 148.137 80.9434 148.137 78.9765V43.7552C148.137 41.7883 149.354 41.7166 149.989 41.7166C150.624 41.7166 151.841 41.7883 151.841 43.7552V78.9765Z" fill="black"/>
<path id="Vector_8" d="M84.2409 49.789C84.2409 34.438 76.9003 33.5481 69.7705 33.5481L60.0096 33.5483C59.4547 33.5484 59.0049 33.9982 59.0049 34.5531V88.1791C59.0049 88.734 59.4547 89.1839 60.0097 89.1839H68.7657C69.3206 89.1839 69.7705 88.734 69.7705 88.1791V67.1782C72.2455 67.1782 73.1882 67.2177 73.1882 72.7088V88.1791C73.1882 88.734 73.638 89.1839 74.193 89.1839H82.949C83.5039 89.1839 83.9538 88.734 83.9538 88.1791V73.7451C83.9538 66.1879 81.448 63.2426 77.813 62.0947C81.7037 60.8754 84.2409 57.755 84.2409 49.789ZM69.7705 58.0992V42.6271C72.2455 42.6271 73.1882 42.7784 73.1882 50.0043C73.1882 57.2303 72.5218 58.0992 69.7705 58.0992Z" fill="black"/>
<path id="Vector_9" d="M204.798 45.9917C204.798 42.6274 205.353 41.7165 206.578 41.7165C207.891 41.7165 208.215 42.6274 208.215 45.1883C208.215 46.8574 208.112 48.5185 208.034 49.531C207.992 50.0782 208.397 50.5563 208.943 50.6069L215.878 51.25C216.428 51.301 216.917 50.8985 216.97 50.348C217.104 48.9715 217.321 46.4262 217.321 44.4105C217.321 38.0479 214.135 32.6394 205.711 32.6394C197.286 32.6394 194.032 39.335 194.032 45.9917C194.032 61.1139 207.413 66.3073 207.413 76.74C207.413 80.2988 206.8 81.0152 205.372 81.0152C203.944 81.0152 203.278 80.1552 203.278 76.5802C203.278 74.5207 203.387 72.6239 203.466 71.5316C203.505 70.9923 203.108 70.5196 202.571 70.462L195.463 69.7007C194.912 69.6418 194.418 70.0385 194.357 70.5889C194.202 71.9781 193.957 74.7386 193.957 78.3215C193.957 84.684 197.271 90.0925 206.032 90.0925C214.794 90.0925 218.179 83.3941 218.179 76.74C218.179 61.6178 204.798 56.4244 204.798 45.9917Z" fill="black"/>
<path id="Vector_10" d="M25.8748 64.7139H19.4342C18.9214 64.7139 18.4707 65.0539 18.33 65.547L13.2869 83.2123H12.8563V64.7139L7.18563 64.7139L14.5338 39.5198H14.9645V56.9784C14.9645 57.5334 15.4143 57.9832 15.9692 57.9832H25.8742C26.4364 57.9832 26.8884 57.5214 26.879 56.9593C26.7401 48.6404 26.1573 41.9938 24.6828 38.7725C22.3926 33.7692 16.7317 32.6399 13.457 32.6399C10.1822 32.6399 4.52138 33.7692 2.23117 38.7725C0.504356 42.545 0 51.0132 0 61.3661C0 71.719 0.504356 80.1872 2.23117 83.9597C4.52138 88.963 10.1822 90.0923 13.457 90.0923C16.7318 90.0923 22.3926 88.963 24.6828 83.9597C26.1594 80.7339 26.7417 74.073 26.8796 65.7377C26.8889 65.1756 26.4369 64.7139 25.8748 64.7139Z" fill="black"/>
<path id="Vector_11" d="M1.11322 4.97396H5.34923V18.0384C5.34923 18.4348 5.67058 18.7561 6.06694 18.7561H11.9521C12.3485 18.7561 12.6698 18.4348 12.6698 18.0384V4.97396H16.9059C17.3023 4.97396 17.6236 4.65264 17.6236 4.25625V1.38543C17.6236 0.989052 17.3023 0.667725 16.9059 0.667725H1.11322C0.716832 0.667725 0.395508 0.989049 0.395508 1.38543V4.25625C0.395508 4.65264 0.716832 4.97396 1.11322 4.97396Z" fill="black"/>
<path id="Vector_12" d="M54.4837 33.5481H45.7274C45.1725 33.5481 44.7227 33.998 44.7227 34.5529V78.9767C44.7227 80.9436 43.5049 81.0153 42.8702 81.0153C42.2355 81.0153 41.0178 80.9436 41.0178 78.9767V34.5529C41.0178 33.998 40.568 33.5481 40.013 33.5481H31.2567C30.7018 33.5481 30.252 33.998 30.252 34.5529V75.4286C30.252 87.9427 36.9402 90.0924 42.8702 90.0924C48.8003 90.0924 55.4885 87.9427 55.4885 75.4286V34.5529C55.4885 33.998 55.0386 33.5481 54.4837 33.5481Z" fill="black"/>
</g>
</svg>
