<svg width="199" height="44" viewBox="0 0 199 44" fill="none" xmlns="http://www.w3.org/2000/svg">
<g id="g18">
<path id="path2" d="M10.7816 19.3594H20.0959V32.6871C20.0959 39.4214 16.6561 43.2909 10.2081 43.2909C3.75974 43.2909 0.320435 39.422 0.320435 32.6871V10.7611C0.320435 4.02564 3.75974 0.156738 10.2081 0.156738C16.6566 0.156738 20.0959 4.02573 20.0959 10.7611V14.9171H13.7907V10.3316C13.7907 7.32302 12.5012 6.1768 10.3514 6.1768C8.20154 6.1768 6.91266 7.32302 6.91266 10.3316V33.1168C6.91266 36.1258 8.20217 37.2732 10.3514 37.2732C12.5007 37.2732 13.7907 36.1257 13.7907 33.1168V25.3782H10.7816V19.3594Z" fill="black"/>
<path id="path4" d="M29.6973 28.9615L21.3854 0.730713H28.264L33.2798 19.9334L38.295 0.730713H44.7434L36.2889 28.9615V43.0045H29.6973V28.9615Z" fill="black"/>
<path id="path6" d="M61.3666 30.6808L65.9521 0.731008H75.1233V42.8617H68.818V12.6255L64.2325 42.8609H57.9273L53.0553 13.0544V42.8609H47.3229V0.730469H56.4941L61.3666 30.6808Z" fill="black"/>
<path id="path8" d="M88.8807 0.157471C95.3292 0.157471 98.6258 4.02638 98.6258 10.7618V12.0512H92.3195V10.3316C92.3195 7.32303 91.1732 6.1768 89.0233 6.1768C86.8741 6.1768 85.7279 7.32303 85.7279 10.3316C85.7279 19.073 98.6254 20.6496 98.6254 32.6871C98.6254 39.4214 95.1854 43.2909 88.737 43.2909C82.2886 43.2909 78.8492 39.422 78.8492 32.6871V30.107H85.1545V33.1167C85.1545 36.1252 86.4445 37.2727 88.5944 37.2727C90.7442 37.2727 92.0331 36.1252 92.0331 33.1167C92.0331 24.3752 79.1362 22.7981 79.1362 10.7611C79.1361 4.02638 82.4317 0.157471 88.8807 0.157471Z" fill="black"/>
<path id="path10" d="M109.086 42.8614H102.495V0.730713H109.086V18.7866H116.681V0.730713H123.416V42.8614H116.681V24.8054H109.086V42.8614Z" fill="black"/>
<path id="path12" d="M149.64 42.8614H142.905L141.759 35.2659H133.591L132.444 42.8614H126.426L133.161 0.730713H142.905L149.64 42.8614ZM134.593 29.5343H141.042L137.889 8.18169L134.593 29.5343Z" fill="black"/>
<path id="path14" d="M166.55 42.8616C166.12 41.7141 165.977 41.1424 165.977 37.7037V31.1114C165.977 27.2425 164.686 25.8104 161.678 25.8104H159.385V43.0064H152.794V0.732178H162.824C169.703 0.732178 172.712 3.88455 172.712 10.4773V13.7722C172.712 18.0715 171.279 20.9373 168.413 22.3712C171.708 23.8038 172.854 26.9579 172.854 31.4002V37.848C172.854 39.8547 172.854 41.4305 173.572 43.0064H166.549L166.55 42.8616H166.55ZM159.384 6.74916V19.646H161.964C164.4 19.646 165.977 18.4992 165.977 15.2037V11.0478C165.977 8.03814 164.973 6.74854 162.538 6.74854L159.384 6.74944V6.74916Z" fill="black"/>
<path id="path16" d="M185.61 26.095L183.603 29.964V42.8608H177.012V0.729736H183.603V19.072L192.344 0.729736H198.937L189.764 19.5022L198.937 42.8608H192.059L185.61 26.095Z" fill="black"/>
</g>
</svg>
