<svg width="40" height="41" viewBox="0 0 40 41" fill="none" xmlns="http://www.w3.org/2000/svg">
<g id="instagram">
<path id="bg" d="M20 40.2007C9.23045 40.2007 0.5 31.4702 0.5 20.7007C0.5 9.93113 9.23045 1.20068 20 1.20068C30.7696 1.20068 39.5 9.93113 39.5 20.7007C39.5 31.4702 30.7696 40.2007 20 40.2007Z" fill="#FFD750" stroke="#FFD750"/>
<g id="instagram_2">
<path d="M20 13.3272C22.3855 13.3272 22.7108 13.3272 23.6867 13.3272C24.5542 13.3272 24.988 13.5441 25.3133 13.6525C25.747 13.8694 26.0723 13.9778 26.3976 14.3031C26.7229 14.6284 26.9398 14.9537 27.0482 15.3874C27.1566 15.7127 27.2651 16.1465 27.3735 17.0139C27.3735 17.9898 27.3735 18.2067 27.3735 20.7007C27.3735 23.1947 27.3735 23.4115 27.3735 24.3874C27.3735 25.2549 27.1566 25.6886 27.0482 26.0139C26.8313 26.4477 26.7229 26.773 26.3976 27.0983C26.0723 27.4236 25.747 27.6404 25.3133 27.7489C24.988 27.8573 24.5542 27.9657 23.6867 28.0742C22.7108 28.0742 22.494 28.0742 20 28.0742C17.506 28.0742 17.2892 28.0742 16.3133 28.0742C15.4458 28.0742 15.012 27.8573 14.6867 27.7489C14.253 27.532 13.9277 27.4236 13.6024 27.0983C13.2771 26.773 13.0602 26.4477 12.9518 26.0139C12.8434 25.6886 12.7349 25.2549 12.6265 24.3874C12.6265 23.4115 12.6265 23.1947 12.6265 20.7007C12.6265 18.2067 12.6265 17.9898 12.6265 17.0139C12.6265 16.1465 12.8434 15.7127 12.9518 15.3874C13.1687 14.9537 13.2771 14.6284 13.6024 14.3031C13.9277 13.9778 14.253 13.7609 14.6867 13.6525C15.012 13.5441 15.4458 13.4356 16.3133 13.3272C17.2892 13.3272 17.6145 13.3272 20 13.3272ZM20 11.7007C17.506 11.7007 17.2892 11.7007 16.3133 11.7007C15.3374 11.7007 14.6867 11.9176 14.1446 12.1344C13.6024 12.3513 13.0602 12.6766 12.5181 13.2188C11.9759 13.7609 11.759 14.1947 11.4337 14.8453C11.2169 15.3874 11.1084 16.038 11 17.0139C11 17.9898 11 18.3151 11 20.7007C11 23.1947 11 23.4115 11 24.3874C11 25.3633 11.2169 26.0139 11.4337 26.5561C11.6506 27.0983 11.9759 27.6404 12.5181 28.1826C13.0602 28.7248 13.494 28.9417 14.1446 29.267C14.6867 29.4838 15.3374 29.5922 16.3133 29.7007C17.2892 29.7007 17.6145 29.7007 20 29.7007C22.3855 29.7007 22.7108 29.7007 23.6867 29.7007C24.6627 29.7007 25.3133 29.4838 25.8554 29.267C26.3976 29.0501 26.9398 28.7248 27.4819 28.1826C28.0241 27.6404 28.241 27.2067 28.5663 26.5561C28.7831 26.0139 28.8916 25.3633 29 24.3874C29 23.4115 29 23.0862 29 20.7007C29 18.3151 29 17.9898 29 17.0139C29 16.038 28.7831 15.3874 28.5663 14.8453C28.3494 14.3031 28.0241 13.7609 27.4819 13.2188C26.9398 12.6766 26.506 12.4597 25.8554 12.1344C25.3133 11.9176 24.6627 11.8091 23.6867 11.7007C22.7108 11.7007 22.494 11.7007 20 11.7007Z" fill="black"/>
<path d="M20 16.038C17.3976 16.038 15.3373 18.0983 15.3373 20.7007C15.3373 23.3031 17.3976 25.3633 20 25.3633C22.6024 25.3633 24.6627 23.3031 24.6627 20.7007C24.6627 18.0983 22.6024 16.038 20 16.038ZM20 23.7368C18.3735 23.7368 16.9639 22.4356 16.9639 20.7007C16.9639 19.0742 18.2651 17.6645 20 17.6645C21.6265 17.6645 23.0361 18.9657 23.0361 20.7007C23.0361 22.3272 21.6265 23.7368 20 23.7368Z" fill="black"/>
<path d="M24.7711 17.0139C25.3699 17.0139 25.8554 16.5285 25.8554 15.9296C25.8554 15.3307 25.3699 14.8453 24.7711 14.8453C24.1722 14.8453 23.6867 15.3307 23.6867 15.9296C23.6867 16.5285 24.1722 17.0139 24.7711 17.0139Z" fill="black"/>
</g>
</g>
</svg>
