<svg width="167" height="14" viewBox="0 0 167 14" fill="none" xmlns="http://www.w3.org/2000/svg">
<g clip-path="url(#clip0_7597_1568)">
<path d="M100.226 6.4633C100.685 6.00047 101.497 5.84453 102.188 5.5991C102.503 5.4871 102.661 5.39292 102.86 5.26878C103.595 4.81022 104.324 4.42381 105.118 4.34642C105.33 4.32579 105.665 4.15605 105.803 4.03191C106.399 3.49559 107.426 3.16295 108.298 2.77745C108.915 2.50511 109.352 2.46135 109.365 2.61412C109.376 2.7498 108.911 3.07286 108.319 3.2675C107.519 3.53038 106.894 3.84178 106.322 4.21428C105.888 4.49718 105.453 4.65331 104.925 4.86858C104.163 5.17888 103.261 5.42693 102.6 5.91259C101.819 6.1336 101.066 6.44164 100.356 6.86987C100.004 6.85186 99.6051 7.10956 99.1524 7.30304C98.3261 7.65625 97.553 7.97992 96.7966 8.41162C96.5053 8.57782 96.1863 8.75268 95.8612 8.89038C95.7084 8.95508 95.5131 9.0282 95.3937 9.05408C95.3302 9.05585 95.2708 9.04145 95.2151 9.00641C95.1062 8.92615 95.1103 9.07086 95.0655 9.11334C95.0435 9.13812 94.9983 9.14874 94.9599 9.1651C94.8142 9.00763 94.8217 9.03223 94.3453 8.85937C93.9731 8.73284 93.5726 8.57336 93.2986 8.36352C93.0263 8.14636 92.8493 8.11321 92.5275 8.01702C91.8019 7.79607 91.0434 7.44775 90.3958 6.97698C90.0024 6.69213 90.1475 6.47497 90.6167 6.70025C91.2683 7.01544 92.0733 7.19982 92.5973 7.68701C92.8546 7.9237 93.1201 8.0675 93.482 8.09967C93.7691 8.11511 94.2428 8.29242 94.4883 8.45483C94.9514 8.72454 94.9126 8.58654 95.0121 8.79773C95.0621 8.91663 95.1045 8.84729 95.1282 8.76196C95.1704 8.67523 95.1357 8.61157 95.2527 8.62439C95.6929 8.52277 96.1716 8.24512 96.6114 8.09186C97.1656 7.89887 97.478 7.57349 98.0509 7.4126C98.647 7.24518 98.7794 6.9925 99.1581 6.7887C99.5531 6.57618 99.7242 6.70714 100.226 6.4633Z" fill="black"/>
<path d="M26.1422 7.51545C26.3231 7.51118 26.4573 7.46162 26.6954 7.51685C26.8941 7.56195 27.033 7.76673 27.2009 7.89747C27.3854 8.04743 27.5579 8.18769 27.7338 8.3307C27.8251 8.40022 27.9236 8.46595 28.0284 8.52644C28.082 8.55427 28.1371 8.58278 28.1946 8.61262C28.2617 8.64546 28.3156 8.66578 28.3236 8.65113C28.4036 8.63294 28.4364 8.69636 28.4883 8.77021C28.5108 8.80738 28.5464 8.8429 28.5568 8.87702C28.4914 8.90064 28.575 8.839 28.6054 8.77875C28.6437 8.71308 28.6787 8.68946 28.7214 8.68073C28.759 8.67322 28.8032 8.67737 28.8528 8.67774C28.8858 8.67457 28.8848 8.68494 28.9472 8.66688C29.0402 8.63319 29.1317 8.60005 29.2205 8.56782C30.0909 8.21742 30.9348 7.76161 31.838 7.5149C31.9182 7.49305 32.0612 7.38715 32.1315 7.37073C33.2087 7.11823 34.2515 6.6839 35.2735 6.14197C36.3177 5.58826 37.4537 5.2862 38.5302 4.80414C39.0518 4.57044 39.3732 4.60999 39.671 4.61048C39.931 4.61109 39.3895 5.03077 38.904 5.19642C38.5631 5.31281 38.2147 5.41071 37.9031 5.47999C37.5828 5.55128 37.3712 5.63972 37.1762 5.8097C37.0922 5.88306 36.8972 6.03461 36.8157 6.01936C36.2557 5.9145 35.7391 6.37501 35.1927 6.62068C34.8019 6.79628 34.3802 6.96242 33.9813 7.09883C33.5048 7.26179 33.0665 7.42695 32.6245 7.6667C32.1338 7.93281 31.653 8.10341 31.1247 8.21797C30.2252 8.4131 30.21 8.43513 29.4415 8.87507C28.978 9.12513 28.9639 9.22913 28.7597 9.19264C28.7357 9.18501 28.7134 9.17201 28.6928 9.15297C28.667 9.13069 28.5557 9.15517 28.5182 9.19289C28.5031 9.21578 28.444 9.24739 28.463 9.25838C28.4921 9.27761 28.5103 9.25527 28.4858 9.24044C28.4525 9.21169 28.405 9.18648 28.3615 9.1545C28.2689 9.09176 28.184 9.02248 28.0903 8.94271C27.6323 8.60293 27.1633 8.25631 26.6807 8.00667C26.2492 7.7842 26.3169 7.69044 26.1422 7.51545Z" fill="black"/>
<path d="M60.5856 8.33199C60.5627 8.24361 60.6557 8.1382 61.1018 7.86355C61.9086 7.37051 62.0293 7.8066 62.8656 7.15347C63.4943 6.66391 64.2474 6.49441 64.5237 6.46609C65.1027 6.40524 65.1065 6.32296 65.3523 6.07705C65.5772 5.85378 65.9045 5.62521 66.7569 5.33859C67.5584 5.06711 68.4188 4.80758 69.4111 4.32687C69.9486 4.06686 69.969 4.24142 69.9085 4.34439C69.8524 4.44046 69.7743 4.57944 69.1418 4.8049C67.2038 5.50076 67.1405 5.55484 65.7794 6.22897C64.8544 6.68942 63.8229 7.04458 62.8576 7.54348C62.7902 7.57778 62.6214 7.47494 62.0216 7.86123C61.2361 8.36636 60.9209 8.48745 60.6889 8.40664C60.6407 8.39034 60.6214 8.35885 60.5856 8.33199Z" fill="black"/>
<path d="M87.4103 4.98888C88.2147 5.43761 88.7613 5.87584 89.4937 6.0844C89.64 6.12633 89.7577 6.26226 89.7672 6.33513C89.8044 6.6201 89.6383 6.5844 88.4633 5.94402C88.0031 5.69188 87.8299 5.86986 87.3449 5.50267C86.4441 5.23485 85.6682 4.49754 84.723 4.20482C84.4289 4.11388 84.3968 3.95635 84.4198 3.89183C84.4918 3.68578 85.164 3.95586 85.6697 4.19267C86.3048 4.49077 86.9448 4.86742 87.4103 4.98888Z" fill="black"/>
<path d="M70.6 4.11082C70.4699 3.92601 70.7049 3.77769 71.6277 3.43583C72.5439 3.09556 73.3411 3.0117 74.4247 2.49247C75.0688 2.18479 76.2314 1.98002 77.0829 1.58396C77.2203 1.51786 77.5701 1.44407 78.0099 1.34391C78.5824 1.22807 78.578 1.33518 78.2679 1.47373C78.051 1.5712 77.8336 1.6785 77.6496 1.77408C77.5292 1.85172 77.4015 1.92624 77.252 1.99991C76.9526 2.14609 76.5592 2.26462 75.9327 2.314C75.6598 2.33823 75.45 2.47916 75.2557 2.56821C73.8687 3.20706 72.3266 3.43314 70.9374 4.11191C70.772 4.194 70.6336 4.15348 70.6 4.11082Z" fill="black"/>
<path d="M44.87 2.35079C44.8565 2.38485 44.6389 2.57308 44.2832 2.74959C43.9466 2.92952 43.344 3.20156 43.049 3.31838C42.6469 3.47957 42.1768 3.63668 41.8626 3.8174C41.3554 4.10896 40.9778 4.16109 40.5352 4.29628C40.1448 4.41554 40.1 4.34639 40.0943 4.24928C40.0886 4.14857 40.3399 4.04146 40.5683 3.93934C41.0467 3.72553 41.5441 3.53614 42.032 3.33302C42.2759 3.23146 42.5175 3.12648 42.7531 3.01326L43.5939 2.58003C44.0998 2.32716 44.9009 2.15047 44.87 2.35079Z" fill="black"/>
<path d="M81.0067 2.33963C80.7616 2.21323 80.5335 2.09561 80.35 2.00095C80.1233 1.88334 79.9545 1.78543 79.8812 1.70694C79.6592 1.46805 79.5227 1.25565 80.1175 1.42734C80.4416 1.51285 81.0559 1.72141 81.2912 1.91733C81.6046 2.14566 81.9798 2.39963 82.3158 2.4935C82.8636 2.64554 83.136 2.91995 83.472 3.13474C83.7832 3.33353 84.1239 3.59763 83.8626 3.61026C83.654 3.62045 83.3702 3.45267 82.9695 3.24973C82.303 2.91275 81.5661 2.47995 81.0067 2.33963Z" fill="black"/>
<path d="M128.881 7.56788C129.115 7.50111 129.212 7.65113 129.22 7.76081C129.223 7.81928 129.22 7.90461 129.155 7.91871C129.09 7.9289 128.98 7.89814 128.84 7.81544C128.768 7.77864 128.764 7.80226 128.564 7.76014C128.388 7.72633 128.19 7.68714 128.006 7.62031C127.704 7.51167 127.44 7.41187 127.433 7.28242C127.428 7.16004 127.709 7.23683 127.942 7.24971C128.175 7.26381 128.357 7.33339 128.527 7.41133L128.769 7.52522C128.804 7.54548 128.841 7.56209 128.881 7.56788Z" fill="black"/>
<path d="M45.6383 2.54883C45.723 2.53235 46.0325 2.60089 46.3994 2.70746C46.6825 2.78632 46.8875 2.85822 47.0725 2.95087C47.4003 3.12073 47.3534 3.21472 47.2104 3.24677C47.0871 3.27424 46.9464 3.33564 46.5284 3.14057C46.3838 3.07178 46.2518 3.00892 46.1359 2.95368C45.994 2.88477 45.874 2.82056 45.7825 2.76417C45.6 2.65144 45.5305 2.56976 45.6383 2.54883Z" fill="black"/>
<path d="M164.135 9.99561C164.224 10.0137 164.338 10.022 164.389 10.0486C164.634 10.1826 164.87 10.3118 165.106 10.4413C165.408 10.6097 165.423 10.7312 165.271 10.7431C164.996 10.7645 164.841 10.5455 164.606 10.4429C164.197 10.264 164.376 10.1642 164.135 9.99561Z" fill="black"/>
<path d="M0.867511 11.6821C0.949111 11.5938 0.655721 11.6054 1.03493 11.4459C1.29946 11.3346 1.47566 11.3509 1.49977 11.4481C1.51674 11.5153 1.55177 11.6029 1.23909 11.7384C0.889051 11.8899 0.934281 11.7439 0.867511 11.6821Z" fill="black"/>
<path d="M165.017 6.5843C165.066 6.53077 165.037 6.43336 165.352 6.54005C165.567 6.61262 165.652 6.68495 165.633 6.74427C165.609 6.82148 165.413 6.80378 165.207 6.74982C164.947 6.6817 165.03 6.63154 165.017 6.5843Z" fill="black"/>
<path d="M166.545 9.80325C165.902 9.71335 165.143 9.56424 165.15 9.89016C165.152 9.9692 164.788 9.91995 164.461 9.79964C164.082 9.65938 163.763 9.57332 163.477 9.55562C163.165 9.53603 162.739 9.46004 163.453 9.82106C163.635 9.91304 163.766 10.0483 163.839 10.144C163.89 10.2111 163.84 10.2635 163.768 10.2882C163.68 10.3184 163.437 10.2388 163.311 10.1602C162.775 9.82418 162.283 9.62789 161.724 9.58749C161.315 9.55642 160.698 9.32028 160.41 9.11599C159.967 8.79952 159.364 8.77334 158.989 8.47268C158.919 8.41628 158.595 8.29488 158.527 8.3323C158.279 8.46517 157.68 8.19589 157.353 8.00094C156.549 7.5303 155.661 7.20065 154.799 6.81692C154.289 6.56387 153.757 6.29977 153.32 6.08285C152.248 5.59335 151.158 4.9656 150.125 4.55136C150.085 4.53708 150.006 4.50143 150 4.50302C150.006 4.51016 149.978 4.49863 149.969 4.49618C149.944 4.48684 149.919 4.47549 149.896 4.46255C149.849 4.43685 149.805 4.40481 149.759 4.37307C149.607 4.40658 149.442 4.45431 149.298 4.56069C149.268 4.62429 148.738 4.7903 148.389 4.9031C148.003 5.027 147.617 5.16378 147.313 5.35885C146.285 5.52371 145.33 6.21951 144.298 6.36709C143.123 6.95168 141.916 7.37655 140.664 7.66744C140.565 7.69051 140.407 7.75435 140.321 7.8041C139.985 7.99654 139.642 8.23177 139.223 8.27065C138.864 8.30385 139.035 8.08138 138.924 7.99215C138.894 7.96816 138.826 7.9352 138.766 7.95394C138.544 8.02431 138.541 8.08163 138.557 8.13204L138.622 8.39962C138.638 8.48861 138.467 8.5892 138.201 8.6918L137.844 8.82675C136.665 9.23788 135.485 9.76254 134.288 10.0079C133.277 10.559 132.065 10.8465 130.94 11.2395C130.699 11.3257 129.918 11.5448 129.327 11.6925C129.28 11.7002 129.222 11.7289 129.162 11.726C129.105 11.7049 129.042 11.6813 128.973 11.6555C128.835 11.6054 128.672 11.5465 128.489 11.4802C128.165 11.364 127.769 11.2217 127.323 11.0618C126.69 10.8234 125.918 10.533 125.148 10.2431C123.61 9.65921 122.087 9.05447 121.662 8.93802C121.06 8.77506 120.594 8.62607 119.978 8.2833C119.371 7.94187 118.53 7.67557 117.846 7.39335C116.593 6.87827 115.407 6.30467 114.2 5.65867C113.927 5.50883 113.646 5.35478 113.366 5.20127C113.301 5.16343 113.24 5.25034 113.17 5.28031C113.066 5.34043 113.112 5.34257 112.784 5.51493C112.515 5.66526 112.263 5.8198 111.978 5.90781C111.585 6.0289 111.213 6.08414 110.828 6.23154C110.544 6.34024 110.653 6.53617 110.187 6.69846C109.208 7.03928 108.32 7.54044 107.375 7.93357C107.2 8.00632 107.022 8.09086 106.851 8.15116C106.274 8.3552 105.852 8.85618 105.312 8.87406C105.007 8.88444 105.072 8.63419 104.952 8.51005C104.929 8.48698 104.817 8.50614 104.746 8.50566C104.702 8.5573 104.618 8.62486 104.621 8.6577L104.701 8.92168C104.75 9.20922 104.738 9.2282 103.754 9.54741C103.308 9.69219 102.977 9.83031 102.634 10.0633C102.252 10.3226 101.974 10.3249 101.764 10.3199C101.527 10.3144 101.758 10.1394 101.957 9.98924C102.106 9.88438 102.267 9.77055 102.423 9.66075C102.036 9.7816 101.651 9.90178 101.258 10.0246C101.239 10.0309 101.145 10.1646 101.126 10.2249C101.07 10.4036 101.489 10.4108 100.797 10.8168C100.286 11.1174 99.9081 11.2758 99.3474 11.4486C98.6362 11.6676 97.873 12.0976 97.1153 12.2903C97.0044 12.3236 96.9725 12.3486 96.6612 12.5055C96.4039 12.6344 96.1325 12.8031 95.9544 12.8743C95.8266 12.9306 95.6955 12.9884 95.5617 13.0473L95.3518 13.1309L95.1271 13.1077C94.8232 13.0725 94.5113 13.0261 94.2163 12.9432C93.9223 12.8646 93.6372 12.7733 93.4087 12.672C93.1729 12.5624 93.1199 12.522 93.0107 12.4568C92.4477 12.1016 92.2626 12.0873 91.8924 12.0209L90.4778 11.4111C89.885 11.116 89.3432 10.8071 88.6978 10.5283C87.8491 10.1645 86.9085 9.77428 86.1676 9.19597C85.6373 8.78349 85.0782 8.70714 84.5363 8.46452C83.985 8.21635 83.5497 8.02623 82.9673 7.68242C81.8643 7.03099 80.6361 6.43157 79.4606 5.86461C79.3105 5.79082 79.1504 5.71214 78.9864 5.63164C78.9579 5.62279 78.932 5.58159 78.8993 5.58586C78.8615 5.5869 78.845 5.57701 78.7925 5.57225C78.5343 5.62285 78.2901 5.67064 78.0691 5.71397C77.9211 5.73857 77.7285 5.71568 77.6229 5.8231C77.2827 6.16477 76.5066 6.23936 76.0049 6.49333C75.4599 6.78404 74.8821 6.81529 74.3228 7.00053C73.8099 7.16386 73.2809 7.34697 72.7846 7.59581C72.4708 7.74889 72.0319 7.96812 71.7709 8.02263C70.8493 8.21367 70.0185 8.47551 69.2766 9.03435L66.7459 10.1136C66.2842 10.2468 65.7747 10.4776 65.4026 10.6939C64.8357 11.0268 64.228 11.3071 63.6223 11.5916L62.7201 12.0246C62.2615 12.2647 61.807 12.5029 61.3554 12.7393C61.1543 12.8385 60.915 12.9566 60.7079 13.0587C60.4733 13.1795 60.2524 13.3001 60.0439 13.3749C59.8454 13.2456 59.6549 13.1216 59.466 12.9986C59.0937 12.7479 58.743 12.502 58.3458 12.2615C58.1787 12.1578 58.0442 12.0743 57.935 12.0065C57.8828 11.9691 57.8454 11.9371 57.8196 11.9093C57.7677 11.8536 57.7617 11.8146 57.7737 11.7822C57.7978 11.7175 57.8946 11.6794 57.8402 11.5859C57.7922 11.5026 57.6961 11.4081 57.51 11.324C57.3103 11.2338 57.2804 11.2621 57.3417 11.3602C57.5412 11.688 57.4017 11.6883 56.6886 11.3972C55.8009 11.0351 54.9275 10.7828 54.0863 10.2275C53.7763 10.0232 53.5585 10.0255 53.3141 9.94767C52.2979 9.63499 52.1819 9.56339 52.0913 9.17496C52.0816 9.13297 52.1346 9.11124 52.1115 9.06601C52.0921 9.02664 52.007 8.9675 51.9508 8.91708C51.8826 8.92123 51.7729 8.90707 51.7531 8.93246C51.5891 9.13992 51.3183 9.08853 50.4292 8.68722C49.6887 8.35024 49.3856 8.29977 49.3371 8.0762C49.3101 7.95187 49.3844 7.8605 49.3708 7.74008C49.3647 7.68075 49.2447 7.58908 49.027 7.51742C48.8293 7.45205 48.717 7.44888 48.6868 7.50387C48.6692 7.53622 48.6249 7.55911 48.6267 7.59768C48.6424 7.88851 48.4749 8.05013 47.3636 7.58041C46.9026 7.57479 46.4097 7.43624 45.9291 7.25686C45.689 7.1658 45.4521 7.06649 45.2247 6.96548L45.0559 6.88986C44.9961 6.86325 45.0345 6.87124 45.0185 6.86007L44.9961 6.82028C44.9827 6.7894 44.9681 6.76846 44.9498 6.77347C44.9411 6.77365 44.9322 6.77573 44.9237 6.77902L44.7192 6.86642C44.2088 7.08688 43.705 7.30453 43.196 7.52444C42.051 7.99777 42.0665 8.02542 41.6566 7.81106C41.6024 7.78304 41.4859 7.78591 41.3986 7.77426C41.3571 7.84415 41.296 7.92056 41.2777 7.98257C41.167 8.36282 40.4591 8.8384 39.7417 8.94705C39.0249 9.05557 38.6856 9.3082 38.2542 9.57846C37.8228 9.84891 37.6337 9.87259 37.5472 9.75314L37.3463 9.42276C37.3097 9.37833 37.1789 9.3826 36.9643 9.47708C36.5053 9.67911 36.8033 9.63565 36.8951 9.65982C37.0324 9.69589 37.1502 9.7402 36.9924 9.89853C36.8005 10.0894 36.6141 10.2748 36.4138 10.474C36.3924 10.4942 36.2086 10.552 36.1145 10.5749C35.5818 10.7047 35.0497 10.9591 34.5492 11.1833C34.0612 11.4019 33.5472 11.425 33.0857 11.768C32.977 11.8487 32.7483 11.8911 32.6735 11.8592C32.5587 11.8106 32.3999 11.8339 32.1917 12.001C31.7955 12.3189 31.4036 12.6015 30.8379 12.5733C30.6737 12.5679 30.6091 12.6411 30.2634 12.7983C29.8678 12.9747 29.4718 13.1513 29.0693 13.3309L28.007 13.4611L27.7401 13.4913L27.6734 13.4988L27.64 13.5025L27.639 13.5026C28.5507 8.73833 27.8921 12.1819 28.0958 11.1185L28.097 11.1185L28.0995 11.1182L28.1044 11.1179L28.1143 11.117C28.1399 11.1133 28.1683 11.116 28.1917 11.1069C28.276 11.0258 28.1328 10.9244 28.0765 10.8592C27.9986 10.7878 27.9178 10.7192 27.8333 10.6557L27.7704 10.6073L27.739 10.5831L27.7232 10.5711C27.7132 10.5766 27.6652 10.6567 27.6381 10.6959L26.8689 11.8677L26.4845 12.4534L26.3884 12.5998C26.3769 12.5952 26.3673 12.5856 26.3566 12.5787L26.2942 12.5336L26.0443 12.3537C25.8392 12.204 25.8176 12.1981 25.7165 12.1312C25.408 11.935 25.1258 11.7452 24.9396 11.5172C24.8621 11.4219 24.6676 11.2283 24.6339 11.2177C23.8039 10.9484 23.2309 10.3342 22.5178 9.91047C21.858 9.51844 21.1714 9.13172 20.5022 8.79334C19.757 8.41651 19.0846 7.92859 18.4021 7.50489C18.1203 7.3274 17.8466 7.15498 17.5722 6.982C17.4427 6.90033 17.4688 6.92188 17.4097 6.9087L17.3937 6.92262C17.3731 6.9424 17.3549 6.95643 17.3372 6.96748L17.311 6.98195C17.3013 6.98665 17.3217 6.98128 17.1899 7.02321C16.8112 7.14626 16.4296 7.27028 16.0546 7.39223C15.3501 7.63369 14.6167 7.81911 13.9587 8.14327C13.6566 8.29305 13.1717 8.43422 12.7523 8.47494C11.5411 8.59072 10.3399 9.00692 9.30854 9.57711C8.71864 9.90597 8.08912 10.0658 7.4809 10.2997C6.67902 10.6061 5.91413 10.8564 5.10962 11.0659C4.43488 11.243 3.61285 11.729 3.13129 11.6154C3.09882 11.6071 2.93128 11.6689 2.83606 11.7155C2.55457 11.8484 2.28833 12.1753 2.05762 12.1247C1.78473 12.0669 1.6875 11.8812 1.86414 11.5711C2.14167 11.1314 1.93317 11.0261 1.09137 11.2278C1.00519 11.2478 0.890809 11.2975 0.789429 11.3335C1.17389 10.9616 0.629269 10.9729 1.07019 10.5638C1.46368 10.2066 1.8349 9.9288 2.50891 9.78146C2.72406 9.73526 2.98303 9.61178 3.0188 9.49868C3.05231 9.39291 2.85181 9.42587 2.58923 9.52535C2.37512 9.60817 2.2052 9.5671 1.96045 9.74355C1.80823 9.85463 1.56018 9.93801 1.64844 9.85512C2.00775 9.51833 1.18128 9.71468 1.57917 9.39107C2.09553 8.97243 2.01447 8.80013 1.82917 8.66707C1.57484 8.49019 2.02485 8.01302 1.53083 7.94295C1.409 7.92604 1.43317 7.81478 1.69154 7.67208C2.20436 7.38515 2.40522 7.11452 2.97572 6.84939C3.12806 6.77932 3.17726 6.68972 3.42762 6.62393C4.6847 6.27524 5.9123 5.80026 7.15235 5.33859C7.71155 5.13107 8.19117 5.22421 8.82654 4.90005C9.43988 4.58645 9.98645 4.61837 10.5931 4.41824C11.1736 4.22824 11.78 4.09195 12.3519 3.90072C12.6395 3.8041 12.7724 3.79989 12.9822 3.76895C13.3909 3.70834 14.0798 3.49191 14.4268 3.29697C14.8482 3.06101 15.2159 2.93088 15.7215 2.87613C15.8463 2.85782 15.8862 2.8635 16.1107 2.80728C16.3217 2.75082 16.5442 2.69119 16.7678 2.63132C17.2125 2.50461 17.6573 2.36002 18.0236 2.2233C18.1852 2.31613 18.3171 2.38553 18.4313 2.43894C19.0898 2.74534 20.0278 3.32847 20.3108 3.49619C20.735 3.75376 21.1598 4.01346 21.5749 4.16355C21.908 4.52579 22.7446 4.93589 22.887 5.1301C23.0964 5.41617 23.3881 5.5225 23.5928 5.62815C24.3111 5.99906 24.8665 6.47227 25.5301 6.87583C25.8293 7.05759 25.8202 7.14579 25.7841 7.20823C25.7462 7.27445 25.6446 7.28306 25.3519 7.11997C24.4331 6.60673 23.4464 6.18418 22.6704 5.51041C22.2472 5.14286 22.1481 5.19889 21.9857 5.2211C21.9153 5.23062 21.7234 5.20615 21.9535 5.34506C22.4135 5.62283 22.7289 5.99423 23.1072 6.173C23.855 6.52639 24.4481 6.99179 25.0706 7.40097C25.6951 7.81198 26.3489 8.19858 26.9634 8.64194C27.1408 8.77024 27.3268 8.8931 27.5171 9.01682L27.9945 9.32609C28.0951 9.39256 28.1926 9.4614 28.283 9.54478C28.3274 9.58702 28.3732 9.63108 28.4066 9.68888C28.4277 9.7139 28.4335 9.76047 28.3989 9.77647L28.3522 9.79063L28.3864 9.78648C28.5253 9.61027 28.6449 9.54606 28.7829 9.50389C28.9478 9.45213 29.0733 9.45299 29.2927 9.35002C29.8694 9.08574 30.4078 8.77977 31.0839 8.58916C31.5026 8.47124 32.0002 8.27599 32.4478 8.11669C33.3842 7.78338 34.3179 7.50909 35.3138 6.98278C35.8806 6.68316 36.626 6.30505 37.4296 6.05126C38.1003 5.83947 38.8723 5.4146 39.5237 5.22149C40.283 4.99651 40.811 4.62933 41.4902 4.37737C42.116 4.14519 42.7731 3.88903 43.3276 3.52697C43.3953 3.48412 43.4512 3.44988 43.558 3.39843C43.6816 3.34405 43.813 3.28619 43.9459 3.22771C44.2148 3.11687 44.4924 3.02098 44.7122 2.96392C44.85 2.88189 44.9941 2.9981 45.1362 3.04613L45.5646 3.21068C45.8286 3.30779 46.0951 3.40587 46.3618 3.50408C47.272 3.8706 48.2035 4.06438 49.1157 4.48925C49.9821 4.89098 50.9436 5.18517 51.8561 5.55041C52.3878 5.7597 52.9117 5.99383 53.4369 6.21856C53.592 6.28704 53.7123 6.42791 53.8879 6.43627C54.5543 6.4649 55.3473 6.91741 56.0862 7.21355C56.2861 7.29705 56.4166 7.32793 56.4784 7.29161C56.5425 7.25365 56.4429 7.16954 56.3026 7.06749C55.7545 6.68028 55.0002 6.35124 54.4521 6.21074C53.8601 6.05248 53.4156 5.99284 52.8674 5.61192C51.8641 5.356 50.949 4.69536 49.8618 4.49339C49.2008 4.37388 48.6191 3.88237 47.8543 3.63249C47.6209 3.55711 47.5965 3.35618 47.8356 3.38536C48.2045 3.43126 48.6093 3.43974 49.1385 3.72844C49.7289 4.05174 50.355 4.3015 51.0174 4.45042C51.8316 4.63511 52.544 4.92289 53.1748 5.37486C53.3416 5.49473 53.6532 5.72307 53.908 5.70268C54.5439 5.64323 55.4616 6.2155 56.2258 6.4774C56.3968 6.53178 56.6922 6.75584 56.9539 6.77946C57.2005 6.80259 57.4373 6.88194 57.6505 7.09165C57.8499 7.29203 58.0936 7.48447 58.5128 7.59226C58.7892 7.65836 59.2261 7.91684 59.6325 8.15525C59.7345 8.21378 59.8345 8.27116 59.929 8.32535C60.0065 8.36795 59.9637 8.34549 59.9811 8.35489L60.0103 8.36923C60.0484 8.38449 60.0818 8.38223 60.105 8.34622C60.1492 8.28293 60.1875 8.27701 60.2106 8.39053C60.2312 8.51071 60.2694 8.55136 60.2751 8.64425C60.2809 8.70382 60.2504 8.89211 60.1183 8.86843C59.9571 8.87008 59.9438 8.96358 60.1411 9.14022C60.1969 9.22658 60.2771 9.18087 60.3505 9.17696C60.4236 9.16506 60.4903 9.14821 60.5117 9.12252C60.5895 9.02908 60.6661 8.96291 60.7478 8.91079C60.8633 8.84267 61.1035 8.73031 61.2836 8.65145C61.6728 8.47835 62.0759 8.3218 62.4359 8.11391C63.1415 7.7062 63.9892 7.46822 64.7047 7.11409C65.4333 6.75203 66.2095 6.4944 66.9266 6.08278C67.3546 5.8329 67.9781 5.64992 68.4689 5.44209C68.9805 5.22773 69.5867 5.14796 70.0585 4.7928C70.18 4.70235 70.5176 4.56154 70.7277 4.50044C72.1495 4.09096 73.5812 3.48762 75.0198 3.09901C75.1961 3.05256 75.505 2.9958 75.5238 2.97798C75.914 2.60322 76.6195 2.51826 77.2256 2.33272C77.5919 2.22585 77.957 2.11934 78.3116 2.01595C78.5319 1.96077 78.7488 1.90651 78.9622 1.85311C79.0665 1.83816 79.1722 1.78902 79.2698 1.80837L79.545 1.9844C79.9101 2.12075 80.3412 2.31411 80.6737 2.4808C80.9344 2.61111 81.1915 2.75405 81.4466 2.89682C81.9531 3.18387 82.4543 3.46884 82.9636 3.6503C83.4709 3.83054 83.3096 4.1304 83.7745 4.14456C84.118 4.15524 84.462 4.45675 84.8094 4.58816C85.5999 4.88729 86.3774 5.35476 87.16 5.74984C87.2679 5.80398 89.8511 7.09963 89.9446 7.14651C90.4716 7.36459 91.0331 7.49929 91.4879 7.89352C92.146 8.21316 92.7989 8.5303 93.4551 8.84903C93.7811 9.00504 94.107 9.15579 94.4274 9.28067C94.6147 9.35727 94.6557 9.37204 94.7552 9.39944C94.8437 9.42385 94.9304 9.45187 95.0215 9.45364C95.1761 9.4841 95.3108 9.32718 95.4413 9.28469L96.2753 8.89706C96.8854 8.62722 97.4984 8.35604 98.1069 8.08688C99.1604 7.62924 100.266 7.2706 101.23 6.67398C101.359 6.5939 101.629 6.4733 101.74 6.4548C102.479 6.33175 103.034 5.89267 103.668 5.60623C104.21 5.36642 104.739 5.13205 105.285 4.89029C106.427 4.40384 107.65 3.97391 108.685 3.33353C109.238 3.17545 109.753 2.94657 110.259 2.70035L111.014 2.32468L111.393 2.13968L111.847 1.93295C112.131 1.8088 112.764 1.55581 112.521 1.54776C112.361 1.54153 112.425 1.32962 111.531 1.76053C111.259 1.90036 110.985 2.04172 110.703 2.17044C110.469 2.27725 110.237 2.35458 110.16 2.28482C110.098 2.22873 110.083 2.12106 110.312 2.02188C110.584 1.90378 110.812 1.74789 111.059 1.60586C111.195 1.52932 111.281 1.47964 111.479 1.39718C111.73 1.29165 111.999 1.19344 112.288 1.1119C112.61 1.02193 112.957 0.86666 113.301 0.69552L113.563 0.56252C113.648 0.56099 113.731 0.63033 113.815 0.66103L114.326 0.90816L115.705 1.60323C115.95 1.71529 116.195 1.8279 116.444 1.94167C116.94 2.17598 117.448 2.42568 117.963 2.72017C118.573 3.06123 119.31 3.37898 119.945 3.64613C120.727 3.97126 120.414 4.07911 120.735 4.23896C121.183 4.45612 121.118 4.07441 121.665 4.39466C121.925 4.54584 122.233 4.52759 122.353 4.69746C122.424 4.80268 123.297 5.35145 123.841 5.58009C124.386 5.80665 124.612 6.03059 124.612 6.03059C125.062 6.43843 125.647 6.53071 126.264 6.6883C126.509 6.75263 126.861 6.88154 127.023 7.02668C127.061 7.06171 127.011 7.1031 126.941 7.1023C126.695 7.10102 126.448 7.1344 126.061 6.90473C125.814 6.75873 125.587 6.69623 125.285 6.5951C124.869 6.4043 124.411 6.35401 123.977 6.23548C123.44 6.09467 122.747 5.88373 122.468 5.69581C122.063 5.41432 121.228 5.34998 121.158 5.00739C121.153 4.98279 120.846 4.83283 120.704 4.83082C120.203 4.82087 119.571 4.54579 118.952 4.27021C118.851 4.22608 118.744 4.20448 118.629 4.1692C118.679 4.21656 118.712 4.27058 118.778 4.30586C119.097 4.47548 119.323 4.72859 119.667 4.81624C120.442 5.02022 121.088 5.44924 121.762 5.69496C122.679 6.03486 123.51 6.46504 124.415 6.75014C125.095 7.01912 125.752 7.2054 126.414 7.44179C127.157 7.70729 128.132 8.10927 128.648 8.16738C128.775 8.17318 128.891 8.20077 129.005 8.23977L129.175 8.30502C129.225 8.30545 129.27 8.28982 129.318 8.28311C129.415 8.26456 129.503 8.24667 129.601 8.20962C129.772 8.14974 129.933 8.07687 130.08 7.97879C130.168 7.92044 130.54 7.83133 130.755 7.78983C131.414 7.6644 132.04 7.4647 132.623 7.1569C133.105 6.90006 133.714 6.68351 134.168 6.57902C135.427 6.28434 136.635 5.76359 137.863 5.33012C138.161 5.22471 138.461 5.11467 138.754 4.99736C139.168 4.8308 139.746 4.80754 140.002 4.44011C140.058 4.35826 140.885 4.09032 141.357 3.90947C141.533 3.84197 141.766 3.74071 141.736 3.69896C141.695 3.64208 141.515 3.63988 141.39 3.61723C141.258 3.59269 141.115 3.67289 140.979 3.7556C140.809 3.85881 140.607 4.0222 140.481 4.0551C140.036 4.17064 139.746 4.03832 139.342 4.23619C139.094 4.35704 138.823 4.67467 138.526 4.76103C138.045 4.90111 137.6 5.17778 137.159 5.23399C137.035 5.24992 136.959 5.17155 136.791 5.30888C136.387 5.6414 135.927 5.74736 135.439 5.81956C135.227 5.85148 134.908 5.89744 134.8 5.99217C134.356 6.38347 133.678 6.52623 133.025 6.76616C132.607 6.92253 132.315 7.11028 132.065 7.00713C132.009 6.98357 131.858 7.0302 131.786 7.09771C131.3 7.55535 130.528 7.54528 129.905 7.76885C129.742 7.82573 129.622 7.85796 129.533 7.87243C129.44 7.88799 129.455 7.86169 129.425 7.84478C129.389 7.80297 129.381 7.73345 129.364 7.67205C129.362 7.58727 129.319 7.55968 129.423 7.5061C129.554 7.44427 129.737 7.38629 129.92 7.32556C130.236 7.21722 130.488 7.19775 130.769 7.13055C131.426 6.97619 132.12 6.83679 132.708 6.45684C132.819 6.38366 133.089 6.2503 133.152 6.24554C133.725 6.20483 134.465 5.81054 135.031 5.7564C135.421 5.43908 136.055 5.24474 136.621 5.04473C137.233 4.82775 137.856 4.63708 138.468 4.45336C138.879 4.33031 139.095 4.15905 139.392 4.00994C139.922 3.74279 140.441 3.4389 140.942 3.49279C141.17 3.51714 141.317 3.36956 141.51 3.28997C142.628 2.83807 143.709 2.40105 144.844 1.9425C145.23 1.78521 145.822 1.70062 145.83 1.68103C146.03 1.22186 147.028 1.27466 147.599 0.95526C147.697 0.90082 147.802 0.85199 147.965 0.78912C148.194 0.7099 148.448 0.62201 148.711 0.531C148.976 0.43926 149.25 0.34442 149.517 0.25195C149.651 0.20251 149.783 0.15374 149.912 0.10626L150.103 0.03204C150.134 0.02203 150.165 0.00164 150.196 0L150.289 0.04211C150.58 0.17193 150.854 0.32452 151.135 0.5177C151.996 1.09943 152.19 1.17236 152.567 1.32764C152.916 1.46149 153.267 1.53485 153.556 1.59241C153.931 1.66547 154.004 1.73102 154.128 1.85987C154.419 2.16102 154.962 2.15876 155.314 2.44935C155.686 2.75501 156.019 2.72572 156.342 2.78694C156.677 2.85121 156.983 3.00014 157.321 3.17811C157.707 3.38221 158.234 3.67585 158.524 3.73603C159.171 3.87385 159.694 3.98518 160.466 4.36561C161.064 4.66041 161.787 4.89906 162.455 5.13819C163.183 5.39759 163.378 5.57789 163.251 5.75196C163.227 5.78529 163.356 5.88337 163.416 5.9513C163.496 5.93043 163.596 5.91901 163.65 5.88593C163.706 5.85138 163.685 5.77918 163.757 5.7533C163.874 5.71106 164.11 5.79779 164.354 5.89771C164.568 5.98511 164.674 6.06946 164.671 6.12641C164.664 6.24042 164.605 6.33594 164.579 6.44318C164.566 6.49616 164.504 6.56238 164.59 6.61573C165.205 6.99787 165.891 7.38593 165.13 7.41273C165.307 7.69557 165.506 7.98347 165.656 8.25856C165.81 8.53816 165.566 8.5619 164.934 8.34401C164.699 8.26253 164.452 8.1675 164.229 8.06599C163.468 7.71962 163.182 7.80445 162.852 7.84071C162.791 7.84724 162.9 7.96498 162.984 8.0395C163.018 8.06922 163.231 8.14747 163.308 8.15766C163.579 8.19318 163.663 8.09333 164.145 8.2782C164.533 8.4281 165.1 8.47516 164.912 8.71607C164.779 8.88514 165.163 9.08283 165.763 9.23878C165.931 9.28211 166.096 9.30909 166.263 9.36647C166.604 9.48262 166.552 9.56776 166.626 9.66078C166.692 9.74306 166.891 9.85147 166.545 9.80325ZM3.22088 10.9767C3.1806 10.9491 2.96337 10.9794 2.8402 11.032C2.52593 11.1679 2.6715 11.2106 2.65893 11.2716C2.68243 11.3324 2.76043 11.3549 2.93591 11.2668C3.14325 11.1606 3.29223 11.0258 3.22088 10.9767ZM14.5322 3.93765C14.3209 3.93551 14.074 3.95553 13.8904 3.96426C13.6072 4.08993 13.3908 4.186 13.1888 4.2756C13.129 4.30447 13.0791 4.37167 13.1128 4.37692C13.2796 4.40298 14.3999 4.14932 14.6101 4.04324C14.873 3.91085 14.6293 3.93875 14.5322 3.93765ZM20.6233 4.32138C20.3455 4.23685 20.18 4.11063 20.0356 3.97909L19.826 3.78128C19.7585 3.71957 19.6847 3.66031 19.5263 3.56448C19.1805 3.36087 18.503 2.91824 17.9789 2.56491C17.4484 2.71927 17.0143 2.84347 16.7881 2.89688C16.642 2.93179 16.5276 2.94009 16.3956 2.96164C16.3612 3.01071 16.2551 3.07388 16.1139 3.14322C16.0281 3.19064 15.9273 3.24631 15.8327 3.29862C15.6477 3.39921 15.4919 3.49247 15.5816 3.54795C15.7443 3.60929 16.0511 3.59678 16.8004 3.32328C17.0748 3.2216 17.2745 3.14701 17.5804 3.10215L17.9242 2.98197L19.3141 3.79874L20.3306 4.35764C20.4236 4.40738 20.5257 4.42722 20.6043 4.4423C20.7272 4.46568 20.701 4.345 20.6233 4.32138ZM19.7622 7.69187C19.7961 7.69407 19.6379 7.51951 19.5301 7.42039C19.3233 7.23094 19.2706 7.29521 19.2191 7.31095C19.1548 7.33079 19.139 7.38486 19.1025 7.42448C19.0854 7.47575 19.0529 7.51872 19.0565 7.58091C19.0587 7.61869 19.1166 7.68601 19.1501 7.74039C19.2264 7.76529 19.3517 7.8223 19.371 7.80973C19.4659 7.74497 19.5522 7.67789 19.7622 7.69187ZM22.1459 6.79154C22.2135 6.64426 21.8533 6.44547 21.5238 6.26475C21.451 6.22477 21.3746 6.21842 21.2928 6.19462C21.4406 6.35618 21.7718 6.55723 21.7685 6.68205C21.7685 6.70408 21.8836 6.78782 21.9454 6.843C22.0145 6.82719 22.1252 6.83573 22.1459 6.79154ZM24.0574 7.84293C23.816 7.5933 23.6396 7.67307 23.4158 7.57944C23.1299 7.46036 23.1844 7.40604 23.1465 7.33768C23.0432 7.15103 22.8497 7.09207 22.6896 7.06504C22.3912 7.01456 22.9942 7.63114 22.0987 7.14072C22.1407 7.20206 22.1601 7.2623 22.2034 7.28855C22.578 7.51584 22.9601 7.76212 23.3327 7.95267C23.6443 8.11215 23.6471 7.97531 23.7483 7.93558C23.8448 7.89749 24.2463 8.03873 24.0574 7.84293ZM34.9851 9.84519C35.0028 9.74558 34.8396 9.76468 34.5621 9.87076C33.7116 10.1958 32.861 10.6189 32.0043 10.8191C31.9006 10.8432 31.6461 10.9804 31.5659 11.0498C31.2875 11.291 31.7592 11.1706 31.901 11.2093C31.956 11.2245 32.0201 11.3091 32.2078 11.1397C32.6595 10.732 33.4498 10.6049 33.9988 10.2901C34.2267 10.1328 34.4177 10.1513 34.6291 10.0705C34.8113 10.0008 34.9727 9.91507 34.9851 9.84519ZM39.8216 7.73911C39.7191 7.76285 39.613 7.77298 39.515 7.81254C39.0525 8.00419 38.5956 8.19352 38.0672 8.41245C37.6761 8.53641 37.2198 8.80869 36.7651 8.90329C36.4792 8.96286 36.3183 9.07596 36.2317 9.17728C36.0729 9.36258 36.3753 9.35947 36.5897 9.32676C36.9245 9.27586 36.808 9.16764 36.9034 9.08421C37.0222 8.98051 37.195 8.90263 37.3465 8.86827C38.1931 8.67619 38.8067 8.14604 39.6081 7.88896C39.6667 7.87022 39.7495 7.79062 39.8216 7.73911ZM40.0167 6.62705C40.3633 6.52945 40.7323 6.39957 40.868 6.20408C40.9745 6.05106 40.5599 6.16728 40.4745 6.10948C40.9323 5.84233 40.8449 5.76182 40.5454 5.76225C40.4901 5.76256 40.2867 5.82866 40.2462 5.85826C39.9205 6.09624 40.498 5.93559 40.4324 6.06316C40.421 6.08483 40.4404 6.09716 40.4458 6.1137C40.1691 6.21831 39.8876 6.36034 39.7212 6.29156C39.513 6.20526 39.0722 6.30718 38.5669 6.55114C37.9715 6.83862 38.4052 6.84399 38.3134 6.99505L38.2098 7.13702C38.0675 7.15789 37.931 7.17785 37.7806 7.19995C37.6225 7.21857 37.5994 7.16742 37.6742 7.08514C37.9447 6.78851 37.6745 6.88281 37.2706 7.1167C37.0212 7.26123 36.8362 7.40613 36.5112 7.46564C35.9106 7.57556 35.2356 7.99311 34.6346 8.11335C34.4909 8.1421 34.3936 8.18311 34.3824 8.24281L34.3562 8.59016C33.8351 8.77955 34.2685 8.35994 33.7276 8.56202C33.0849 8.80213 32.4588 9.05494 31.961 9.40022C31.4494 9.30818 30.4585 9.89393 29.8145 9.98066C29.8039 9.98145 29.491 10.1856 29.5134 10.2152C29.5745 10.3723 29.2245 10.5836 28.8802 10.8036C28.7186 10.9064 28.5613 11.0061 28.4516 11.0977C28.466 10.9716 28.4989 10.8133 28.4894 10.6814C28.4855 10.6306 28.3944 10.6175 28.3488 10.5849C28.2783 10.6286 28.2249 10.6698 28.1892 10.7074C28.149 10.7462 28.2064 10.762 28.1762 10.7987C28.0951 10.9185 28.155 11.0882 28.2264 11.0295C28.18 10.9263 27.9319 10.7465 27.6176 10.433C26.9662 10.17 26.3782 9.54914 25.6764 9.23786C25.4137 9.12098 25.0403 8.78889 25.1751 8.72046C25.3896 8.61231 24.7834 8.31519 24.6311 8.12933C24.3233 8.04297 24.5193 8.24054 24.5382 8.34924C24.5544 8.44311 24.3076 8.39801 24.2387 8.45416C24.1781 8.50238 24.2333 8.62018 24.4907 8.78924C25.0032 9.12683 25.5381 9.43878 26.0638 9.7633C26.3268 9.92553 26.5866 10.0914 26.8396 10.2654C27.0965 10.3897 27.3115 10.791 27.7376 10.5822C27.8113 10.6472 27.9117 10.6911 28.1679 10.9543C28.2132 11.0071 28.2538 11.0859 28.1886 11.1096L28.122 11.1163L28.108 11.1175L28.1014 11.1181L28.0982 11.1183L28.097 11.1185L28.0958 11.1185L28.0484 11.3635L28.0739 11.3393C28.1612 11.2602 28.243 11.1865 28.4516 11.0977C28.5576 11.1334 28.6519 11.183 28.9034 11.113C29.0106 11.0776 29.1676 11.0042 29.3691 10.8857C29.7676 10.6533 30.1596 10.5242 30.5751 10.3857C31.6042 10.0443 31.6066 10.0403 31.6553 9.67362C31.6634 9.60984 31.6985 9.54416 31.9035 9.44925C31.965 9.54086 31.9983 9.64591 32.0955 9.72073C32.1787 9.78469 32.5155 9.77133 32.6902 9.66201C33.1787 9.35647 33.6428 9.38784 34.1425 9.08285C34.6513 8.77224 35.4151 8.56484 35.9264 8.30117C36.659 7.9233 37.5409 7.49581 38.092 7.36758C38.8504 7.19113 39.3848 6.80509 40.0167 6.62705ZM41.532 7.0463C41.5438 7.03562 41.4196 7.03129 41.3542 7.05466C41.1296 7.1348 40.8803 7.2125 40.721 7.35587C40.7823 7.35495 40.8457 7.37272 40.9071 7.34946C41.1328 7.26371 41.3888 7.17929 41.532 7.0463ZM45.2972 5.7529C45.2804 5.72031 45.2561 5.67044 45.2203 5.65555C45.1113 5.62076 45.0104 5.54996 44.905 5.5499L44.5932 5.65958L43.4906 6.07694C43.2641 6.23246 43.0086 6.36216 42.7008 6.42753C42.4949 6.47117 42.3972 6.53428 42.3825 6.61003C42.3677 6.6887 42.5232 6.66557 42.6957 6.60509C43.5525 6.30925 44.7552 5.67443 44.9411 5.76305C44.9928 5.80175 45.1155 5.76451 45.2306 5.76958C45.2564 5.77013 45.3 5.75882 45.2972 5.7529ZM47.1434 4.76395C47.0674 4.71451 47.0046 4.65635 46.9134 4.61716C46.6073 4.48477 46.2896 4.37815 45.9702 4.26474C45.6239 4.14407 45.2698 4.01675 44.901 3.85495C44.4673 3.95822 43.9037 4.32309 43.3647 4.48416C42.8407 4.64993 42.4075 5.01572 41.946 5.29513C42.0034 5.29653 42.0464 5.31399 42.1199 5.29702C42.763 5.14919 41.9622 5.65853 42.3552 5.58309C42.7851 5.50057 42.7787 5.19057 43.3089 5.05764C43.4797 5.0126 43.634 4.97182 43.798 4.92855C44.0871 4.85073 44.3171 4.81386 44.5506 4.7402C44.9106 4.52414 45.2095 4.73922 45.4474 4.74673C45.6789 4.77322 45.8636 4.74465 45.922 4.64126C45.9358 4.61434 45.8278 4.54244 45.7764 4.49252C45.7787 4.39145 45.8819 4.40701 46.1944 4.54861C46.3667 4.62625 46.6288 4.66763 46.8437 4.71878C46.9504 4.74387 47.0436 4.74936 47.1434 4.76395ZM49.2067 7.21622C49.1209 7.12674 49.4562 7.1052 48.963 6.93656C48.7146 6.8538 48.4712 6.84061 48.2255 6.79594C48.468 6.97612 48.6773 7.15739 48.9727 7.33274C49.0508 7.37931 49.1892 7.29606 49.2067 7.21622ZM51.1982 6.66397C51.5202 6.71963 51.16 6.55325 50.9735 6.33066C50.6114 5.89511 49.9686 5.94705 49.5821 5.70499C49.4902 5.64945 49.3947 5.59177 49.3077 5.53916C49.1975 5.46769 49.0907 5.43296 49.0362 5.46396C49.0005 5.48416 48.9864 5.54306 49.0349 5.56864C49.584 5.85892 49.6384 5.96787 48.9995 5.83201C48.8122 5.79228 48.4797 5.66599 48.6759 5.84843C48.7544 5.92167 48.9471 6.05357 49.0571 6.08525C49.7859 6.29814 50.5413 6.54849 51.1982 6.66397ZM50.7933 8.40909C50.8336 8.34982 50.8486 8.24149 50.6556 8.16458C50.4529 8.08383 50.4014 8.17544 50.3833 8.25595C50.4371 8.337 50.1781 8.37155 50.5775 8.52273C50.7901 8.60324 50.7552 8.46592 50.7933 8.40909ZM52.2391 8.32028C52.1755 8.24655 51.9274 8.0776 51.9109 8.07547C51.4437 8.01358 50.8528 7.66922 50.3959 7.60934C50.3169 7.59903 50.2971 7.63906 50.2505 7.65609L50.3253 7.73257C50.8913 7.79483 51.3504 8.233 51.8843 8.34628C52.0594 8.38253 52.3745 8.47702 52.2391 8.32028ZM54.1142 7.88559C54.1366 7.76834 53.7415 7.61148 53.5307 7.4747C53.2158 7.26907 52.9039 7.27872 52.5533 7.11661C52.1493 6.92801 52.1725 6.85416 52.2243 6.77378C52.455 6.83512 52.5459 7.0264 52.8018 7.03971C52.8628 7.04301 52.878 6.9885 52.8328 6.94541C52.6908 6.80887 52.4696 6.72831 52.2465 6.69474C52.2006 6.68778 52.1761 6.69968 52.1423 6.70304C51.5704 6.64677 51.5212 6.85001 51.8269 7.14182C52.0611 7.36716 52.5252 7.31119 52.9378 7.5264C53.0867 7.60648 53.2825 7.67606 53.4553 7.7396C53.7166 7.83567 54.0878 8.02627 54.1142 7.88559ZM70.6525 7.11063C70.5326 7.11917 70.3124 7.14457 70.238 7.18564C69.0641 7.82907 67.7532 8.29373 66.5144 8.84812C65.2983 9.39139 64.1222 10.0122 62.892 10.5347L62.5549 10.703C62.2263 10.872 61.7777 11.0824 61.9822 11.1614C62.1053 11.209 62.3804 11.1095 62.8119 10.8737C63.9632 10.2498 65.1784 9.68143 66.4074 9.15238C66.7894 8.99064 67.4496 8.91678 67.5712 8.56315C68.1238 8.28562 68.7198 8.23808 69.214 7.93168C69.6308 7.66819 70.1918 7.54118 70.552 7.27476C70.6663 7.19071 70.8458 7.09726 70.6525 7.11063ZM76.8843 5.10544C76.9588 4.99674 76.698 5.04392 76.4584 5.08823C76.0794 5.16019 75.7397 5.16153 75.34 5.42667C75.0719 5.60318 74.5952 5.66489 74.3684 5.7714C73.6883 6.10044 73.0304 6.12498 72.4106 6.44309C72.1551 6.57065 71.7283 6.80662 71.7564 6.83622C71.8386 6.92039 72.2095 6.73905 72.4684 6.64536C72.8776 6.49485 73.297 6.34372 73.6912 6.18198C74.67 5.76883 75.3921 5.65506 75.8929 5.77762C75.8913 5.83072 75.9016 5.88065 75.8846 5.93784C75.8617 6.01426 75.1956 6.18827 75.5926 6.19791C75.7302 6.20047 76.0256 6.14023 76.2225 6.07187C76.6486 5.92081 76.3961 5.87741 76.4101 5.79697C76.4275 5.69864 76.3636 5.62534 76.0303 5.68674C76.0221 5.5737 75.6302 5.53525 76.3365 5.2833C76.5214 5.21732 76.7809 5.2573 76.8843 5.10544ZM80.577 5.18027C80.5877 5.07572 80.3386 4.95627 80.1311 4.84366C79.8746 4.71201 79.5212 4.5297 79.4133 4.54257C79.1399 4.52878 79.3072 4.27957 79.0369 4.23947C78.8667 4.34054 78.7028 4.39926 78.5323 4.44687C78.3256 4.50406 77.9612 4.6022 77.6972 4.69919C77.525 4.76065 77.3682 4.82187 77.3785 4.87949C77.3812 4.89597 77.5819 4.84769 77.6671 4.84568C77.9433 4.84098 78.2881 4.7183 78.5386 4.62199C78.6798 4.55577 78.8184 4.48057 78.8859 4.50352C78.9291 4.51884 78.9696 4.52836 79.009 4.53306C79.0459 4.56754 79.0816 4.59776 79.1173 4.62272C79.1887 4.67301 79.2608 4.70658 79.3364 4.73551L79.4543 4.77842L79.677 4.87302C79.8284 4.93888 79.9771 5.00766 80.1187 5.08774C80.3273 5.20517 80.5673 5.28378 80.577 5.18027ZM82.2634 6.06784C82.3231 5.98886 82.1155 5.86697 81.9008 5.74545C81.7953 5.68576 81.6856 5.62491 81.5768 5.57303C81.2978 5.43991 80.9947 5.30185 80.9783 5.42935C80.9657 5.52377 81.2184 5.65109 81.3586 5.72604C81.5392 5.81814 81.6497 5.87442 81.7571 5.92916C81.9691 6.0273 82.203 6.1467 82.2634 6.06784ZM85.7666 6.27207C85.6111 6.13865 85.1515 5.93467 84.8249 5.76212C84.33 5.49985 83.8329 5.23642 83.3407 4.97556C82.8199 4.69504 82.3754 4.4719 82.2024 4.50889C82.1644 4.51737 82.0633 4.49107 81.9907 4.48051C81.951 4.43052 81.8841 4.36772 81.8769 4.33378C81.8654 4.27952 81.8019 4.20463 81.5162 4.07072C81.1194 3.88475 81.4141 4.07536 81.4126 4.10844C81.4118 4.1306 81.219 4.07225 81.0884 4.01188C80.669 3.81846 80.92 3.8765 80.8711 3.82224C80.8396 3.78757 80.8897 3.78843 80.8849 3.76462C80.8779 3.73154 80.8816 3.69638 80.6543 3.58939C80.5546 3.54245 80.4217 3.49283 80.3763 3.48716C80.2748 3.47428 80.2236 3.49107 80.1416 3.48991C80.1027 3.48973 80.0362 3.47416 79.9831 3.46611L79.8363 3.34331C79.5763 3.12877 79.4278 3.01036 79.2116 2.88628C78.9882 2.84569 78.6692 3.01403 78.0774 3.19127C77.7505 3.29918 77.4651 3.30547 77.1612 3.47539C76.753 3.70653 76.5726 3.61345 76.24 3.72521C76.1238 3.75884 76.0042 3.79339 75.8904 3.82628C75.5578 3.93938 75.2929 4.03655 75.5978 4.0117C75.7405 4.0001 75.7432 4.04478 75.3876 4.16758C75.166 4.24314 75.0889 4.24766 75.0284 4.23502C74.9673 4.22281 75.0707 4.13346 74.7544 4.2371C74.5488 4.30454 74.5303 4.41593 74.4321 4.40983C74.1622 4.39091 73.6402 4.60111 73.2289 4.72648C72.6951 4.88316 72.114 5.16996 71.671 5.30998C71.0521 5.5114 70.5747 5.6685 70.04 5.95561C69.9091 6.02653 69.5624 6.1555 69.3707 6.21483C68.6785 6.43193 67.982 6.7487 67.2964 7.04704C66.1036 7.56041 64.9463 8.13939 63.8681 8.58336C63.4584 8.7794 63.1687 8.91802 62.8883 9.05223C62.7177 9.13829 62.6786 9.18748 62.6557 9.23277C62.6311 9.2816 63.2776 9.03135 62.6511 9.34153C62.3778 9.4752 61.8256 9.77482 61.8162 9.70884C61.8054 9.63572 61.6479 9.67075 61.4742 9.80784C61.2031 10.0186 60.8649 10.2179 60.4595 10.4385L60.1581 10.6014C60.0601 10.5633 59.9626 10.5015 59.8652 10.4535C59.6672 10.354 59.4744 10.2572 59.2958 10.1676C59.0715 10.0587 58.7829 9.81449 58.4327 9.68687C58.3474 9.65654 58.2624 9.6273 58.1959 9.61009C58.0033 9.56029 58.2607 9.69798 58.3881 9.7697C58.8717 10.0335 59.3789 10.3066 59.867 10.5966L60.051 10.7037L60.1427 10.7576C60.1743 10.7497 60.2062 10.729 60.2378 10.7155L60.6178 10.5377C60.8711 10.4227 61.1227 10.3138 61.3807 10.2159C61.4531 10.1886 61.5823 10.108 61.6896 10.0548C62.7717 9.51506 63.801 8.87193 64.984 8.5056C65.0273 8.49223 65.1689 8.40337 65.266 8.36021C65.7678 8.13456 66.2761 7.77592 66.7815 7.70372C67.5611 7.26073 68.647 6.91765 69.439 6.49052C69.7648 6.31553 69.9633 6.27732 70.103 6.27488C70.3738 6.26841 70.7428 6.11778 71.2132 5.88993C71.3756 5.81132 71.6416 5.64951 71.7712 5.64359C72.0677 5.62717 72.2553 5.52921 72.4721 5.3862C72.6261 5.28598 72.6414 5.18222 73.1065 5.11258C73.3776 5.07144 73.7187 4.95908 74.0841 4.81931C74.7923 4.55558 75.558 4.23172 76.1966 4.05832C77.0191 3.83438 77.6856 3.62247 78.4128 3.35782C78.5428 3.31003 78.8102 3.23978 78.9048 3.2291C79.1286 3.15476 79.2195 3.34879 79.5771 3.42197C80.0225 3.52085 80.0855 3.75571 80.338 3.82334C80.5702 3.88724 80.6399 3.86344 81.0911 4.14548C82.3343 4.92081 83.6741 5.50284 84.9839 6.12894C85.4092 6.33255 85.5192 6.35514 85.3019 6.16141C85.1043 5.98545 85.9165 6.4014 85.7666 6.27207ZM87.3414 8.59342C87.2613 8.5322 87.1918 8.46421 87.0992 8.41135C86.9427 8.32218 86.7709 8.24228 86.6053 8.15842L86.6029 8.16324C86.2731 7.99668 85.9405 7.80734 85.6176 7.66837C85.4308 7.58793 85.2306 7.56498 85.1003 7.56351C85.0583 7.56296 85.1841 7.7114 85.293 7.79428C85.5932 8.02304 85.6067 7.90054 85.7325 7.91348C85.9186 7.93228 86.1228 8.02499 86.3 8.17422C86.5691 8.40023 86.7972 8.38815 87.0461 8.50314C87.1441 8.54843 87.243 8.56425 87.3414 8.59342ZM88.9914 9.39072C88.9323 9.34 88.7905 9.25351 88.714 9.22708C88.3884 9.12381 88.0765 9.02493 87.7002 8.90561C87.92 9.08634 87.9992 9.2225 88.2473 9.30417C88.4974 9.3862 88.7132 9.41611 88.9282 9.4512C88.986 9.46084 89.0264 9.42069 88.9914 9.39072ZM91.1125 10.439C91.0224 10.3772 90.9435 10.3083 90.8502 10.2619C90.5209 10.104 90.189 9.94486 89.8611 9.78776C89.7355 9.72959 89.4787 9.61009 89.6093 9.76206C89.6785 9.84232 89.8578 10.0027 89.917 10.0221C90.24 10.1257 90.5563 10.245 90.8963 10.4023C90.9634 10.4333 91.0395 10.4278 91.1125 10.439ZM91.6384 9.50363C92.3231 9.77823 92.8898 10.028 93.6011 10.3814C93.8837 10.5177 94.7402 10.8971 95.0765 10.8159C95.2938 10.7796 95.1721 10.6723 95.1419 10.5893C95.138 10.5807 95.0593 10.5509 95.0372 10.548C94.9589 10.5361 94.8377 10.5237 94.8237 10.5266C94.7562 10.5524 94.8087 10.6239 94.6051 10.5984C94.4263 10.5758 94.2428 10.5259 94.0418 10.4031C93.8019 10.2636 93.9037 10.2854 94.1898 10.3801C94.5342 10.4843 94.3042 10.3642 94.2028 10.2936C94.0921 10.22 93.9135 10.173 93.7718 10.1147C93.209 9.87437 92.6478 9.61003 92.1058 9.33513C91.5282 9.04692 90.9808 8.87358 90.3621 8.50627C89.9195 8.23991 89.3628 8.01909 88.9961 7.91807C88.7156 7.84184 88.402 7.72679 87.9662 7.50022L88.1266 7.52402C88.4057 7.54508 88.3147 7.46109 87.8218 7.2537C87.3938 7.07401 87.2016 6.89945 86.9071 6.77586C86.7132 6.69383 86.5631 6.65519 86.3929 6.5969L86.8557 6.90501C86.6125 6.80967 86.3561 6.70921 86.131 6.62107C86.0104 6.57694 85.8751 6.54075 86.1048 6.6804C86.4783 6.90818 87.1407 7.19889 87.2598 7.17027C87.454 7.1237 87.7209 7.3925 87.9383 7.4904C87.9608 7.54692 87.2804 7.25493 87.9595 7.63926C88.3703 7.8773 91.0842 9.28873 91.6384 9.50363ZM95.721 11.7742C95.652 11.7726 95.49 11.7881 95.4615 11.8021C95.3065 11.9157 95.1332 11.8889 94.9574 11.8623C94.7807 11.8473 94.6059 11.8106 94.4299 11.7638C94.0865 11.6859 93.6833 11.533 93.4635 11.4346C92.9573 11.2157 92.4492 10.9959 91.9532 10.7815C91.8502 10.7397 91.7513 10.7266 91.6507 10.7004C91.736 10.7625 91.8425 10.8288 91.9029 10.8858C92.1842 11.1538 92.6077 11.2901 93.0242 11.4305C93.2458 11.4981 93.4529 11.5592 93.6727 11.6472C93.9291 11.7552 94.2156 11.8528 94.4664 11.9861C94.5236 12.0106 95.0765 12.1065 95.3605 12.0312C95.4956 11.9656 95.611 11.8974 95.7049 11.8356C95.7469 11.8081 95.7565 11.7751 95.721 11.7742ZM96.4238 9.90494L97.4122 9.84543C97.5896 9.71274 97.5389 9.65744 97.5068 9.59635C97.4703 9.46293 97.352 9.38895 96.7969 9.66837C96.6575 9.73844 96.5475 9.8256 96.4238 9.90494ZM98.3677 10.6228C98.3251 10.5924 98.2286 10.6286 98.1169 10.6895C97.8438 10.8346 97.615 10.9561 97.3386 11.1029C97.2469 11.1532 97.18 11.2122 97.1025 11.2671C97.1493 11.2601 97.1931 11.2622 97.2427 11.2449C97.6363 11.1074 98.0364 10.9622 98.3472 10.7367C98.4046 10.695 98.3967 10.6441 98.3677 10.6228ZM98.5901 9.55972C98.7229 9.49679 98.9285 9.32534 98.897 9.31399C98.7475 9.26162 98.7176 9.11239 98.2008 9.3121C97.9947 9.39169 97.93 9.475 97.9286 9.53909C97.9579 9.6907 98.272 9.71048 98.5901 9.55972ZM100.018 9.98068C100.005 9.96335 99.7399 10.0616 99.5721 10.1122C99.4356 10.1991 99.3119 10.2778 99.1883 10.3565C99.3333 10.316 99.4812 10.2901 99.6213 10.2319C99.7912 10.1612 100.082 10.06 100.018 9.98068ZM100.203 8.84946C101.095 8.51914 101.844 8.01548 102.727 7.64261C102.768 7.62534 102.851 7.48154 102.796 7.45981C102.532 7.35568 102.083 7.39395 101.371 7.67368C101.123 7.77109 100.953 7.88175 100.95 7.97605L100.259 8.27378C100.129 8.19175 99.8233 8.34299 99.5471 8.47202C99.4473 8.51865 99.3646 8.58414 99.274 8.64103C99.3647 8.62229 99.4548 8.61771 99.5452 8.5825C99.7748 8.48582 100.009 8.38713 100.242 8.28935C100.244 8.42015 99.8599 8.62669 99.7366 8.77946C99.5649 8.99211 99.8845 8.96719 100.203 8.84946ZM103.937 8.30307C103.839 8.28781 103.67 8.36331 103.525 8.40225C102.532 8.66965 101.607 9.31253 100.623 9.58389C100.593 9.63034 100.528 9.69302 100.545 9.71841C100.562 9.7435 100.666 9.75564 100.727 9.73111C101.257 9.51108 101.766 9.29996 102.09 9.16556C102.689 8.90409 103.095 8.72684 103.498 8.55075C103.653 8.48019 103.791 8.38632 103.937 8.30307ZM104.873 6.53427C104.882 6.51297 104.875 6.48685 104.841 6.49179C104.478 6.54355 104.304 6.79929 103.975 6.89999C103.927 6.91464 103.862 6.94979 103.812 6.97781C103.657 7.06338 103.529 7.14053 103.569 7.19925C103.626 7.2858 103.863 7.17697 104.08 7.09573C104.524 6.902 104.8 6.71408 104.873 6.53427ZM127.286 8.76175C127.302 8.69101 127.332 8.58255 127.117 8.50906C126.468 8.29116 125.781 7.90274 125.164 7.91793C124.515 7.79 124.69 8.01577 124.786 8.20669C124.79 8.21438 124.879 8.25357 124.894 8.2543C125.245 8.26962 125.057 8.06411 125.16 7.97732C125.175 7.96456 125.173 7.94467 125.179 7.92794C125.476 8.05782 125.807 8.25448 125.691 8.28884C125.407 8.37319 125.635 8.53603 126.09 8.70351C126.722 8.92885 127.246 8.93582 127.286 8.76175ZM137.925 6.53238C137.67 6.57297 137.394 6.63266 137.121 6.69107C137.009 6.71542 136.935 6.76431 136.923 6.80179C136.916 6.95883 137.315 6.80087 137.549 6.76181C137.67 6.74167 137.847 6.75742 137.969 6.62173C138.007 6.57986 137.984 6.52299 137.925 6.53238ZM141.195 4.91031C141.023 4.96219 140.805 5.05112 140.783 5.1196C140.751 5.22202 140.8 5.30026 140.814 5.3887C140.489 5.48874 140.151 5.53048 140.188 5.43808C140.319 5.11642 139.722 5.45114 139.451 5.54764C139.002 5.70712 138.822 5.85379 139.126 5.8873C139.232 5.8989 139.325 5.91672 139.094 6.02329C138.791 6.1633 138.752 6.21811 138.977 6.22037C139.394 6.2247 139.991 5.90531 140.446 5.83451L140.821 5.3881C141.279 5.19889 141.09 5.10801 141.298 4.95628C141.393 4.88694 141.353 4.86264 141.195 4.91031ZM143.816 2.70206C143.843 2.67264 143.601 2.69614 143.391 2.69498C143.076 2.84116 143.186 2.96707 142.848 3.11032C142.54 3.2424 142.538 3.30124 142.783 3.28628C143.003 3.2731 143.193 3.2087 143.36 3.08035C143.527 2.95212 143.71 2.81919 143.816 2.70206Z" fill="black"/>
</g>
<defs>
<clipPath id="clip0_7597_1568">
<rect width="166.814" height="13.5027" fill="white" transform="translate(0.128418)"/>
</clipPath>
</defs>
</svg>
