<svg width="24" height="24" viewBox="0 0 24 24" fill="none" xmlns="http://www.w3.org/2000/svg">
<path d="M22.5382 7.332C22.474 7.17849 22.4099 7.02497 22.3412 6.87375C22.2518 6.68128 22.1579 6.48881 22.0593 6.30093C21.9608 6.11304 21.8944 5.9939 21.8073 5.84267C21.162 4.7312 20.3393 3.73277 19.3717 2.88693V2.86402H19.3442C17.2241 1.01729 14.5075 0 11.6959 0C8.88431 0 6.16767 1.01729 4.04762 2.86402H4.02013V2.88693C3.0525 3.73277 2.22976 4.7312 1.5845 5.84267C1.49743 5.9939 1.41266 6.14512 1.33246 6.30093C1.25227 6.45673 1.14 6.68128 1.04147 6.87375C0.972733 7.02497 0.908577 7.17849 0.844422 7.332C-0.281474 10.1251 -0.281474 13.2458 0.844422 16.0388C0.906286 16.1946 0.972733 16.3459 1.03918 16.4971C1.12854 16.6919 1.22248 16.882 1.32101 17.0699C1.41953 17.2578 1.48598 17.3769 1.57305 17.5282C2.22177 18.6405 3.04842 19.639 4.02013 20.4839V20.5068H4.04762C6.16767 22.3536 8.88431 23.3708 11.6959 23.3708C14.5075 23.3708 17.2241 22.3536 19.3442 20.5068H19.3717V20.4839C20.3393 19.6381 21.162 18.6396 21.8073 17.5282C21.8944 17.3769 21.9791 17.2257 22.0593 17.0699C22.1395 16.9141 22.2518 16.6919 22.3412 16.4971C22.4076 16.3459 22.474 16.1946 22.5359 16.0388C23.6618 13.2458 23.6618 10.1251 22.5359 7.332H22.5382ZM11.6959 0.458178C14.2105 0.457362 16.6517 1.30503 18.6247 2.86402H4.76708C6.74005 1.30503 9.18133 0.457362 11.6959 0.458178ZM4.22176 3.32227H19.17C19.9917 4.05524 20.7019 4.90435 21.278 5.84267L21.4109 6.0718H1.98089L2.11379 5.84267C2.68993 4.90435 3.40009 4.05524 4.22176 3.32227ZM11.6959 22.9127C9.18133 22.9135 6.74005 22.0658 4.76708 20.5068H18.6247C16.6517 22.0658 14.2105 22.9135 11.6959 22.9127ZM19.17 20.0486H4.22176C3.40009 19.3156 2.68993 18.4665 2.11379 17.5282L1.98089 17.299H21.4109L21.278 17.5282C20.7019 18.4665 19.9917 19.3156 19.17 20.0486ZM22.0433 16.0388L21.8371 16.4971C21.7821 16.614 21.7202 16.7262 21.6606 16.8408H1.72885C1.66928 16.7262 1.60742 16.6117 1.55243 16.4971L1.34621 16.0388C0.766457 14.6607 0.467818 13.1806 0.467818 11.6854C0.467818 10.1903 0.766457 8.71018 1.34621 7.332L1.55472 6.87375C1.60971 6.75689 1.67157 6.64462 1.73114 6.53005H21.6629C21.7225 6.64462 21.7844 6.75918 21.8394 6.87375L22.0479 7.332C22.6276 8.71018 22.9263 10.1903 22.9263 11.6854C22.9263 13.1806 22.6276 14.6607 22.0479 16.0388H22.0433Z" fill="#4B454D"/>
<path d="M12.9038 9.50905L11.5818 7.21777L10.2597 9.50905H7.61328L8.93535 11.8003L7.61328 14.0916H10.2597L11.5818 16.3829L12.9038 14.0916H15.5503L14.2282 11.8003L15.5503 9.50905H12.9038ZM11.5818 8.13428L12.3745 9.50905H10.789L11.5818 8.13428ZM12.6403 9.9673L13.6989 11.8003L12.6403 13.6333H10.5232L9.46463 11.8003L10.5232 9.9673H12.6403ZM8.40606 9.9673H9.99392L9.20113 11.3421L8.40606 9.9673ZM8.40606 13.6333L9.20113 12.2586L9.99392 13.6333H8.40606ZM11.5818 15.4664L10.789 14.0916H12.3745L11.5818 15.4664ZM14.7575 13.6333H13.1696L13.9624 12.2586L14.7575 13.6333ZM13.1696 9.9673H14.7575L13.9624 11.3421L13.1696 9.9673Z" fill="#4B454D"/>
</svg>
