<svg width="11" height="31" viewBox="0 0 11 31" fill="none" xmlns="http://www.w3.org/2000/svg">
<g id="Group 1664">
<path id="Vector" d="M10.5338 13.1905C10.4912 13.1496 10.4658 13.1014 10.4513 13.0353C10.436 12.9657 10.3706 12.9355 10.3249 12.9648C10.3142 12.9717 10.3061 12.982 10.2948 12.9879C10.2381 13.0174 10.2194 13.1017 10.1252 13.0771C10.1284 13.0618 10.1338 13.049 10.1418 13.039L10.0092 12.9772L9.97258 12.9601L9.65557 12.8123C9.63815 12.7639 9.65569 12.7137 9.64986 12.6647C9.64118 12.5912 9.62347 12.5869 9.49122 12.5959C9.39497 12.6024 9.2972 12.5986 9.2002 12.6012C9.12866 12.6032 9.03876 12.5766 9.00916 12.6509C9.00292 12.6665 8.97764 12.67 8.96803 12.6596C8.85482 12.5384 8.63524 12.6499 8.4989 12.5704C8.48323 12.5613 8.41215 12.5869 8.37189 12.6021C8.29038 12.6329 8.21936 12.6574 8.16512 12.5779C8.1491 12.5544 8.06713 12.5594 8.062 12.5695C8.01719 12.6587 7.92368 12.5966 7.85354 12.6019C7.76865 12.6083 7.67764 12.5859 7.59986 12.6252C7.56345 12.6436 7.52733 12.6387 7.494 12.6223C7.36635 12.5596 7.2563 12.644 7.13575 12.6398C7.12433 12.6395 7.11326 12.6364 7.10196 12.6349C7.1058 12.6242 7.11163 12.6137 7.12031 12.603C7.1407 12.5779 7.15684 12.542 7.13767 12.5055C7.12823 12.4875 7.10213 12.4929 7.08704 12.4789C7.04399 12.4389 6.99359 12.5849 6.94721 12.4517C6.92036 12.3746 6.83891 12.4463 6.78903 12.4004C6.78088 12.3928 6.77482 12.3683 6.77546 12.3523C6.77657 12.3234 6.78414 12.2938 6.80867 12.3216C6.86029 12.3799 6.91884 12.3483 6.97378 12.3499C7.10755 12.3537 7.1608 12.2697 7.14373 12.0537C7.13581 11.9538 7.12585 11.8628 7.14828 11.765C7.17047 11.6681 7.10085 11.5702 7.14664 11.4661C7.15824 11.4397 7.15818 11.3751 7.14536 11.3539C7.08395 11.2524 7.1421 11.1731 7.16214 11.09C7.17292 11.045 7.19989 11.0031 7.16913 10.9618C7.10644 10.8777 7.09322 10.7904 7.14391 10.6825C7.15352 10.6621 7.15259 10.6255 7.15049 10.5973C7.1361 10.3994 7.11175 10.2023 7.13738 10.0024L7.07207 9.7279C7.05086 9.71381 7.05034 9.69353 7.05978 9.66297C7.06764 9.63749 7.06805 9.60682 7.07411 9.57971C7.09852 9.47229 7.12352 9.36213 7.14758 9.25634C7.17251 9.13653 7.09753 9.0421 7.11053 8.91977C7.11985 8.83186 7.09118 8.74593 7.10825 8.64703C7.13068 8.5173 7.09782 8.49007 7.00181 8.53796C6.97798 8.54985 6.94646 8.58218 6.93749 8.53807C6.92735 8.48812 6.96348 8.45315 6.99284 8.44376C7.02943 8.43206 7.06829 8.43691 7.10616 8.43521C7.13902 8.43375 7.14828 8.39987 7.14875 8.35843C7.14915 8.31855 7.14403 8.28053 7.11053 8.27622C7.09794 8.27462 7.08506 8.27598 7.07271 8.27267C7.02738 8.26054 6.97518 8.30269 6.93714 8.23275C6.97524 8.18214 7.02156 8.21053 7.06397 8.20244C7.09322 8.19687 7.11041 8.17747 7.11029 8.13114C7.11011 8.03394 7.12159 7.93113 7.10458 7.84123C7.08844 7.7558 7.0582 7.68609 7.10143 7.59959C7.1301 7.54223 7.05057 7.45168 7.12316 7.39792C7.13994 7.38549 7.13697 7.3596 7.12881 7.32783C7.10388 7.23105 7.09968 7.04287 7.10924 6.92595C7.1139 6.8688 7.11943 6.80876 7.09636 6.75635C7.06875 6.6935 7.06612 6.63281 7.09345 6.56696C7.10254 6.54504 7.11174 6.50018 7.10493 6.48914C7.0127 6.33977 7.07952 6.19996 7.10772 6.05234C7.13522 5.90827 7.09735 5.83851 6.99755 5.81961C6.97256 5.81488 6.94698 5.81713 6.92175 5.81454C6.91633 5.814 6.91109 5.80667 6.9059 5.8021C6.89064 5.78876 6.89087 5.76889 6.90917 5.76323C6.93946 5.75383 6.97121 5.74766 7.00186 5.75066C7.06292 5.75662 7.07434 5.70884 7.07486 5.62668C7.07562 5.4933 7.05738 5.35466 7.109 5.23035C7.11477 5.21652 7.11536 5.18291 7.10912 5.17431C7.03198 5.06783 7.07521 4.93456 7.07463 4.81263C7.07422 4.71796 7.04311 4.69872 6.9905 4.7046C6.97372 4.70646 6.94086 4.68773 6.94121 4.68212C6.94442 4.62944 6.97384 4.64608 6.99505 4.64299C7.02016 4.63936 7.04562 4.64121 7.07061 4.63636C7.11273 4.62819 7.12509 4.57451 7.11017 4.53095C7.07254 4.42124 7.05447 4.32012 7.10324 4.20537C7.12369 4.15722 7.0938 4.11704 7.07189 4.08151C7.06065 4.06325 7.03641 4.03376 7.05931 4.0157C7.13849 3.95332 7.11262 3.86614 7.09456 3.77199C7.07458 3.66793 7.06129 3.5666 6.96446 3.58998C6.93341 3.59747 6.92444 3.54926 6.93405 3.50883C6.94151 3.47761 6.96673 3.47226 6.98229 3.48327C7.01066 3.50327 7.0349 3.53513 7.06968 3.52799C7.1153 3.51862 7.1611 3.4459 7.14093 3.39158C7.07358 3.21037 7.14297 3.02655 7.12654 2.84491C7.0991 2.54134 7.16914 2.24204 7.15066 1.93741C7.14787 1.89121 7.14921 1.83425 7.16436 1.79765C7.20246 1.70568 7.17875 1.60758 7.18818 1.51378C7.18958 1.49987 7.18941 1.48601 7.18824 1.4722L7.10481 0.517578L6.30371 0.587681C6.20018 0.59674 6.09904 0.665432 5.99353 0.592516C5.91808 0.623162 5.83599 0.619492 5.75436 0.616652L5.1432 0.595372L4.93304 1.23265C4.92186 1.2665 4.91091 1.30028 4.9031 1.33425C4.87554 1.45368 4.82072 1.5683 4.79106 1.69093C4.77253 1.76779 4.76141 1.81856 4.83715 1.77782C4.8629 1.76396 4.88999 1.75911 4.91627 1.75391C4.93986 1.74922 4.94382 1.77798 4.94889 1.80104C4.95664 1.83611 4.93788 1.85372 4.91836 1.85237C4.87927 1.84966 4.84024 1.86861 4.80102 1.87844C4.7328 1.89556 4.70542 1.99604 4.71725 2.02475C4.77026 2.15293 4.67984 2.26023 4.64587 2.36781C4.61902 2.45276 4.54421 2.52356 4.59787 2.61314C4.60125 2.61876 4.60305 2.63477 4.60037 2.63874C4.45944 2.84563 4.5152 3.10089 4.41469 3.3186C4.36482 3.42654 4.39494 3.47497 4.46655 3.48293C4.48531 3.48501 4.50424 3.4913 4.51968 3.50299C4.5346 3.5143 4.54602 3.5356 4.51986 3.56348C4.50832 3.57573 4.4951 3.58412 4.48269 3.59431C4.46789 3.60644 4.46066 3.59871 4.45175 3.58228C4.42932 3.54088 4.38813 3.50234 4.35725 3.55603C4.32479 3.61247 4.26712 3.66588 4.27184 3.75132C4.27609 3.82908 4.24474 3.90184 4.218 3.97346C4.16865 4.10551 4.16894 4.12121 4.23705 4.14532C4.267 4.15591 4.29887 4.1504 4.33208 4.14592C4.37735 4.13978 4.39599 4.18154 4.35928 4.24777C4.3407 4.28121 4.31792 4.30814 4.32485 4.34891C4.33266 4.3948 4.31168 4.42106 4.28395 4.43363C4.23693 4.45495 4.22528 4.3945 4.19918 4.3684C4.18962 4.35883 4.1993 4.33629 4.21736 4.33072C4.25045 4.32051 4.2903 4.31706 4.27626 4.24863C4.26921 4.21433 4.23647 4.20952 4.21107 4.22144C4.18316 4.23452 4.13352 4.24535 4.14727 4.30963C4.16411 4.38839 4.04939 4.45799 4.10928 4.53346C4.11476 4.54038 4.1094 4.57941 4.10754 4.58024C3.94283 4.65518 4.04683 4.88817 3.9373 4.9967C3.93106 5.00292 3.93846 5.04457 3.93945 5.06976C3.93899 5.07181 3.87863 5.3374 3.87816 5.33929C3.79601 5.44303 3.79228 5.57795 3.75604 5.70024C3.73058 5.78609 3.74287 5.8723 3.68828 5.96329C3.65513 6.01855 3.66008 6.1135 3.61913 6.1917C3.58207 6.2624 3.58813 6.36209 3.56401 6.43276C3.53966 6.50407 3.49823 6.56273 3.51414 6.63973C3.41177 6.81417 3.46508 7.04997 3.32374 7.20905C3.3185 7.36786 3.20739 7.5051 3.20261 7.65503C3.19958 7.75014 3.13969 7.82626 3.13987 7.8855C3.14027 7.99323 3.01641 7.99452 3.04525 8.11976C3.05824 8.17594 3.01332 8.29231 2.9758 8.36505C2.91329 8.48647 2.89843 8.61788 2.87868 8.73848C2.86207 8.83987 2.85083 8.94084 2.8245 9.04357C2.80224 9.1303 2.80259 9.21926 2.72574 9.28123C2.69277 9.30781 2.67208 9.38217 2.71147 9.42329C2.74171 9.45482 2.71549 9.47852 2.69621 9.50939C2.66183 9.56452 2.67558 9.61534 2.71188 9.60485C2.78639 9.58331 2.8178 9.62703 2.85538 9.69352C2.88124 9.73936 2.94289 9.73975 2.98687 9.76469C2.99235 9.76779 2.99107 9.79815 2.98612 9.81344C2.9821 9.82607 2.96013 9.84529 2.95955 9.84426C2.90053 9.7455 2.77521 9.80177 2.72004 9.68599C2.69335 9.62991 2.63696 9.66938 2.596 9.72398C2.55964 9.77242 2.55341 9.82557 2.56646 9.88095C2.58469 9.95833 2.61196 10.0186 2.67791 10.0223C2.69714 10.0234 2.70832 10.0406 2.70949 10.0694C2.69061 10.0746 2.67074 10.0852 2.65315 10.0839C2.62781 10.0821 2.60398 10.0721 2.57968 10.0651C2.54094 10.054 2.51647 10.0851 2.50109 10.1386C2.47982 10.2129 2.45197 10.2785 2.41463 10.3469C2.37542 10.4186 2.42121 10.5146 2.39896 10.584C2.3746 10.6596 2.2956 10.7148 2.36458 10.7939C2.38771 10.8204 2.35456 10.8392 2.33842 10.8423C2.29006 10.8517 2.29408 10.8929 2.28383 10.9435C2.26023 11.0603 2.25569 11.1909 2.15705 11.2731C2.07992 11.3374 2.12151 11.4207 2.1295 11.473C2.13858 11.5326 2.16643 11.5295 2.09978 11.5958C2.03115 11.6641 2.00015 11.8071 2.01134 11.9372C2.01792 12.0133 2.03127 12.1051 1.93688 12.1798C1.89388 12.2139 1.89499 12.3412 1.84244 12.4175C1.78546 12.5003 1.84203 12.6061 1.79408 12.6897C1.74613 12.7733 1.71234 12.8398 1.71083 12.9487C1.70931 13.0563 1.644 13.1749 1.60549 13.2791C1.53511 13.4698 1.48325 13.6589 1.42965 13.8534C1.38322 14.022 1.33818 14.2013 1.25335 14.3557C1.23005 14.3982 1.2036 14.4373 1.20185 14.4844C1.1994 14.5492 1.21624 14.6122 1.20459 14.6749C1.19602 14.7211 1.12273 14.6966 1.11381 14.7728C1.09511 14.933 1.01628 15.0728 0.977599 15.2258C0.970433 15.254 0.95977 15.2825 0.956217 15.3104C0.944216 15.4048 0.821982 15.464 0.866553 15.5571C0.891662 15.6095 0.966414 15.6052 1.01763 15.6295C1.02724 15.6341 1.03155 15.6529 1.03825 15.6652C1.02567 15.6714 1.01168 15.684 1.00079 15.6826C0.969328 15.6784 0.939498 15.6668 0.908212 15.6615C0.810799 15.6452 0.805788 15.6467 0.794603 15.8083C0.789477 15.8816 0.775843 15.9351 0.732611 15.9881C0.684487 16.0471 0.709714 16.0952 0.730979 16.1317C0.754807 16.1726 0.789823 16.1374 0.819712 16.107C0.841269 16.085 0.861486 16.0594 0.882286 16.0354C0.880131 16.0991 0.87879 16.1627 0.873604 16.2269C0.873313 16.23 0.83888 16.2426 0.821168 16.2443C0.768732 16.2492 0.727309 16.1767 0.660716 16.2853C0.611427 16.3657 0.595522 16.4268 0.592143 16.519C0.587831 16.6361 0.520191 16.7566 0.528755 16.8822C0.530619 16.9094 0.48943 16.9679 0.461695 16.995C0.385373 17.0696 0.366437 17.1982 0.376517 17.2605C0.377334 17.2656 0.37809 17.2705 0.378789 17.2747L0.39883 17.7461C0.458373 17.8079 0.444974 17.8453 0.437225 17.901L0.487156 18.0587L0.631237 18.5133L1.20185 18.5487L1.2653 18.5526C1.36475 18.5493 1.45826 18.5344 1.56505 18.5474C1.705 18.5644 1.8598 18.5904 1.99986 18.5279C2.0999 18.4833 2.18239 18.5485 2.27305 18.5588C2.36575 18.5694 2.43834 18.5796 2.54176 18.5657C2.73781 18.5394 2.94796 18.5493 3.15112 18.5568C3.31256 18.5627 3.51682 18.5525 3.65648 18.5091C3.67978 18.5019 3.70723 18.4743 3.72843 18.4988C3.77696 18.5549 3.85096 18.5402 3.92128 18.5373L3.92454 18.7172C3.94831 18.7933 3.94913 18.8841 3.93503 18.955C3.89209 19.1722 3.94062 19.3908 3.90328 19.6066C3.90001 19.6258 3.90549 19.6479 3.90287 19.6676C3.89075 19.758 3.93567 19.816 3.94219 19.8951C3.95315 20.0285 4.02207 19.9421 4.0614 19.9676C4.07899 19.9789 4.09227 19.9984 4.0879 20.0332C4.08324 20.0704 4.06984 20.0748 4.04997 20.061C3.98396 20.0152 3.95681 20.0404 3.93736 20.1732C3.91318 20.3377 3.86505 20.498 3.92372 20.6527C3.94522 20.7093 3.91428 20.7481 3.90578 20.7922C3.87064 20.9743 3.87705 20.9964 3.98804 21.011C4.00004 21.0126 4.01362 21.0032 4.02492 21.007C4.03488 21.0104 4.04269 21.0252 4.05143 21.0349C4.04141 21.0471 4.03197 21.0665 4.02143 21.0703C3.93625 21.1003 3.9151 21.15 3.93287 21.3063C3.94761 21.4365 3.92833 21.4906 3.99305 21.4954C4.02906 21.4981 4.06676 21.4829 4.10311 21.4831C4.12111 21.4831 4.13568 21.5029 4.13224 21.5407C4.1291 21.5751 4.11698 21.5953 4.09612 21.6019C4.08388 21.6058 4.07147 21.6144 4.05953 21.6149C3.96963 21.6184 3.89844 21.6525 3.91888 21.8458C3.81803 22.016 3.87093 22.1973 3.89844 22.335C3.93409 22.5136 3.91207 22.6961 3.91586 22.875C3.92005 23.0746 3.90985 23.0779 4.02696 23.084C4.04234 23.0848 4.05638 23.0973 4.07101 23.1043C4.05528 23.1204 4.04007 23.1397 4.02376 23.1521C3.92337 23.2281 3.87152 23.3841 3.9306 23.4761C3.9895 23.5677 3.95716 23.6462 3.9317 23.7382C3.90619 23.8301 3.9232 23.8533 3.96946 23.8397C4.01047 23.8277 4.05161 23.809 4.0925 23.7985C4.11027 23.7939 4.12548 23.8072 4.12449 23.8452C4.12239 23.9263 4.09786 23.8899 4.07916 23.8855C4.05126 23.8791 4.02335 23.8758 3.99643 23.9205C3.96392 23.9744 3.93083 24.0274 3.89983 24.0841C3.89663 24.09 3.90275 24.1186 3.90787 24.132C3.93683 24.2077 3.92902 24.3068 3.92628 24.3974C3.92366 24.4859 3.98082 24.5378 3.93887 24.6483C3.92908 24.6743 3.94522 24.7037 3.96368 24.7041C3.99188 24.7048 4.00476 24.7237 3.98239 24.7762C3.93974 24.876 3.9074 24.9696 3.98495 25.0137C4.00662 25.026 3.99386 25.0563 3.99048 25.085C3.96916 25.2676 3.99212 25.4318 3.99054 25.6063C3.98996 25.6696 3.99433 25.7266 4.02398 25.7563C4.03645 25.7688 4.05597 25.8024 4.05358 25.8093C3.99427 25.985 4.0671 26.0753 4.06937 26.2085C4.07164 26.3321 4.06931 26.4613 4.05713 26.5903C4.04367 26.734 4.0689 26.8512 4.07449 26.9757C4.08015 27.0995 4.09052 27.2119 4.07927 27.3498C4.06873 27.4804 4.07962 27.6048 4.07712 27.7341C4.07485 27.8566 4.08959 27.968 4.06197 28.1082C4.04933 28.1728 4.05457 28.2516 4.0805 28.2985C4.15525 28.4335 4.15297 28.6406 4.10275 28.8764C4.07397 29.0117 4.09151 29.1048 4.0911 29.2143C4.09063 29.3587 4.1045 29.4826 4.1341 29.5945C4.15868 29.688 4.13311 29.8763 4.21094 29.8676C4.21619 29.867 4.22033 29.9117 4.22033 29.9117L4.35951 29.9115L4.4497 29.9581L4.5308 29.9359C4.5308 29.9359 4.76082 30.0654 4.68642 30.1537C4.6662 30.1742 4.74299 30.2198 4.83487 30.2345C4.94038 30.2513 4.91084 30.433 4.91084 30.433L4.94306 30.4965C4.94306 30.4965 5.00144 30.5236 5.04828 30.5164C5.10963 30.5075 5.16539 30.5001 5.21765 30.4958L5.86593 30.4421L5.9257 29.9648C5.9334 29.9033 5.96089 29.8527 6.01554 29.8099C6.0731 29.7648 6.10433 29.6689 6.09175 29.6105C6.07235 29.5204 6.16329 29.4569 6.13772 29.376C6.13294 29.3609 6.15118 29.3114 6.17343 29.3101C6.25331 29.3057 6.27335 29.2071 6.27219 29.1469C6.26933 28.9995 6.32439 28.8657 6.36034 28.727C6.38195 28.6435 6.38492 28.551 6.40502 28.4799C6.45315 28.3094 6.46777 28.1158 6.54928 27.9726C6.61197 27.8625 6.59414 27.7437 6.66551 27.6431C6.73071 27.5512 6.72243 27.3974 6.8093 27.309C6.79642 27.1388 6.95606 27.0029 6.93008 26.83C7.03588 26.651 7.084 26.4589 7.08371 26.2547C7.08366 26.2385 7.09257 26.2139 7.10218 26.201C7.13953 26.1509 7.19016 26.1015 7.17099 26.0308C7.15462 25.9704 7.09502 25.9907 7.05755 25.9678C7.04747 25.9617 7.03151 25.9486 7.0332 25.9392C7.03943 25.9038 7.05785 25.9056 7.0755 25.9104L7.16767 25.9328C7.19785 25.9392 7.21777 25.914 7.23117 25.8724L7.2483 25.8167C7.29462 25.6317 7.378 25.452 7.37561 25.2599C7.48479 25.1125 7.49895 24.9214 7.55866 24.7513C7.57778 24.6969 7.58372 24.6425 7.58692 24.5841C7.59479 24.4415 7.63429 24.292 7.70525 24.1752C7.79719 24.0239 7.82335 23.8526 7.83949 23.7028C7.85341 23.5734 7.87893 23.4771 7.93684 23.3719C8.02225 23.2167 8.01514 23.1689 7.90637 23.113C7.89518 23.1072 7.88044 23.1105 7.86937 23.1046C7.80884 23.0723 7.81426 23.0295 7.88965 22.9499C7.90095 22.938 7.91523 22.933 7.92816 22.9248C7.94488 22.893 7.91196 22.8618 7.94156 22.8326C7.94948 22.8248 7.96673 22.8268 7.97395 22.8343C7.99446 22.8556 7.99277 22.8893 7.9718 22.9223C7.96382 22.935 7.94913 22.9395 7.93748 22.9477C7.94774 23.0363 7.99458 23.0185 8.04078 22.9833C8.0878 22.9475 8.16488 22.7529 8.16558 22.6713C8.16587 22.6369 8.16482 22.6128 8.17845 22.5722C8.21813 22.454 8.21434 22.4455 8.11775 22.4256C8.08226 22.4183 8.07935 22.3673 8.04865 22.3604C8.04445 22.3594 8.03997 22.342 8.04183 22.339C8.04935 22.3263 8.06193 22.3055 8.06782 22.3067C8.12975 22.3199 8.19092 22.3363 8.25198 22.3529C8.29166 22.3637 8.2835 22.3073 8.29434 22.2947C8.37911 22.1959 8.30133 22.0481 8.39787 21.9586C8.40876 21.9485 8.40498 21.9303 8.39024 21.9223C8.37899 21.9162 8.36396 21.9176 8.35517 21.9079C8.31805 21.8673 8.20549 21.9818 8.23119 21.8417C8.2426 21.7795 8.31782 21.8395 8.36501 21.8379C8.43819 21.8354 8.46481 21.7982 8.46685 21.6754C8.46825 21.5916 8.48305 21.521 8.52424 21.4409C8.5624 21.3667 8.62707 21.2935 8.60342 21.1868C8.59509 21.1494 8.63139 21.1009 8.65895 21.0623C8.67823 21.0353 8.70509 20.9794 8.69961 20.962C8.63558 20.7592 8.83338 20.574 8.81113 20.3752C8.80955 20.3609 8.8335 20.3282 8.84876 20.3102C8.92759 20.2171 8.91949 20.1054 8.92706 20.0004C8.93248 19.9254 8.93172 19.8479 8.8462 19.8969C8.77937 19.9351 9.0204 19.2918 9.02028 19.2752C9.02011 19.2412 9.04668 19.2497 9.06235 19.239C9.10086 19.2126 9.13786 19.1773 9.17666 19.154C9.23964 19.1161 9.24517 19.0892 9.20963 19.0215C9.18196 18.9688 9.24529 18.9227 9.27354 18.8852C9.32796 18.813 9.3635 18.7477 9.32551 18.663C9.3124 18.6338 9.31013 18.5894 9.33635 18.5608C9.41075 18.4797 9.42432 18.3724 9.46068 18.2692C9.49168 18.181 9.5356 18.0744 9.5955 17.9957C9.62067 17.9625 9.62125 17.9297 9.61985 17.891C9.61682 17.8046 9.63698 17.7224 9.69384 17.6559C9.72198 17.623 9.73189 17.5757 9.71476 17.5561C9.6389 17.4696 9.70025 17.4209 9.7556 17.328C9.82295 17.215 9.86927 17.0728 9.90452 16.9301C9.92217 16.8586 9.91681 16.7892 9.94245 16.7215C9.964 16.6646 10.0036 16.625 9.99745 16.546C9.9904 16.4557 9.93604 16.482 9.90504 16.4526C9.8959 16.444 9.89053 16.4285 9.88343 16.4161C9.90195 16.4094 9.92438 16.3917 9.93831 16.3979C10.0068 16.4287 10.0489 16.3945 10.0703 16.2801C10.0808 16.2237 10.1097 16.1626 10.1079 16.1126C10.1052 16.0381 10.1332 15.9954 10.164 15.9346C10.2168 15.8304 10.1962 15.7333 10.1175 15.7375C10.0571 15.7408 10.0311 15.7178 10.004 15.6582C9.98084 15.6072 9.94075 15.5933 9.89047 15.6727C9.85656 15.7262 9.8533 15.6652 9.84491 15.6405C9.83338 15.6066 9.85825 15.5912 9.8741 15.5736C9.91512 15.5282 9.95077 15.5463 9.98707 15.5566C10.0662 15.579 10.1439 15.6079 10.2254 15.6208C10.2851 15.6303 10.3338 15.5567 10.3176 15.4773C10.3042 15.4111 10.3068 15.3727 10.3479 15.3073C10.3798 15.2568 10.3922 15.1803 10.4088 15.1145C10.4303 15.029 10.3992 14.9302 10.4798 14.8598C10.465 14.7623 10.5181 14.6885 10.5558 14.6056C10.6003 14.5078 10.5911 14.4649 10.5252 14.4448C10.4646 14.4262 10.4063 14.4103 10.3641 14.345C10.3478 14.3199 10.307 14.3096 10.2768 14.3668C10.2483 14.4205 10.2354 14.4022 10.2233 14.3654C10.2124 14.3323 10.2083 14.2935 10.2326 14.2626C10.2523 14.2374 10.2963 14.2043 10.3026 14.2133C10.365 14.3028 10.4639 14.2838 10.5445 14.3174C10.5593 14.3236 10.5961 14.3105 10.5984 14.3017C10.6206 14.2118 10.6948 14.1439 10.6916 14.0479C10.6906 14.0174 10.6922 13.9899 10.6968 13.9644L10.7914 13.4387L10.5338 13.1905ZM4.62438 21.1685C4.61768 21.1403 4.62298 21.1031 4.62683 21.0704C4.63265 21.0209 4.61937 20.9505 4.67973 20.9455C4.73007 20.9414 4.72581 21.0156 4.74463 21.055C4.77266 21.1138 4.79608 21.1905 4.79608 21.1905L4.83482 21.2098C4.83482 21.2098 4.86593 21.2502 4.84298 21.2923C4.83832 21.301 4.82958 21.3057 4.8227 21.3123C4.75221 21.4209 4.66423 21.4342 4.59711 21.3787C4.54544 21.3359 4.64291 21.2457 4.62438 21.1685ZM4.88324 22.8777C4.90316 22.9657 4.83115 23.0794 4.79742 23.1817C4.78763 23.1756 4.77411 23.174 4.76887 23.1628C4.72278 23.0641 4.65491 23.2464 4.62094 23.1887C4.58366 23.1251 4.70426 23.0697 4.67041 22.9859C4.66056 22.959 4.65118 22.9335 4.64151 22.9071C4.62508 22.8628 4.60213 22.8225 4.59281 22.7734C4.56437 22.6221 4.61308 22.4991 4.71213 22.4674C4.72483 22.4633 4.73834 22.4816 4.75128 22.4895C4.79194 22.4836 4.79987 22.4647 4.78722 22.4088C4.78035 22.3782 4.80051 22.3281 4.81105 22.2877C4.8163 22.2676 4.82742 22.2494 4.83587 22.2304C4.84473 22.2433 4.85894 22.2533 4.86151 22.2696C4.87875 22.3792 4.85591 22.5007 4.88632 22.6118C4.90438 22.6782 4.86162 22.7818 4.88324 22.8777ZM4.83412 21.8843C4.82072 21.8918 4.79509 21.8964 4.79218 21.8878C4.75844 21.7893 4.72296 21.7811 4.68177 21.9025C4.66965 21.9381 4.67052 21.9998 4.62694 21.9668C4.60941 21.9536 4.58546 21.9193 4.58913 21.8986C4.61384 21.7607 4.62951 21.6185 4.68789 21.493C4.71637 21.4317 4.72605 21.4987 4.7853 21.5303C4.90054 21.5915 4.7832 21.7158 4.81991 21.7851C4.82812 21.8014 4.83552 21.8188 4.84472 21.8337C4.85673 21.8531 4.85469 21.8727 4.83412 21.8843ZM4.88691 26.8305C4.92699 26.8399 4.90864 26.8834 4.88656 26.9217C4.84554 26.9932 4.76293 26.8956 4.749 27.0794C4.73729 27.0744 4.72168 27.075 4.72156 27.0663C4.72022 26.9913 4.71416 26.9159 4.72442 26.8381C4.7331 26.7729 4.7779 26.7604 4.81047 26.7313C4.84141 26.7036 4.87415 26.6148 4.9006 26.6454C4.93434 26.6843 4.87421 26.7357 4.86104 26.784C4.8442 26.8458 4.87223 26.8271 4.88691 26.8305ZM4.78938 25.9491C4.72576 26.102 4.8082 26.2022 4.76771 26.354C4.75279 26.4108 4.78682 26.4779 4.83587 26.4386C4.91365 26.3765 4.88971 26.5037 4.92029 26.5261C4.88772 26.5958 4.86226 26.5635 4.83069 26.5677C4.80336 26.5714 4.76957 26.6297 4.73787 26.6519C4.71037 26.6712 4.68293 26.6671 4.67833 26.616C4.65969 26.4124 4.69651 26.1767 4.65415 25.9844C4.6506 25.9687 4.75139 25.9025 4.65934 25.8828C4.62176 25.8746 4.66458 25.8365 4.67845 25.8206C4.69849 25.7976 4.71614 25.7758 4.71917 25.737C4.67367 25.7284 4.6245 25.7295 4.66213 25.6052C4.68625 25.5259 4.67384 25.4551 4.6612 25.386C4.62933 25.2121 4.63015 25.2105 4.75739 25.1242C4.77959 25.1091 4.79847 25.0913 4.80214 25.0509C4.75896 25.0654 4.71527 25.0856 4.67285 25.0929C4.63661 25.0991 4.58971 25.0638 4.60317 25.0226C4.64069 24.9082 4.55738 24.8695 4.59309 24.7541C4.62962 24.6369 4.58814 24.5163 4.6069 24.4092C4.63393 24.2557 4.65671 24.0779 4.61832 23.9943C4.5653 23.8787 4.62718 23.7457 4.59467 23.643C4.57672 23.5866 4.5674 23.5212 4.62053 23.4693C4.66219 23.4289 4.68381 23.4962 4.71952 23.4946C4.74882 23.3942 4.7938 23.3889 4.84117 23.4213C4.84985 23.4273 4.85684 23.4617 4.85189 23.4717C4.81262 23.5517 4.71696 23.6059 4.76957 23.6105C4.83558 23.6163 4.86628 23.6824 4.85311 23.783C4.83762 23.9017 4.76735 23.8575 4.72459 23.8969L4.68707 23.9359C4.70164 23.9553 4.71533 23.976 4.73082 23.9934C4.74859 24.0136 4.77166 24.0057 4.79101 23.9815C4.86081 23.8944 4.86751 23.9412 4.84234 24.0295C4.82678 24.0841 4.80109 24.1324 4.82952 24.1776C4.88167 24.2607 4.82993 24.4146 4.87799 24.4992C4.88953 24.5194 4.88912 24.5375 4.86861 24.5513C4.82713 24.579 4.78506 24.6023 4.74329 24.6276C4.75325 24.7192 4.84257 24.5871 4.85067 24.6829C4.86046 24.7968 4.86255 24.9112 4.81134 25.0345C4.92315 25.0622 4.85853 25.285 4.9239 25.3634C4.92524 25.3649 4.89792 25.4385 4.88382 25.4451C4.78646 25.4907 4.78006 25.6486 4.71917 25.737C4.76887 25.7126 4.81862 25.6849 4.86826 25.6656C4.88714 25.6582 4.90543 25.6697 4.92408 25.6726C4.91348 25.7075 4.89635 25.7288 4.87496 25.7354C4.78344 25.7636 4.73828 25.823 4.78938 25.9491ZM4.94581 18.9475C4.9454 19.1687 4.90264 19.3927 4.94564 19.5885C4.94302 19.6662 4.94447 19.7209 4.93806 19.7744C4.93416 19.8074 4.9115 19.819 4.88598 19.8282C4.85848 19.8381 4.81717 19.7227 4.80721 19.8438C4.80284 19.8964 4.77866 20.0068 4.83063 19.9983C4.88825 19.9891 4.91837 20.013 4.87899 20.0538C4.75932 20.1784 4.78315 20.3692 4.72418 20.5204C4.70595 20.5675 4.77843 20.6216 4.73362 20.6909C4.72267 20.7078 4.71119 20.7247 4.69814 20.738C4.6601 20.7767 4.65981 20.7262 4.65707 20.7011C4.63638 20.5112 4.69045 20.3032 4.61191 20.1257C4.60632 20.1131 4.61972 20.0852 4.62083 20.0644C4.63213 19.8521 4.75075 19.6354 4.62147 19.4314C4.61687 19.4239 4.63516 19.3939 4.6344 19.3755C4.63108 19.2919 4.70933 19.1966 4.65287 19.121C4.65928 19.1212 4.66651 19.1225 4.67262 19.1224L4.62223 19.0774C4.6894 18.9215 4.60743 18.734 4.68492 18.5801C4.71754 18.5156 4.64408 18.4603 4.64408 18.4603L4.90649 18.4445C4.90649 18.4445 4.90165 18.5332 4.91569 18.567C4.9665 18.6891 4.94599 18.8199 4.94581 18.9475ZM6.27924 7.66709C6.27893 7.68829 6.27095 7.70954 6.26135 7.73079C6.26189 7.7485 6.26367 7.76615 6.2584 7.78416C6.23524 7.86379 6.14646 7.97339 6.29063 8.03765C6.30953 8.22402 6.25933 8.40859 6.26754 8.59557C6.2701 8.65326 6.06017 8.73809 6.29675 8.75998C6.34795 8.76473 6.29799 8.80243 6.2914 8.82333C6.2639 8.91043 6.27878 8.98644 6.31224 9.07251C6.34354 9.15268 6.20518 9.24339 6.29504 9.33775C6.35764 9.40366 6.24074 9.46741 6.30155 9.54778C6.34974 9.61162 6.27049 9.71451 6.28374 9.7888C6.29752 9.86643 6.29977 9.93532 6.28993 10.0125C6.27661 10.1164 6.19899 10.2159 6.26816 10.328C6.32386 10.4181 6.16211 10.5488 6.31828 10.6323C6.35051 10.6494 6.29419 10.6661 6.27467 10.6787C6.23756 10.7027 6.21804 10.736 6.2426 10.7741C6.27637 10.8262 6.2945 10.88 6.2663 10.9372C6.2357 10.9991 6.19016 11.046 6.29124 11.0972C6.35268 11.1282 6.25546 11.1852 6.26816 11.2431C6.29938 11.3852 6.18032 11.5385 6.29179 11.6768C6.31743 11.7086 6.27777 11.727 6.27382 11.7519C6.2629 11.8212 6.16924 11.8297 6.16374 11.8727C6.15925 11.9087 6.26088 11.9192 6.25461 11.9992C6.24973 12.0612 6.29605 12.1371 6.27258 12.1848C6.22447 12.2828 6.19449 12.3722 6.23795 12.4533C6.23594 12.6105 6.17838 12.6615 6.03166 12.6539C5.97581 12.6511 5.92507 12.6233 5.96582 12.5657C6.01718 12.4932 5.89408 12.4235 5.96365 12.3521C6.02639 12.2877 5.98588 12.1862 6.03693 12.105C6.06311 12.0634 5.90656 12.0102 5.99332 11.9186C5.93297 11.7874 6.01733 11.6695 6.03182 11.545C6.0487 11.3982 5.92011 11.2397 6.07566 11.1031C6.08085 11.0985 6.08178 11.0804 6.07721 11.0752C5.93483 10.9145 6.14112 10.7041 6.00671 10.5396C5.98371 10.5115 6.03817 10.509 6.0566 10.494C6.10595 10.4538 6.10525 10.412 6.0487 10.3839C6.00935 10.3643 5.9717 10.3298 5.9985 10.3C6.0669 10.2243 6.10943 10.1613 5.99974 10.0924C6.06613 10.0082 5.99647 9.89415 6.08021 9.81848C6.10523 9.79589 6.16387 9.79037 6.10686 9.74988C5.94023 9.63134 6.10802 9.43418 6.01777 9.29634C6.00329 9.27414 6.03087 9.24575 6.05991 9.23162C6.09539 9.21439 6.18277 9.24811 6.15768 9.18443C6.14319 9.14786 6.08734 9.12281 6.10756 9.06364C6.02893 9.0495 6.06232 8.99207 6.05201 8.94349C6.02436 8.81352 6.08271 8.66861 6.02097 8.53713C5.99308 8.47778 6.00679 8.3414 6.09828 8.29313C6.20844 8.23504 6.14755 8.2296 6.08883 8.20172C6.02918 8.17345 5.99572 8.13507 6.0659 8.07453C6.08813 8.05539 6.13446 8.02275 6.07953 7.98673C5.96334 7.91072 6.00362 7.78794 6.03058 7.7015C6.05862 7.61193 6.00013 7.5793 5.98534 7.52582C5.97124 7.52202 5.95869 7.51669 5.95156 7.50561C5.90903 7.44024 5.98162 7.45205 6.01106 7.42449C6.01454 7.41814 6.01795 7.41165 6.02167 7.40521C6.02314 7.39779 6.02283 7.38894 6.01981 7.37781C5.99688 7.29432 5.9848 7.23246 5.98247 7.17968C5.9817 7.17628 5.98193 7.1735 5.98162 7.17038C5.98038 7.10303 5.99882 7.0531 6.05087 7.0091C6.12702 6.94472 6.06319 6.85532 6.06582 6.76418C6.06846 6.67442 6.03801 6.49905 6.05149 6.4213C6.09658 6.16058 6.09542 6.12967 5.9958 6.08836C5.98519 6.08396 5.97504 6.05107 5.97031 6.02937C5.96899 6.02296 5.9865 6.00264 5.99634 6.00114C6.03259 5.99559 6.06939 5.99527 6.07977 5.99462C6.30721 5.99775 6.31464 6.00325 6.30713 6.2406C6.30388 6.34264 6.3155 6.44543 6.26855 6.5463C6.21952 6.65162 6.36011 6.77084 6.27645 6.86943C6.15987 7.00694 6.39854 6.96873 6.333 7.08771C6.29744 7.15249 6.33339 7.26842 6.24252 7.30549C6.24454 7.30889 6.24632 7.31237 6.24834 7.31579C6.42519 7.39829 6.28079 7.54854 6.27924 7.66709ZM6.45147 3.08024C6.35953 3.18349 6.4806 3.31908 6.42735 3.39293C6.36227 3.48301 6.51101 3.59976 6.37794 3.68644C6.27482 3.7536 6.43166 3.87688 6.40667 3.99948C6.37678 4.1466 6.35464 4.29952 6.40148 4.45612L6.33541 4.74195C6.33541 4.74195 6.38336 4.85818 6.36425 4.99987C6.35126 5.09662 6.43405 5.15708 6.38726 5.24134C6.33739 5.33131 6.34473 5.43844 6.33209 5.54044C6.329 5.56452 6.30156 5.66053 6.28985 5.58484C6.26288 5.41047 6.11629 5.41794 6.08599 5.27239C6.07824 5.23518 6.08413 5.16458 6.10108 5.15049C6.14239 5.11618 6.13068 5.19738 6.14851 5.21328C6.24015 5.29541 6.20444 5.14655 6.22961 5.1124C6.27558 5.05021 6.24132 5.01645 6.18865 5.01901C6.08325 5.02411 5.99132 5.01627 6.07358 4.81378C6.07813 4.8025 6.07195 4.60825 6.07195 4.60825L6.13114 4.42295C6.13114 4.42295 6.10976 4.06529 6.11798 3.88952C6.12456 3.74915 6.08896 3.51409 6.10481 3.35048C6.12462 3.14551 6.08617 2.92536 6.07195 2.72366C6.06571 2.63685 6.066 2.55489 6.07142 2.47654C6.10941 2.4765 6.14751 2.47588 6.18521 2.48038L6.08459 2.38858C6.08884 2.35828 6.09385 2.32855 6.10026 2.29967C6.12811 2.30525 6.15625 2.30952 6.18521 2.30808L6.12124 2.24966C6.13481 2.22169 6.14466 2.18651 6.15025 2.14283C6.15771 2.12458 6.16482 2.10613 6.17338 2.08858C6.17751 2.08885 6.18107 2.0881 6.18521 2.08843L6.17676 2.08074C6.21795 1.99898 6.26747 1.92218 6.33622 1.85608C6.33156 1.80269 6.30214 1.78978 6.27184 1.77408C6.1605 1.71635 6.1238 1.69204 6.121 1.61042C6.0921 1.6072 6.06856 1.6046 6.02959 1.60027C5.99778 1.59641 6.05744 1.47391 6.11197 1.42098C6.12391 1.40936 6.15024 1.40152 6.1852 1.39695L6.33342 1.37749L6.36267 1.55898C6.37624 1.64302 6.36383 1.78079 6.33709 1.85713C6.33994 1.97124 6.51397 1.95299 6.45099 2.07303C6.38824 2.1924 6.45518 2.29114 6.42821 2.3868C6.33994 2.70044 6.33551 2.70061 6.43019 2.9229C6.45314 2.97669 6.4859 3.04163 6.45147 3.08024ZM8.71936 18.0021C8.63366 18.1475 8.65178 18.2841 8.6544 18.4225C8.65527 18.4651 8.67567 18.5007 8.6872 18.5395C8.65038 18.5581 8.61239 18.5884 8.57709 18.5923C8.53328 18.5971 8.53712 18.7092 8.48037 18.8653C8.43586 18.9879 8.44075 19.1066 8.40825 19.2277C8.38337 19.3206 8.40603 19.3138 8.33798 19.3172C8.30058 19.3191 8.32505 19.3696 8.28974 19.4798C8.26003 19.5725 8.29801 19.6558 8.27005 19.7193C8.22857 19.8135 8.25292 19.8209 8.29545 19.8382C8.33501 19.8543 8.32336 19.8857 8.29405 19.9281C8.25921 19.9785 8.22723 20.0296 8.18639 20.0736C8.13284 20.1313 8.13255 20.2269 8.17497 20.2919L8.19996 20.3334C8.1858 20.3413 8.1717 20.3515 8.15749 20.3565C8.04627 20.3953 8.04376 20.3958 8.04388 20.5433C8.04388 20.5907 8.02116 20.6238 8.01306 20.6606C7.98445 20.7901 7.89776 20.9143 7.93557 21.0524C7.95223 21.1132 7.90935 21.1105 7.88342 21.1271C7.84998 21.1483 7.82825 21.1899 7.84561 21.2307C7.88039 21.3124 7.88255 21.3725 7.78997 21.3986C7.87608 21.5129 7.76131 21.5958 7.72146 21.6837C7.67823 21.779 7.68883 21.9179 7.58757 21.968C7.60511 22.064 7.58396 22.1582 7.53176 22.245C7.46539 22.3549 7.53473 22.444 7.50437 22.5424C7.47862 22.6257 7.52838 22.6525 7.52768 22.7011C7.5268 22.7642 7.45549 22.7757 7.41745 22.8368C7.33279 22.9727 7.35779 23.1375 7.27337 23.2628C7.22681 23.3317 7.27249 23.3798 7.27593 23.4377C7.28111 23.5247 7.27972 23.5244 7.15061 23.669C7.13156 23.6903 7.11017 23.7201 7.10237 23.7492C7.0758 23.8485 7.18009 23.7846 7.16884 23.8508C7.15125 23.954 7.07743 23.8093 7.05436 23.9252C7.05232 23.9352 7.05698 23.9455 7.0561 23.9561C7.04387 24.1005 6.97122 24.254 7.02919 24.3901C7.04084 24.4175 7.0081 24.4939 6.99219 24.5465C6.98794 24.5605 6.9704 24.57 6.95892 24.5815C6.95817 24.5618 6.95566 24.5425 6.95689 24.5224C6.95892 24.4911 6.96988 24.4325 6.96615 24.4318C6.92636 24.4248 6.92577 24.4799 6.91651 24.512C6.88313 24.6283 6.86011 24.7392 6.76806 24.8217C6.683 24.8978 6.67158 24.7825 6.61914 24.7789C6.56636 24.7752 6.59258 24.7036 6.6033 24.6522C6.64454 24.4543 6.76223 24.1158 6.84712 23.9709C6.86926 23.9331 6.88109 23.9115 6.88231 23.8623C6.88563 23.7315 6.93084 23.6012 6.98107 23.482C7.00245 23.4312 7.07638 23.4428 7.03024 23.3291C6.99924 23.2527 7.07551 23.1015 7.11099 22.9856C7.13761 22.8988 7.19296 22.9335 7.23258 22.8976C7.29574 22.8405 7.30127 22.8124 7.244 22.7396C7.22436 22.7146 7.18836 22.7038 7.20706 22.6527C7.2655 22.4929 7.25146 22.2941 7.38744 22.176C7.42228 22.1457 7.43632 22.1225 7.40206 22.0882C7.3579 22.0439 7.39519 21.9727 7.40795 21.9116C7.44459 21.7364 7.51416 21.5715 7.56298 21.3996C7.59771 21.2776 7.59916 21.1504 7.65294 21.0341C7.78338 20.7518 7.77366 20.4228 7.92013 20.1459C7.96126 19.816 8.092 19.5056 8.16238 19.1825C8.19093 19.0516 8.2232 18.9865 8.3085 19.0614C8.32283 19.0739 8.34683 19.0135 8.34107 18.9885C8.33588 18.9653 8.31374 18.9511 8.29579 18.9412C8.21341 18.8954 8.30873 18.8508 8.31636 18.806C8.3103 18.8015 8.29906 18.7979 8.29952 18.7922C8.31362 18.5952 8.41558 18.3595 8.4009 18.3863C8.38994 18.3625 8.49044 18.1131 8.49004 18.0856C8.48695 17.8844 8.55809 17.8058 8.68557 17.861C8.7366 17.8831 8.75589 17.9402 8.71936 18.0021ZM9.48125 15.3961C9.34824 15.5402 9.42381 15.7497 9.3162 15.8971C9.28806 15.9356 9.33292 15.9579 9.35587 15.9751C9.37294 15.9879 9.42142 16.0142 9.36654 16.0361C9.30606 16.0601 9.3289 16.1124 9.31084 16.1393C9.27122 16.1982 9.27809 16.2355 9.29464 16.2807C9.33449 16.3892 9.23312 16.3479 9.22846 16.3946C9.22281 16.451 9.24757 16.4876 9.27909 16.5117C9.29458 16.5234 9.29639 16.5447 9.28299 16.5592C9.23685 16.6092 9.17445 16.6469 9.14817 16.7087C9.13023 16.7509 9.21145 16.8002 9.1628 16.8894C9.14794 16.9166 9.13029 16.9461 9.11059 16.9625C9.05694 17.0071 9.0253 17.0687 9.00141 17.1474C8.97228 17.2433 8.92433 17.3207 8.85395 17.3628C8.82232 17.4887 8.85232 17.615 8.79383 17.7412C8.78113 17.7685 8.77023 17.8077 8.74751 17.7892C8.73201 17.7766 8.72438 17.7438 8.71914 17.7161C8.71599 17.6995 8.71937 17.6686 8.72811 17.6556C8.81212 17.5316 8.79622 17.4495 8.7189 17.3891C8.70783 17.3804 8.69956 17.3659 8.69012 17.354C8.70871 17.3247 8.73184 17.3167 8.76604 17.1994C8.79161 17.1113 8.74489 17.0297 8.79738 16.9509C8.86572 16.8485 8.88536 16.7383 8.90482 16.6165C8.92026 16.52 8.95358 16.4094 9.03888 16.3683C9.10075 16.3386 9.06667 16.3218 9.04803 16.2983C9.03247 16.2787 9.02641 16.2514 9.03614 16.2156L9.18524 15.6707C9.20446 15.6026 9.24111 15.5961 9.2802 15.6029C9.29593 15.6056 9.32122 15.6186 9.32541 15.5717C9.32646 15.5606 9.30636 15.5481 9.29372 15.544C9.24291 15.5275 9.21763 15.4897 9.27129 15.4153C9.301 15.3742 9.29955 15.3484 9.29762 15.3053C9.29477 15.2387 9.32518 15.2054 9.37039 15.2123C9.39894 15.2167 9.42772 15.2219 9.45435 15.2329C9.5164 15.2585 9.53654 15.3362 9.48125 15.3961ZM9.5373 15.0498C9.51976 15.1053 9.48842 15.0943 9.45171 15.087C9.43342 15.0713 9.37586 15.0882 9.3892 15.023C9.39852 14.9776 9.44694 14.9415 9.48691 14.9553C9.51977 14.9667 9.56148 14.973 9.5373 15.0498Z" fill="white"/>
</g>
</svg>
