<svg width="40" height="41" viewBox="0 0 40 41" fill="none" xmlns="http://www.w3.org/2000/svg">
<g id="linkedin">
<path id="bg" d="M20 40.2007C9.23045 40.2007 0.5 31.4702 0.5 20.7007C0.5 9.93113 9.23045 1.20068 20 1.20068C30.7696 1.20068 39.5 9.93113 39.5 20.7007C39.5 31.4702 30.7696 40.2007 20 40.2007Z" fill="#FFD750" stroke="#FFD750"/>
<path id="linkedin_2" d="M15.6 27.7007H12.2V17.0007H15.6V27.7007ZM13.9 15.5007C12.8 15.5007 12 14.7007 12 13.6007C12 12.5007 12.9 11.7007 13.9 11.7007C15 11.7007 15.8 12.5007 15.8 13.6007C15.8 14.7007 15 15.5007 13.9 15.5007ZM28 27.7007H24.6V21.9007C24.6 20.2007 23.9 19.7007 22.9 19.7007C21.9 19.7007 20.9 20.5007 20.9 22.0007V27.7007H17.5V17.0007H20.7V18.5007C21 17.8007 22.2 16.7007 23.9 16.7007C25.8 16.7007 27.8 17.8007 27.8 21.1007V27.7007H28Z" fill="black"/>
</g>
</svg>
