<svg width="126" height="52" viewBox="0 0 126 52" fill="none" xmlns="http://www.w3.org/2000/svg">
<g id="Group 1647">
<path id="Vector" d="M109.973 28.2491C109.973 19.501 105.79 18.9939 101.727 18.9939L96.1646 18.994C95.8484 18.994 95.592 19.2504 95.592 19.5666V50.1267C95.592 50.4429 95.8484 50.6993 96.1646 50.6993H101.154C101.471 50.6993 101.727 50.4429 101.727 50.1267V38.1588C103.138 38.1588 103.675 38.1813 103.675 41.3106V50.1267C103.675 50.4429 103.931 50.6993 104.247 50.6993H109.237C109.553 50.6993 109.81 50.4429 109.81 50.1267V41.9011C109.81 37.5945 108.382 35.916 106.31 35.2619C108.528 34.567 109.973 32.7888 109.973 28.2491ZM101.727 32.985V24.1678C103.138 24.1678 103.675 24.254 103.675 28.3719C103.675 32.4897 103.295 32.985 101.727 32.985Z" fill="black"/>
<path id="Vector_2" d="M12.6171 10.5645H15.9709C16.1968 10.5645 16.38 10.3813 16.38 10.1555V6.60248H18.1495V10.1555C18.1495 10.3813 18.3326 10.5645 18.5585 10.5645H21.9123C22.1382 10.5645 22.3213 10.3813 22.3213 10.1555V0.665352C22.3213 0.439463 22.1382 0.256348 21.9123 0.256348H18.5585C18.3326 0.256348 18.1495 0.439462 18.1495 0.665352V4.14847H16.38V0.665352C16.38 0.439463 16.1968 0.256348 15.9709 0.256348H12.6171C12.3912 0.256348 12.2081 0.439462 12.2081 0.665352V10.1555C12.2081 10.3813 12.3912 10.5645 12.6171 10.5645Z" fill="black"/>
<path id="Vector_3" d="M32.0453 8.09751H28.409V6.59589H31.3912C31.6171 6.59589 31.8002 6.41278 31.8002 6.18689V4.55088C31.8002 4.325 31.6171 4.14188 31.3912 4.14188H28.409V2.69742H31.9861C32.212 2.69742 32.3951 2.5143 32.3951 2.28841V0.652412C32.3951 0.426524 32.212 0.243408 31.9861 0.243408H24.6462C24.4203 0.243408 24.2372 0.426523 24.2372 0.652412V10.1425C24.2372 10.3684 24.4203 10.5515 24.6462 10.5515H32.0453C32.2712 10.5515 32.4543 10.3684 32.4543 10.1425V8.50651C32.4543 8.28063 32.2712 8.09751 32.0453 8.09751Z" fill="black"/>
<path id="Vector_4" d="M32.0452 13.374H1.46674C1.24086 13.374 1.05774 13.5571 1.05774 13.783V15.7749C1.05774 16.0007 1.24086 16.1839 1.46674 16.1839H32.0452C32.2711 16.1839 32.4542 16.0007 32.4542 15.7749V13.783C32.4542 13.5571 32.2711 13.374 32.0452 13.374Z" fill="black"/>
<path id="Vector_5" d="M77.7412 18.9941H64.5051C64.1889 18.9941 63.9325 19.2505 63.9325 19.5667V23.5954C63.9325 23.9117 64.1889 24.168 64.5051 24.168H68.0556V50.1268C68.0556 50.443 68.312 50.6994 68.6282 50.6994H73.6181C73.9343 50.6994 74.1907 50.443 74.1907 50.1268V24.168H77.7412C78.0575 24.168 78.3138 23.9117 78.3138 23.5954V19.5667C78.3138 19.2505 78.0575 18.9941 77.7412 18.9941Z" fill="black"/>
<path id="Vector_6" d="M61.5072 18.9941H53.5067C53.213 18.9941 52.9669 19.2164 52.9371 19.5086L49.821 50.0461C49.7853 50.3956 50.0596 50.6994 50.411 50.6994H55.3872C55.6917 50.6994 55.9429 50.4611 55.959 50.1571L56.2138 45.3587H58.8002L59.0549 50.1571C59.0711 50.4611 59.3223 50.6994 59.6267 50.6994H64.603C64.9543 50.6994 65.2286 50.3956 65.193 50.0461L62.0769 19.5086C62.0471 19.2164 61.801 18.9941 61.5072 18.9941ZM56.4885 40.1848L57.3209 24.5066H57.6931L58.5255 40.1848H56.4885Z" fill="black"/>
<path id="Vector_7" d="M86.3076 18.4763C84.516 18.4763 81.4191 19.1199 80.1662 21.9711C79.2215 24.121 78.9456 28.9468 78.9456 34.8466C78.9456 40.7465 79.2215 45.5723 80.1662 47.7221C81.4191 50.5734 84.516 51.2169 86.3076 51.2169C88.0991 51.2169 91.1961 50.5734 92.449 47.7221C93.3937 45.5723 93.6696 40.7465 93.6696 34.8466C93.6696 28.9468 93.3937 24.1209 92.449 21.9711C91.1961 19.1199 88.0991 18.4763 86.3076 18.4763ZM87.3632 44.8824C87.3632 46.0032 86.6693 46.0441 86.3076 46.0441C85.9459 46.0441 85.252 46.0032 85.252 44.8824V24.8107C85.252 23.6898 85.9459 23.6489 86.3076 23.6489C86.6693 23.6489 87.3632 23.6898 87.3632 24.8107V44.8824Z" fill="black"/>
<path id="Vector_8" d="M48.8395 28.2491C48.8395 19.501 44.6562 18.9939 40.5932 18.9939L35.0307 18.994C34.7145 18.994 34.4581 19.2504 34.4581 19.5666V50.1267C34.4581 50.4429 34.7145 50.6993 35.0307 50.6993H40.0206C40.3368 50.6993 40.5932 50.4429 40.5932 50.1267V38.1588C42.0036 38.1588 42.5408 38.1813 42.5408 41.3106V50.1267C42.5408 50.4429 42.7972 50.6993 43.1134 50.6993H48.1033C48.4195 50.6993 48.6759 50.4429 48.6759 50.1267V41.9011C48.6759 37.5945 47.2479 35.916 45.1764 35.2619C47.3936 34.567 48.8395 32.7888 48.8395 28.2491ZM40.5932 32.985V24.1678C42.0036 24.1678 42.5408 24.254 42.5408 28.3719C42.5408 32.4897 42.161 32.985 40.5932 32.985Z" fill="black"/>
<path id="Vector_9" d="M117.542 26.085C117.542 24.1677 117.858 23.6486 118.556 23.6486C119.304 23.6486 119.489 24.1677 119.489 25.6271C119.489 26.5783 119.43 27.5249 119.386 28.1019C119.362 28.4137 119.593 28.6862 119.904 28.715L123.856 29.0815C124.17 29.1106 124.448 28.8812 124.479 28.5675C124.555 27.783 124.678 26.3326 124.678 25.1838C124.678 21.558 122.863 18.4758 118.062 18.4758C113.261 18.4758 111.407 22.2915 111.407 26.085C111.407 34.7027 119.032 37.6623 119.032 43.6076C119.032 45.6357 118.683 46.0439 117.869 46.0439C117.055 46.0439 116.675 45.5539 116.675 43.5165C116.675 42.3429 116.738 41.2619 116.783 40.6395C116.805 40.3322 116.579 40.0627 116.273 40.0299L112.222 39.5961C111.908 39.5625 111.627 39.7886 111.592 40.1022C111.503 40.8939 111.364 42.467 111.364 44.5088C111.364 48.1347 113.252 51.2168 118.245 51.2168C123.238 51.2168 125.167 47.3996 125.167 43.6076C125.167 34.9899 117.542 32.0303 117.542 26.085Z" fill="black"/>
<path id="Vector_10" d="M15.578 36.7545H11.9077C11.6154 36.7545 11.3586 36.9482 11.2784 37.2292L8.40449 47.2962H8.15909V36.7545L4.92754 36.7544L9.11509 22.397H9.3605V32.3462C9.3605 32.6624 9.61686 32.9188 9.93309 32.9188H15.5777C15.8981 32.9188 16.1556 32.6556 16.1503 32.3353C16.0711 27.5946 15.739 23.8068 14.8987 21.9711C13.5936 19.1199 10.3676 18.4763 8.50142 18.4763C6.63523 18.4763 3.40926 19.1199 2.10412 21.9711C1.12006 24.121 0.832642 28.9468 0.832642 34.8466C0.832642 40.7465 1.12006 45.5723 2.10412 47.7221C3.40926 50.5734 6.63522 51.2169 8.50142 51.2169C10.3676 51.2169 13.5936 50.5734 14.8987 47.7221C15.7402 45.8838 16.0721 42.088 16.1506 37.3379C16.1559 37.0176 15.8984 36.7545 15.578 36.7545Z" fill="black"/>
<path id="Vector_11" d="M1.46674 2.71036H3.88074V10.1555C3.88074 10.3813 4.06386 10.5645 4.28974 10.5645H7.64356C7.86944 10.5645 8.05256 10.3813 8.05256 10.1555V2.71036H10.4666C10.6924 2.71036 10.8756 2.52724 10.8756 2.30135V0.665352C10.8756 0.439463 10.6924 0.256348 10.4666 0.256348H1.46674C1.24085 0.256348 1.05774 0.439462 1.05774 0.665352V2.30136C1.05774 2.52724 1.24085 2.71036 1.46674 2.71036Z" fill="black"/>
<path id="Vector_12" d="M31.8817 18.9939H26.8917C26.5755 18.9939 26.3191 19.2503 26.3191 19.5665V44.8824C26.3191 46.0033 25.6252 46.0442 25.2635 46.0442C24.9018 46.0442 24.2078 46.0033 24.2078 44.8824V19.5665C24.2078 19.2503 23.9514 18.9939 23.6352 18.9939H18.6452C18.329 18.9939 18.0726 19.2503 18.0726 19.5665V42.8605C18.0726 49.992 21.8841 51.217 25.2635 51.217C28.6428 51.217 32.4543 49.992 32.4543 42.8605V19.5665C32.4543 19.2503 32.1979 18.9939 31.8817 18.9939Z" fill="black"/>
</g>
</svg>
