<svg width="125" height="27" viewBox="0 0 125 27" fill="none" xmlns="http://www.w3.org/2000/svg">
<g id="Group 1690">
<path id="Path_8396" d="M40.7101 22.8367C45.3472 22.7337 49.0363 18.8797 48.9332 14.2426C48.8302 9.60553 44.9762 5.91645 40.3391 6.01949C35.7639 6.12254 32.116 9.85284 32.116 14.4281C32.0542 19.024 35.7226 22.7749 40.3185 22.8367C40.4422 22.8573 40.5864 22.8367 40.7101 22.8367ZM40.7101 19.395C37.9485 19.395 36.0318 17.3546 36.0318 14.4487C36.0318 11.5222 37.9485 9.50248 40.7101 9.50248C43.4718 9.50248 45.3884 11.5428 45.3884 14.4487C45.3884 17.3546 43.4718 19.395 40.7101 19.395ZM67.1107 20.1369C65.4207 21.9093 63.0713 22.8779 60.6187 22.8367C55.7962 22.8367 52.004 19.3331 52.004 14.4281C52.004 9.48187 55.9198 6.01949 60.6187 6.01949C62.927 5.99888 65.1322 6.84387 66.8634 8.36897C67.0695 8.57506 67.0901 8.88419 66.884 9.1109L65.2765 11.11C65.1322 11.3367 64.8437 11.4191 64.617 11.2749C64.5963 11.2543 64.5757 11.2337 64.5551 11.2337C63.5453 10.1414 62.1026 9.50248 60.6187 9.50248C57.754 9.50248 55.9198 11.584 55.9198 14.4281C55.9198 17.2516 57.7747 19.3538 60.6187 19.3538C62.1438 19.3538 63.6071 18.6943 64.617 17.5401C64.7612 17.3134 65.0704 17.2516 65.2971 17.3959C65.3383 17.4165 65.3795 17.4577 65.4207 17.4989L67.0901 19.3538C67.3168 19.5392 67.3374 19.8484 67.1725 20.0751C67.1519 20.0957 67.1313 20.1163 67.1107 20.1369ZM75.6842 22.8367C77.4772 22.9398 79.2496 22.3215 80.5686 21.1055C80.6923 20.9819 80.8365 20.9819 80.8365 21.1674V22.0536C80.7953 22.3009 80.9808 22.5482 81.2281 22.5688C81.2693 22.5688 81.2899 22.5688 81.3311 22.5688H83.8867C84.134 22.5688 84.3401 22.3833 84.3401 22.136C84.3401 22.1154 84.3401 22.0948 84.3401 22.0742V12.0374C84.3401 8.05982 81.7639 6.0401 77.4154 6.0401C74.8186 5.93706 72.3042 6.94692 70.5112 8.84298C70.367 9.00785 70.3876 9.27577 70.5525 9.42004C70.5525 9.42004 70.5525 9.42004 70.5731 9.44065L72.3249 11.1306C72.5103 11.3161 72.8195 11.3161 73.005 11.1306C74.0973 9.97649 75.6224 9.31699 77.2299 9.3376C79.1053 9.3376 80.4243 10.2856 80.4243 11.584C80.4243 12.2229 80.0534 12.5114 79.0435 12.5733L75.4163 12.8206C73.9736 12.8206 72.5722 13.2328 71.3768 14.0159C70.1815 14.8403 69.4602 16.2005 69.4602 17.6432C69.4808 20.714 72.0157 22.8367 75.6842 22.8367ZM76.4055 19.6629C74.5919 19.6629 73.3965 18.8385 73.3965 17.602C73.3965 16.489 74.1591 15.8089 75.643 15.6853L78.6931 15.4174C79.1878 15.3761 79.6824 15.2937 80.177 15.2113C80.4243 15.1494 80.548 15.2319 80.548 15.4174V16.4684C80.548 18.3439 78.8168 19.6629 76.4055 19.6629ZM95.3043 22.8367C96.4584 22.8573 97.5919 22.61 98.6224 22.0948C99.1582 21.8269 99.6529 21.4971 100.106 21.1055C100.251 20.9819 100.354 21.0231 100.354 21.1674V22.0536C100.312 22.3009 100.498 22.5482 100.745 22.5688C100.786 22.5688 100.807 22.5688 100.848 22.5688H103.713C103.96 22.5894 104.187 22.4039 104.208 22.1566C104.208 22.136 104.208 22.0948 104.208 22.0742V0.496188C104.228 0.228266 104.022 0.0221736 103.754 0.00156423C103.734 0.00156423 103.713 0.00156423 103.713 0.00156423H100.848C100.601 -0.0190451 100.374 0.166439 100.354 0.413751C100.354 0.434361 100.354 0.475578 100.354 0.496188V7.75068C100.354 7.93617 100.23 7.89495 100.168 7.83312C98.8697 6.59656 97.1179 5.95766 95.3455 6.01949C90.8733 6.01949 87.2872 9.44065 87.2872 14.4281C87.2666 19.5598 90.7496 22.8367 95.3043 22.8367ZM95.8401 19.395C93.0991 19.395 91.1824 17.3546 91.1824 14.4487C91.1824 11.5222 93.0991 9.50248 95.8401 9.50248C98.5812 9.50248 100.498 11.5428 100.498 14.4487C100.477 17.3546 98.5812 19.395 95.8401 19.395ZM115.831 22.8367C120.468 22.7337 124.157 18.8797 124.054 14.2426C123.951 9.60553 120.097 5.91645 115.46 6.01949C110.885 6.12254 107.237 9.85284 107.237 14.4281C107.175 19.024 110.844 22.7749 115.44 22.8367C115.584 22.8573 115.708 22.8573 115.831 22.8367ZM115.831 19.395C113.07 19.395 111.153 17.3546 111.153 14.4487C111.153 11.5222 113.07 9.50248 115.831 9.50248C118.593 9.50248 120.51 11.5428 120.51 14.4487C120.51 17.3546 118.613 19.395 115.831 19.395Z" fill="black"/>
<path id="Path_8397" d="M17.4216 19.0859C21.4817 19.1683 25.1295 16.6128 26.4073 12.7588C26.5309 12.4497 26.634 12.3054 26.8401 12.3054C27.1698 12.3054 27.2935 12.7382 27.2935 13.5007C27.3965 20.8377 21.5435 26.8762 14.2066 26.9999C14.1241 26.9999 14.0623 26.9999 13.9798 26.9999C6.51926 27.0411 0.439501 21.0438 0.398282 13.6038C0.357064 6.1432 6.35439 0.0634355 13.7944 0.0222168C13.918 0.0222168 14.0623 0.0222168 14.1859 0.0222168C20.4924 0.0222168 25.5211 3.99982 25.5211 9.00789C25.5623 12.7176 22.574 15.7678 18.8643 15.809C18.8024 15.809 18.7612 15.809 18.6994 15.809C15.237 15.809 12.3723 13.3977 12.3723 10.0384C12.3723 8.69875 12.8257 7.40036 13.6295 6.32868C14.2478 5.56613 14.8042 5.38065 14.8042 5.81344C14.7218 6.1638 14.6806 6.53477 14.6393 6.88513C14.7218 8.41023 16.0202 9.58496 17.5453 9.50252C19.194 9.50252 20.5336 8.18352 20.5336 6.53477C20.5336 6.51416 20.5336 6.51417 20.5336 6.49356C20.5336 4.37079 18.349 2.66022 15.5255 2.66022C11.3212 2.66022 8.16801 6.49355 8.16801 10.6773C8.20923 15.4792 12.2899 19.0859 17.4216 19.0859Z" fill="black"/>
</g>
</svg>
