<svg width="21" height="21" viewBox="0 0 21 21" fill="none" xmlns="http://www.w3.org/2000/svg">
<g id="Group 1637">
<path id="Vector" d="M20.0587 8.37941C19.7747 7.70985 19.2736 7.15368 18.6369 6.80195C18.3127 6.60596 18.0235 6.35912 17.7798 6.06885C17.5966 5.73089 17.4716 5.36433 17.4112 4.98401C17.3317 4.28481 17.0139 3.63326 16.5107 3.14063C15.9015 2.76243 15.1843 2.5961 14.4713 2.66813C14.0804 2.69144 13.6874 2.64906 13.3102 2.54312C12.9627 2.37256 12.646 2.14585 12.3726 1.87039C11.8864 1.33963 11.237 0.984728 10.5282 0.861816C9.83007 0.894657 9.16371 1.16375 8.64035 1.62671C8.33313 1.8799 7.98457 2.07803 7.60954 2.21257C7.21119 2.2772 6.80438 2.2772 6.40605 2.21257C5.72063 2.04942 5.00127 2.1257 4.36564 2.42975C3.80733 2.87047 3.42276 3.49552 3.28081 4.19261C3.19499 4.54963 3.04773 4.88864 2.8475 5.19586C2.57311 5.4586 2.25846 5.67471 1.91416 5.83575C1.25626 6.10273 0.712784 6.59218 0.379061 7.21935C0.207438 7.90161 0.280537 8.62413 0.585647 9.25871C0.74032 9.60301 0.835666 9.97169 0.86746 10.3488C0.810251 10.7037 0.694776 11.0459 0.525275 11.3627C0.153421 11.9771 0.0157011 12.706 0.140701 13.4137C0.420372 14.0843 0.919369 14.6416 1.55609 14.9922C1.88026 15.1872 2.17054 15.434 2.41316 15.7243C2.5975 16.0622 2.72144 16.4288 2.78184 16.8091C2.86236 17.5094 3.18019 18.1599 3.68234 18.6535C4.2915 19.0307 5.00871 19.197 5.72169 19.125C6.11367 19.1027 6.50565 19.1441 6.88279 19.25C7.23026 19.4206 7.54809 19.6484 7.82142 19.9227C8.30769 20.4535 8.95605 20.8084 9.66585 20.9313H9.76862C10.4276 20.8624 11.0505 20.5934 11.5527 20.1611C11.8631 19.9238 12.2116 19.7405 12.5835 19.6187C12.9829 19.5541 13.3886 19.5541 13.788 19.6187C14.4724 19.7819 15.1928 19.7056 15.8274 19.4015C16.3857 18.9608 16.7703 18.3368 16.9122 17.6387C16.998 17.2806 17.1463 16.9416 17.3519 16.6354C17.6231 16.3716 17.9366 16.1555 18.2789 15.9955C18.9357 15.7264 19.4781 15.237 19.814 14.6119C19.9856 13.9297 19.9125 13.2082 19.6084 12.5726C19.4421 12.2134 19.3404 11.8278 19.3097 11.4337C19.3669 11.0788 19.4823 10.7366 19.6518 10.4199C20.0258 9.80963 20.171 9.08602 20.0587 8.37941Z" fill="#00C1DE"/>
<path id="Vector_2" d="M14.2783 6.71421C14.0664 6.50444 13.7253 6.50444 13.5134 6.71421L5.91958 14.3081C5.81681 14.4108 5.75854 14.5485 5.75854 14.6937C5.75854 14.8388 5.81681 14.9766 5.91958 15.0793C6.0181 15.1768 6.14947 15.2329 6.28826 15.2361C6.43234 15.2372 6.57113 15.18 6.67389 15.0793L14.2677 7.48547C14.3716 7.38483 14.4309 7.2471 14.433 7.10196C14.4351 6.95788 14.379 6.81803 14.2783 6.71421Z" fill="black"/>
<path id="Vector_3" d="M7.41643 10.1373C8.35082 10.1415 9.1581 9.48467 9.3435 8.56825C9.5289 7.65187 9.04156 6.73231 8.1792 6.37209C7.31578 6.01189 6.31887 6.3117 5.79872 7.08824C5.27748 7.86479 5.37813 8.90089 6.03815 9.56196C6.40365 9.92853 6.89945 10.1362 7.41643 10.1373ZM6.83056 7.57137C6.99371 7.41034 7.21408 7.31923 7.44395 7.31711C7.85711 7.31605 8.21413 7.60845 8.29571 8.0142C8.37729 8.41996 8.16011 8.82677 7.77873 8.98567C7.39628 9.14458 6.9545 9.01216 6.72357 8.66784C6.49368 8.32354 6.53817 7.86485 6.83056 7.57137Z" fill="black"/>
<path id="Vector_4" d="M11.4306 12.1935C10.8712 12.7518 10.7049 13.5919 11.0068 14.3208C11.3087 15.0507 12.0207 15.5275 12.811 15.5275C13.6002 15.5275 14.3132 15.0507 14.6151 14.3208C14.9171 13.5919 14.7497 12.7518 14.1914 12.1935C13.4275 11.4339 12.1945 11.4339 11.4306 12.1935ZM13.4212 14.1894C13.1733 14.4384 12.7993 14.5125 12.4751 14.378C12.1499 14.2445 11.939 13.9277 11.939 13.576C11.939 13.2254 12.1499 12.9086 12.4751 12.7741C12.7993 12.6406 13.1733 12.7147 13.4212 12.9637C13.5843 13.1258 13.6765 13.3462 13.6765 13.576C13.6765 13.807 13.5843 14.0273 13.4212 14.1894Z" fill="black"/>
</g>
</svg>
