<svg width="360" height="14" viewBox="0 0 360 14" fill="none" xmlns="http://www.w3.org/2000/svg">
<path d="M157.146 11.4727C154.916 11.5281 152.766 11.252 150.527 11.5243C149.999 11.5883 149.012 11.5172 148.732 11.42C148.304 11.2717 147.624 11.2124 146.602 11.3552C144.657 11.6267 142.764 11.8441 140.449 11.4535C139.801 11.3443 139.215 11.4262 138.527 11.4578C134.16 11.6582 129.582 11.615 125.118 11.7078C123.499 11.7415 121.964 11.7459 120.696 11.5996C120.163 11.5381 118.962 11.4486 118.825 11.4646C115.323 11.8721 111.732 11.5202 108.239 11.5714C105.005 11.6189 101.712 11.6949 98.6193 11.8264C95.1773 11.9729 91.6779 11.8909 88.3529 11.9215C85.0513 11.9519 81.9394 11.9493 78.6216 12.0833C75.4802 12.2103 72.0541 12.2114 68.7839 12.2927C65.6881 12.3696 62.4894 12.3409 59.5205 12.5764C58.1525 12.6851 56.0211 12.6967 54.2173 12.5681C49.0152 12.1971 43.6539 12.311 38.8571 12.7427C36.1039 12.9903 33.2926 12.9349 30.4966 12.997C26.8156 13.0787 23.292 13.0621 19.6227 12.9373C16.5511 12.8329 12.4334 13.0989 10.4686 12.5972C10.3388 12.5635 9.54517 12.5557 9.06566 12.5603C7.66992 12.574 6.0817 12.9139 5.13587 12.6671C4.00855 12.373 3.87602 12.0127 5.06433 11.6611C6.81263 11.1436 6.06734 10.8766 2.25834 10.55C1.87089 10.5167 1.32511 10.5084 0.853516 10.4885C2.96962 10.1978 0.714836 9.80737 3.07077 9.50189C5.14833 9.23246 6.97374 9.05535 9.91386 9.25934C10.8515 9.32442 12.0559 9.29402 12.3189 9.13626C12.5649 8.98861 11.7016 8.91183 10.517 8.90135C9.54708 8.89284 8.90015 8.72608 7.70202 8.83806C6.95307 8.90799 5.84363 8.86781 6.29998 8.79801C8.14313 8.5151 4.57309 8.2521 6.54876 8.01678C9.09439 7.71353 8.93152 7.36201 8.33107 7.03632C7.50793 6.58841 9.76976 6.11704 7.8882 5.68451C7.42657 5.57837 7.63503 5.41612 8.7883 5.35561C11.078 5.23525 12.1231 4.91898 14.6212 4.83631C15.2886 4.81424 15.5562 4.70579 16.6156 4.74088C21.9394 4.9169 27.3133 4.78573 32.7202 4.65975C35.1575 4.60307 37.0802 4.99594 39.9211 4.76903C42.6591 4.55031 44.913 4.86197 47.564 4.81802C50.0988 4.77608 52.7142 4.83377 55.2239 4.77958C56.4855 4.7524 57.0448 4.80705 57.9458 4.852C59.6977 4.93945 62.7183 4.89665 64.2976 4.73217C66.2088 4.53327 67.8417 4.48717 70.015 4.63072C72.1392 4.77084 75.6564 4.77891 77.326 4.59391C80.8862 4.19943 85.7931 4.44624 89.3318 4.10447C91.4254 4.31746 95.2756 4.13352 96.2714 4.28329C97.738 4.50396 98.9763 4.38718 99.9283 4.35019C103.271 4.22029 106.359 4.39047 109.585 4.3519C111.04 4.33437 111.25 4.46917 111.308 4.59394C111.369 4.7249 111.074 4.83442 109.688 4.87265C105.34 4.99223 100.986 5.29382 96.6151 5.03757C94.2305 4.89758 94.0605 5.07176 93.5953 5.25533C93.3932 5.33473 92.7024 5.47804 93.8324 5.46525C96.0925 5.43973 98.1361 5.6863 99.8532 5.59388C103.246 5.41135 106.439 5.53503 109.561 5.54361C112.694 5.5522 115.844 5.49402 118.985 5.53316C122.608 5.57819 126.371 5.34461 130.02 5.49682C131.848 5.07246 134.77 5.37491 137.137 5.30762C139.778 5.23266 142.3 5.06706 145.282 5.17162C147.129 5.23652 149.377 5.2249 151.382 5.24065L154.163 5.06281C154.163 5.06281 158.115 5.15292 158.467 5.09593C158.819 5.03897 160.179 4.943 160.452 4.83219C160.726 4.72132 158.706 4.53254 158.706 4.53254C156.577 4.50499 154.604 4.50437 152.544 4.62175C150.257 4.75219 148.103 4.73435 145.807 4.59716C141.896 4.36363 141.811 4.38996 138.208 4.6315C136.233 4.76376 134.215 4.98006 132.207 4.65684C131.902 4.60797 130.479 4.59145 130.073 4.63222C125.746 5.06771 120.766 4.68727 116.34 4.89467C114.372 4.98681 114.323 4.78612 113.29 4.69946C113.848 4.52152 114.14 4.32433 115.034 4.1763C115.779 4.05233 116.774 4.2137 117.651 4.23884C119.599 4.29481 121.29 4.46305 123.391 4.20151C125.262 3.96855 127.987 4.37574 130.399 4.02232C132.061 3.77907 135.109 4.02271 137.587 4.00074C141.526 3.96583 145.457 3.7446 149.433 3.89712C149.787 3.91076 150.479 3.82698 150.786 3.8434L153.51 3.79424C155.662 3.81261 154.538 3.26076 157.305 3.36827C158.613 3.41924 159.72 3.17799 160.55 3.36091C161.053 3.47237 165.533 3.73873 168.069 3.73723C170.608 3.73578 171.937 3.9423 171.937 3.9423C174.504 4.30257 176.892 4.06634 179.56 3.9353C180.622 3.88316 182.226 3.86965 183.143 4.0065C183.361 4.03939 183.253 4.13728 182.988 4.17855C182.049 4.32555 181.354 5.01705 184.339 4.98416C187.796 4.94614 189.319 5.08307 191.87 4.87065C195.163 4.59684 198.617 5.0004 201.36 4.6247C201.771 4.56847 203.411 4.60543 204.351 4.64133C207.224 4.751 210.009 4.7415 212.693 4.52927C214.915 4.35338 217.645 4.31611 219.634 4.38207C225.161 4.56528 230.635 4.37027 236.122 4.33655C237.451 4.3284 238.794 4.31429 240.109 4.28355C241.978 4.23998 244.401 4.52051 245.764 4.06087C246.068 3.95898 249.723 3.97454 251.833 3.93768C252.618 3.92396 253.667 3.88485 253.574 3.79997C253.451 3.68483 252.705 3.58351 252.204 3.47787C251.67 3.36482 251.012 3.41758 250.381 3.47825C249.592 3.55402 248.62 3.71028 248.069 3.69479C246.126 3.63965 245.023 3.26275 243.177 3.36324C242.051 3.42448 240.66 3.79396 239.349 3.77139C237.23 3.73502 235.143 3.94209 233.252 3.79308C232.722 3.75129 232.463 3.58097 231.652 3.71399C229.694 4.0355 227.678 3.96256 225.569 3.81512C224.655 3.75137 223.275 3.65827 222.748 3.75596C220.574 4.15855 217.614 4.03615 214.676 4.09337C212.794 4.13002 211.426 4.29855 210.44 3.99965C210.218 3.93213 209.546 3.93283 209.194 4.00785C206.814 4.51368 203.552 4.12535 200.75 4.19381C197.829 4.26516 198.093 4.0043 197.973 3.78571C197.817 3.50497 199.462 3.49473 201.102 3.46487C202.519 3.43904 203.607 3.53073 204.847 3.55667C207.751 3.61739 210.794 3.74807 213.561 3.41922C214.087 3.35676 215.329 3.27811 215.598 3.3028C218.055 3.53078 221.335 3.1051 223.761 3.31816C225.653 3.0079 228.476 3.03307 231.008 3.01462C233.747 2.99468 236.509 3.02443 239.214 3.06264C241.032 3.08816 242.07 2.92731 243.426 2.84716C245.854 2.70362 248.253 2.49141 250.293 2.85432C251.221 3.01901 251.952 2.85907 252.814 2.83349C257.789 2.68891 262.743 2.72291 267.792 2.57633C269.506 2.52267 272.009 2.67999 272.055 2.65241C273.196 2.00114 277.287 2.58777 279.848 2.33432C281.527 2.16808 285.11 2.19488 287.558 2.00249C288.283 1.94558 288.981 1.93761 289.758 1.9842C293.75 2.2224 297.21 2.26509 299.617 1.97593C301.164 1.78989 301.594 1.83422 302.355 1.93966C304.132 2.18572 306.1 1.76105 308.067 1.94968C310.139 2.14821 311.274 1.85461 312.59 1.70971C313.96 1.55909 315.412 1.57424 317.052 1.60482C318.929 1.63981 321.52 1.72071 322.707 1.60962C325.377 1.35959 327.537 1.1637 331.213 1.21815C334.059 1.26027 337.232 1.13302 340.208 1.04698C343.449 0.953285 344.562 1.10378 344.481 1.46685C344.467 1.536 345.157 1.60171 345.524 1.66894C345.771 1.58108 346.112 1.49432 346.237 1.40493C346.368 1.3114 346.133 1.21135 346.339 1.12114C346.671 0.974373 348.847 0.940056 348.847 0.940056C348.847 0.940056 353.721 0.860864 354.044 0.903949C355.916 1.15421 355.503 1.90104 354.863 2.44638C356.128 2.77466 357.486 3.09786 358.635 3.4325C359.805 3.77261 358.965 3.97491 356.177 4.05682C355.141 4.08722 357.071 4.15171 356.906 4.66247C356.79 5.02089 354.404 5.37236 356.935 5.21595C357.642 5.17217 358.072 5.81143 358.803 6.32453C358.98 6.44896 359.068 6.65795 357.618 6.68762C355.934 6.7221 357.431 6.92499 356.353 7.09128C355.175 7.27268 356.48 7.40437 356.48 7.40437C357.341 7.42621 355.632 7.55437 356.106 7.65649C356.438 7.72798 356.369 7.84528 356.159 7.93378C355.908 8.04101 354.851 8.08054 354.225 8.04127C351.549 7.87326 349.334 7.90141 347.224 8.22092C345.678 8.45484 342.933 8.50677 341.445 8.38392C339.151 8.19431 336.919 8.57208 334.906 8.36201C334.53 8.32271 333.098 8.35998 332.936 8.46729C332.346 8.85285 329.597 8.84701 327.993 8.77804C324.069 8.60931 320.17 8.73778 316.252 8.76751C313.894 8.78533 311.403 8.70284 309.384 8.72624C304.544 8.78229 299.283 8.65029 294.976 8.89798C291.666 9.0884 288.593 8.87661 285.485 9.1194C282.648 9.34128 278.584 9.13934 275.715 9.47082C271.237 9.22901 266.671 9.86625 262.2 9.55761C256.796 9.88638 251.378 9.91969 245.919 9.70346C245.486 9.68639 244.776 9.70393 244.374 9.73742C242.819 9.86708 241.202 10.0625 239.421 9.89455C237.902 9.75116 238.791 9.4815 238.399 9.27425C238.296 9.21864 238.037 9.1271 237.776 9.12523C236.795 9.11859 236.735 9.21036 236.761 9.30167L236.821 9.77552C236.815 9.92957 236.024 10.0003 234.838 10.0223C234.306 10.032 233.776 10.0439 233.246 10.0471C228.028 10.0793 222.737 10.2976 217.614 10.0841C213.036 10.4627 207.844 10.3311 202.948 10.4439C201.379 10.48 199.89 10.4521 198.307 10.4063C194.45 10.2948 170.941 10.3205 167.404 10.5444L157.146 11.4727ZM11.5883 11.632C11.447 11.5619 10.4878 11.4705 9.90521 11.4754C8.41184 11.488 8.97022 11.6451 8.84679 11.7362C8.8701 11.8463 9.19129 11.944 10.0395 11.9132C11.0497 11.8764 11.8388 11.7566 11.5883 11.632ZM64.3712 5.84635C63.4827 5.74557 62.4278 5.66519 61.6511 5.59518C60.3869 5.67173 59.4107 5.72207 58.5222 5.78998C58.2538 5.8104 58.005 5.89918 58.1437 5.92341C58.8299 6.04361 63.6884 6.13748 64.6386 6.05785C65.8232 5.95874 64.7801 5.89293 64.3712 5.84635ZM86.6719 5.22641C84.3949 5.50377 83.0965 5.12789 81.2579 5.17258C79.1686 5.22337 74.6725 5.23089 73.2561 5.18021C72.866 5.16628 72.559 5.12405 72.2128 5.09477C71.879 5.35143 68.3331 5.41516 69.0256 5.68265C69.4962 5.86367 71.5103 5.97161 73.4162 5.88938C74.2161 5.85491 74.777 5.82925 75.7157 5.90346C78.9323 5.79239 82.3144 5.67551 85.8218 5.55446C86.2629 5.53843 86.6495 5.47153 86.9474 5.41929C87.4118 5.33755 86.9905 5.18747 86.6719 5.22641ZM150.075 9.03704C150.189 9.00858 149.201 8.90283 148.583 8.86039C147.399 8.77941 147.407 8.92195 147.286 8.99299C147.135 9.08197 147.233 9.17519 147.225 9.26686C147.312 9.3571 147.325 9.44981 147.508 9.53652C147.619 9.58928 147.989 9.63257 148.245 9.68014C148.557 9.64476 149.116 9.61008 149.142 9.57379C149.269 9.391 149.361 9.21275 150.075 9.03704ZM90.1615 7.52397C87.9972 7.43785 87.3823 7.64731 85.8819 7.71063C83.9671 7.79161 84.0477 7.69597 83.6012 7.65185C82.3799 7.53165 81.163 7.60871 80.237 7.69527C78.5092 7.85643 83.8955 8.06698 77.4632 8.19734C77.9061 8.23122 78.2273 8.28012 78.5476 8.27646C81.3213 8.245 84.2033 8.22777 86.8294 8.15875C89.0277 8.10096 88.5356 7.95658 88.9115 7.8425C89.2684 7.73389 91.8579 7.59152 90.1615 7.52397ZM181.871 8.88138C182.121 8.73039 181.192 8.66463 179.502 8.67229C174.322 8.69548 168.992 8.87754 163.967 8.69449C163.359 8.67216 161.748 8.74388 161.2 8.80883C159.299 9.03491 162.081 9.11908 162.804 9.2659C163.084 9.32317 163.307 9.49834 164.599 9.3349C167.71 8.94148 172.257 9.20357 175.76 9.01857C177.256 8.89858 178.279 9.04166 179.568 9.03574C180.677 9.03076 181.697 8.98737 181.871 8.88138ZM160.2 7.2526C160.833 7.09943 162.006 6.90512 162.006 6.90512C159.096 6.58618 141.279 7.01837 137.221 6.85936C137.14 6.85623 134.903 6.97212 134.912 7.01751C134.98 7.33036 129.295 7.42416 127.185 7.64957C127.163 7.48851 127.261 7.32554 127.054 7.16734C126.973 7.1069 126.207 7.05723 125.751 7.00265C124.658 7.05043 124.19 7.11209 124.345 7.17968C125.013 7.46864 123.693 7.6331 118.099 7.53852C113.72 7.80383 108.432 7.60109 103.663 7.79584C101.88 7.86847 98.7233 7.79607 99.16 7.62731C99.8551 7.35962 95.6445 7.49194 94.1718 7.40821C92.2704 7.54075 94.0089 7.60436 94.51 7.7036C94.9421 7.7892 93.5052 7.92065 93.3576 8.02872C93.2252 8.12249 93.9454 8.20492 95.9004 8.19454C103.692 8.15322 111.565 7.92849 119.379 7.96415C120.009 7.96703 120.533 7.63141 122.978 7.89957C123.976 8.00864 124.564 7.86133 124.886 7.81205C125.354 7.74064 125.821 7.67727 127.185 7.64957C128.335 7.78232 129.19 7.93023 133.03 7.7575C135.485 7.6471 138.295 7.65016 141.027 7.6546C147.907 7.66591 147.928 7.66204 148.936 7.24321C149.109 7.17019 149.448 7.10586 150.871 7.0759C151.064 7.21071 151.061 7.34992 151.503 7.47923C151.881 7.58973 153.941 7.71112 155.209 7.65159C155.209 7.65159 159.566 7.40577 160.2 7.2526ZM306.331 5.46619C305.82 5.38137 307.014 5.12247 304.823 5.18485C303.725 5.21611 302.793 5.35519 301.784 5.44556C303.071 5.57274 304.239 5.7269 305.715 5.80863C306.106 5.83021 306.439 5.60488 306.331 5.46619ZM319.937 5.12496C319.538 5.05376 318.25 4.96276 318.185 4.97104C316.336 5.20804 313.398 5.06836 311.584 5.28677C311.271 5.32477 311.286 5.40178 311.152 5.46071L311.596 5.53033C313.818 5.24119 316.484 5.61907 318.699 5.41625C319.423 5.3498 320.789 5.27626 319.937 5.12496ZM290.664 5.80669C290.664 5.80669 291.183 5.56727 291.151 5.49C291.12 5.41278 287.763 5.44922 287.763 5.44922C286.764 5.4831 284.242 5.50198 282.872 5.49794C277.923 5.48328 272.736 5.58164 267.647 5.64747C258.814 5.76171 250.035 5.94079 242.074 5.97646C238.983 6.02032 236.795 6.04615 234.682 6.08317C233.384 6.10592 233.014 6.14581 232.757 6.18869C232.479 6.23489 237.219 6.23797 232.46 6.31462C230.39 6.34798 226.126 6.44045 226.23 6.35848C226.344 6.26757 225.255 6.23483 223.807 6.31444C219.408 6.55687 211.391 6.46164 205.733 6.62625C203.979 6.6773 201.902 6.56641 199.417 6.66825C198.814 6.69299 198.109 6.90603 197.661 6.9322C196.363 7.00812 197.787 7.18946 198.787 7.1808C206.359 7.1153 214.852 6.72269 222.195 6.75001C222.715 6.75195 223.747 6.71774 224.562 6.70552C232.812 6.58143 240.95 6.29294 249.412 6.38398C249.723 6.38728 250.841 6.34445 251.567 6.33625C255.327 6.29359 259.422 6.08104 262.85 6.21419C268.885 6.01798 276.68 6.0572 282.739 5.85636C285.226 5.77387 286.599 5.80586 287.516 5.85779L290.664 5.80669ZM262.979 3.28574C263.113 3.25189 262.091 3.16139 261.223 3.0477C259.803 3.11898 260.166 3.38451 258.655 3.43927C257.274 3.48925 257.22 3.58406 258.249 3.69251C259.173 3.78968 260.012 3.78449 260.802 3.6633C261.594 3.54212 262.452 3.42132 262.979 3.28574Z" fill="#FFD750"/>
</svg>
