<svg xmlns="http://www.w3.org/2000/svg" width="141" height="140" viewBox="0 0 141 140" fill="none">
<g id="Design" clip-path="url(#clip0_7618_562)">
<path id="Vector_67" d="M21.3289 53.2435L20.9412 54.4857L24.4265 55.5726L23.1746 59.5862L12.3191 56.1995L13.8523 51.2864C14.8679 48.0306 16.2371 46.8587 18.821 47.6654C21.5203 48.5072 22.2195 50.387 21.3289 53.2435ZM16.1765 52.3255L15.9851 52.9398L18.5271 53.7327L18.7322 53.0755C18.8972 52.5472 18.8386 51.9808 17.7537 51.6419C16.7253 51.3216 16.3679 51.7113 16.1765 52.3255Z" fill="white"/>
<path id="Vector_68" d="M32.7216 39.0687L30.4579 42.6478L29.3192 42.2113L28.0868 44.1585L28.9872 44.9759L27.0604 48.0238L19.0302 39.4427L21.5087 35.5218L32.7216 39.0687ZM26.9501 41.2806L23.2684 39.7669L23.2284 39.8304L26.1981 42.4691L26.9501 41.2806Z" fill="white"/>
<path id="Vector_69" d="M38.1941 33.9368C35.5574 36.3968 33.366 36.0882 31.7732 34.3812L29.282 31.7122C27.5574 29.8636 27.5789 27.7152 30.1941 25.2747C32.0535 23.5394 34.1355 23.0501 35.575 24.5931C36.0135 25.0638 36.2859 25.4222 36.5281 25.7904L34.0174 27.9691C33.8465 27.6986 33.6863 27.4603 33.3484 27.099C32.9402 26.6615 32.5281 26.637 32.0359 27.096C31.5877 27.515 31.5926 28.0023 31.949 28.3851L35.2566 31.93C35.6141 32.3128 36.0994 32.3509 36.5701 31.9115C37.0301 31.4827 37.0242 31.0384 36.5437 30.5238C36.2889 30.2503 36.0516 30.0618 35.8143 29.8948L38.1395 27.5618C38.3875 27.7181 38.8719 28.1058 39.3016 28.5657C40.7703 30.1409 40.0428 32.2122 38.1941 33.9368Z" fill="white"/>
<path id="Vector_70" d="M53.4091 23.9089L49.4091 26.0056L46.1073 22.9587L45.9052 23.6043L47.6483 26.9285L43.9266 28.8796L38.6493 18.8142L42.372 16.863L44.2528 20.4519L44.3329 20.4109L44.372 15.8142L48.1063 13.8562L47.8798 19.4793L53.4091 23.9089Z" fill="white"/>
<path id="Vector_71" d="M64.3074 21.2249L56.2322 23.0394L53.739 11.9407L61.7556 10.14L62.3757 12.8997L58.4617 13.7796L58.7507 15.0638L62.0808 14.3167L62.7 17.0765L59.3709 17.8245L59.7156 19.3577L63.6873 18.4652L64.3074 21.2249Z" fill="white"/>
<path id="Vector_72" d="M78.0222 17.4114C77.9275 19.9984 76.239 21.1497 73.0086 21.0306L67.5652 20.8304L67.9832 9.46613L73.3367 9.66242C76.5359 9.78058 78.2664 10.7874 78.1531 13.8528L78.0222 17.4114ZM73.948 13.3685C73.9793 12.5462 73.7937 12.2698 72.8972 12.2366L72.0896 12.2073L71.8621 18.3978L72.6248 18.4261C73.448 18.4564 73.7712 18.1985 73.7996 17.4359L73.948 13.3685Z" fill="white"/>
<path id="Vector_73" d="M106.382 20.7044L98.4382 29.3148L94.8953 27.3783L96.4929 22.1165L96.4148 22.0736L92.8738 26.2738L89.4099 24.3802L92.446 13.0882L96.2117 15.1458L94.2488 20.515L94.3279 20.558L97.9314 16.0853L100.884 17.6996L99.032 23.1458L99.1101 23.1888L102.59 18.6312L106.382 20.7044Z" fill="white"/>
<path id="Vector_74" d="M105.839 35.9202L102.807 33.0081L110.68 24.8099L113.713 27.721L105.839 35.9202Z" fill="white"/>
<path id="Vector_75" d="M120.917 41.8694L119.284 39.4349L112.192 44.1917L109.834 40.6771L116.927 35.9193L115.294 33.4847L117.64 31.9105L123.264 40.2943L120.917 41.8694Z" fill="white"/>
<path id="Vector_76" d="M118.36 59.0023L117.035 54.9954L121.112 53.6468L120.553 51.9564L116.475 53.305L115.155 49.3138L125.952 45.7415L127.272 49.7337L123.237 51.0687L123.798 52.7591L127.831 51.4241L129.157 55.43L118.36 59.0023Z" fill="white"/>
<path id="Vector_77" d="M19.7774 75.4427C19.9513 76.9134 18.9024 78.2435 17.4308 78.4163C15.9601 78.5902 14.63 77.5423 14.4561 76.0707C14.2833 74.599 15.3311 73.2699 16.8028 73.096C18.2745 72.9222 19.6036 73.971 19.7774 75.4427Z" fill="white"/>
<path id="Vector_78" d="M24.2518 100.535C22.0184 101.751 19.8953 101.17 18.1492 97.9642C16.3387 94.6409 17.1707 92.6029 19.2996 91.4437L22.3475 89.7835C24.5545 88.5814 26.6805 89.0755 28.4627 92.347C30.202 95.5394 29.5457 97.6507 27.2996 98.8743L24.2518 100.535ZM25.827 94.8558C26.3914 94.5482 26.3973 93.9661 26.1824 93.5716C25.9676 93.1771 25.4432 92.9017 24.9168 93.1878L20.7664 95.4495C20.241 95.7357 20.1727 96.2669 20.4227 96.7269C20.6512 97.1468 21.1492 97.4036 21.661 97.1243L25.827 94.8558Z" fill="white"/>
<path id="Vector_79" d="M36.3954 107.507L33.6512 104.582L32.5497 105.617L34.9657 108.192L32.9042 110.126L30.4872 107.552L27.4227 110.429L24.5458 107.364L32.8368 99.5824L38.4579 105.572L36.3954 107.507Z" fill="white"/>
<path id="Vector_80" d="M48.4363 120.817L47.2507 120.283L45.7537 123.612L41.9207 121.888L46.5828 111.52L51.2742 113.63C54.3855 115.029 55.3836 116.528 54.2742 118.996C53.114 121.575 51.1648 122.043 48.4363 120.817ZM49.9656 115.813L49.3787 115.549L48.2869 117.978L48.9148 118.26C49.4187 118.487 49.989 118.496 50.4548 117.46C50.8962 116.478 50.5515 116.076 49.9656 115.813Z" fill="white"/>
<path id="Vector_81" d="M63.1189 128.621C62.9998 128.407 62.9763 128.055 63.0027 127.772C63.0925 126.757 63.1296 126.414 63.1961 125.758C63.3015 124.64 62.7039 124.384 62.0671 124.29L61.8162 124.252L61.2097 128.337L57.0505 127.72L58.7205 116.472L64.5671 117.339C67.3347 117.75 68.6121 119.029 68.3308 120.923C68.0808 122.611 67.1706 123.233 65.5437 123.399L65.532 123.473C66.9753 123.838 67.5007 124.779 67.2839 126.244L67.1628 127.058C67.0134 128.065 67.0691 128.708 67.2781 129.239L63.1189 128.621ZM63.2625 119.702L62.5086 119.59L62.1873 121.751L62.8836 121.855C63.5935 121.96 64.0095 121.704 64.1257 120.919C64.2361 120.18 63.8992 119.797 63.2625 119.702Z" fill="white"/>
<path id="Vector_82" d="M82.9936 124.071C83.31 126.595 81.9927 128.359 78.3706 128.813C74.6137 129.284 73.021 127.764 72.7192 125.359L72.2876 121.914C71.9751 119.42 73.2124 117.621 76.9087 117.158C80.5161 116.705 82.2426 118.087 82.561 120.626L82.9936 124.071ZM78.2817 120.53C78.2016 119.891 77.6616 119.672 77.2163 119.728C76.771 119.784 76.3218 120.172 76.397 120.766L76.9848 125.457C77.0591 126.051 77.5288 126.309 78.0483 126.244C78.5239 126.185 78.9438 125.815 78.8716 125.236L78.2817 120.53Z" fill="white"/>
<path id="Vector_83" d="M94.9735 114.793L92.2645 115.911L95.5223 123.805L91.6102 125.42L88.3514 117.527L85.6415 118.645L84.5634 116.033L93.8954 112.18L94.9735 114.793Z" fill="white"/>
<path id="Vector_84" d="M109.967 114.687L103.343 119.64L96.5359 110.536L103.111 105.619L104.803 107.883L101.594 110.284L102.382 111.338L105.113 109.295L106.805 111.56L104.075 113.602L105.015 114.86L108.274 112.423L109.967 114.687Z" fill="white"/>
<path id="Vector_85" d="M116.94 107.388L114.153 110.535L105.641 102.997L108.427 99.8499L116.94 107.388Z" fill="white"/>
<path id="Vector_86" d="M125.688 93.5609L123.804 96.9993L117.677 96.5081L117.634 96.5872L122.553 99.2825L120.786 102.51L110.813 97.0482L112.818 93.387L118.102 93.7054L118.145 93.6263L113.946 91.3265L115.715 88.099L125.688 93.5609Z" fill="white"/>
<path id="Vector_87" d="M121.855 75.4397C122.029 73.9681 123.357 72.9202 124.828 73.094C126.3 73.2669 127.349 74.597 127.175 76.0677C127.001 77.5394 125.671 78.5882 124.2 78.4144C122.729 78.2405 121.681 76.9114 121.855 75.4397Z" fill="white"/>
</g>
<defs>
<clipPath id="clip0_7618_562">
<rect width="139.194" height="139.181" fill="white" transform="translate(0.976562)"/>
</clipPath>
</defs>
</svg>