<svg width="389" height="21" viewBox="0 0 389 21" fill="none" xmlns="http://www.w3.org/2000/svg">
<path d="M169.349 18.1548C166.935 18.2467 164.608 17.7882 162.183 18.2405C161.613 18.3468 160.544 18.2288 160.241 18.0672C159.777 17.8208 159.041 17.7223 157.935 17.9595C155.829 18.4107 153.78 18.7718 151.274 18.1229C150.573 17.9415 149.939 18.0775 149.194 18.13C144.466 18.463 139.511 18.3912 134.679 18.5453C132.926 18.6014 131.265 18.6087 129.892 18.3657C129.315 18.2635 128.015 18.1147 127.866 18.1413C124.075 18.8184 120.188 18.2337 116.407 18.3188C112.906 18.3977 109.341 18.5239 105.994 18.7425C102.268 18.9858 98.4796 18.8496 94.8803 18.9005C91.3063 18.9509 87.9376 18.9466 84.3462 19.1692C80.9456 19.3802 77.2369 19.382 73.6968 19.5171C70.3456 19.6448 66.883 19.5972 63.6692 19.9885C62.1883 20.169 59.8811 20.1883 57.9284 19.9747C52.2971 19.3583 46.4935 19.5476 41.301 20.2648C38.3207 20.6761 35.2775 20.5841 32.2508 20.6872C28.2661 20.8231 24.4518 20.7954 20.4798 20.5881C17.1548 20.4146 12.6973 20.8566 10.5704 20.023C10.43 19.967 9.57084 19.954 9.05176 19.9618C7.54087 19.9844 5.82163 20.5492 4.79776 20.1392C3.57743 19.6505 3.43398 19.0519 4.72032 18.4677C6.61285 17.608 5.80608 17.1644 1.68283 16.6217C1.26342 16.5664 0.672615 16.5527 0.162109 16.5196C2.4528 16.0366 0.0119887 15.3879 2.56229 14.8804C4.81125 14.4328 6.78726 14.1385 9.96994 14.4774C10.9849 14.5855 12.2887 14.535 12.5734 14.2729C12.8397 14.0276 11.9052 13.9001 10.6228 13.8827C9.5729 13.8685 8.8726 13.5915 7.57563 13.7775C6.76488 13.8937 5.56391 13.8269 6.05792 13.711C8.05312 13.2409 4.18855 12.804 6.32721 12.413C9.08286 11.9092 8.90656 11.3251 8.25657 10.784C7.36552 10.0399 9.81395 9.25673 7.77716 8.53811C7.27745 8.36176 7.50311 8.0922 8.75152 7.99166C11.2301 7.79169 12.3614 7.26623 15.0656 7.12888C15.7881 7.09221 16.0778 6.91203 17.2246 6.97033C22.9876 7.26278 28.8048 7.04485 34.6578 6.83553C37.2962 6.74137 39.3776 7.39409 42.4528 7.01709C45.4167 6.65371 47.8565 7.1715 50.7263 7.0985C53.4702 7.02881 56.3014 7.12466 59.0181 7.03463C60.3838 6.98947 60.9892 7.08027 61.9645 7.15496C63.861 7.30023 67.1308 7.22912 68.8404 6.95585C70.9092 6.6254 72.6769 6.54882 75.0295 6.78731C77.3289 7.02011 81.1363 7.03351 82.9437 6.72615C86.7976 6.07076 92.1093 6.48081 95.9399 5.91298C98.2063 6.26684 102.374 5.96125 103.452 6.21008C105.04 6.5767 106.38 6.38268 107.411 6.32123C111.029 6.1054 114.372 6.38815 117.864 6.32407C119.439 6.29494 119.667 6.51891 119.73 6.7262C119.796 6.94379 119.476 7.12574 117.976 7.18926C113.269 7.38793 108.555 7.889 103.824 7.46326C101.243 7.23067 101.059 7.52006 100.555 7.82505C100.336 7.95696 99.5886 8.19507 100.812 8.17382C103.258 8.13142 105.471 8.54108 107.329 8.38753C111.002 8.08427 114.458 8.28975 117.838 8.30401C121.229 8.31828 124.64 8.22161 128.039 8.28665C131.962 8.36146 136.035 7.97338 139.985 8.22627C141.963 7.52122 145.127 8.02372 147.689 7.91193C150.548 7.78738 153.278 7.51226 156.506 7.68598C158.505 7.7938 160.938 7.7745 163.109 7.80066L166.119 7.50519C166.119 7.50519 170.398 7.65491 170.779 7.56023C171.16 7.46559 172.632 7.30613 172.928 7.12203C173.224 6.93784 171.038 6.62419 171.038 6.62419C168.733 6.57842 166.597 6.57739 164.367 6.7724C161.892 6.98912 159.56 6.95947 157.074 6.73154C152.841 6.34355 152.748 6.38729 148.848 6.7886C146.71 7.00834 144.526 7.36772 142.352 6.8307C142.023 6.74951 140.482 6.72206 140.043 6.78981C135.358 7.51334 129.968 6.88126 125.176 7.22585C123.046 7.37892 122.993 7.04549 121.874 6.90151C122.479 6.60587 122.795 6.27826 123.762 6.03231C124.569 5.82636 125.646 6.09446 126.595 6.13622C128.704 6.22922 130.534 6.50874 132.81 6.0742C134.835 5.68716 137.784 6.36368 140.395 5.7765C142.194 5.37235 145.494 5.77715 148.176 5.74064C152.441 5.68264 156.696 5.31507 161 5.56848C161.383 5.59114 162.132 5.45195 162.464 5.47923L165.413 5.39756C167.742 5.42807 166.526 4.51121 169.521 4.68984C170.937 4.77453 172.135 4.37369 173.033 4.6776C173.579 4.86279 178.428 5.30533 181.173 5.30283C183.922 5.30042 185.36 5.64355 185.36 5.64355C188.139 6.2421 190.724 5.84963 193.612 5.63191C194.762 5.54529 196.498 5.52284 197.49 5.75021C197.727 5.80486 197.61 5.9675 197.323 6.03606C196.307 6.28029 195.554 7.42917 198.785 7.37453C202.527 7.31135 204.176 7.53885 206.938 7.18594C210.502 6.73102 214.241 7.4015 217.21 6.77731C217.656 6.68388 219.431 6.74529 220.448 6.80493C223.558 6.98714 226.574 6.97137 229.478 6.61876C231.884 6.32653 234.839 6.2646 236.992 6.37419C242.975 6.67858 248.901 6.35458 254.84 6.29856C256.279 6.28503 257.733 6.26158 259.157 6.21052C261.179 6.13811 263.802 6.60419 265.278 5.84054C265.608 5.67126 269.563 5.69712 271.848 5.63588C272.697 5.61308 273.833 5.54809 273.733 5.40708C273.599 5.21578 272.791 5.04745 272.249 4.87192C271.672 4.68411 270.959 4.77177 270.276 4.87257C269.422 4.99845 268.37 5.25806 267.773 5.23233C265.669 5.14071 264.476 4.51453 262.478 4.68148C261.259 4.78323 259.753 5.39709 258.333 5.35959C256.04 5.29917 253.78 5.6432 251.734 5.39562C251.159 5.32619 250.879 5.04323 250.002 5.26422C247.882 5.79839 245.7 5.67721 243.417 5.43225C242.428 5.32632 240.933 5.17165 240.363 5.33395C238.01 6.00284 234.805 5.79947 231.625 5.89454C229.588 5.95543 228.107 6.23542 227.039 5.73883C226.799 5.62666 226.072 5.62782 225.691 5.75245C223.115 6.59286 219.583 5.94767 216.551 6.0614C213.388 6.17996 213.674 5.74655 213.544 5.38338C213.376 4.91696 215.156 4.89993 216.931 4.85033C218.465 4.80741 219.643 4.95975 220.986 5.00285C224.129 5.10373 227.423 5.32085 230.418 4.77448C230.987 4.67071 232.332 4.54004 232.623 4.58107C235.283 4.95984 238.833 4.25259 241.459 4.60658C243.508 4.09112 246.564 4.13292 249.304 4.10228C252.269 4.06914 255.259 4.11857 258.187 4.18205C260.155 4.22445 261.279 3.95722 262.747 3.82405C265.376 3.58556 267.972 3.233 270.181 3.83595C271.185 4.10956 271.977 3.84383 272.909 3.80134C278.296 3.56113 283.658 3.61762 289.123 3.37409C290.979 3.28493 293.688 3.5463 293.738 3.50049C294.973 2.41845 299.401 3.3931 302.174 2.97201C303.992 2.69581 307.87 2.74033 310.52 2.42069C311.305 2.32613 312.06 2.3129 312.902 2.3903C317.223 2.78605 320.969 2.85699 323.574 2.37656C325.249 2.06747 325.714 2.14113 326.538 2.31631C328.462 2.72511 330.591 2.01955 332.721 2.33294C334.964 2.6628 336.193 2.175 337.617 1.93427C339.1 1.68401 340.672 1.70918 342.448 1.75999C344.479 1.81812 347.284 1.95254 348.569 1.76796C351.459 1.35256 353.797 1.0271 357.776 1.11756C360.857 1.18755 364.292 0.976121 367.513 0.833173C371.022 0.677512 372.226 0.927553 372.139 1.53076C372.124 1.64565 372.871 1.75482 373.268 1.86652C373.536 1.72056 373.905 1.5764 374.04 1.42789C374.182 1.27249 373.927 1.10627 374.15 0.956384C374.51 0.712549 376.865 0.655533 376.865 0.655533C376.865 0.655533 382.142 0.523962 382.491 0.595544C384.518 1.01133 384.071 2.25214 383.377 3.15818C384.747 3.7036 386.217 4.24057 387.461 4.79655C388.728 5.36162 387.818 5.69772 384.8 5.83382C383.679 5.88432 385.768 5.99146 385.59 6.84006C385.464 7.43555 382.88 8.0195 385.621 7.75963C386.386 7.68688 386.852 8.74898 387.643 9.60145C387.835 9.80818 387.93 10.1554 386.361 10.2047C384.537 10.262 386.158 10.5991 384.99 10.8754C383.715 11.1767 385.128 11.3955 385.128 11.3955C386.06 11.4318 384.21 11.6447 384.723 11.8144C385.082 11.9332 385.008 12.1281 384.781 12.2751C384.509 12.4533 383.365 12.5189 382.687 12.4537C379.79 12.1746 377.393 12.2213 375.109 12.7522C373.435 13.1408 370.464 13.2271 368.853 13.023C366.369 12.708 363.954 13.3356 361.775 12.9866C361.367 12.9213 359.817 12.9832 359.642 13.1615C359.003 13.8021 356.027 13.7924 354.291 13.6778C350.043 13.3974 345.822 13.6109 341.581 13.6603C339.029 13.6899 336.332 13.5528 334.146 13.5917C328.907 13.6848 323.212 13.4655 318.55 13.8771C314.967 14.1934 311.641 13.8415 308.276 14.2449C305.205 14.6136 300.805 14.2781 297.7 14.8288C292.852 14.427 287.91 15.4858 283.07 14.973C277.22 15.5192 271.355 15.5745 265.446 15.2153C264.977 15.1869 264.209 15.2161 263.773 15.2717C262.09 15.4871 260.339 15.8119 258.412 15.5328C256.767 15.2946 257.73 14.8465 257.306 14.5022C257.193 14.4098 256.914 14.2577 256.631 14.2546C255.569 14.2436 255.504 14.3961 255.532 14.5477L255.597 15.335C255.591 15.591 254.734 15.7085 253.45 15.7449C252.875 15.7612 252.301 15.7809 251.727 15.7862C246.078 15.8397 240.351 16.2025 234.805 15.8477C229.85 16.4768 224.229 16.258 218.929 16.4454C217.232 16.5055 215.62 16.459 213.905 16.3831C209.731 16.1978 184.282 16.2404 180.453 16.6124L169.349 18.1548ZM11.7825 18.4195C11.6295 18.3029 10.5912 18.1511 9.96058 18.1592C8.344 18.1801 8.94845 18.4411 8.81484 18.5926C8.84007 18.7754 9.18776 18.9379 10.1059 18.8866C11.1995 18.8255 12.0537 18.6264 11.7825 18.4195ZM68.9201 8.80698C67.9583 8.63956 66.8163 8.506 65.9756 8.38969C64.607 8.51686 63.5503 8.60051 62.5885 8.71334C62.2979 8.74725 62.0286 8.89477 62.1788 8.93502C62.9216 9.13472 68.1809 9.29069 69.2095 9.15838C70.4919 8.99372 69.3627 8.88438 68.9201 8.80698ZM93.0606 7.777C90.5957 8.23782 89.1902 7.61332 87.1999 7.68757C84.9382 7.77196 80.0712 7.78445 78.5379 7.70024C78.1157 7.6771 77.7834 7.60694 77.4086 7.55829C77.0472 7.98472 73.2088 8.0906 73.9585 8.53501C74.4679 8.83577 76.6481 9.01509 78.7112 8.87848C79.5772 8.8212 80.1844 8.77858 81.2004 8.90188C84.6824 8.71734 88.3436 8.52315 92.1404 8.32203C92.6179 8.29539 93.0363 8.18425 93.3588 8.09746C93.8615 7.96166 93.4054 7.71231 93.0606 7.777ZM161.694 14.1081C161.818 14.0608 160.749 13.8851 160.079 13.8146C158.798 13.6801 158.807 13.9169 158.675 14.0349C158.511 14.1827 158.618 14.3376 158.609 14.4899C158.703 14.6398 158.718 14.7939 158.915 14.9379C159.035 15.0256 159.436 15.0975 159.713 15.1766C160.051 15.1178 160.656 15.0602 160.685 14.9999C160.822 14.6962 160.921 14.4 161.694 14.1081ZM96.8381 11.5942C94.4952 11.4512 93.8296 11.7992 92.2054 11.9044C90.1326 12.0389 90.2199 11.88 89.7365 11.8067C88.4145 11.607 87.0972 11.735 86.0948 11.8788C84.2244 12.1466 90.0552 12.4964 83.0922 12.713C83.5716 12.7693 83.9193 12.8505 84.266 12.8444C87.2686 12.7922 90.3883 12.7635 93.231 12.6489C95.6108 12.5529 95.078 12.313 95.4849 12.1235C95.8713 11.943 98.6744 11.7065 96.8381 11.5942ZM196.114 13.8495C196.384 13.5986 195.379 13.4894 193.549 13.5021C187.941 13.5406 182.172 13.8431 176.732 13.539C176.075 13.5019 174.33 13.621 173.737 13.7289C171.679 14.1046 174.691 14.2444 175.473 14.4883C175.776 14.5835 176.018 14.8745 177.417 14.603C180.784 13.9493 185.706 14.3848 189.499 14.0774C191.117 13.878 192.225 14.1158 193.62 14.1059C194.821 14.0977 195.925 14.0256 196.114 13.8495ZM172.655 11.1434C173.34 10.8889 174.61 10.5661 174.61 10.5661C171.459 10.0362 152.173 10.7542 147.78 10.49C147.693 10.4848 145.27 10.6774 145.281 10.7528C145.354 11.2726 139.2 11.4284 136.916 11.8029C136.892 11.5353 136.998 11.2646 136.774 11.0017C136.687 10.9013 135.857 10.8188 135.364 10.7281C134.18 10.8075 133.674 10.9099 133.841 11.0222C134.565 11.5023 133.136 11.7755 127.081 11.6184C122.34 12.0592 116.616 11.7224 111.454 12.0459C109.523 12.1666 106.106 12.0463 106.579 11.7659C107.331 11.3212 102.773 11.541 101.179 11.4019C99.121 11.6221 101.003 11.7278 101.545 11.8927C102.013 12.0349 100.458 12.2533 100.298 12.4328C100.155 12.5886 100.934 12.7256 103.05 12.7083C111.485 12.6397 120.007 12.2663 128.467 12.3256C129.147 12.3304 129.715 11.7727 132.362 12.2183C133.442 12.3995 134.078 12.1547 134.427 12.0729C134.934 11.9542 135.44 11.8489 136.916 11.8029C138.161 12.0235 139.086 12.2692 143.243 11.9822C145.901 11.7988 148.943 11.8039 151.9 11.8113C159.347 11.8301 159.37 11.8236 160.461 11.1278C160.649 11.0065 161.016 10.8996 162.556 10.8498C162.765 11.0738 162.762 11.3051 163.24 11.5199C163.65 11.7035 165.879 11.9052 167.252 11.8063C167.252 11.8063 171.969 11.3978 172.655 11.1434ZM330.842 8.17537C330.289 8.03445 331.581 7.60431 329.21 7.70796C328.02 7.75989 327.012 7.99097 325.919 8.14111C327.312 8.35241 328.577 8.60853 330.175 8.74432C330.599 8.78018 330.959 8.40581 330.842 8.17537ZM345.571 7.60845C345.138 7.49015 343.744 7.33897 343.673 7.35272C341.672 7.74649 338.491 7.51442 336.528 7.87728C336.189 7.94042 336.206 8.06837 336.06 8.16628L336.541 8.28195C338.947 7.80156 341.832 8.42938 344.23 8.09241C345.014 7.982 346.493 7.85983 345.571 7.60845ZM313.882 8.74109C313.882 8.74109 314.444 8.34332 314.41 8.21493C314.376 8.08664 310.742 8.14719 310.742 8.14719C309.661 8.20347 306.931 8.23485 305.448 8.22812C300.09 8.20377 294.475 8.36719 288.967 8.47657C279.404 8.66636 269.901 8.96389 261.284 9.02315C257.938 9.09603 255.568 9.13895 253.282 9.20045C251.876 9.23824 251.476 9.30452 251.197 9.37576C250.897 9.45251 256.028 9.45764 250.877 9.58499C248.635 9.64041 244.02 9.79404 244.133 9.65786C244.256 9.50681 243.077 9.45243 241.51 9.58469C236.747 9.98746 228.069 9.82925 221.945 10.1027C220.045 10.1876 217.797 10.0033 215.108 10.1725C214.455 10.2136 213.692 10.5676 213.206 10.6111C211.801 10.7372 213.343 11.0385 214.425 11.0241C222.622 10.9153 231.815 10.263 239.764 10.3083C240.327 10.3116 241.445 10.2547 242.326 10.2344C251.257 10.0283 260.067 9.54896 269.227 9.70023C269.563 9.7057 270.774 9.63455 271.559 9.62093C275.63 9.55004 280.063 9.19691 283.774 9.41812C290.307 9.09215 298.744 9.15731 305.303 8.82362C307.996 8.68657 309.482 8.73971 310.475 8.82599L313.882 8.74109ZM283.913 4.55271C284.058 4.49647 282.952 4.34611 282.012 4.15722C280.475 4.27565 280.868 4.71682 279.233 4.8078C277.737 4.89084 277.679 5.04836 278.793 5.22854C279.793 5.38997 280.701 5.38136 281.557 5.18001C282.414 4.97867 283.342 4.77797 283.913 4.55271Z" fill="#EE3124"/>
</svg>
