<svg width="313" height="21" viewBox="0 0 313 21" fill="none" xmlns="http://www.w3.org/2000/svg">
<path d="M136.678 18.1548C134.735 18.2467 132.862 17.7882 130.911 18.2405C130.452 18.3468 129.591 18.2288 129.348 18.0672C128.974 17.8208 128.382 17.7223 127.492 17.9595C125.797 18.4107 124.148 18.7718 122.131 18.1229C121.567 17.9415 121.056 18.0775 120.457 18.13C116.652 18.463 112.664 18.3912 108.775 18.5453C107.364 18.6014 106.027 18.6087 104.922 18.3657C104.458 18.2635 103.412 18.1147 103.292 18.1413C100.241 18.8184 97.1124 18.2337 94.0691 18.3188C91.252 18.3977 88.3826 18.5239 85.6885 18.7425C82.6898 18.9858 79.641 18.8496 76.7443 18.9005C73.8679 18.9509 71.1567 18.9466 68.2663 19.1692C65.5294 19.3802 62.5446 19.382 59.6955 19.5171C56.9984 19.6448 54.2116 19.5972 51.6251 19.9885C50.4333 20.169 48.5764 20.1883 47.0049 19.9747C42.4727 19.3583 37.8019 19.5476 33.6229 20.2648C31.2243 20.6761 28.7751 20.5841 26.3391 20.6872C23.1322 20.8231 20.0624 20.7954 16.8657 20.5881C14.1896 20.4146 10.6022 20.8566 8.89044 20.023C8.77741 19.967 8.08596 19.954 7.6682 19.9618C6.45221 19.9844 5.06854 20.5492 4.24451 20.1392C3.26238 19.6505 3.14692 19.0519 4.18219 18.4677C5.70533 17.608 5.05602 17.1644 1.73757 16.6217C1.40002 16.5664 0.924534 16.5527 0.513672 16.5196C2.35725 16.0366 0.392852 15.3879 2.44538 14.8804C4.25537 14.4328 5.84569 14.1385 8.40716 14.4774C9.22404 14.5855 10.2733 14.535 10.5025 14.2729C10.7168 14.0276 9.96466 13.9001 8.93259 13.8827C8.08762 13.8685 7.52401 13.5915 6.48018 13.7775C5.82768 13.8937 4.86113 13.8269 5.25871 13.711C6.86448 13.2409 3.75421 12.804 5.47544 12.413C7.69323 11.9092 7.55134 11.3251 7.02821 10.784C6.31109 10.0399 8.28162 9.25673 6.64238 8.53811C6.2402 8.36176 6.42182 8.0922 7.42656 7.99166C9.42136 7.79169 10.3318 7.26623 12.5083 7.12888C13.0897 7.09221 13.3228 6.91203 14.2458 6.97033C18.884 7.26278 23.5658 7.04485 28.2763 6.83553C30.3997 6.74137 32.0749 7.39409 34.5499 7.01709C36.9352 6.65371 38.8989 7.1715 41.2085 7.0985C43.4168 7.02881 45.6954 7.12466 47.8819 7.03463C48.981 6.98947 49.4683 7.08027 50.2532 7.15496C51.7795 7.30023 54.4111 7.22912 55.787 6.95585C57.452 6.6254 58.8747 6.54882 60.7681 6.78731C62.6187 7.02011 65.683 7.03351 67.1375 6.72615C70.2392 6.07076 74.5141 6.48081 77.5971 5.91298C79.4211 6.26684 82.7755 5.96125 83.643 6.21008C84.9207 6.5767 85.9995 6.38268 86.8289 6.32123C89.7412 6.1054 92.4313 6.38815 95.2422 6.32407C96.5097 6.29494 96.6929 6.51891 96.7435 6.7262C96.7965 6.94379 96.5393 7.12574 95.3319 7.18926C91.5434 7.38793 87.7503 7.889 83.9424 7.46326C81.865 7.23067 81.7168 7.52006 81.3116 7.82505C81.1355 7.95696 80.5337 8.19507 81.5181 8.17382C83.4871 8.13142 85.2676 8.54108 86.7635 8.38753C89.7195 8.08427 92.5008 8.28975 95.2213 8.30401C97.9503 8.31828 100.695 8.22161 103.431 8.28665C106.588 8.36146 109.866 7.97338 113.045 8.22627C114.637 7.52122 117.183 8.02372 119.246 7.91193C121.546 7.78738 123.744 7.51226 126.342 7.68598C127.951 7.7938 129.909 7.7745 131.656 7.80066L134.079 7.50519C134.079 7.50519 137.522 7.65491 137.829 7.56023C138.135 7.46559 139.32 7.30613 139.558 7.12203C139.796 6.93784 138.037 6.62419 138.037 6.62419C136.182 6.57842 134.463 6.57739 132.669 6.7724C130.676 6.98912 128.8 6.95947 126.799 6.73154C123.392 6.34355 123.318 6.38729 120.178 6.7886C118.458 7.00834 116.7 7.36772 114.95 6.8307C114.685 6.74951 113.445 6.72206 113.092 6.78981C109.321 7.51334 104.983 6.88126 101.127 7.22585C99.4128 7.37892 99.37 7.04549 98.4696 6.90151C98.9561 6.60587 99.2101 6.27826 99.9889 6.03231C100.638 5.82636 101.505 6.09446 102.269 6.13622C103.966 6.22922 105.439 6.50874 107.27 6.0742C108.9 5.68716 111.274 6.36368 113.376 5.7765C114.823 5.37235 117.479 5.77715 119.638 5.74064C123.07 5.68264 126.494 5.31507 129.958 5.56848C130.266 5.59114 130.87 5.45195 131.137 5.47923L133.51 5.39756C135.385 5.42807 134.406 4.51121 136.817 4.68984C137.956 4.77453 138.92 4.37369 139.643 4.6776C140.082 4.86279 143.985 5.30533 146.194 5.30283C148.406 5.30042 149.564 5.64355 149.564 5.64355C151.8 6.2421 153.881 5.84963 156.205 5.63191C157.131 5.54529 158.528 5.52284 159.327 5.75021C159.517 5.80486 159.422 5.9675 159.192 6.03606C158.374 6.28029 157.768 7.42917 160.369 7.37453C163.38 7.31135 164.707 7.53885 166.93 7.18594C169.798 6.73102 172.807 7.4015 175.197 6.77731C175.556 6.68388 176.985 6.74529 177.803 6.80493C180.306 6.98714 182.733 6.97137 185.071 6.61876C187.007 6.32653 189.385 6.2646 191.118 6.37419C195.933 6.67858 200.702 6.35458 205.482 6.29856C206.641 6.28503 207.811 6.26158 208.957 6.21052C210.584 6.13811 212.695 6.60419 213.883 5.84054C214.148 5.67126 217.332 5.69712 219.171 5.63588C219.854 5.61308 220.768 5.54809 220.687 5.40708C220.58 5.21578 219.93 5.04745 219.493 4.87192C219.029 4.68411 218.455 4.77177 217.905 4.87257C217.218 4.99845 216.371 5.25806 215.891 5.23233C214.198 5.14071 213.238 4.51453 211.629 4.68148C210.648 4.78323 209.436 5.39709 208.294 5.35959C206.448 5.29917 204.629 5.6432 202.982 5.39562C202.52 5.32619 202.295 5.04323 201.589 5.26422C199.882 5.79839 198.126 5.67721 196.289 5.43225C195.493 5.32632 194.29 5.17165 193.831 5.33395C191.937 6.00284 189.358 5.79947 186.799 5.89454C185.159 5.95543 183.968 6.23542 183.108 5.73883C182.914 5.62666 182.329 5.62782 182.023 5.75245C179.949 6.59286 177.107 5.94767 174.666 6.0614C172.121 6.17996 172.351 5.74655 172.247 5.38338C172.111 4.91696 173.544 4.89993 174.973 4.85033C176.208 4.80741 177.155 4.95975 178.236 5.00285C180.765 5.10373 183.416 5.32085 185.827 4.77448C186.285 4.67071 187.368 4.54004 187.602 4.58107C189.742 4.95984 192.6 4.25259 194.713 4.60658C196.362 4.09112 198.821 4.13292 201.027 4.10228C203.413 4.06914 205.82 4.11857 208.176 4.18205C209.76 4.22445 210.664 3.95722 211.846 3.82405C213.962 3.58556 216.051 3.233 217.829 3.83595C218.637 4.10956 219.274 3.84383 220.025 3.80134C224.36 3.56113 228.675 3.61762 233.074 3.37409C234.567 3.28493 236.748 3.5463 236.788 3.50049C237.782 2.41845 241.346 3.3931 243.577 2.97201C245.04 2.69581 248.161 2.74033 250.294 2.42069C250.926 2.32613 251.534 2.3129 252.211 2.3903C255.689 2.78605 258.704 2.85699 260.801 2.37656C262.148 2.06747 262.523 2.14113 263.186 2.31631C264.734 2.72511 266.448 2.01955 268.162 2.33294C269.967 2.6628 270.956 2.175 272.103 1.93427C273.296 1.68401 274.561 1.70918 275.99 1.75999C277.625 1.81812 279.882 1.95254 280.917 1.76796C283.243 1.35256 285.125 1.0271 288.327 1.11756C290.807 1.18755 293.571 0.976121 296.163 0.833173C298.988 0.677512 299.957 0.927553 299.886 1.53076C299.875 1.64565 300.476 1.75482 300.795 1.86652C301.011 1.72056 301.307 1.5764 301.417 1.42789C301.53 1.27249 301.325 1.10627 301.505 0.956384C301.795 0.712549 303.69 0.655533 303.69 0.655533C303.69 0.655533 307.937 0.523962 308.218 0.595544C309.849 1.01133 309.489 2.25214 308.931 3.15818C310.033 3.7036 311.217 4.24057 312.218 4.79655C313.237 5.36162 312.505 5.69772 310.076 5.83382C309.174 5.88432 310.855 5.99146 310.712 6.84006C310.61 7.43555 308.531 8.0195 310.736 7.75963C311.352 7.68688 311.727 8.74898 312.364 9.60145C312.518 9.80818 312.595 10.1554 311.332 10.2047C309.864 10.262 311.169 10.5991 310.229 10.8754C309.203 11.1767 310.34 11.3955 310.34 11.3955C311.091 11.4318 309.602 11.6447 310.014 11.8144C310.303 11.9332 310.243 12.1281 310.061 12.2751C309.842 12.4533 308.921 12.5189 308.375 12.4537C306.044 12.1746 304.115 12.2213 302.276 12.7522C300.929 13.1408 298.538 13.2271 297.241 13.023C295.243 12.708 293.299 13.3356 291.545 12.9866C291.217 12.9213 289.969 12.9832 289.828 13.1615C289.315 13.8021 286.919 13.7924 285.522 13.6778C282.103 13.3974 278.706 13.6109 275.293 13.6603C273.239 13.6899 271.069 13.5528 269.309 13.5917C265.093 13.6848 260.509 13.4655 256.757 13.8771C253.873 14.1934 251.196 13.8415 248.488 14.2449C246.017 14.6136 242.476 14.2781 239.977 14.8288C236.075 14.427 232.097 15.4858 228.202 14.973C223.494 15.5192 218.774 15.5745 214.018 15.2153C213.641 15.1869 213.022 15.2161 212.672 15.2717C211.318 15.4871 209.908 15.8119 208.357 15.5328C207.033 15.2946 207.808 14.8465 207.467 14.5022C207.376 14.4098 207.151 14.2577 206.923 14.2546C206.069 14.2436 206.017 14.3961 206.04 14.5477L206.092 15.335C206.086 15.591 205.397 15.7085 204.364 15.7449C203.901 15.7612 203.439 15.7809 202.977 15.7862C198.431 15.8397 193.822 16.2025 189.358 15.8477C185.37 16.4768 180.846 16.258 176.581 16.4454C175.214 16.5055 173.917 16.459 172.537 16.3831C169.178 16.1978 148.696 16.2404 145.615 16.6124L136.678 18.1548ZM9.86594 18.4195C9.74282 18.3029 8.90717 18.1511 8.39963 18.1592C7.09858 18.1801 7.58505 18.4411 7.47752 18.5926C7.49782 18.7754 7.77765 18.9379 8.51661 18.8866C9.39671 18.8255 10.0842 18.6264 9.86594 18.4195ZM55.8511 8.80698C55.077 8.63956 54.158 8.506 53.4813 8.38969C52.3799 8.51686 51.5295 8.60051 50.7554 8.71334C50.5215 8.74725 50.3048 8.89477 50.4256 8.93502C51.0235 9.13472 55.2562 9.29069 56.0841 9.15838C57.1161 8.99372 56.2073 8.88438 55.8511 8.80698ZM75.2798 7.777C73.296 8.23782 72.1648 7.61332 70.563 7.68757C68.7428 7.77196 64.8257 7.78445 63.5917 7.70024C63.2519 7.6771 62.9845 7.60694 62.6828 7.55829C62.392 7.98472 59.3028 8.0906 59.9061 8.53501C60.3161 8.83577 62.0708 9.01509 63.7312 8.87848C64.4282 8.8212 64.9168 8.77858 65.7346 8.90188C68.5369 8.71734 71.4834 8.52315 74.5392 8.32203C74.9235 8.29539 75.2603 8.18425 75.5198 8.09746C75.9244 7.96166 75.5573 7.71231 75.2798 7.777ZM130.517 14.1081C130.617 14.0608 129.756 13.8851 129.218 13.8146C128.186 13.6801 128.193 13.9169 128.087 14.0349C127.956 14.1827 128.041 14.3376 128.034 14.4899C128.11 14.6398 128.122 14.7939 128.281 14.9379C128.377 15.0256 128.7 15.0975 128.923 15.1766C129.195 15.1178 129.681 15.0602 129.705 14.9999C129.816 14.6962 129.895 14.4 130.517 14.1081ZM78.32 11.5942C76.4344 11.4512 75.8987 11.7992 74.5915 11.9044C72.9233 12.0389 72.9936 11.88 72.6045 11.8067C71.5405 11.607 70.4804 11.735 69.6736 11.8788C68.1683 12.1466 72.861 12.4964 67.2571 12.713C67.6429 12.7693 67.9227 12.8505 68.2018 12.8444C70.6183 12.7922 73.1291 12.7635 75.417 12.6489C77.3322 12.5529 76.9035 12.313 77.2309 12.1235C77.5419 11.943 79.7979 11.7065 78.32 11.5942ZM158.219 13.8495C158.436 13.5986 157.627 13.4894 156.155 13.5021C151.641 13.5406 146.998 13.8431 142.62 13.539C142.091 13.5019 140.687 13.621 140.21 13.7289C138.553 14.1046 140.978 14.2444 141.607 14.4883C141.851 14.5835 142.046 14.8745 143.171 14.603C145.881 13.9493 149.842 14.3848 152.895 14.0774C154.197 13.878 155.089 14.1158 156.212 14.1059C157.178 14.0977 158.067 14.0256 158.219 13.8495ZM139.338 11.1434C139.89 10.8889 140.912 10.5661 140.912 10.5661C138.376 10.0362 122.855 10.7542 119.319 10.49C119.249 10.4848 117.299 10.6774 117.308 10.7528C117.366 11.2726 112.414 11.4284 110.575 11.8029C110.556 11.5353 110.641 11.2646 110.461 11.0017C110.391 10.9013 109.723 10.8188 109.326 10.7281C108.374 10.8075 107.966 10.9099 108.101 11.0222C108.683 11.5023 107.533 11.7755 102.66 11.6184C98.8446 12.0592 94.2377 11.7224 90.0829 12.0459C88.5293 12.1666 85.7791 12.0463 86.1595 11.7659C86.7652 11.3212 83.0968 11.541 81.8138 11.4019C80.1573 11.6221 81.6719 11.7278 82.1084 11.8927C82.4849 12.0349 81.233 12.2533 81.1044 12.4328C80.9891 12.5886 81.6166 12.7256 83.3198 12.7083C90.1078 12.6397 96.9668 12.2663 103.775 12.3256C104.323 12.3304 104.78 11.7727 106.91 12.2183C107.779 12.3995 108.291 12.1547 108.572 12.0729C108.98 11.9542 109.387 11.8489 110.575 11.8029C111.577 12.0235 112.322 12.2692 115.667 11.9822C117.806 11.7988 120.255 11.8039 122.635 11.8113C128.628 11.8301 128.647 11.8236 129.525 11.1278C129.676 11.0065 129.971 10.8996 131.211 10.8498C131.379 11.0738 131.376 11.3051 131.761 11.5199C132.091 11.7035 133.885 11.9052 134.99 11.8063C134.99 11.8063 138.786 11.3978 139.338 11.1434ZM266.65 8.17537C266.205 8.03445 267.244 7.60431 265.336 7.70796C264.379 7.75989 263.568 7.99097 262.688 8.14111C263.809 8.35241 264.827 8.60853 266.113 8.74432C266.454 8.78018 266.744 8.40581 266.65 8.17537ZM278.504 7.60845C278.155 7.49015 277.034 7.33897 276.977 7.35272C275.366 7.74649 272.806 7.51442 271.226 7.87728C270.953 7.94042 270.967 8.06837 270.85 8.16628L271.236 8.28195C273.173 7.80156 275.495 8.42938 277.425 8.09241C278.055 7.982 279.246 7.85983 278.504 7.60845ZM253 8.74109C253 8.74109 253.452 8.34332 253.425 8.21493C253.398 8.08664 250.473 8.14719 250.473 8.14719C249.603 8.20347 247.406 8.23485 246.212 8.22812C241.9 8.20377 237.381 8.36719 232.948 8.47657C225.252 8.66636 217.604 8.96389 210.669 9.02315C207.975 9.09603 206.069 9.13895 204.228 9.20045C203.097 9.23824 202.775 9.30452 202.551 9.37576C202.309 9.45251 206.438 9.45764 202.293 9.58499C200.489 9.64041 196.774 9.79404 196.865 9.65786C196.964 9.50681 196.015 9.45243 194.754 9.58469C190.921 9.98746 183.937 9.82925 179.008 10.1027C177.479 10.1876 175.67 10.0033 173.505 10.1725C172.98 10.2136 172.365 10.5676 171.975 10.6111C170.844 10.7372 172.085 11.0385 172.956 11.0241C179.553 10.9153 186.952 10.263 193.349 10.3083C193.802 10.3116 194.702 10.2547 195.411 10.2344C202.599 10.0283 209.689 9.54896 217.061 9.70023C217.332 9.7057 218.306 9.63455 218.938 9.62093C222.215 9.55004 225.782 9.19691 228.769 9.41812C234.027 9.09215 240.817 9.15731 246.096 8.82362C248.263 8.68657 249.459 8.73971 250.258 8.82599L253 8.74109ZM228.88 4.55271C228.997 4.49647 228.107 4.34611 227.351 4.15722C226.114 4.27565 226.43 4.71682 225.114 4.8078C223.91 4.89084 223.863 5.04836 224.76 5.22854C225.565 5.38997 226.296 5.38136 226.985 5.18001C227.675 4.97867 228.421 4.77797 228.88 4.55271Z" fill="#EE3124"/>
</svg>
