<svg width="144" height="27" viewBox="0 0 144 27" fill="none" xmlns="http://www.w3.org/2000/svg">
<g id="Group 1611">
<path id="Vector" d="M34.5299 4.09222C33.1923 4.09222 32.299 3.27375 32.299 2.03436C32.299 1.00543 33.0192 0.107448 34.5299 0.107448C35.9797 0.107448 36.6953 1.04284 36.6953 2.07177C36.6953 3.33455 35.8768 4.12964 34.5299 4.12964M21.701 21.6636C18.8153 21.6636 16.3505 20.036 16.3505 16.9398C16.3505 13.1983 20.5037 12.3798 22.3183 12.1366C25.3022 11.7624 25.5735 11.5567 25.5735 10.7663C25.5735 9.0919 25.2742 7.72622 23.1742 7.72622C21.7618 7.72622 20.6346 8.13312 19.5542 8.77854L18.993 9.1527C18.8059 9.29301 18.4785 9.66717 18.1044 9.66717C17.9173 9.66717 17.5431 9.47073 17.5431 8.97965V7.44561C17.5431 7.12757 17.6835 6.82825 18.0576 6.61311C19.4607 5.93027 21.5653 5.55144 23.4361 5.55144C28.3002 5.55144 29.75 7.46899 29.75 10.2518V20.9246C29.75 21.1585 29.6097 21.3268 29.3291 21.3268H26.1955C26.0552 21.3268 25.8681 21.1631 25.8681 20.9246L25.7746 20.036C24.6989 20.9901 23.3894 21.6729 21.7992 21.6729M25.6811 13.4508C21.8927 13.4508 20.4429 15.1579 20.4429 17.0147C20.4429 18.3055 21.1444 19.6197 22.9684 19.6197C24.5586 19.6197 25.7278 18.4224 25.7278 17.9688V13.4508M75.7246 21.7291C73.2926 21.7291 71.4686 20.8732 70.2525 19.9518C69.7381 19.5777 69.6445 18.9229 69.6445 18.3616V0.696745C69.6445 0.453543 69.8316 0.275818 69.9719 0.275818H73.2926C73.5264 0.275818 73.7135 0.453543 73.7135 0.696745V7.51576C74.3683 6.95453 75.8649 5.76658 78.2034 5.76658C81.7579 5.76658 84.0028 8.85337 84.0028 12.9691C84.0028 18.2541 80.3548 21.7618 75.8181 21.7618M73.6667 18.675C73.6667 19.0024 73.7509 19.3298 74.1344 19.5636C74.4618 19.7975 74.9763 19.9378 76.0052 19.9378C78.1894 19.9378 79.7374 17.6928 79.7374 13.8577C79.7374 12.4546 79.41 8.38568 76.2905 8.38568C75.0277 8.38568 74.1391 9.08722 73.6246 9.46138V18.8153V18.7218M115.717 27C115.296 27 114.875 27 114.296 26.8597C113.851 26.7662 113.608 26.4855 113.608 26.1581V24.1891C113.608 23.9553 113.814 23.7214 114.057 23.7214C114.431 23.7214 114.712 23.815 115.105 23.9085C115.759 24.0488 116.367 24.1424 116.929 24.1424C118.846 24.1424 120.249 23.1602 120.296 21.2427L114.076 6.8376C113.935 6.46344 113.889 6.3699 113.889 6.27637C113.889 6.04252 114.029 5.94898 114.216 5.94898H117.958C118.238 5.94898 118.379 6.04252 118.472 6.32314L122.214 16.1448L125.815 6.32314C125.862 6.08929 126.049 5.94898 126.283 5.94898H127.826C127.966 5.94898 128.107 6.08929 128.107 6.27637C128.107 6.41667 128.013 6.51021 127.966 6.69729L121.694 22.8796C120.82 25.1245 118.35 26.9719 115.708 26.9719M6.31375 21.7899C4.40555 21.7899 2.42251 21.3689 0.663974 20.5271C0.322555 20.2932 0.257078 20.1529 0.257078 19.8255V18.1091C0.257078 17.7957 0.364648 17.4871 0.944592 17.4871C1.25327 17.4871 1.45906 17.6507 1.89869 17.9688C3.66191 19.1988 5.34094 19.6993 6.76274 19.6993C9.15734 19.6993 10.7849 18.2494 10.7849 16.4534C10.8036 11.7624 0.0933838 13.1983 0.0933838 6.27637C0.0933838 3.07264 2.56282 0.271142 7.12286 0.271142C9.39119 0.271142 11.4491 0.706099 12.6089 1.15977C12.9223 1.30007 12.9831 1.45909 12.9831 1.77712V3.76483C12.9831 4.06884 12.8896 4.30736 12.5154 4.30736C12.2114 4.30736 11.9682 4.12028 11.5894 3.83967C10.219 2.8575 8.90946 2.2495 7.19302 2.2495C5.27546 2.2495 3.76948 3.27843 3.76948 4.8686C3.76948 8.79725 14.6341 8.37632 14.6341 14.6902C14.6341 19.4607 10.6586 21.7057 6.30907 21.7057M36.1949 21.238H32.8742C32.6872 21.238 32.5001 21.0509 32.5001 20.8171V6.31846C32.5001 6.08461 32.6872 5.89753 32.8275 5.89753H36.1013C36.3352 5.89753 36.5223 6.08461 36.5223 6.31846V20.9153C36.5223 21.1631 36.3352 21.3222 36.1013 21.3222M92.5055 21.6496C89.0914 21.6496 85.6772 20.2465 85.6772 16.3646V6.3699C85.6772 6.13606 85.8175 5.94898 86.0046 5.94898H89.3252C89.5591 5.94898 89.7461 6.13606 89.7461 6.3699V17.1737C89.7461 18.7826 90.7751 19.7788 92.5055 19.7788C94.6102 19.7788 95.3117 18.5908 95.3117 16.3646V6.32314C95.3117 6.08929 95.452 5.90221 95.6391 5.90221H98.913C99.1468 5.90221 99.3339 6.08929 99.3339 6.32314V15.9577C99.3339 20.2137 95.873 21.6449 92.4588 21.6449M53.1255 21.3549H49.8049C49.6178 21.3549 49.4775 21.1772 49.4775 20.934V10.6447C49.4775 9.47541 49.2904 8.10038 47.0454 8.10038C45.8762 8.10038 44.4731 8.77854 43.8183 9.1527V20.9387C43.8183 21.1725 43.678 21.3596 43.3974 21.3596H40.1235C39.9692 21.3596 39.7961 21.1725 39.7961 20.9387V6.34652C39.7961 6.09396 39.9832 5.92559 40.2451 5.92559H43.519C43.7529 5.92559 43.9493 6.09396 43.9493 6.34652V7.12757C44.8847 6.50086 46.9893 5.58417 48.9069 5.58417C52.2275 5.58417 53.6774 7.50173 53.6774 10.3079V20.9387C53.6774 21.1725 53.5371 21.3596 53.2565 21.3596M61.3944 21.7337C59.7574 21.7337 58.0457 21.3362 56.7174 20.7375C56.3245 20.5364 56.2263 20.2371 56.2263 19.8583V18.5113C56.2263 18.0296 56.4602 17.8893 56.7876 17.8893C57.0214 17.8893 57.2553 17.9968 57.4423 18.1699C58.8454 19.2316 60.4824 19.746 61.7919 19.746C63.3353 19.746 64.4578 19.0913 64.4578 17.8285C64.4578 14.882 55.8522 16.0045 55.8522 10.5511C55.8522 7.21176 58.7051 5.7011 61.9322 5.7011C63.3821 5.7011 64.8787 6.00042 66.2818 6.57569C66.7027 6.74874 66.7963 7.09016 66.7963 7.46431V8.60082C66.7963 9.07787 66.6092 9.21818 66.2818 9.21818C66.1415 9.21818 65.8609 9.07787 65.627 8.93756C64.411 8.09571 62.7741 7.62801 61.371 7.62801C59.9679 7.62801 58.8454 8.14248 58.8454 9.26495C58.8454 11.9776 67.6381 10.7148 67.6381 16.1401C67.6381 20.2558 64.6449 21.6589 61.5113 21.6589M106.176 21.238H102.902C102.739 21.238 102.575 21.0509 102.575 20.8171V6.31846C102.575 6.08461 102.739 5.89753 102.902 5.89753H106.083C106.34 5.89753 106.504 6.08461 106.504 6.31846L106.574 8.14248C106.593 8.14248 106.597 8.14248 106.602 8.09571C107.257 7.11354 108.8 5.57014 110.694 5.57014C111.148 5.57014 111.536 5.57014 112.191 5.71045C112.659 5.80399 112.892 6.08461 112.892 6.412V8.5634C112.892 8.79725 112.677 9.0311 112.425 9.0311C112.051 9.0311 111.723 8.89079 111.279 8.75048C110.835 8.65694 110.32 8.61017 109.806 8.61017C108.215 8.61017 106.625 9.21818 106.625 11.4164V20.6767C106.625 20.9106 106.462 21.0977 106.228 21.0977M129.846 5.57014C129.051 5.80399 130.642 3.88644 130.384 2.8575C130.104 1.87534 128.967 0.519021 129.776 0.210341C130.571 -0.103016 132.068 -0.0983387 132.489 0.444189C133.424 2.24014 132.162 5.19131 129.837 5.54208L129.846 5.57014ZM137.128 21.7104C135.463 21.7104 133.77 21.3081 132.452 20.7095C132.049 20.5224 131.951 20.2184 131.951 19.8396V18.502C131.951 18.0202 132.162 17.8799 132.498 17.8799C132.751 17.8799 132.966 18.0202 133.153 18.1605C134.542 19.2362 136.174 19.7507 137.503 19.7507H137.521C139.027 19.7507 140.187 19.0959 140.187 17.8331C140.187 14.8867 131.535 16.0091 131.535 10.5839C131.535 7.26321 134.388 5.76658 137.615 5.76658C139.065 5.76658 140.589 6.04719 141.964 6.6552C142.385 6.84228 142.479 7.16967 142.479 7.54382V8.71306C142.479 9.18076 142.278 9.32107 141.918 9.32107C141.763 9.32107 141.483 9.18076 141.282 9.04045C140.066 8.1986 138.41 7.7309 137.035 7.7309C135.632 7.7309 134.509 8.24537 134.509 9.36784C134.509 12.0805 143.255 10.8645 143.255 16.2897C143.255 20.4055 140.262 21.8553 137.119 21.8553" fill="black"/>
</g>
</svg>
