<svg width="18" height="18" viewBox="0 0 18 18" fill="none" xmlns="http://www.w3.org/2000/svg">
<path d="M12.4022 11.1407H11.6426L11.3733 10.8811C12.3157 9.78485 12.883 8.36169 12.883 6.81353C12.883 3.36141 10.0848 0.563171 6.63268 0.563171C3.18056 0.563171 0.382324 3.36141 0.382324 6.81353C0.382324 10.2656 3.18056 13.0639 6.63268 13.0639C8.18084 13.0639 9.604 12.4965 10.7002 11.5542L10.9598 11.8234V12.5831L15.7678 17.3814L17.2006 15.9487L12.4022 11.1407ZM6.63268 11.1407C4.23831 11.1407 2.30551 9.20789 2.30551 6.81353C2.30551 4.41916 4.23831 2.48636 6.63268 2.48636C9.02705 2.48636 10.9598 4.41916 10.9598 6.81353C10.9598 9.20789 9.02705 11.1407 6.63268 11.1407Z" fill="black"/>
</svg>
