<svg width="96" height="27" viewBox="0 0 96 27" fill="none" xmlns="http://www.w3.org/2000/svg">
<g id="Group 1612">
<path id="Vector" fill-rule="evenodd" clip-rule="evenodd" d="M84.4695 0C77.5116 0 73.541 4.04622 73.541 8.96218C73.541 13.8403 77.5116 17.9244 84.4695 17.9244C91.4275 17.9244 95.3981 13.8403 95.3981 8.96218C95.3603 4.04622 91.3897 0 84.4695 0ZM84.4695 15.3151C80.9527 15.3151 78.6838 12.4034 78.6838 8.96218C78.6838 5.48319 80.9527 2.60924 84.4695 2.60924C87.9864 2.60924 90.2553 5.48319 90.2553 8.96218C90.2174 12.4034 87.9485 15.3151 84.4695 15.3151ZM1.04944 0.340336H20.373V4.57563C19.0116 3.40336 16.0998 2.94958 12.999 2.94958V14.4832C12.999 16.1849 13.1503 16.6765 13.7931 17.5462H7.62927C8.30994 16.6765 8.42338 16.1849 8.42338 14.4832V2.94958C5.32255 2.94958 2.41078 3.40336 1.04944 4.57563V0.340336ZM29.6377 14.937C31.604 14.937 34.9318 14.4832 36.2175 13.3109V17.5462H22.1503C22.8309 16.7521 22.9444 16.1849 22.9444 14.5588V3.36554C22.9444 1.70168 22.8309 1.17227 22.1503 0.378151H35.499V4.61344C34.1755 3.44117 30.8856 2.94958 28.8814 2.94958H27.3309V7.5252H28.4654C29.5998 7.5252 31.3393 7.48739 32.4738 7.07142V10.4748C31.3393 10.0588 29.5998 10.021 28.4654 10.021H27.3309V14.9748L29.6377 14.937ZM48.0914 6.95798C51.457 7.41176 54.2175 8.62184 54.2175 12.2521C54.2175 16.563 50.1713 17.9244 45.7847 17.8865C42.7217 17.8487 40.1124 17.584 38.2217 16.7899V12.9706C40.9444 14.7479 43.7427 15.3151 45.7847 15.3151C47.9023 15.3151 49.8687 14.7857 49.8687 13.1597C49.8687 11.5336 48.0536 11.1555 44.3477 10.5882C41.1334 10.0966 38.2217 8.73529 38.2217 5.55882C38.1839 1.28571 42.2301 0 46.0872 0C48.583 0 51.0032 0.302521 53.2343 1.02101V5.18067C51.3813 3.5168 48.6208 2.60924 45.8981 2.60924C44.0452 2.60924 42.3057 3.21428 42.3057 4.57563C42.3057 6.27731 44.8771 6.54201 48.0914 6.95798ZM67.188 0C69.1922 0 70.9317 0.226891 72.3309 0.605042V4.87815C70.9696 3.47899 69.3435 2.60924 67.2259 2.60924C63.3309 2.60924 60.7595 5.33193 60.7595 8.96218C60.7595 12.5924 63.3687 15.3151 67.2637 15.3151C69.3813 15.3151 71.0074 14.4454 72.3687 13.0462V17.3193C70.9696 17.6975 69.2301 17.9622 67.2259 17.9622C60.4948 17.9622 55.6166 14.5966 55.6166 8.96218C55.5788 3.32773 60.457 0 67.188 0Z" fill="black"/>
<path id="Vector_2" d="M95.1711 22.2354H83.5241C81.6333 22.2354 80.1207 23.4076 79.4022 24.2774C79.4022 24.2774 77.5871 26.1681 76.377 26.8488L76.3392 26.8866L76.3014 26.9244L76.3392 27.0001H87.4568C89.6123 27.0001 90.6333 26.1681 91.9947 24.8824C91.9947 24.8824 93.8098 22.9917 95.1711 22.3866H95.2089L95.2468 22.3488V22.2354H95.1711Z" fill="black"/>
<path id="Vector_3" d="M76.1501 22.2354H64.5031C62.6123 22.2354 61.0997 23.4076 60.3812 24.2774C60.3812 24.2774 58.5661 26.1681 57.356 26.8488L57.3182 26.8866L57.2804 26.9244L57.3182 27.0001H68.4358C70.5913 27.0001 71.6123 26.1681 72.9737 24.8824C72.9737 24.8824 74.7888 22.9917 76.1501 22.3866H76.1879L76.2258 22.3488V22.2354H76.1501Z" fill="black"/>
<path id="Vector_4" d="M57.167 22.2354H45.5199C43.6292 22.2354 42.1166 23.4076 41.3981 24.2774C41.3981 24.2774 39.583 26.1681 38.3729 26.8488L38.3351 26.8866L38.2972 26.9244L38.3351 27.0001H49.4149C51.5703 27.0001 52.5913 26.1681 53.9527 24.8824C53.9527 24.8824 55.7678 22.9917 57.1292 22.3866H57.167L57.2048 22.3488V22.2354H57.167Z" fill="black"/>
<path id="Vector_5" d="M38.146 22.2354H26.4989C24.6082 22.2354 23.0956 23.4076 22.3771 24.2774C22.3771 24.2774 20.562 26.1681 19.3519 26.8488L19.3141 26.8866L19.2762 26.9244L19.3141 27.0001H30.4317C32.5872 27.0001 33.6082 26.1681 34.9695 24.8824C34.9695 24.8824 36.7846 22.9917 38.146 22.3866H38.1838L38.2216 22.3488V22.2354H38.146Z" fill="black"/>
<path id="Vector_6" d="M19.1628 22.2354H7.47793C5.58718 22.2354 4.07457 23.4076 3.35609 24.2774C3.35609 24.2774 1.54096 26.1681 0.330879 26.8488L0.293064 26.8866L0.255249 26.9244L0.293064 27.0001H11.4107C13.5662 27.0001 14.5872 26.1681 15.9485 24.8824C15.9485 24.8824 17.7636 22.9917 19.125 22.3866H19.1628L19.2006 22.3488L19.1628 22.2354Z" fill="black"/>
</g>
</svg>
