<svg width="213" height="6" viewBox="0 0 213 6" fill="none" xmlns="http://www.w3.org/2000/svg">
<path d="M92.7739 4.5172C91.4504 4.54082 90.1741 4.42299 88.8447 4.53921C88.5319 4.56652 87.9455 4.5362 87.7798 4.49469C87.5253 4.43138 87.1217 4.40607 86.5152 4.46701C85.3606 4.58294 84.2367 4.67572 82.8627 4.509C82.4782 4.46239 82.1303 4.49733 81.7219 4.51083C79.1296 4.59638 76.4123 4.57794 73.7626 4.61754C72.8014 4.63194 71.8904 4.63381 71.1378 4.57138C70.8213 4.54512 70.1085 4.50689 70.0267 4.51373C67.9479 4.68769 65.8165 4.53747 63.743 4.55933C61.8236 4.57959 59.8686 4.61203 58.033 4.66819C55.9898 4.73071 53.9126 4.69573 51.939 4.7088C49.9791 4.72174 48.1319 4.72064 46.1625 4.77784C44.2978 4.83206 42.2641 4.83253 40.3229 4.86722C38.4853 4.90005 36.5865 4.8878 34.8243 4.98835C34.0122 5.03473 32.747 5.03969 31.6763 4.98481C28.5884 4.82642 25.4059 4.87507 22.5586 5.05935C20.9243 5.16503 19.2556 5.14138 17.5959 5.16789C15.4109 5.20279 13.3193 5.19568 11.1413 5.14241C9.31797 5.09784 6.87373 5.21139 5.70742 4.99722C5.63041 4.98283 5.1593 4.97949 4.87466 4.98148C4.04616 4.98731 3.10341 5.13242 2.54197 5.02707C1.8728 4.9015 1.79414 4.74769 2.49951 4.5976C3.53728 4.3767 3.09488 4.26272 0.833894 4.12327C0.603905 4.10907 0.279937 4.10554 0 4.09705C1.2561 3.97294 -0.0823191 3.80627 1.31615 3.67586C2.54937 3.56085 3.63292 3.48524 5.37815 3.57232C5.93472 3.6001 6.64965 3.58713 6.80577 3.51978C6.95178 3.45675 6.43933 3.42397 5.73614 3.4195C5.16043 3.41587 4.77642 3.34468 4.06522 3.39248C3.62065 3.42234 2.96209 3.40518 3.23298 3.37539C4.32706 3.25461 2.20791 3.14234 3.38065 3.04189C4.89172 2.91243 4.79504 2.76237 4.43861 2.62333C3.95001 2.43212 5.29261 2.2309 4.17573 2.04626C3.90171 2.00095 4.02545 1.93169 4.71002 1.90585C6.06916 1.85447 6.68951 1.71946 8.17238 1.68417C8.56858 1.67475 8.72738 1.62845 9.35626 1.64343C12.5164 1.71857 15.7063 1.66258 18.9158 1.6088C20.3626 1.5846 21.5039 1.75231 23.1902 1.65545C24.8154 1.56208 26.1533 1.69512 27.727 1.67636C29.2316 1.65846 30.7841 1.68309 32.2738 1.65995C33.0227 1.64835 33.3547 1.67168 33.8895 1.69087C34.9295 1.7282 36.7225 1.70993 37.6599 1.63971C38.7944 1.5548 39.7637 1.53513 41.0537 1.59641C42.3146 1.65622 44.4024 1.65967 45.3935 1.58069C47.5068 1.41229 50.4194 1.51765 52.52 1.37175C53.7628 1.46268 56.0482 1.38416 56.6393 1.44809C57.5098 1.54229 58.2449 1.49244 58.81 1.47665C60.7943 1.4212 62.6271 1.49385 64.5423 1.47738C65.4059 1.4699 65.5307 1.52744 65.5652 1.5807C65.6013 1.63661 65.426 1.68336 64.6034 1.69968C62.0222 1.75073 59.4377 1.87948 56.8433 1.77009C55.4279 1.71033 55.3269 1.78468 55.0508 1.86305C54.9308 1.89694 54.5208 1.95812 55.1915 1.95266C56.5331 1.94176 57.7462 2.04702 58.7654 2.00757C60.7795 1.92965 62.6745 1.98245 64.528 1.98611C66.3874 1.98978 68.2575 1.96494 70.1217 1.98165C72.2727 2.00087 74.5061 1.90116 76.672 1.96614C77.757 1.78498 79.4917 1.91409 80.897 1.88537C82.4643 1.85337 83.9615 1.78268 85.7317 1.82731C86.8279 1.85502 88.1621 1.85006 89.3523 1.85678L91.0031 1.78086C91.0031 1.78086 93.349 1.81933 93.5583 1.795C93.767 1.77068 94.5743 1.72971 94.7363 1.68241C94.8989 1.63508 93.7001 1.55449 93.7001 1.55449C92.4361 1.54273 91.2649 1.54247 90.0423 1.59257C88.6848 1.64826 87.4064 1.64064 86.0431 1.58208C83.7216 1.48239 83.6711 1.49362 81.5323 1.59674C80.3602 1.6532 79.1625 1.74554 77.9701 1.60756C77.7896 1.58669 76.9445 1.57964 76.7039 1.59705C74.1349 1.78295 71.1792 1.62054 68.5518 1.70908C67.3839 1.74842 67.3547 1.66274 66.7412 1.62575C67.0727 1.54979 67.2458 1.46561 67.7764 1.40242C68.2188 1.3495 68.8094 1.41838 69.3299 1.42911C70.4861 1.45301 71.49 1.52483 72.7376 1.41318C73.8481 1.31373 75.4654 1.48756 76.8973 1.33669C77.8835 1.23284 79.6931 1.33685 81.1638 1.32747C83.5023 1.31257 85.8355 1.21813 88.1958 1.28324C88.4056 1.28906 88.8167 1.25329 88.9989 1.2603L90.6156 1.23932C91.8929 1.24716 91.2259 1.01158 92.8686 1.05748C93.645 1.07924 94.302 0.976246 94.7944 1.05433C95.0934 1.10191 97.7527 1.21562 99.2579 1.21498C100.765 1.21436 101.554 1.30253 101.554 1.30253C103.078 1.45632 104.495 1.35548 106.079 1.29954C106.709 1.27728 107.661 1.27151 108.205 1.32993C108.335 1.34397 108.271 1.38576 108.114 1.40338C107.556 1.46613 107.144 1.76133 108.916 1.74729C110.967 1.73105 111.872 1.78951 113.386 1.69883C115.34 1.58194 117.391 1.75422 119.019 1.59384C119.263 1.56983 120.237 1.58561 120.794 1.60093C122.5 1.64775 124.153 1.6437 125.746 1.5531C127.065 1.47801 128.686 1.4621 129.866 1.49026C133.147 1.56847 136.397 1.48522 139.653 1.47083C140.443 1.46735 141.24 1.46132 142.02 1.4482C143.129 1.4296 144.568 1.54936 145.377 1.35314C145.558 1.30965 147.727 1.31629 148.98 1.30055C149.445 1.2947 150.068 1.278 150.013 1.24177C149.94 1.19261 149.497 1.14936 149.199 1.10426C148.883 1.05601 148.492 1.07853 148.118 1.10443C147.649 1.13677 147.072 1.20348 146.745 1.19687C145.592 1.17332 144.937 1.01243 143.842 1.05533C143.173 1.08147 142.347 1.2392 141.569 1.22956C140.311 1.21404 139.072 1.30244 137.95 1.23882C137.635 1.22098 137.481 1.14828 137 1.20506C135.838 1.34231 134.641 1.31117 133.389 1.24823C132.847 1.22102 132.027 1.18128 131.715 1.22298C130.425 1.39484 128.667 1.34259 126.923 1.36702C125.806 1.38266 124.994 1.4546 124.409 1.32701C124.277 1.29818 123.878 1.29848 123.669 1.33051C122.257 1.54644 120.32 1.38067 118.657 1.40989C116.923 1.44035 117.08 1.32899 117.009 1.23568C116.916 1.11583 117.892 1.11146 118.866 1.09871C119.707 1.08769 120.353 1.12683 121.089 1.1379C122.813 1.16382 124.619 1.21961 126.262 1.07923C126.573 1.05256 127.311 1.01899 127.47 1.02953C128.929 1.12685 130.876 0.94513 132.316 1.03608C133.439 0.90364 135.115 0.91438 136.618 0.906508C138.244 0.897992 139.883 0.910693 141.489 0.927004C142.568 0.9379 143.184 0.869236 143.989 0.83502C145.431 0.773741 146.854 0.683152 148.065 0.838076C148.616 0.908379 149.05 0.840102 149.562 0.829184C152.515 0.767463 155.455 0.78198 158.452 0.719406C159.47 0.696495 160.956 0.763654 160.983 0.751883C161.66 0.47386 164.089 0.724289 165.609 0.616094C166.606 0.545126 168.732 0.556565 170.185 0.474436C170.616 0.450141 171.03 0.446742 171.491 0.466629C173.861 0.568313 175.915 0.58654 177.344 0.463097C178.262 0.383681 178.517 0.402605 178.969 0.447617C180.024 0.552656 181.192 0.371367 182.36 0.451891C183.589 0.536644 184.263 0.411308 185.044 0.349454C185.858 0.285152 186.72 0.291619 187.693 0.304674C188.807 0.319612 190.345 0.354149 191.05 0.306723C192.635 0.199989 193.917 0.116365 196.099 0.139608C197.788 0.15759 199.671 0.103266 201.438 0.0665364C203.362 0.0265404 204.022 0.0907864 203.974 0.245776C203.966 0.275297 204.376 0.303345 204.594 0.332047C204.74 0.294542 204.943 0.257503 205.017 0.219345C205.095 0.179415 204.955 0.136707 205.077 0.0981943C205.275 0.0355428 206.566 0.0208931 206.566 0.0208931C206.566 0.0208931 209.459 -0.0129131 209.651 0.00547935C210.762 0.112312 210.517 0.431129 210.137 0.663929C210.888 0.80407 211.694 0.942041 212.376 1.0849C213.071 1.23009 212.572 1.31644 210.917 1.35141C210.302 1.36439 211.448 1.39192 211.35 1.60996C211.281 1.76297 209.865 1.91301 211.367 1.84624C211.787 1.82754 212.042 2.10044 212.476 2.31948C212.581 2.3726 212.633 2.46181 211.773 2.47448C210.773 2.4892 211.662 2.57581 211.021 2.6468C210.322 2.72423 211.097 2.78045 211.097 2.78045C211.608 2.78977 210.594 2.84449 210.875 2.88808C211.072 2.9186 211.031 2.96867 210.907 3.00645C210.757 3.05223 210.13 3.0691 209.758 3.05234C208.17 2.98062 206.855 2.99263 205.603 3.12903C204.685 3.22889 203.056 3.25106 202.172 3.19861C200.811 3.11767 199.486 3.27894 198.291 3.18926C198.067 3.17248 197.218 3.18839 197.122 3.2342C196.772 3.39879 195.139 3.3963 194.188 3.36686C191.858 3.29483 189.544 3.34967 187.218 3.36236C185.818 3.36997 184.34 3.33476 183.141 3.34475C180.268 3.36867 177.145 3.31232 174.589 3.41806C172.624 3.49935 170.8 3.40894 168.955 3.51258C167.271 3.6073 164.858 3.5211 163.156 3.6626C160.497 3.55938 157.787 3.83141 155.133 3.69965C151.925 3.84 148.709 3.85422 145.469 3.76191C145.212 3.75463 144.791 3.76211 144.552 3.77641C143.629 3.83176 142.669 3.9152 141.612 3.84349C140.71 3.78228 141.238 3.66716 141.005 3.57869C140.944 3.55495 140.79 3.51587 140.635 3.51507C140.053 3.51224 140.018 3.55141 140.033 3.59039L140.069 3.79267C140.065 3.85844 139.595 3.88865 138.891 3.898C138.576 3.90218 138.261 3.90725 137.946 3.90861C134.849 3.92235 131.708 4.01556 128.667 3.92441C125.95 4.08604 122.868 4.02984 119.962 4.07798C119.031 4.09343 118.147 4.08148 117.207 4.06196C114.918 4.01435 100.962 4.02531 98.863 4.12089L92.7739 4.5172ZM6.37207 4.58521C6.28818 4.55526 5.71882 4.51623 5.37301 4.51834C4.48656 4.5237 4.81801 4.59077 4.74474 4.62969C4.75858 4.67666 4.94924 4.7184 5.45272 4.70522C6.05236 4.68954 6.52078 4.63837 6.37207 4.58521ZM37.7036 2.11535C37.1762 2.07233 36.55 2.03801 36.089 2.00812C35.3385 2.0408 34.7591 2.06229 34.2317 2.09128C34.0723 2.1 33.9247 2.1379 34.007 2.14824C34.4143 2.19956 37.2983 2.23963 37.8623 2.20564C38.5655 2.16333 37.9463 2.13523 37.7036 2.11535ZM50.9411 1.8507C49.5895 1.9691 48.8188 1.80864 47.7274 1.82772C46.4872 1.8494 43.8184 1.85261 42.9776 1.83098C42.746 1.82503 42.5638 1.807 42.3583 1.7945C42.1601 1.90407 40.0553 1.93128 40.4664 2.04546C40.7457 2.12274 41.9413 2.16882 43.0726 2.13372C43.5475 2.119 43.8804 2.10805 44.4376 2.13973C46.3469 2.09231 48.3545 2.04242 50.4365 1.99074C50.6983 1.9839 50.9278 1.95534 51.1046 1.93304C51.3803 1.89815 51.1302 1.83408 50.9411 1.8507ZM88.5765 3.47742C88.6445 3.46528 88.0581 3.42013 87.6911 3.40202C86.9884 3.36745 86.9932 3.42829 86.921 3.45862C86.8313 3.4966 86.8897 3.5364 86.8849 3.57553C86.9364 3.61405 86.9444 3.65363 87.0527 3.69065C87.1186 3.71317 87.3385 3.73165 87.4903 3.75196C87.6757 3.73686 88.0071 3.72205 88.0231 3.70656C88.0985 3.62853 88.1526 3.55243 88.5765 3.47742ZM53.0125 2.83151C51.7278 2.79475 51.3628 2.88416 50.4722 2.91119C49.3356 2.94576 49.3834 2.90493 49.1184 2.8861C48.3934 2.83479 47.6711 2.86768 47.1214 2.90464C46.0958 2.97343 49.2931 3.06331 45.4749 3.11897C45.7378 3.13343 45.9285 3.1543 46.1186 3.15274C47.7651 3.13931 49.4757 3.13195 51.0346 3.10249C52.3395 3.07782 52.0474 3.01619 52.2705 2.96749C52.4824 2.92112 54.0195 2.86034 53.0125 2.83151ZM107.451 3.41097C107.599 3.34652 107.048 3.31845 106.044 3.32171C102.969 3.33161 99.8054 3.40934 96.8227 3.33119C96.4621 3.32166 95.5055 3.35228 95.1805 3.38C94.0518 3.47652 95.7036 3.51245 96.1323 3.57512C96.2985 3.59957 96.4313 3.67435 97.1982 3.60458C99.0444 3.43663 101.744 3.54851 103.823 3.46954C104.711 3.41832 105.318 3.47939 106.083 3.47687C106.742 3.47474 107.347 3.45622 107.451 3.41097ZM94.5867 2.71566C94.9627 2.65028 95.659 2.56733 95.659 2.56733C93.9312 2.43117 83.3557 2.61567 80.9466 2.54779C80.8988 2.54645 79.5705 2.59593 79.5763 2.61531C79.6162 2.74886 76.242 2.7889 74.9891 2.88512C74.9764 2.81637 75.0342 2.7468 74.9115 2.67926C74.8638 2.65346 74.4086 2.63226 74.1382 2.60896C73.4892 2.62936 73.2114 2.65568 73.3033 2.68454C73.7 2.80789 72.9166 2.87809 69.596 2.83772C66.9967 2.95098 63.8579 2.86443 61.027 2.94757C59.9685 2.97857 58.0947 2.94767 58.3539 2.87562C58.7666 2.76135 56.2671 2.81783 55.393 2.78209C54.2643 2.83867 55.2963 2.86582 55.5937 2.90819C55.8502 2.94473 54.9973 3.00085 54.9097 3.04698C54.8311 3.08701 55.2586 3.1222 56.4191 3.11777C61.044 3.10013 65.7173 3.00419 70.3561 3.01942C70.7295 3.02065 71.0406 2.87737 72.4922 2.99185C73.0843 3.03841 73.4333 2.97552 73.6245 2.95449C73.9023 2.924 74.1797 2.89695 74.9891 2.88512C75.6721 2.9418 76.1792 3.00494 78.4587 2.9312C79.9161 2.88407 81.5843 2.88538 83.2058 2.88727C87.2896 2.8921 87.3023 2.89045 87.9004 2.71165C88.0034 2.68048 88.2047 2.65302 89.0492 2.64023C89.1639 2.69778 89.1618 2.75721 89.4241 2.81241C89.6488 2.85958 90.8714 2.9114 91.624 2.88599C91.624 2.88599 94.2106 2.78105 94.5867 2.71566ZM181.329 1.95306C181.026 1.91685 181.734 1.80633 180.434 1.83296C179.782 1.8463 179.229 1.90568 178.63 1.94426C179.394 1.99855 180.087 2.06435 180.964 2.09925C181.196 2.10846 181.393 2.01227 181.329 1.95306ZM189.406 1.80739C189.168 1.777 188.404 1.73815 188.365 1.74168C187.268 1.84286 185.524 1.78323 184.447 1.87647C184.261 1.89269 184.27 1.92556 184.191 1.95072L184.454 1.98044C185.773 1.85701 187.355 2.01832 188.671 1.93174C189.1 1.90337 189.911 1.87198 189.406 1.80739ZM172.029 2.09841C172.029 2.09841 172.337 1.99621 172.319 1.96322C172.3 1.93026 170.307 1.94582 170.307 1.94582C169.714 1.96028 168.217 1.96834 167.404 1.96661C164.466 1.96036 161.387 2.00234 158.367 2.03045C153.123 2.07921 147.912 2.15566 143.187 2.17089C141.352 2.18961 140.053 2.20064 138.799 2.21644C138.028 2.22615 137.809 2.24318 137.656 2.26149C137.491 2.28121 140.304 2.28253 137.48 2.31525C136.251 2.32949 133.72 2.36896 133.782 2.33397C133.849 2.29516 133.203 2.28119 132.344 2.31517C129.732 2.41866 124.973 2.37801 121.615 2.44828C120.574 2.47007 119.341 2.42273 117.866 2.46621C117.508 2.47677 117.089 2.56771 116.823 2.57889C116.053 2.6113 116.898 2.68871 117.491 2.68501C121.986 2.65705 127.028 2.48945 131.386 2.50111C131.695 2.50194 132.308 2.48733 132.791 2.48212C137.689 2.42915 142.519 2.30599 147.543 2.34486C147.727 2.34626 148.391 2.32798 148.821 2.32448C151.054 2.30627 153.484 2.21553 155.519 2.27237C159.102 2.18862 163.728 2.20536 167.325 2.11962C168.801 2.08441 169.616 2.09806 170.161 2.12023L172.029 2.09841ZM155.595 1.02224C155.675 1.00779 155.068 0.969159 154.553 0.920626C153.71 0.951055 153.926 1.06441 153.029 1.08779C152.209 1.10912 152.177 1.14959 152.788 1.19589C153.337 1.23737 153.834 1.23516 154.304 1.18342C154.774 1.13169 155.282 1.08012 155.595 1.02224Z" fill="#EE3124"/>
</svg>
