<svg width="40" height="41" viewBox="0 0 40 41" fill="none" xmlns="http://www.w3.org/2000/svg">
<g id="tiktok">
<path id="bg" d="M20 40.2007C9.23045 40.2007 0.5 31.4702 0.5 20.7007C0.5 9.93113 9.23045 1.20068 20 1.20068C30.7696 1.20068 39.5 9.93113 39.5 20.7007C39.5 31.4702 30.7696 40.2007 20 40.2007Z" fill="#FFD750" stroke="#FFD750"/>
<path id="Vector" d="M25.481 15.3307C24.5154 14.7011 23.8188 13.6935 23.6014 12.5197C23.5544 12.2661 23.5284 12.0049 23.5284 11.7378H20.4468L20.4415 24.0882C20.3901 25.4714 19.2517 26.5813 17.8563 26.5813C17.4226 26.5813 17.0142 26.4731 16.6546 26.2836C15.8299 25.8498 15.2654 24.9855 15.2654 23.9911C15.2654 22.5627 16.4278 21.4003 17.8559 21.4003C18.1227 21.4003 18.3783 21.4445 18.6201 21.52V18.374C18.3696 18.3396 18.1154 18.3187 17.8559 18.3187C14.7284 18.3187 12.1838 20.8629 12.1838 23.9911C12.1838 25.91 13.1424 27.6084 14.6056 28.6351C15.5266 29.2824 16.6476 29.6632 17.8563 29.6632C20.9841 29.6632 23.5284 27.1187 23.5284 23.9911V17.7281C24.737 18.5956 26.218 19.1068 27.8162 19.1068V16.0249C26.9553 16.0249 26.1536 15.7693 25.481 15.3307Z" fill="black"/>
</g>
</svg>
