<svg width="161" height="16" viewBox="0 0 161 16" fill="none" xmlns="http://www.w3.org/2000/svg">
<path id="Vector" d="M69.8145 13.5093C68.8188 13.5776 67.8587 13.237 66.8586 13.5729C66.6232 13.6519 66.1821 13.5642 66.0574 13.4442C65.866 13.2612 65.5624 13.1881 65.1061 13.3642C64.2375 13.6993 63.392 13.9675 62.3583 13.4856C62.069 13.3509 61.8073 13.4519 61.5001 13.4909C59.5499 13.7382 57.5057 13.6849 55.5123 13.7993C54.7891 13.841 54.1039 13.8464 53.5377 13.6659C53.2995 13.59 52.7633 13.4795 52.7018 13.4993C51.1379 14.0021 49.5344 13.5679 47.9746 13.6311C46.5306 13.6897 45.0598 13.7834 43.6789 13.9457C42.1418 14.1265 40.5791 14.0253 39.0943 14.0631C37.6199 14.1005 36.2303 14.0974 34.7487 14.2627C33.3459 14.4194 31.8159 14.4208 30.3555 14.5211C28.9731 14.616 27.5447 14.5806 26.2189 14.8712C25.608 15.0053 24.6562 15.0196 23.8507 14.861C21.5276 14.4031 19.1335 14.5437 16.9914 15.0764C15.7619 15.3819 14.5065 15.3135 13.258 15.3901C11.6142 15.491 10.0407 15.4705 8.40211 15.3165C7.03044 15.1877 5.19163 15.5159 4.31422 14.8968C4.25628 14.8552 3.90186 14.8456 3.68773 14.8513C3.06445 14.8682 2.35521 15.2876 1.93284 14.9831C1.42942 14.6201 1.37024 14.1756 1.90089 13.7417C2.68161 13.1032 2.3488 12.7737 0.647848 12.3706C0.474827 12.3296 0.231105 12.3194 0.0205078 12.2948C0.965479 11.9361 -0.041421 11.4543 1.01065 11.0774C1.9384 10.7449 2.75356 10.5264 4.0665 10.7781C4.48521 10.8584 5.02306 10.8209 5.1405 10.6262C5.25035 10.444 4.86483 10.3493 4.33582 10.3363C3.90271 10.3258 3.61382 10.12 3.07878 10.2582C2.74433 10.3445 2.2489 10.2949 2.45269 10.2088C3.27576 9.8597 1.68152 9.53518 2.56378 9.2448C3.70056 8.8706 3.62783 8.43684 3.35969 8.03495C2.99211 7.48225 4.00215 6.90061 3.16192 6.36688C2.95578 6.23591 3.04887 6.0357 3.56387 5.96103C4.58635 5.81251 5.05304 5.42224 6.16861 5.32024C6.46667 5.293 6.58614 5.15917 7.05925 5.20248C9.43663 5.41968 11.8364 5.25782 14.2509 5.10236C15.3393 5.03242 16.1979 5.51721 17.4666 5.23721C18.6892 4.96732 19.6957 5.35189 20.8796 5.29767C22.0115 5.24591 23.1795 5.3171 24.3002 5.25023C24.8636 5.21669 25.1133 5.28413 25.5157 5.3396C26.298 5.4475 27.6469 5.39468 28.3522 5.19172C29.2056 4.94629 29.9348 4.88941 30.9053 5.06654C31.8539 5.23945 33.4246 5.2494 34.1701 5.02112C35.76 4.53435 37.9512 4.83891 39.5314 4.41718C40.4664 4.67999 42.1857 4.45302 42.6304 4.63784C43.2853 4.91012 43.8383 4.76603 44.2634 4.72038C45.7562 4.56009 47.135 4.77009 48.5758 4.7225C49.2255 4.70086 49.3194 4.8672 49.3454 5.02116C49.3725 5.18276 49.2407 5.3179 48.6218 5.36508C46.6799 5.51263 44.7357 5.88478 42.7839 5.56858C41.719 5.39584 41.6431 5.61077 41.4354 5.83728C41.3451 5.93526 41.0366 6.1121 41.5412 6.09632C42.5505 6.06483 43.4631 6.36909 44.2299 6.25505C45.745 6.02981 47.1707 6.18242 48.5651 6.19302C49.9639 6.20361 51.3708 6.13182 52.7732 6.18012C54.3914 6.23568 56.0716 5.94745 57.701 6.13527C58.5173 5.61163 59.8223 5.98484 60.8795 5.90181C62.0586 5.80931 63.1849 5.60497 64.5167 5.734C65.3414 5.81408 66.3451 5.79974 67.2405 5.81917L68.4823 5.59972C68.4823 5.59972 70.2472 5.71092 70.4046 5.6406C70.5617 5.57031 71.169 5.45188 71.2909 5.31515C71.4132 5.17835 70.5113 4.9454 70.5113 4.9454C69.5604 4.9114 68.6793 4.91063 67.7596 5.05547C66.7383 5.21643 65.7765 5.19441 64.7509 5.02513C63.0045 4.73696 62.9665 4.76945 61.3575 5.0675C60.4757 5.23071 59.5746 5.49762 58.6776 5.09878C58.5418 5.03847 57.9061 5.01808 57.7251 5.0684C55.7924 5.60577 53.5688 5.13632 51.5922 5.39225C50.7136 5.50594 50.6916 5.2583 50.2301 5.15136C50.4795 4.93179 50.6097 4.68847 51.0089 4.5058C51.3417 4.35284 51.786 4.55196 52.1776 4.58297C53.0474 4.65205 53.8026 4.85965 54.7412 4.53692C55.5766 4.24946 56.7933 4.75191 57.8705 4.31581C58.6125 4.01564 59.9738 4.31629 61.0802 4.28918C62.8395 4.2461 64.5948 3.9731 66.3704 4.16131C66.5283 4.17814 66.8375 4.07476 66.9746 4.09502L68.1908 4.03437C69.1518 4.05703 68.6499 3.37607 69.8858 3.50874C70.4699 3.57163 70.9641 3.27393 71.3345 3.49965C71.5595 3.63718 73.5601 3.96587 74.6924 3.96401C75.8264 3.96222 76.4197 4.21706 76.4197 4.21706C77.566 4.66162 78.6325 4.37012 79.824 4.20842C80.2982 4.14409 81.0142 4.12741 81.4238 4.29628C81.5212 4.33687 81.4729 4.45766 81.3546 4.50859C80.9355 4.68998 80.625 5.54326 81.958 5.50268C83.5015 5.45576 84.1819 5.62472 85.321 5.36261C86.7914 5.02474 88.3337 5.52271 89.5588 5.05912C89.7426 4.98973 90.4749 5.03534 90.8945 5.07963C92.1775 5.21496 93.4213 5.20325 94.6196 4.94136C95.6121 4.72432 96.8311 4.67832 97.7194 4.75972C100.187 4.98579 102.632 4.74516 105.082 4.70355C105.676 4.6935 106.275 4.67608 106.863 4.63816C107.697 4.58438 108.779 4.93054 109.388 4.36337C109.524 4.23765 111.156 4.25685 112.098 4.21137C112.449 4.19444 112.917 4.14617 112.876 4.04144C112.821 3.89936 112.487 3.77434 112.264 3.64397C112.025 3.50448 111.731 3.56958 111.45 3.64445C111.097 3.73794 110.663 3.93076 110.417 3.91165C109.549 3.8436 109.057 3.37853 108.233 3.50253C107.73 3.5781 107.109 4.03401 106.523 4.00617C105.577 3.96129 104.645 4.21681 103.801 4.03293C103.564 3.98136 103.448 3.7712 103.086 3.93533C102.211 4.33207 101.311 4.24206 100.37 4.06013C99.9616 3.98146 99.3451 3.86658 99.1097 3.98712C98.1392 4.48391 96.8171 4.33287 95.5053 4.40348C94.665 4.4487 94.0541 4.65666 93.6134 4.28783C93.5143 4.20452 93.2143 4.20538 93.0572 4.29795C91.9944 4.92213 90.5376 4.44294 89.2866 4.52741C87.982 4.61546 88.0999 4.29356 88.0463 4.02383C87.9768 3.67742 88.7112 3.66477 89.4436 3.62793C90.0765 3.59605 90.5624 3.7092 91.1161 3.74121C92.4127 3.81614 93.7716 3.97739 95.0074 3.5716C95.242 3.49453 95.797 3.39748 95.9169 3.42795C97.0141 3.70927 98.4789 3.18399 99.562 3.4469C100.407 3.06406 101.668 3.09511 102.798 3.07235C104.021 3.04773 105.255 3.08445 106.463 3.13159C107.275 3.16309 107.738 2.96461 108.344 2.86571C109.428 2.68858 110.499 2.42672 111.41 2.87454C111.825 3.07776 112.151 2.8804 112.536 2.84884C114.758 2.67043 116.97 2.71239 119.225 2.53152C119.99 2.46529 121.108 2.65942 121.129 2.6254C121.638 1.82175 123.465 2.54563 124.608 2.23289C125.358 2.02775 126.958 2.06081 128.051 1.82341C128.375 1.75319 128.687 1.74336 129.034 1.80085C130.817 2.09477 132.362 2.14746 133.437 1.79064C134.128 1.56108 134.319 1.61578 134.659 1.74589C135.453 2.04952 136.332 1.52549 137.21 1.75825C138.135 2.00323 138.642 1.64094 139.23 1.46215C139.842 1.27628 140.49 1.29497 141.223 1.33271C142.06 1.37589 143.218 1.47572 143.748 1.33863C144.94 1.03011 145.905 0.788388 147.546 0.855572C148.817 0.907552 150.234 0.750523 151.563 0.644354C153.01 0.528743 153.507 0.714451 153.471 1.16246C153.465 1.24779 153.773 1.32887 153.937 1.41183C154.047 1.30342 154.199 1.19636 154.255 1.08606C154.314 0.970639 154.209 0.847186 154.301 0.735864C154.449 0.554765 155.421 0.512419 155.421 0.512419C155.421 0.512419 157.597 0.4147 157.742 0.467865C158.577 0.776673 158.393 1.69823 158.107 2.37116C158.672 2.77625 159.279 3.17506 159.792 3.58799C160.314 4.00767 159.939 4.2573 158.694 4.35838C158.231 4.39589 159.093 4.47546 159.02 5.10572C158.968 5.548 157.902 5.9817 159.032 5.7887C159.348 5.73467 159.54 6.52349 159.867 7.15663C159.946 7.31017 159.985 7.56806 159.338 7.60468C158.585 7.64721 159.254 7.89758 158.772 8.10278C158.247 8.3266 158.829 8.48911 158.829 8.48911C159.214 8.51606 158.451 8.67421 158.662 8.80022C158.81 8.88843 158.78 9.03317 158.686 9.14238C158.574 9.2747 158.102 9.32348 157.822 9.27502C156.627 9.06771 155.638 9.10244 154.696 9.4967C154.006 9.78535 152.78 9.84943 152.115 9.69784C151.091 9.46386 150.094 9.93002 149.195 9.67079C149.027 9.6223 148.388 9.6683 148.316 9.80071C148.052 10.2765 146.824 10.2693 146.108 10.1842C144.356 9.97595 142.615 10.1345 140.865 10.1712C139.812 10.1932 138.7 10.0914 137.798 10.1202C135.637 10.1894 133.287 10.0265 131.364 10.3322C129.886 10.5671 128.514 10.3058 127.126 10.6054C125.859 10.8792 124.044 10.63 122.763 11.039C120.763 10.7406 118.724 11.527 116.728 11.1461C114.314 11.5518 111.895 11.5929 109.457 11.3261C109.264 11.305 108.947 11.3267 108.767 11.368C108.073 11.528 107.351 11.7692 106.555 11.5619C105.877 11.385 106.274 11.0522 106.099 10.7965C106.053 10.7278 105.937 10.6149 105.821 10.6126C105.383 10.6044 105.356 10.7176 105.368 10.8303L105.394 11.415C105.392 11.6051 105.038 11.6924 104.509 11.7195C104.271 11.7315 104.035 11.7462 103.798 11.7501C101.468 11.7898 99.105 12.0593 96.8171 11.7958C94.7729 12.263 92.4543 12.1005 90.2679 12.2397C89.5675 12.2844 88.9026 12.2498 88.1954 12.1934C86.4733 12.0558 75.9748 12.0875 74.3954 12.3637L69.8145 13.5093ZM4.81423 13.7059C4.75112 13.6193 4.32279 13.5065 4.06264 13.5126C3.39576 13.5281 3.64511 13.722 3.58999 13.8345C3.6004 13.9702 3.74383 14.0909 4.1226 14.0528C4.57372 14.0075 4.92611 13.8596 4.81423 13.7059ZM28.385 6.56658C27.9882 6.44223 27.5172 6.34304 27.1703 6.25665C26.6058 6.3511 26.1698 6.41323 25.7731 6.49702C25.6532 6.52221 25.5421 6.63178 25.604 6.66167C25.9105 6.80999 28.0801 6.92583 28.5044 6.82756C29.0334 6.70526 28.5676 6.62406 28.385 6.56658ZM38.3436 5.8016C37.3268 6.14385 36.747 5.68003 35.9259 5.73518C34.9929 5.79785 32.9852 5.80713 32.3526 5.74459C32.1785 5.7274 32.0414 5.67529 31.8867 5.63916C31.7377 5.95587 30.1542 6.03451 30.4635 6.36458C30.6736 6.58796 31.573 6.72114 32.4241 6.61968C32.7814 6.57714 33.0318 6.54548 33.451 6.63706C34.8874 6.5 36.3977 6.35577 37.964 6.2064C38.161 6.18661 38.3336 6.10407 38.4666 6.0396C38.674 5.93875 38.4859 5.75355 38.3436 5.8016ZM66.6568 10.5038C66.708 10.4686 66.2669 10.3381 65.9907 10.2858C65.4621 10.1859 65.4657 10.3617 65.4114 10.4494C65.3439 10.5592 65.3878 10.6742 65.3842 10.7873C65.423 10.8987 65.429 11.0131 65.5105 11.1201C65.56 11.1852 65.7255 11.2386 65.8397 11.2973C65.9791 11.2537 66.2285 11.2109 66.2405 11.1661C66.2972 10.9405 66.338 10.7206 66.6568 10.5038ZM39.9019 8.63669C38.9354 8.53043 38.6609 8.78889 37.9909 8.86702C37.1358 8.96695 37.1718 8.84894 36.9724 8.79449C36.427 8.64617 35.8836 8.74126 35.47 8.84807C34.6985 9.04693 37.1038 9.30674 34.2314 9.46761C34.4292 9.50941 34.5726 9.56975 34.7156 9.56523C35.9543 9.52641 37.2412 9.50515 38.4139 9.41998C39.3956 9.34867 39.1759 9.17052 39.3437 9.02975C39.5031 8.89573 40.6595 8.72004 39.9019 8.63669ZM80.856 10.3117C80.9675 10.1254 80.5527 10.0442 79.798 10.0537C77.4845 10.0823 75.1043 10.3069 72.8604 10.0811C72.5892 10.0535 71.8695 10.142 71.625 10.2222C70.7759 10.5011 72.0186 10.605 72.341 10.7862C72.4661 10.8568 72.566 11.073 73.143 10.8713C74.5319 10.3858 76.5624 10.7092 78.1271 10.481C78.7947 10.3329 79.2518 10.5095 79.8272 10.5022C80.3226 10.496 80.778 10.4425 80.856 10.3117ZM71.1783 8.30183C71.4612 8.11283 71.985 7.87306 71.985 7.87306C70.6852 7.47949 62.7292 8.0128 60.9168 7.8166C60.8809 7.81272 59.8816 7.95573 59.886 8.01175C59.9159 8.39779 57.3775 8.51353 56.435 8.79167C56.4254 8.59294 56.4689 8.39184 56.3766 8.19662C56.3407 8.12205 55.9983 8.06075 55.7949 7.99341C55.3066 8.05236 55.0976 8.12845 55.1667 8.21186C55.4652 8.56842 54.8759 8.77135 52.3778 8.65465C50.4223 8.98202 48.061 8.73185 45.9313 8.97216C45.135 9.06179 43.7253 8.97245 43.9203 8.76421C44.2307 8.43389 42.3504 8.59716 41.6928 8.49384C40.8437 8.6574 41.62 8.73589 41.8438 8.85835C42.0368 8.96397 41.3951 9.12619 41.3292 9.25953C41.2701 9.37524 41.5917 9.47696 42.4647 9.46415C45.9441 9.41316 49.4598 9.13585 52.9495 9.17986C53.2304 9.18341 53.4646 8.76927 54.5566 9.10016C55.002 9.23475 55.2645 9.05298 55.4084 8.99217C55.6174 8.90405 55.8261 8.82586 56.435 8.79167C56.9488 8.95549 57.3303 9.138 59.0452 8.92486C60.1416 8.78863 61.3966 8.79241 62.6165 8.79788C65.6887 8.81184 65.6982 8.80707 66.1482 8.29025C66.2257 8.20014 66.3771 8.12076 67.0124 8.0838C67.0987 8.25014 67.0971 8.42192 67.2945 8.58148C67.4635 8.71783 68.3833 8.86763 68.9495 8.79417C68.9495 8.79417 70.8954 8.49084 71.1783 8.30183ZM136.435 6.09747C136.207 5.99281 136.74 5.67334 135.762 5.75032C135.271 5.78889 134.855 5.96051 134.404 6.07203C134.979 6.22896 135.501 6.41918 136.16 6.52004C136.334 6.54667 136.483 6.26862 136.435 6.09747ZM142.511 5.67641C142.332 5.58855 141.757 5.47627 141.728 5.48648C140.903 5.77893 139.59 5.60657 138.781 5.87608C138.641 5.92297 138.647 6.018 138.588 6.09072L138.786 6.17663C139.778 5.81984 140.969 6.28613 141.958 6.03586C142.281 5.95386 142.891 5.86311 142.511 5.67641ZM129.438 6.51764C129.438 6.51764 129.67 6.22221 129.656 6.12686C129.642 6.03157 128.143 6.07654 128.143 6.07654C127.697 6.11834 126.571 6.14164 125.959 6.13665C123.749 6.11857 121.432 6.23994 119.16 6.32117C115.215 6.46213 111.295 6.68312 107.74 6.72713C106.36 6.78125 105.382 6.81313 104.439 6.8588C103.859 6.88688 103.694 6.9361 103.579 6.98901C103.455 7.04602 105.572 7.04983 103.447 7.14441C102.522 7.18557 100.619 7.29968 100.665 7.19853C100.716 7.08635 100.229 7.04595 99.5829 7.14418C97.6183 7.44333 94.0383 7.32583 91.5118 7.52895C90.7283 7.59194 89.8009 7.4551 88.6913 7.58077C88.422 7.6113 88.1072 7.87418 87.907 7.90648C87.3272 8.00016 87.9633 8.22393 88.4096 8.21323C91.7911 8.13242 95.5837 7.64795 98.8629 7.68165C99.095 7.68405 99.5561 7.64184 99.9197 7.62676C103.604 7.47364 107.238 7.11765 111.017 7.23C111.156 7.23406 111.655 7.18122 111.979 7.1711C113.659 7.11845 115.487 6.85618 117.018 7.02047C119.713 6.77837 123.194 6.82676 125.899 6.57893C127.01 6.47715 127.623 6.51661 128.033 6.58069L129.438 6.51764ZM117.075 3.40689C117.135 3.36512 116.679 3.25345 116.291 3.11316C115.657 3.20111 115.819 3.52877 115.145 3.59634C114.528 3.65802 114.504 3.77501 114.963 3.90883C115.376 4.02873 115.75 4.02233 116.104 3.87279C116.457 3.72325 116.84 3.57419 117.075 3.40689Z" fill="#00B67A"/>
</svg>
