<svg width="426" height="13" viewBox="0 0 426 13" fill="none" xmlns="http://www.w3.org/2000/svg">
<path d="M186.008 11.3549C183.363 11.4102 180.813 11.1342 178.157 11.4065C177.532 11.4704 176.36 11.3994 176.029 11.3022C175.52 11.1539 174.714 11.0946 173.502 11.2373C171.195 11.5089 168.949 11.7262 166.204 11.3357C165.435 11.2265 164.74 11.3084 163.924 11.34C158.744 11.5404 153.315 11.4972 148.02 11.59C146.1 11.6237 144.28 11.6281 142.776 11.4818C142.143 11.4203 140.719 11.3307 140.555 11.3468C136.402 11.7543 132.143 11.4024 128 11.4536C124.164 11.5011 120.258 11.577 116.59 11.7086C112.508 11.8551 108.357 11.7731 104.414 11.8037C100.498 11.834 96.8065 11.8315 92.8714 11.9654C89.1454 12.0925 85.0818 12.0936 81.203 12.1748C77.5311 12.2517 73.7371 12.223 70.2158 12.4586C68.5932 12.5672 66.0653 12.5789 63.9257 12.4503C57.7556 12.0793 51.3967 12.1932 45.7073 12.6249C42.4418 12.8725 39.1074 12.817 35.7911 12.8791C31.4251 12.9609 27.2458 12.9443 22.8937 12.8195C19.2505 12.7151 14.3666 12.9811 12.0361 12.4793C11.8822 12.4457 10.9409 12.4378 10.3721 12.4425C8.71667 12.4561 6.83291 12.7961 5.71107 12.5493C4.37397 12.2551 4.21679 11.8948 5.62621 11.5432C7.69985 11.0258 6.81587 10.7588 2.29808 10.4321C1.83853 10.3988 1.19119 10.3906 0.631836 10.3707C3.14172 10.08 0.46735 9.68954 3.26169 9.38406C5.72585 9.11463 7.89093 8.93752 11.3782 9.14151C12.4903 9.20659 13.9188 9.17619 14.2308 9.01843C14.5225 8.87078 13.4986 8.794 12.0935 8.78352C10.9431 8.77502 10.1758 8.60825 8.75474 8.72023C7.86642 8.79016 6.55053 8.74999 7.09181 8.68018C9.27793 8.39727 5.04356 8.13427 7.38687 7.89896C10.4062 7.5957 10.213 7.24418 9.50084 6.91849C8.52453 6.47058 11.2072 5.99922 8.97556 5.56669C8.42803 5.46054 8.67528 5.2983 10.0432 5.23778C12.7589 5.11742 13.9985 4.80115 16.9615 4.71848C17.7531 4.69641 18.0704 4.58796 19.327 4.62305C25.6415 4.79908 32.0154 4.6679 38.4284 4.54192C41.3192 4.48524 43.5998 4.87811 46.9693 4.6512C50.2167 4.43248 52.8901 4.74414 56.0344 4.7002C59.0409 4.65825 62.143 4.71594 65.1197 4.66175C66.6161 4.63457 67.2794 4.68922 68.3481 4.73418C70.426 4.82162 74.0087 4.77882 75.8819 4.61434C78.1487 4.41544 80.0855 4.36935 82.6632 4.51289C85.1826 4.65301 89.3544 4.66108 91.3347 4.47608C95.5574 4.08161 101.377 4.32841 105.574 3.98664C108.058 4.19963 112.624 4.01569 113.806 4.16547C115.545 4.38613 117.014 4.26935 118.143 4.23236C122.108 4.10246 125.77 4.27265 129.597 4.23407C131.322 4.21654 131.572 4.35134 131.641 4.47611C131.713 4.60708 131.363 4.71659 129.719 4.75482C124.561 4.8744 119.397 5.17599 114.213 4.91974C111.385 4.77975 111.183 4.95393 110.631 5.1375C110.392 5.2169 109.572 5.36021 110.913 5.34742C113.593 5.3219 116.017 5.56848 118.054 5.47606C122.078 5.29352 125.865 5.4172 129.568 5.42579C133.284 5.43437 137.02 5.37619 140.745 5.41533C145.043 5.46036 149.506 5.22678 153.834 5.37899C156.002 4.95463 159.468 5.25708 162.276 5.18979C165.408 5.11483 168.399 4.94924 171.936 5.0538C174.127 5.11869 176.793 5.10707 179.171 5.12282L182.469 4.94498C182.469 4.94498 187.157 5.03509 187.575 4.97811C187.992 4.92114 189.605 4.82517 189.929 4.71436C190.254 4.6035 187.858 4.41471 187.858 4.41471C185.333 4.38717 182.993 4.38654 180.55 4.50392C177.837 4.63436 175.283 4.61652 172.559 4.47933C167.92 4.2458 167.819 4.27213 163.545 4.51367C161.203 4.64593 158.81 4.86224 156.428 4.53901C156.067 4.49014 154.378 4.47362 153.898 4.5144C148.764 4.94988 142.858 4.56944 137.608 4.77685C135.275 4.86898 135.216 4.66829 133.991 4.58163C134.653 4.40369 134.999 4.2065 136.059 4.05847C136.943 3.93451 138.123 4.09587 139.163 4.12101C141.474 4.17698 143.479 4.34522 145.972 4.08368C148.191 3.85072 151.423 4.25791 154.284 3.90449C156.255 3.66124 159.87 3.90488 162.809 3.88291C167.482 3.848 172.144 3.62677 176.86 3.77929C177.279 3.79293 178.101 3.70915 178.465 3.72557L181.695 3.67641C184.247 3.69478 182.915 3.14293 186.197 3.25045C187.748 3.30142 189.061 3.06016 190.045 3.24308C190.642 3.35454 195.956 3.6209 198.964 3.6194C201.976 3.61795 203.551 3.82447 203.551 3.82447C206.596 4.18474 209.428 3.94851 212.593 3.81747C213.853 3.76533 215.755 3.75182 216.842 3.88867C217.101 3.92156 216.973 4.01946 216.659 4.06072C215.545 4.20772 214.721 4.89923 218.261 4.86634C222.361 4.82831 224.168 4.96524 227.194 4.75283C231.099 4.47902 235.196 4.88257 238.449 4.50687C238.937 4.45064 240.883 4.4876 241.997 4.5235C245.405 4.63317 248.708 4.62368 251.891 4.41144C254.527 4.23555 257.765 4.19828 260.124 4.26424C266.679 4.44745 273.172 4.25244 279.68 4.21872C281.257 4.21057 282.85 4.19646 284.41 4.16573C286.625 4.12215 289.499 4.40268 291.117 3.94304C291.477 3.84115 295.812 3.85672 298.315 3.81986C299.246 3.80613 300.49 3.76702 300.38 3.68215C300.234 3.567 299.349 3.46569 298.754 3.36004C298.122 3.247 297.341 3.29976 296.592 3.36043C295.656 3.43619 294.504 3.59245 293.85 3.57696C291.545 3.52182 290.238 3.14493 288.048 3.24541C286.712 3.30666 285.062 3.67613 283.507 3.65356C280.994 3.6172 278.518 3.82427 276.276 3.67525C275.647 3.63346 275.34 3.46314 274.379 3.59616C272.055 3.91767 269.664 3.84473 267.163 3.69729C266.079 3.63354 264.442 3.54044 263.817 3.63813C261.239 4.04073 257.728 3.91832 254.243 3.97554C252.012 4.01219 250.389 4.18072 249.219 3.88182C248.955 3.81431 248.158 3.81501 247.741 3.89002C244.918 4.39586 241.049 4.00752 237.726 4.07598C234.261 4.14733 234.574 3.88647 234.432 3.66788C234.248 3.38714 236.198 3.3769 238.143 3.34704C239.824 3.32121 241.115 3.4129 242.586 3.43884C246.029 3.49956 249.639 3.63024 252.921 3.30139C253.544 3.23893 255.018 3.16028 255.337 3.18498C258.251 3.41295 262.141 2.98727 265.018 3.20033C267.263 2.89008 270.611 2.91524 273.614 2.89679C276.863 2.87685 280.139 2.9066 283.347 2.94481C285.503 2.97033 286.734 2.80948 288.343 2.72933C291.224 2.58579 294.069 2.37358 296.488 2.73649C297.589 2.90118 298.456 2.74124 299.478 2.71566C305.38 2.57108 311.255 2.60509 317.243 2.45851C319.276 2.40484 322.245 2.56216 322.3 2.53458C323.653 1.88331 328.505 2.46994 331.542 2.2165C333.534 2.05025 337.784 2.07705 340.687 1.88466C341.548 1.82775 342.375 1.81979 343.297 1.86637C348.032 2.10457 352.136 2.14726 354.991 1.8581C356.826 1.67206 357.335 1.71639 358.238 1.82183C360.346 2.06789 362.68 1.64322 365.013 1.83185C367.47 2.03038 368.817 1.73678 370.378 1.59189C372.003 1.44126 373.725 1.45641 375.67 1.48699C377.896 1.52198 380.969 1.60288 382.377 1.49179C385.544 1.24176 388.106 1.04587 392.466 1.10032C395.841 1.14244 399.605 1.01519 403.134 0.929147C406.979 0.835456 408.298 0.985954 408.203 1.34902C408.187 1.41817 409.005 1.48388 409.44 1.55111C409.733 1.46326 410.138 1.37649 410.286 1.2871C410.441 1.19357 410.162 1.09352 410.406 1.00331C410.801 0.856544 413.381 0.822227 413.381 0.822227C413.381 0.822227 419.163 0.743036 419.546 0.78612C421.766 1.03638 421.276 1.78321 420.517 2.32855C422.017 2.65683 423.628 2.98003 424.991 3.31467C426.379 3.65478 425.382 3.85708 422.076 3.93899C420.847 3.96939 423.136 4.03388 422.94 4.54464C422.803 4.90306 419.972 5.25454 422.974 5.09812C423.813 5.05434 424.323 5.6936 425.19 6.2067C425.4 6.33113 425.504 6.54012 423.785 6.5698C421.787 6.60427 423.563 6.80716 422.284 6.97346C420.887 7.15485 422.434 7.28654 422.434 7.28654C423.456 7.30838 421.429 7.43654 421.991 7.53866C422.384 7.61015 422.303 7.72745 422.054 7.81595C421.756 7.92318 420.503 7.96271 419.76 7.92344C416.586 7.75544 413.959 7.78358 411.457 8.1031C409.623 8.33701 406.367 8.38894 404.602 8.2661C401.881 8.07648 399.234 8.45426 396.847 8.24418C396.4 8.20488 394.702 8.24215 394.51 8.34946C393.81 8.73502 390.549 8.72918 388.647 8.66021C383.993 8.49148 379.368 8.61995 374.721 8.64968C371.924 8.6675 368.97 8.58501 366.574 8.60841C360.834 8.66446 354.594 8.53246 349.486 8.78015C345.56 8.97057 341.915 8.75878 338.229 9.00157C334.864 9.22345 330.043 9.02151 326.641 9.35299C321.329 9.11118 315.914 9.74843 310.611 9.43978C304.201 9.76855 297.775 9.80186 291.3 9.58563C290.786 9.56857 289.945 9.5861 289.467 9.61959C287.624 9.74926 285.705 9.94471 283.593 9.77672C281.791 9.63333 282.846 9.36367 282.381 9.15642C282.258 9.10081 281.951 9.00927 281.642 9.0074C280.479 9.00076 280.407 9.09253 280.438 9.18384L280.509 9.65769C280.502 9.81174 279.564 9.8825 278.157 9.90442C277.526 9.9142 276.898 9.92608 276.269 9.92927C270.079 9.96146 263.804 10.1798 257.728 9.96629C252.298 10.3449 246.14 10.2133 240.333 10.326C238.472 10.3622 236.706 10.3342 234.828 10.2885C230.254 10.177 202.37 10.2026 198.175 10.4265L186.008 11.3549ZM13.3642 11.5142C13.1965 11.4441 12.0589 11.3526 11.3679 11.3576C9.59665 11.3701 10.2589 11.5272 10.1125 11.6184C10.1402 11.7284 10.5211 11.8262 11.5272 11.7953C12.7253 11.7586 13.6613 11.6387 13.3642 11.5142ZM75.9692 5.72852C74.9153 5.62775 73.6641 5.54736 72.7429 5.47735C71.2434 5.5539 70.0856 5.60425 69.0317 5.67215C68.7134 5.69257 68.4183 5.78136 68.5828 5.80558C69.3967 5.92578 75.1593 6.01966 76.2863 5.94002C77.6914 5.84091 76.4541 5.7751 75.9692 5.72852ZM102.42 5.10858C99.7189 5.38594 98.1789 5.01006 95.9981 5.05476C93.5201 5.10554 88.1873 5.11307 86.5074 5.06238C86.0447 5.04845 85.6806 5.00622 85.2699 4.97694C84.874 5.2336 80.6683 5.29734 81.4897 5.56482C82.0478 5.74585 84.4367 5.85378 86.6972 5.77155C87.6461 5.73708 88.3113 5.71142 89.4246 5.78564C93.2398 5.67457 97.2513 5.55768 101.411 5.43663C101.935 5.4206 102.393 5.3537 102.746 5.30146C103.297 5.21973 102.798 5.06964 102.42 5.10858ZM177.621 8.91921C177.757 8.89076 176.585 8.785 175.852 8.74257C174.447 8.66159 174.457 8.80412 174.313 8.87517C174.133 8.96414 174.25 9.05736 174.241 9.14903C174.344 9.23927 174.36 9.33198 174.576 9.41869C174.708 9.47145 175.147 9.51474 175.45 9.56231C175.821 9.52693 176.483 9.49225 176.515 9.45596C176.666 9.27317 176.774 9.09492 177.621 8.91921ZM106.559 7.40614C103.992 7.32003 103.262 7.52948 101.483 7.5928C99.2115 7.67378 99.3072 7.57814 98.7775 7.53402C97.329 7.41382 95.8857 7.49089 94.7873 7.57744C92.738 7.7386 99.1267 7.94915 91.4974 8.07952C92.0227 8.11339 92.4036 8.16229 92.7836 8.15863C96.0734 8.12717 99.4916 8.10994 102.606 8.04092C105.214 7.98313 104.63 7.83875 105.076 7.72467C105.499 7.61607 108.571 7.47369 106.559 7.40614ZM215.334 8.76355C215.63 8.61256 214.529 8.54681 212.524 8.55446C206.38 8.57765 200.058 8.75971 194.098 8.57666C193.377 8.55433 191.466 8.62605 190.816 8.691C188.561 8.91708 191.862 9.00126 192.718 9.14807C193.05 9.20534 193.316 9.38051 194.848 9.21707C198.537 8.82365 203.93 9.08574 208.086 8.90074C209.86 8.78075 211.074 8.92383 212.602 8.91791C213.918 8.91293 215.127 8.86954 215.334 8.76355ZM189.63 7.13477C190.381 6.9816 191.773 6.78729 191.773 6.78729C188.32 6.46835 167.189 6.90054 162.375 6.74154C162.28 6.7384 159.625 6.85429 159.637 6.89969C159.717 7.21253 152.974 7.30633 150.471 7.53174C150.446 7.37068 150.561 7.20771 150.316 7.04951C150.221 6.98907 149.311 6.9394 148.771 6.88482C147.474 6.9326 146.919 6.99426 147.103 7.06186C147.895 7.35081 146.33 7.51527 139.695 7.42069C134.501 7.686 128.229 7.48326 122.573 7.67801C120.458 7.75064 116.714 7.67824 117.232 7.50948C118.056 7.24179 113.062 7.37411 111.315 7.29038C109.06 7.42292 111.122 7.48653 111.716 7.58577C112.229 7.67137 110.525 7.80283 110.349 7.91089C110.192 8.00466 111.047 8.08709 113.365 8.07672C122.607 8.03539 131.945 7.81066 141.214 7.84633C141.96 7.84921 142.581 7.51358 145.482 7.78174C146.665 7.89081 147.362 7.7435 147.745 7.69422C148.3 7.62281 148.854 7.55944 150.471 7.53174C151.836 7.66449 152.849 7.8124 157.404 7.63967C160.316 7.52927 163.649 7.53234 166.889 7.53677C175.049 7.54808 175.075 7.54422 176.27 7.12538C176.476 7.05236 176.878 6.98803 178.565 6.95807C178.794 7.09288 178.79 7.23209 179.314 7.3614C179.763 7.4719 182.206 7.59329 183.71 7.53376C183.71 7.53376 188.879 7.28794 189.63 7.13477ZM362.954 5.34836C362.348 5.26354 363.764 5.00464 361.166 5.06702C359.863 5.09828 358.758 5.23737 357.561 5.32774C359.087 5.45491 360.473 5.60907 362.224 5.6908C362.687 5.71238 363.082 5.48705 362.954 5.34836ZM379.092 5.00713C378.618 4.93593 377.091 4.84494 377.013 4.85321C374.821 5.09021 371.335 4.95053 369.184 5.16894C368.813 5.20694 368.831 5.28395 368.672 5.34288L369.198 5.4125C371.834 5.12336 374.996 5.50124 377.623 5.29843C378.482 5.23197 380.103 5.15843 379.092 5.00713ZM344.371 5.68886C344.371 5.68886 344.987 5.44944 344.95 5.37217C344.912 5.29495 340.931 5.33139 340.931 5.33139C339.746 5.36527 336.755 5.38415 335.13 5.38011C329.259 5.36545 323.107 5.46381 317.072 5.52964C306.594 5.64388 296.182 5.82296 286.74 5.85863C283.073 5.90249 280.478 5.92833 277.972 5.96534C276.432 5.98809 275.994 6.02798 275.688 6.07086C275.359 6.11706 280.981 6.12014 275.337 6.19679C272.881 6.23015 267.824 6.32262 267.948 6.24066C268.082 6.14974 266.791 6.11701 265.074 6.19661C259.856 6.43904 250.347 6.34381 243.637 6.50842C241.556 6.55947 239.092 6.44858 236.145 6.55042C235.43 6.57516 234.594 6.7882 234.062 6.81437C232.522 6.8903 234.212 7.07163 235.397 7.06297C244.378 6.99748 254.452 6.60486 263.161 6.63218C263.778 6.63412 265.003 6.59991 265.968 6.58769C275.754 6.4636 285.406 6.17511 295.443 6.26615C295.812 6.26945 297.138 6.22662 297.999 6.21843C302.459 6.17576 307.316 5.96321 311.382 6.09636C318.54 5.90016 327.785 5.93938 334.972 5.73853C337.922 5.65604 339.55 5.68803 340.638 5.73996L344.371 5.68886ZM311.534 3.16791C311.693 3.13406 310.481 3.04356 309.452 2.92987C307.768 3.00115 308.198 3.26668 306.406 3.32144C304.768 3.37142 304.704 3.46623 305.924 3.57468C307.021 3.67185 308.015 3.66666 308.953 3.54547C309.892 3.42429 310.909 3.30349 311.534 3.16791Z" fill="#FFD750"/>
</svg>
