<svg width="475" height="13" viewBox="0 0 475 13" fill="none" xmlns="http://www.w3.org/2000/svg">
<path d="M207.054 11.1558C204.104 11.2112 201.26 10.9351 198.298 11.2074C197.601 11.2714 196.294 11.2003 195.925 11.1031C195.358 10.9548 194.458 10.8955 193.107 11.0383C190.534 11.3098 188.029 11.5272 184.967 11.1366C184.11 11.0274 183.335 11.1093 182.425 11.1409C176.648 11.3413 170.593 11.2981 164.688 11.3909C162.546 11.4246 160.516 11.429 158.839 11.2828C158.134 11.2213 156.545 11.1317 156.363 11.1477C151.731 11.5552 146.981 11.2033 142.36 11.2545C138.083 11.302 133.726 11.378 129.636 11.5095C125.083 11.656 120.454 11.574 116.056 11.6047C111.688 11.635 107.572 11.6324 103.183 11.7664C99.0277 11.8934 94.4957 11.8945 90.1699 11.9758C86.0748 12.0527 81.8435 12.024 77.9164 12.2595C76.1068 12.3682 73.2874 12.3798 70.9013 12.2512C64.0201 11.8802 56.9282 11.9942 50.5831 12.4258C46.9412 12.6734 43.2225 12.618 39.524 12.6801C34.6548 12.7618 29.9939 12.7452 25.1402 12.6204C21.0771 12.516 15.6302 12.782 13.0312 12.2803C12.8596 12.2466 11.8097 12.2388 11.1754 12.2434C9.32915 12.2571 7.22827 12.597 5.97714 12.3502C4.48593 12.0561 4.31063 11.6958 5.88251 11.3442C8.19513 10.8267 7.20927 10.5597 2.17078 10.2331C1.65827 10.1998 0.936324 10.1915 0.3125 10.1716C3.11166 9.88091 0.129057 9.49048 3.24546 9.185C5.99362 8.91557 8.40825 8.73846 12.2974 8.94244C13.5377 9.00752 15.1309 8.97712 15.4788 8.81936C15.8042 8.67172 14.6622 8.59494 13.0952 8.58446C11.8122 8.57595 10.9565 8.40919 9.37161 8.52117C8.3809 8.5911 6.91336 8.55092 7.51701 8.48112C9.9551 8.1982 5.2327 7.93521 7.84609 7.69989C11.2134 7.39664 10.998 7.04511 10.2037 6.71943C9.11487 6.27151 12.1068 5.80015 9.61788 5.36762C9.00725 5.26148 9.28299 5.09923 10.8085 5.03871C13.8373 4.91836 15.2197 4.60208 18.5242 4.51942C19.4071 4.49734 19.761 4.38889 21.1624 4.42399C28.2046 4.60001 35.3131 4.46884 42.4653 4.34285C45.6893 4.28617 48.2327 4.67905 51.9906 4.45213C55.6123 4.23341 58.5938 4.54507 62.1005 4.50113C65.4535 4.45919 68.9131 4.51688 72.2329 4.46269C73.9018 4.4355 74.6416 4.49016 75.8334 4.53511C78.1508 4.62255 82.1464 4.57975 84.2355 4.41527C86.7635 4.21637 88.9236 4.17028 91.7983 4.31383C94.6082 4.45395 99.2608 4.46201 101.469 4.27702C106.179 3.88254 112.669 4.12935 117.35 3.78758C120.12 4.00056 125.213 3.81663 126.53 3.9664C128.47 4.18706 130.108 4.07029 131.367 4.0333C135.789 3.90339 139.873 4.07358 144.141 4.03501C146.066 4.01747 146.344 4.15228 146.421 4.27704C146.501 4.40801 146.111 4.51752 144.277 4.55576C138.525 4.67534 132.766 4.97693 126.985 4.72068C123.83 4.58068 123.605 4.75486 122.99 4.93843C122.723 5.01783 121.809 5.16115 123.304 5.14836C126.293 5.12283 128.997 5.36941 131.268 5.27699C135.756 5.09446 139.979 5.21813 144.11 5.22672C148.253 5.2353 152.421 5.17712 156.575 5.21627C161.368 5.2613 166.345 5.02772 171.172 5.17993C173.59 4.75556 177.455 5.05801 180.587 4.99073C184.079 4.91576 187.416 4.75017 191.361 4.85473C193.804 4.91963 196.777 4.90801 199.429 4.92375L203.108 4.74592C203.108 4.74592 208.335 4.83603 208.802 4.77904C209.267 4.72208 211.066 4.6261 211.427 4.51529C211.789 4.40443 209.118 4.21565 209.118 4.21565C206.301 4.1881 203.691 4.18748 200.967 4.30485C197.941 4.4353 195.093 4.41745 192.055 4.28026C186.881 4.04673 186.769 4.07306 182.003 4.3146C179.391 4.44687 176.722 4.66317 174.065 4.33995C173.662 4.29108 171.779 4.27455 171.243 4.31533C165.518 4.75082 158.931 4.37037 153.076 4.57778C150.474 4.66991 150.409 4.46923 149.042 4.38256C149.78 4.20462 150.166 4.00744 151.348 3.8594C152.334 3.73544 153.65 3.89681 154.81 3.92194C157.387 3.97792 159.624 4.14616 162.404 3.88461C164.879 3.65166 168.483 4.05885 171.674 3.70543C173.872 3.46217 177.904 3.70582 181.181 3.68385C186.393 3.64893 191.592 3.4277 196.852 3.58022C197.319 3.59387 198.235 3.51008 198.641 3.5265L202.244 3.47735C205.091 3.49571 203.604 2.94386 207.265 3.05138C208.995 3.10235 210.459 2.86109 211.556 3.04401C212.223 3.15547 218.149 3.42184 221.503 3.42033C224.862 3.41888 226.619 3.62541 226.619 3.62541C230.015 3.98567 233.174 3.74945 236.703 3.6184C238.108 3.56627 240.229 3.55275 241.442 3.68961C241.731 3.7225 241.588 3.82039 241.238 3.86166C239.996 4.00865 239.076 4.70016 243.025 4.66727C247.597 4.62924 249.612 4.76617 252.987 4.55376C257.342 4.27995 261.911 4.68351 265.54 4.30781C266.084 4.25157 268.253 4.28853 269.496 4.32443C273.297 4.4341 276.981 4.42461 280.53 4.21238C283.47 4.03649 287.082 3.99921 289.713 4.06518C297.023 4.24838 304.264 4.05337 311.522 4.01965C313.281 4.01151 315.057 3.9974 316.797 3.96666C319.268 3.92308 322.473 4.20361 324.277 3.74397C324.679 3.64209 329.513 3.65765 332.305 3.62079C333.343 3.60707 334.73 3.56795 334.608 3.48308C334.445 3.36794 333.458 3.26662 332.795 3.16097C332.089 3.04793 331.218 3.10069 330.384 3.16136C329.34 3.23713 328.055 3.39338 327.326 3.3779C324.755 3.32275 323.297 2.94586 320.855 3.04635C319.365 3.10759 317.525 3.47706 315.791 3.4545C312.988 3.41813 310.227 3.6252 307.726 3.47618C307.024 3.43439 306.682 3.26408 305.61 3.39709C303.019 3.71861 300.352 3.64567 297.563 3.49823C296.354 3.43447 294.528 3.34138 293.831 3.43906C290.956 3.84166 287.04 3.71925 283.154 3.77648C280.665 3.81313 278.855 3.98165 277.55 3.68276C277.256 3.61524 276.368 3.61594 275.903 3.69095C272.754 4.19679 268.439 3.80846 264.733 3.87691C260.869 3.94827 261.218 3.6874 261.06 3.46881C260.854 3.18808 263.029 3.17783 265.198 3.14798C267.073 3.12214 268.512 3.21383 270.153 3.23977C273.993 3.3005 278.019 3.43118 281.679 3.10232C282.374 3.03986 284.018 2.96122 284.373 2.98591C287.623 3.21389 291.962 2.7882 295.171 3.00127C297.674 2.69101 301.408 2.71617 304.758 2.69773C308.381 2.67778 312.034 2.70753 315.612 2.74574C318.017 2.77127 319.39 2.61042 321.184 2.53027C324.396 2.38672 327.569 2.17451 330.268 2.53743C331.495 2.70211 332.462 2.54217 333.602 2.5166C340.184 2.37201 346.736 2.40602 353.415 2.25944C355.683 2.20577 358.993 2.36309 359.055 2.33552C360.564 1.68424 365.975 2.27088 369.362 2.01743C371.584 1.85119 376.323 1.87798 379.561 1.68559C380.521 1.62868 381.443 1.62072 382.471 1.66731C387.753 1.9055 392.329 1.9482 395.513 1.65903C397.56 1.473 398.128 1.51733 399.135 1.62277C401.486 1.86882 404.088 1.44415 406.691 1.63278C409.431 1.83132 410.933 1.53771 412.674 1.39282C414.486 1.24219 416.407 1.25734 418.576 1.28792C421.058 1.32291 424.486 1.40382 426.056 1.29272C429.588 1.0427 432.445 0.846806 437.307 0.901252C441.072 0.943377 445.269 0.816121 449.205 0.730081C453.493 0.63639 454.965 0.786887 454.858 1.14995C454.84 1.21911 455.753 1.28481 456.238 1.35204C456.565 1.26419 457.016 1.17742 457.182 1.08804C457.354 0.994502 457.043 0.894456 457.315 0.804241C457.756 0.657478 460.633 0.623161 460.633 0.623161C460.633 0.623161 467.081 0.54397 467.508 0.587054C469.984 0.837313 469.438 1.58415 468.591 2.12948C470.265 2.45777 472.061 2.78097 473.581 3.1156C475.129 3.45571 474.018 3.65801 470.33 3.73993C468.959 3.77033 471.512 3.83481 471.294 4.34557C471.141 4.704 467.984 5.05547 471.332 4.89906C472.267 4.85527 472.836 5.49454 473.803 6.00764C474.038 6.13206 474.154 6.34105 472.236 6.37073C470.008 6.4052 471.989 6.6081 470.562 6.77439C469.004 6.95578 470.73 7.08747 470.73 7.08747C471.87 7.10931 469.609 7.23748 470.235 7.3396C470.674 7.41109 470.583 7.52838 470.306 7.61689C469.974 7.72412 468.576 7.76365 467.747 7.72438C464.207 7.55637 461.278 7.58451 458.487 7.90403C456.442 8.13795 452.811 8.18988 450.842 8.06703C447.808 7.87742 444.856 8.25519 442.193 8.04511C441.695 8.00581 439.801 8.04309 439.587 8.1504C438.807 8.53595 435.17 8.53012 433.049 8.46114C427.858 8.29241 422.7 8.42089 417.517 8.45061C414.398 8.46843 411.103 8.38595 408.432 8.40934C402.03 8.4654 395.07 8.3334 389.374 8.58109C384.995 8.7715 380.931 8.55971 376.819 8.8025C373.067 9.02438 367.69 8.82245 363.896 9.15392C357.972 8.91212 351.932 9.54936 346.018 9.24071C338.869 9.56949 331.703 9.60279 324.482 9.38657C323.909 9.3695 322.97 9.38703 322.438 9.42052C320.382 9.55019 318.242 9.74564 315.887 9.57766C313.877 9.43427 315.053 9.16461 314.535 8.95736C314.398 8.90174 314.056 8.8102 313.71 8.80834C312.413 8.8017 312.334 8.89347 312.368 8.98477L312.447 9.45862C312.439 9.61268 311.393 9.68344 309.823 9.70536C309.12 9.71513 308.42 9.72701 307.718 9.7302C300.815 9.76239 293.817 9.98075 287.04 9.76722C280.985 10.1459 274.117 10.0142 267.64 10.127C265.565 10.1632 263.596 10.1352 261.501 10.0894C256.4 9.9779 225.302 10.0036 220.623 10.2275L207.054 11.1558ZM14.5123 11.3151C14.3254 11.245 13.0566 11.1536 12.286 11.1585C10.3105 11.1711 11.0492 11.3282 10.8859 11.4193C10.9167 11.5294 11.3416 11.6271 12.4636 11.5963C13.7998 11.5595 14.8437 11.4397 14.5123 11.3151ZM84.3328 5.52945C83.1575 5.42868 81.7621 5.34829 80.7347 5.27829C79.0624 5.35483 77.7711 5.40518 76.5958 5.47309C76.2408 5.4935 75.9117 5.58229 76.0951 5.60652C77.0029 5.72672 83.4296 5.82059 84.6865 5.74096C86.2536 5.64185 84.8737 5.57604 84.3328 5.52945ZM113.832 4.90951C110.82 5.18688 109.102 4.811 106.67 4.85569C103.907 4.90648 97.9592 4.914 96.0856 4.86332C95.5696 4.84939 95.1636 4.80716 94.7055 4.77787C94.264 5.03454 89.5736 5.09827 90.4896 5.36575C91.1121 5.54678 93.7763 5.65471 96.2974 5.57248C97.3556 5.53801 98.0975 5.51236 99.3391 5.58657C103.594 5.4755 108.068 5.35862 112.707 5.23756C113.291 5.22153 113.802 5.15463 114.196 5.10239C114.811 5.02066 114.253 4.87058 113.832 4.90951ZM197.7 8.72014C197.852 8.69169 196.545 8.58594 195.727 8.5435C194.161 8.46252 194.172 8.60505 194.011 8.6761C193.811 8.76507 193.941 8.8583 193.931 8.94996C194.045 9.04021 194.063 9.13291 194.305 9.21962C194.451 9.27238 194.941 9.31568 195.28 9.36325C195.693 9.32787 196.431 9.29319 196.467 9.2569C196.635 9.07411 196.756 8.89585 197.7 8.72014ZM118.448 7.20708C115.585 7.12096 114.772 7.33042 112.787 7.39373C110.254 7.47471 110.361 7.37908 109.77 7.33496C108.154 7.21475 106.545 7.29182 105.32 7.37838C103.034 7.53954 110.159 7.75008 101.651 7.88045C102.237 7.91433 102.661 7.96322 103.085 7.95956C106.754 7.9281 110.566 7.91088 114.04 7.84185C116.948 7.78406 116.297 7.63969 116.794 7.52561C117.267 7.417 120.692 7.27462 118.448 7.20708ZM239.761 8.56449C240.091 8.41349 238.862 8.34774 236.626 8.35539C229.774 8.37858 222.723 8.56065 216.076 8.3776C215.273 8.35526 213.141 8.42698 212.417 8.49193C209.902 8.71802 213.583 8.80219 214.538 8.949C214.908 9.00628 215.204 9.18144 216.913 9.018C221.027 8.62459 227.042 8.88667 231.677 8.70168C233.655 8.58168 235.009 8.72476 236.713 8.71885C238.18 8.71387 239.53 8.67047 239.761 8.56449ZM211.094 6.9357C211.931 6.78253 213.483 6.58823 213.483 6.58823C209.633 6.26928 186.066 6.70148 180.697 6.54247C180.591 6.53933 177.631 6.65523 177.644 6.70062C177.733 7.01347 170.213 7.10726 167.421 7.33267C167.393 7.17162 167.522 7.00864 167.249 6.85044C167.142 6.79 166.128 6.74033 165.525 6.68576C164.079 6.73354 163.46 6.79519 163.665 6.86279C164.549 7.15175 162.803 7.3162 155.403 7.22163C149.611 7.48693 142.616 7.28419 136.308 7.47894C133.949 7.55157 129.773 7.47918 130.351 7.31042C131.27 7.04273 125.701 7.17504 123.753 7.09131C121.238 7.22386 123.537 7.28746 124.2 7.3867C124.772 7.4723 122.871 7.60376 122.676 7.71182C122.5 7.80559 123.453 7.88802 126.039 7.87765C136.346 7.83633 146.76 7.61159 157.097 7.64726C157.929 7.65014 158.623 7.31452 161.857 7.58267C163.177 7.69174 163.954 7.54444 164.381 7.49515C165 7.42374 165.618 7.36038 167.421 7.33267C168.943 7.46543 170.074 7.61333 175.153 7.4406C178.401 7.33021 182.119 7.33327 185.732 7.3377C194.832 7.34901 194.861 7.34515 196.193 6.92631C196.423 6.8533 196.872 6.78897 198.754 6.75901C199.009 6.89381 199.004 7.03303 199.589 7.16233C200.09 7.27283 202.814 7.39423 204.491 7.3347C204.491 7.3347 210.256 7.08887 211.094 6.9357ZM404.394 5.14929C403.718 5.06447 405.297 4.80557 402.4 4.86796C400.946 4.89921 399.714 5.0383 398.379 5.12867C400.081 5.25585 401.627 5.41 403.58 5.49174C404.097 5.51332 404.537 5.28799 404.394 5.14929ZM422.392 4.80807C421.863 4.73686 420.16 4.64587 420.074 4.65414C417.628 4.89115 413.742 4.75147 411.342 4.96987C410.928 5.00787 410.948 5.08489 410.771 5.14382L411.358 5.21344C414.298 4.9243 417.824 5.30218 420.754 5.09936C421.712 5.0329 423.519 4.95937 422.392 4.80807ZM383.67 5.48979C383.67 5.48979 384.356 5.25038 384.315 5.1731C384.273 5.09588 379.832 5.13233 379.832 5.13233C378.512 5.1662 375.175 5.18509 373.363 5.18104C366.816 5.16639 359.954 5.26475 353.224 5.33058C341.538 5.44481 329.926 5.6239 319.396 5.65956C315.307 5.70342 312.412 5.72926 309.618 5.76627C307.9 5.78902 307.412 5.82892 307.071 5.87179C306.704 5.91799 312.973 5.92108 306.679 5.99773C303.94 6.03109 298.3 6.12356 298.438 6.04159C298.588 5.95067 297.148 5.91794 295.233 5.99755C289.413 6.23997 278.809 6.14475 271.325 6.30936C269.004 6.3604 266.257 6.24952 262.97 6.35135C262.172 6.3761 261.24 6.58913 260.647 6.61531C258.929 6.69123 260.814 6.87257 262.136 6.8639C272.152 6.79841 283.386 6.4058 293.1 6.43311C293.787 6.43506 295.153 6.40084 296.23 6.38863C307.144 6.26453 317.909 5.97604 329.103 6.06709C329.513 6.07038 330.993 6.02756 331.953 6.01936C336.927 5.97669 342.343 5.76415 346.878 5.89729C354.861 5.70109 365.172 5.74031 373.187 5.53946C376.477 5.45698 378.293 5.48896 379.506 5.54089L383.67 5.48979ZM347.048 2.96884C347.225 2.93499 345.874 2.84449 344.726 2.7308C342.848 2.80208 343.327 3.06762 341.329 3.12237C339.501 3.17236 339.431 3.26716 340.792 3.37562C342.014 3.47278 343.123 3.46759 344.169 3.34641C345.217 3.22522 346.351 3.10442 347.048 2.96884Z" fill="#EE3124"/>
</svg>
