<svg width="138" height="13" viewBox="0 0 138 13" fill="none" xmlns="http://www.w3.org/2000/svg">
<path d="M60.2895 10.5958C59.4329 10.6511 58.6069 10.3751 57.7466 10.6473C57.5442 10.7113 57.1647 10.6403 57.0574 10.543C56.8928 10.3947 56.6316 10.3355 56.2391 10.4782C55.4918 10.7498 54.7645 10.9671 53.8753 10.5766C53.6264 10.4674 53.4013 10.5492 53.137 10.5809C51.4593 10.7813 49.7008 10.7381 47.9861 10.8308C47.3639 10.8646 46.7744 10.8689 46.2874 10.7227C46.0825 10.6612 45.6212 10.5716 45.5683 10.5877C44.223 10.9952 42.8436 10.6433 41.5017 10.6945C40.2595 10.7419 38.9943 10.8179 37.8064 10.9495C36.4841 11.0959 35.1398 11.014 33.8625 11.0446C32.5942 11.0749 31.3988 11.0723 30.1242 11.2063C28.9175 11.3333 27.6013 11.3344 26.3451 11.4157C25.1558 11.4926 23.927 11.4639 22.7865 11.6994C22.261 11.8081 21.4422 11.8197 20.7493 11.6912C18.7509 11.3201 16.6913 11.4341 14.8487 11.8658C13.791 12.1133 12.7111 12.0579 11.637 12.12C10.2229 12.2018 8.8693 12.1851 7.45974 12.0603C6.27977 11.9559 4.69794 12.2219 3.94315 11.7202C3.89331 11.6865 3.58842 11.6787 3.40422 11.6834C2.86804 11.697 2.25793 12.0369 1.89458 11.7902C1.46152 11.496 1.41061 11.1357 1.8671 10.7841C2.53871 10.2667 2.25241 9.99965 0.789178 9.673C0.640337 9.63972 0.430677 9.63147 0.249512 9.61158C1.06242 9.32085 0.196238 8.93042 1.10128 8.62494C1.89937 8.35551 2.6006 8.1784 3.73006 8.38238C4.09025 8.44746 4.55293 8.41706 4.65396 8.2593C4.74846 8.11166 4.41682 8.03488 3.96174 8.0244C3.58916 8.01589 3.34064 7.84913 2.88038 7.96111C2.59266 8.03104 2.16647 7.99086 2.34178 7.92106C3.04983 7.63814 1.67839 7.37515 2.43735 7.13983C3.41526 6.83658 3.35269 6.48506 3.12202 6.15937C2.80582 5.71145 3.6747 5.24009 2.9519 4.80756C2.77456 4.70142 2.85464 4.53917 3.29767 4.47866C4.17725 4.3583 4.57872 4.04203 5.53839 3.95936C5.79479 3.93728 5.89756 3.82883 6.30455 3.86393C8.34968 4.03995 10.4141 3.90878 12.4911 3.78279C13.4274 3.72612 14.1661 4.11899 15.2574 3.89207C16.3092 3.67336 17.175 3.98501 18.1934 3.94107C19.1672 3.89913 20.1719 3.95682 21.136 3.90263C21.6206 3.87545 21.8355 3.9301 22.1816 3.97505C22.8546 4.06249 24.015 4.01969 24.6217 3.85521C25.3558 3.65631 25.9831 3.61022 26.818 3.75377C27.634 3.89389 28.9852 3.90196 29.6265 3.71696C30.9942 3.32248 32.8792 3.56929 34.2386 3.22752C35.0429 3.4405 36.5219 3.25657 36.9045 3.40634C37.4678 3.627 37.9435 3.51023 38.3092 3.47324C39.5934 3.34334 40.7795 3.51352 42.019 3.47495C42.5778 3.45741 42.6587 3.59222 42.681 3.71699C42.7043 3.84795 42.5909 3.95746 42.0585 3.9957C40.388 4.11528 38.7155 4.41687 37.0365 4.16062C36.1204 4.02063 36.0551 4.19481 35.8764 4.37838C35.7988 4.45777 35.5334 4.60109 35.9675 4.5883C36.8357 4.56278 37.6208 4.80935 38.2804 4.71693C39.5838 4.5344 40.8102 4.65807 42.0097 4.66666C43.2131 4.67525 44.4233 4.61706 45.6298 4.65621C47.0218 4.70124 48.4672 4.46766 49.8689 4.61987C50.5711 4.19551 51.6937 4.49795 52.6031 4.43067C53.6174 4.3557 54.5864 4.19011 55.732 4.29467C56.4415 4.35957 57.3049 4.34795 58.0752 4.36369L59.1435 4.18586C59.1435 4.18586 60.6616 4.27597 60.7971 4.21898C60.9322 4.16202 61.4546 4.06605 61.5595 3.95523C61.6647 3.84437 60.8889 3.65559 60.8889 3.65559C60.0708 3.62804 59.3129 3.62742 58.5217 3.74479C57.6431 3.87524 56.8158 3.85739 55.9335 3.7202C54.4311 3.48667 54.3985 3.513 53.0143 3.75454C52.2557 3.88681 51.4806 4.10311 50.709 3.77989C50.5921 3.73102 50.0453 3.7145 49.8896 3.75527C48.227 4.19076 46.3142 3.81031 44.6138 4.01772C43.8579 4.10986 43.8391 3.90917 43.4421 3.8225C43.6566 3.64456 43.7686 3.44738 44.112 3.29934C44.3983 3.17538 44.7805 3.33675 45.1174 3.36188C45.8656 3.41786 46.5153 3.5861 47.3227 3.32456C48.0414 3.0916 49.088 3.49879 50.0147 3.14537C50.653 2.90212 51.824 3.14576 52.7758 3.12379C54.2892 3.08888 55.7992 2.86764 57.3267 3.02016C57.4625 3.03381 57.7285 2.95002 57.8464 2.96644L58.8927 2.91729C59.7193 2.93565 59.2876 2.3838 60.3507 2.49132C60.8532 2.54229 61.2784 2.30103 61.597 2.48395C61.7905 2.59541 63.5116 2.86178 64.4856 2.86028C65.4611 2.85882 65.9715 3.06535 65.9715 3.06535C66.9577 3.42561 67.875 3.18939 68.9 3.05835C69.308 3.00621 69.9239 2.99269 70.2762 3.12955C70.3601 3.16244 70.3185 3.26033 70.2168 3.3016C69.8562 3.4486 69.5891 4.1401 70.7358 4.10721C72.0636 4.06918 72.6489 4.20612 73.6288 3.9937C74.8937 3.71989 76.2205 4.12345 77.2743 3.74775C77.4325 3.69151 78.0625 3.72848 78.4234 3.76438C79.527 3.87405 80.5971 3.86455 81.6279 3.65232C82.4817 3.47643 83.5304 3.43915 84.2944 3.50512C86.4176 3.68832 88.5205 3.49331 90.6281 3.45959C91.1389 3.45145 91.6548 3.43734 92.1601 3.4066C92.8777 3.36302 93.8085 3.64355 94.3324 3.18392C94.4492 3.08203 95.853 3.09759 96.6638 3.06073C96.9652 3.04701 97.3681 3.00789 97.3326 2.92302C97.2852 2.80788 96.9985 2.70656 96.806 2.60091C96.6012 2.48787 96.3482 2.54063 96.1059 2.6013C95.8027 2.67707 95.4294 2.83332 95.2177 2.81784C94.4712 2.76269 94.0477 2.3858 93.3386 2.48629C92.9059 2.54753 92.3714 2.917 91.8678 2.89444C91.0539 2.85807 90.252 3.06514 89.5258 2.91612C89.322 2.87433 89.2226 2.70402 88.9112 2.83703C88.1588 3.15855 87.3844 3.08561 86.5742 2.93817C86.2233 2.87441 85.693 2.78132 85.4905 2.879C84.6556 3.2816 83.5182 3.1592 82.3898 3.21642C81.667 3.25307 81.1414 3.42159 80.7623 3.1227C80.677 3.05518 80.419 3.05588 80.2839 3.1309C79.3696 3.63673 78.1163 3.2484 77.0402 3.31685C75.9179 3.38821 76.0193 3.12734 75.9733 2.90876C75.9135 2.62802 76.5452 2.61777 77.1753 2.58792C77.7197 2.56208 78.1377 2.65378 78.6141 2.67971C79.7294 2.74044 80.8984 2.87112 81.9615 2.54226C82.1633 2.4798 82.6407 2.40116 82.7439 2.42585C83.6877 2.65383 84.9478 2.22814 85.8796 2.44121C86.6066 2.13095 87.691 2.15611 88.6637 2.13767C89.7158 2.11772 90.7769 2.14747 91.8159 2.18568C92.5143 2.21121 92.913 2.05036 93.4341 1.97021C94.367 1.82666 95.2885 1.61446 96.0721 1.97737C96.4286 2.14205 96.7094 1.98211 97.0404 1.95654C98.9519 1.81196 100.855 1.84596 102.794 1.69938C103.453 1.64571 104.414 1.80303 104.432 1.77546C104.87 1.12419 106.442 1.71082 107.426 1.45737C108.071 1.29113 109.447 1.31792 110.387 1.12553C110.666 1.06862 110.934 1.06066 111.233 1.10725C112.766 1.34544 114.095 1.38814 115.02 1.09897C115.614 0.912939 115.779 0.957268 116.072 1.06271C116.755 1.30877 117.51 0.884095 118.266 1.07272C119.062 1.27126 119.498 0.977656 120.004 0.832762C120.53 0.682134 121.088 0.697283 121.718 0.727865C122.439 0.762856 123.434 0.84376 123.89 0.732663C124.916 0.482638 125.745 0.286748 127.157 0.341193C128.251 0.383318 129.47 0.256062 130.613 0.170023C131.858 0.0763314 132.285 0.226829 132.255 0.589896C132.249 0.659049 132.514 0.724752 132.655 0.791986C132.75 0.704131 132.881 0.617365 132.929 0.527979C132.979 0.434444 132.889 0.334398 132.968 0.244182C133.096 0.0974197 133.932 0.0631026 133.932 0.0631026C133.932 0.0631026 135.804 -0.0160889 135.928 0.0269956C136.647 0.277254 136.489 1.02409 136.243 1.56943C136.729 1.89771 137.251 2.22091 137.692 2.55555C138.141 2.89566 137.819 3.09795 136.748 3.17987C136.35 3.21027 137.091 3.27475 137.028 3.78552C136.983 4.14394 136.066 4.49541 137.039 4.339C137.31 4.29522 137.476 4.93448 137.756 5.44758C137.824 5.57201 137.858 5.781 137.301 5.81067C136.654 5.84514 137.229 6.04804 136.815 6.21433C136.363 6.39572 136.864 6.52741 136.864 6.52741C137.195 6.54925 136.538 6.67742 136.72 6.77954C136.848 6.85103 136.821 6.96832 136.741 7.05683C136.644 7.16406 136.238 7.20359 135.998 7.16432C134.97 6.99631 134.119 7.02446 133.308 7.34397C132.714 7.57789 131.66 7.62982 131.088 7.50697C130.207 7.31736 129.35 7.69513 128.576 7.48505C128.432 7.44575 127.882 7.48303 127.82 7.59034C127.593 7.97589 126.537 7.97006 125.921 7.90109C124.413 7.73235 122.915 7.86083 121.41 7.89055C120.504 7.90837 119.548 7.82589 118.772 7.84929C116.913 7.90534 114.892 7.77334 113.237 8.02103C111.965 8.21144 110.785 7.99965 109.591 8.24244C108.501 8.46432 106.94 8.26239 105.838 8.59386C104.118 8.35206 102.364 8.9893 100.646 8.68065C98.57 9.00943 96.4888 9.04274 94.3918 8.82651C94.2254 8.80944 93.9528 8.82697 93.7981 8.86046C93.2011 8.99013 92.5797 9.18558 91.8957 9.0176C91.312 8.87421 91.6537 8.60455 91.5031 8.3973C91.4633 8.34168 91.3639 8.25015 91.2636 8.24828C90.8869 8.24164 90.8639 8.33341 90.8738 8.42471L90.8969 8.89857C90.8944 9.05262 90.5906 9.12338 90.1349 9.1453C89.9307 9.15508 89.7272 9.16696 89.5234 9.17015C87.5188 9.20234 85.4864 9.42069 83.5182 9.20716C81.7598 9.58579 79.7652 9.45413 77.8843 9.56691C77.2818 9.60309 76.7098 9.5751 76.1015 9.52938C74.62 9.41784 65.5888 9.44352 64.2301 9.66742L60.2895 10.5958ZM4.37329 10.7551C4.319 10.6849 3.95053 10.5935 3.72673 10.5984C3.15305 10.611 3.36756 10.7681 3.32014 10.8593C3.32909 10.9693 3.45248 11.0671 3.77832 11.0362C4.16638 10.9995 4.46953 10.8796 4.37329 10.7551ZM24.6499 4.96939C24.3086 4.86862 23.9034 4.78824 23.605 4.71823C23.1193 4.79477 22.7443 4.84512 22.403 4.91303C22.2999 4.93344 22.2043 5.02223 22.2576 5.04646C22.5212 5.16666 24.3876 5.26053 24.7526 5.1809C25.2077 5.08179 24.807 5.01598 24.6499 4.96939ZM33.2168 4.34945C32.342 4.62682 31.8433 4.25094 31.137 4.29563C30.3344 4.34642 28.6072 4.35394 28.0631 4.30326C27.9132 4.28933 27.7953 4.2471 27.6623 4.21781C27.534 4.47448 26.1719 4.53821 26.4379 4.80569C26.6187 4.98672 27.3924 5.09465 28.1246 5.01243C28.4319 4.97795 28.6473 4.9523 29.0079 5.02651C30.2436 4.91544 31.5428 4.79856 32.8902 4.6775C33.0597 4.66147 33.2082 4.59458 33.3226 4.54234C33.501 4.4606 33.3392 4.31052 33.2168 4.34945ZM57.5731 8.16009C57.617 8.13163 57.2376 8.02588 57 7.98344C56.5453 7.90246 56.5484 8.045 56.5017 8.11604C56.4436 8.20501 56.4814 8.29824 56.4783 8.3899C56.5116 8.48015 56.5168 8.57285 56.5869 8.65957C56.6296 8.71233 56.7719 8.75562 56.8701 8.80319C56.9901 8.76781 57.2046 8.73313 57.2149 8.69684C57.2637 8.51405 57.2987 8.3358 57.5731 8.16009ZM34.5573 6.64702C33.7259 6.5609 33.4897 6.77036 32.9133 6.83367C32.1777 6.91466 32.2087 6.81902 32.0372 6.7749C31.568 6.6547 31.1005 6.73176 30.7448 6.81832C30.0811 6.97948 32.1502 7.19002 29.6792 7.32039C29.8494 7.35427 29.9728 7.40316 30.0958 7.39951C31.1613 7.36804 32.2684 7.35082 33.2773 7.28179C34.1218 7.224 33.9327 7.07963 34.0771 6.96555C34.2142 6.85694 35.209 6.71456 34.5573 6.64702ZM69.7878 8.00443C69.8837 7.85344 69.5269 7.78768 68.8777 7.79533C66.8875 7.81852 64.84 8.00059 62.9097 7.81754C62.6763 7.7952 62.0572 7.86692 61.8469 7.93188C61.1165 8.15796 62.1855 8.24213 62.4629 8.38894C62.5704 8.44622 62.6564 8.62138 63.1527 8.45794C64.3475 8.06453 66.0943 8.32661 67.4403 8.14162C68.0146 8.02162 68.4078 8.1647 68.9028 8.15879C69.329 8.15381 69.7207 8.11041 69.7878 8.00443ZM61.4626 6.37565C61.7059 6.22248 62.1566 6.02817 62.1566 6.02817C61.0384 5.70922 54.1943 6.14142 52.6353 5.98241C52.6043 5.97927 51.7447 6.09517 51.7485 6.14056C51.7742 6.45341 49.5906 6.5472 48.7798 6.77261C48.7715 6.61156 48.809 6.44859 48.7296 6.29038C48.6987 6.22995 48.4041 6.18027 48.2291 6.1257C47.8091 6.17348 47.6293 6.23513 47.6888 6.30273C47.9455 6.59169 47.4386 6.75614 45.2896 6.66157C43.6074 6.92687 41.5761 6.72413 39.744 6.91888C39.059 6.99151 37.8463 6.91912 38.0141 6.75036C38.2811 6.48267 36.6636 6.61498 36.0979 6.53125C35.3675 6.6638 36.0353 6.7274 36.2278 6.82664C36.3938 6.91224 35.8418 7.0437 35.7851 7.15176C35.7342 7.24553 36.0109 7.32797 36.7619 7.31759C39.755 7.27627 42.7794 7.05153 45.7814 7.0872C46.0231 7.09008 46.2245 6.75446 47.1639 7.02261C47.5471 7.13169 47.7729 6.98438 47.8967 6.9351C48.0764 6.86369 48.256 6.80032 48.7798 6.77261C49.2218 6.90537 49.55 7.05327 51.0252 6.88055C51.9684 6.77015 53.048 6.77321 54.0973 6.77765C56.7402 6.78896 56.7484 6.78509 57.1355 6.36626C57.2022 6.29324 57.3324 6.22891 57.879 6.19895C57.9532 6.33375 57.9518 6.47297 58.1216 6.60227C58.267 6.71277 59.0582 6.83417 59.5453 6.77464C59.5453 6.77464 61.2193 6.52881 61.4626 6.37565ZM117.599 4.58923C117.403 4.50441 117.861 4.24552 117.02 4.3079C116.598 4.33916 116.24 4.47824 115.852 4.56861C116.347 4.69579 116.796 4.84995 117.363 4.93168C117.513 4.95326 117.641 4.72793 117.599 4.58923ZM122.826 4.24801C122.672 4.1768 122.178 4.08581 122.153 4.09409C121.443 4.33109 120.314 4.19141 119.617 4.40981C119.497 4.44781 119.503 4.52483 119.451 4.58376L119.622 4.65338C120.475 4.36424 121.499 4.74212 122.35 4.5393C122.628 4.47285 123.153 4.39931 122.826 4.24801ZM111.581 4.92973C111.581 4.92973 111.78 4.69032 111.768 4.61304C111.756 4.53582 110.466 4.57227 110.466 4.57227C110.083 4.60614 109.114 4.62503 108.587 4.62098C106.686 4.60633 104.693 4.70469 102.739 4.77052C99.3452 4.88475 95.973 5.06384 92.9149 5.0995C91.7273 5.14337 90.8866 5.1692 90.0751 5.20622C89.5764 5.22896 89.4344 5.26886 89.3354 5.31174C89.2289 5.35793 91.0495 5.36102 89.2217 5.43767C88.4263 5.47103 86.7885 5.5635 86.8283 5.48153C86.872 5.39062 86.4537 5.35788 85.8976 5.43749C84.2075 5.67991 81.1278 5.58469 78.9544 5.7493C78.2804 5.80035 77.4826 5.68946 76.5281 5.79129C76.2964 5.81604 76.0256 6.02908 75.8534 6.05525C75.3547 6.13117 75.9019 6.31251 76.2858 6.30385C79.1947 6.23835 82.4573 5.84574 85.2781 5.87305C85.4778 5.875 85.8745 5.84079 86.1873 5.82857C89.3568 5.70448 92.4829 5.41598 95.7337 5.50703C95.853 5.51032 96.2826 5.4675 96.5614 5.4593C98.0061 5.41663 99.5789 5.20409 100.896 5.33723C103.214 5.14103 106.209 5.18025 108.536 4.97941C109.492 4.89692 110.019 4.9289 110.371 4.98083L111.581 4.92973ZM100.945 2.40878C100.997 2.37493 100.604 2.28443 100.271 2.17074C99.7254 2.24202 99.8646 2.50756 99.2844 2.56232C98.7537 2.6123 98.7331 2.70711 99.1283 2.81556C99.4834 2.91272 99.8055 2.90754 100.109 2.78635C100.414 2.66516 100.743 2.54437 100.945 2.40878Z" fill="#FFD750"/>
</svg>
