<svg width="177" height="13" viewBox="0 0 177 13" fill="none" xmlns="http://www.w3.org/2000/svg">
<path d="M77.1049 10.9254C76.0048 10.9807 74.9441 10.7047 73.8393 10.9769C73.5793 11.0409 73.092 10.9699 72.9542 10.8726C72.7427 10.7243 72.4073 10.665 71.9032 10.8078C70.9436 11.0794 70.0096 11.2967 68.8676 10.9062C68.548 10.797 68.2589 10.8788 67.9195 10.9104C65.765 11.1109 63.5067 11.0677 61.3045 11.1604C60.5056 11.1941 59.7485 11.1985 59.123 11.0523C58.8599 10.9908 58.2675 10.9012 58.1995 10.9172C56.4719 11.3247 54.7004 10.9729 52.9772 11.0241C51.3819 11.0715 49.7571 11.1475 48.2315 11.2791C46.5334 11.4255 44.807 11.3436 43.1667 11.3742C41.5379 11.4045 40.0027 11.4019 38.3659 11.5359C36.8161 11.6629 35.1259 11.664 33.5126 11.7453C31.9853 11.8222 30.4073 11.7935 28.9426 12.029C28.2677 12.1377 27.2162 12.1493 26.3263 12.0208C23.7599 11.6497 21.115 11.7637 18.7486 12.1954C17.3903 12.4429 16.0034 12.3875 14.624 12.4496C12.8081 12.5314 11.0698 12.5147 9.25956 12.3899C7.74422 12.2855 5.71279 12.5515 4.74347 12.0498C4.67946 12.0161 4.28792 12.0083 4.05136 12.013C3.36279 12.0266 2.57926 12.3665 2.11264 12.1197C1.55649 11.8256 1.49112 11.4653 2.07735 11.1137C2.93985 10.5963 2.57217 10.3292 0.693053 10.0026C0.501908 9.96931 0.232657 9.96106 0 9.94116C1.04396 9.65044 -0.0684158 9.26001 1.09386 8.95453C2.11879 8.6851 3.01933 8.50799 4.46981 8.71197C4.93237 8.77705 5.52656 8.74665 5.65631 8.58889C5.77766 8.44125 5.35176 8.36447 4.76733 8.35399C4.28886 8.34548 3.96971 8.17872 3.37862 8.2907C3.00914 8.36063 2.46181 8.32045 2.68695 8.25065C3.59624 7.96773 1.835 7.70474 2.80967 7.46942C4.06553 7.16617 3.98518 6.81465 3.68896 6.48896C3.28287 6.04104 4.39871 5.56968 3.47047 5.13715C3.24273 5.03101 3.34557 4.86876 3.91452 4.80825C5.04411 4.68789 5.55968 4.37162 6.79211 4.28895C7.12139 4.26687 7.25337 4.15842 7.77604 4.19352C10.4024 4.36954 13.0536 4.23837 15.721 4.11238C16.9234 4.05571 17.872 4.44858 19.2735 4.22166C20.6242 4.00295 21.7362 4.3146 23.044 4.27066C24.2945 4.22872 25.5848 4.28641 26.823 4.23222C27.4454 4.20504 27.7213 4.25969 28.1657 4.30464C29.0301 4.39208 30.5202 4.34928 31.2993 4.1848C32.2422 3.9859 33.0478 3.93981 34.1199 4.08336C35.1679 4.22348 36.9031 4.23155 37.7267 4.04655C39.4831 3.65207 41.9039 3.89888 43.6496 3.55711C44.6825 3.77009 46.5819 3.58616 47.0732 3.73593C47.7967 3.95659 48.4076 3.83982 48.8773 3.80283C50.5264 3.67293 52.0497 3.84311 53.6414 3.80454C54.3591 3.787 54.4629 3.92181 54.4916 4.04658C54.5216 4.17754 54.3759 4.28705 53.6922 4.32529C51.5469 4.44487 49.399 4.74646 47.2427 4.49021C46.0664 4.35022 45.9825 4.5244 45.753 4.70797C45.6533 4.78736 45.3125 4.93068 45.8699 4.91789C46.9849 4.89236 47.9932 5.13894 48.8402 5.04652C50.5141 4.86399 52.0891 4.98766 53.6296 4.99625C55.1749 5.00484 56.7292 4.94665 58.2785 4.9858C60.0662 5.03083 61.9224 4.79725 63.7225 4.94946C64.6243 4.5251 66.066 4.82754 67.2339 4.76026C68.5365 4.68529 69.7808 4.5197 71.252 4.62426C72.1631 4.68916 73.272 4.67754 74.2612 4.69328L75.6331 4.51545C75.6331 4.51545 77.5828 4.60556 77.7568 4.54857C77.9303 4.49161 78.6012 4.39564 78.7358 4.28482C78.8709 4.17396 77.8746 3.98518 77.8746 3.98518C76.8241 3.95763 75.8507 3.95701 74.8346 4.07438C73.7063 4.20483 72.6439 4.18698 71.5108 4.04979C69.5814 3.81626 69.5395 3.84259 67.7619 4.08413C66.7877 4.2164 65.7923 4.4327 64.8014 4.10948C64.6513 4.06061 63.949 4.04409 63.749 4.08486C61.6139 4.52035 59.1574 4.1399 56.9738 4.34731C56.0031 4.43945 55.9788 4.23876 55.469 4.15209C55.7445 3.97415 55.8883 3.77697 56.3293 3.62893C56.697 3.50497 57.1878 3.66634 57.6205 3.69147C58.5814 3.74745 59.4157 3.91569 60.4526 3.65415C61.3755 3.42119 62.7197 3.82838 63.9097 3.47496C64.7294 3.2317 66.2333 3.47535 67.4556 3.45338C69.3992 3.41847 71.3383 3.19723 73.3 3.34975C73.4743 3.3634 73.816 3.27961 73.9674 3.29603L75.3111 3.24688C76.3727 3.26524 75.8183 2.71339 77.1835 2.82091C77.8289 2.87188 78.3749 2.63062 78.7841 2.81354C79.0326 2.925 81.2428 3.19137 82.4937 3.18987C83.7465 3.18841 84.4019 3.39494 84.4019 3.39494C85.6683 3.7552 86.8464 3.51898 88.1628 3.38793C88.6867 3.3358 89.4777 3.32228 89.9301 3.45914C90.0378 3.49203 89.9844 3.58992 89.8538 3.63119C89.3907 3.77819 89.0477 4.46969 90.5203 4.4368C92.2255 4.39877 92.9772 4.53571 94.2356 4.32329C95.86 4.04948 97.5639 4.45304 98.9173 4.07734C99.1203 4.0211 99.9294 4.05807 100.393 4.09397C101.81 4.20364 103.184 4.19414 104.508 3.98191C105.605 3.80602 106.951 3.76874 107.933 3.83471C110.659 4.01791 113.36 3.8229 116.067 3.78918C116.722 3.78104 117.385 3.76693 118.034 3.73619C118.956 3.69261 120.151 3.97314 120.824 3.51351C120.974 3.41162 122.776 3.42718 123.818 3.39032C124.205 3.3766 124.722 3.33748 124.677 3.25261C124.616 3.13747 124.248 3.03615 124 2.9305C123.737 2.81746 123.412 2.87022 123.101 2.93089C122.712 3.00666 122.232 3.16291 121.961 3.14743C121.002 3.09228 120.458 2.71539 119.547 2.81588C118.992 2.87712 118.305 3.24659 117.659 3.22403C116.613 3.18766 115.584 3.39473 114.651 3.24571C114.389 3.20392 114.262 3.03361 113.862 3.16662C112.895 3.48814 111.901 3.4152 110.86 3.26776C110.41 3.204 109.729 3.11091 109.469 3.20859C108.397 3.61119 106.936 3.48879 105.487 3.54601C104.558 3.58266 103.883 3.75118 103.397 3.45229C103.287 3.38477 102.956 3.38547 102.782 3.46049C101.608 3.96632 99.9986 3.57799 98.6165 3.64644C97.1753 3.7178 97.3056 3.45693 97.2464 3.23835C97.1696 2.95761 97.9809 2.94736 98.79 2.91751C99.4892 2.89167 100.026 2.98337 100.638 3.0093C102.07 3.07003 103.571 3.20071 104.937 2.87185C105.196 2.80939 105.809 2.73075 105.941 2.75544C107.153 2.98342 108.772 2.55773 109.968 2.7708C110.902 2.46054 112.295 2.4857 113.544 2.46726C114.895 2.44731 116.258 2.47706 117.592 2.51527C118.489 2.5408 119.001 2.37995 119.67 2.2998C120.868 2.15625 122.051 1.94405 123.058 2.30696C123.516 2.47164 123.876 2.3117 124.301 2.28613C126.756 2.14154 129.2 2.17555 131.691 2.02897C132.536 1.9753 133.771 2.13262 133.794 2.10505C134.357 1.45378 136.375 2.04041 137.638 1.78696C138.467 1.62072 140.234 1.64751 141.442 1.45512C141.8 1.39821 142.144 1.39025 142.527 1.43684C144.497 1.67503 146.204 1.71773 147.391 1.42856C148.155 1.24253 148.366 1.28686 148.742 1.3923C149.619 1.63836 150.589 1.21368 151.56 1.40231C152.582 1.60085 153.142 1.30725 153.791 1.16235C154.467 1.01172 155.184 1.02687 155.993 1.05745C156.918 1.09245 158.197 1.17335 158.782 1.06225C160.1 0.812228 161.165 0.616338 162.979 0.670783C164.383 0.712908 165.948 0.585652 167.416 0.499613C169.015 0.405921 169.564 0.556419 169.524 0.919486C169.518 0.988639 169.858 1.05434 170.039 1.12158C170.161 1.03372 170.329 0.946955 170.391 0.857569C170.455 0.764034 170.339 0.663987 170.441 0.573772C170.605 0.42701 171.678 0.392692 171.678 0.392692C171.678 0.392692 174.083 0.313501 174.242 0.356585C175.166 0.606844 174.962 1.35368 174.646 1.89902C175.27 2.2273 175.94 2.5505 176.507 2.88514C177.084 3.22525 176.67 3.42754 175.294 3.50946C174.783 3.53986 175.735 3.60434 175.654 4.11511C175.597 4.47353 174.419 4.825 175.668 4.66859C176.017 4.62481 176.229 5.26407 176.59 5.77717C176.677 5.9016 176.721 6.11059 176.005 6.14026C175.174 6.17473 175.913 6.37763 175.381 6.54392C174.8 6.72531 175.444 6.857 175.444 6.857C175.869 6.87884 175.026 7.00701 175.259 7.10913C175.423 7.18062 175.389 7.29791 175.286 7.38642C175.162 7.49365 174.64 7.53318 174.331 7.49391C173.011 7.3259 171.918 7.35404 170.878 7.67356C170.115 7.90748 168.761 7.95941 168.027 7.83656C166.895 7.64695 165.794 8.02472 164.801 7.81464C164.615 7.77534 163.909 7.81262 163.829 7.91993C163.538 8.30548 162.181 8.29965 161.39 8.23068C159.454 8.06194 157.531 8.19042 155.598 8.22014C154.435 8.23796 153.206 8.15548 152.209 8.17888C149.822 8.23493 147.226 8.10293 145.102 8.35062C143.468 8.54103 141.953 8.32924 140.419 8.57203C139.02 8.79391 137.015 8.59198 135.599 8.92345C133.39 8.68165 131.138 9.31889 128.932 9.01024C126.266 9.33902 123.593 9.37232 120.9 9.1561C120.686 9.13903 120.336 9.15656 120.138 9.19005C119.371 9.31972 118.573 9.51517 117.694 9.34719C116.945 9.2038 117.384 8.93414 117.19 8.72689C117.139 8.67127 117.011 8.57974 116.883 8.57787C116.399 8.57123 116.369 8.663 116.382 8.7543L116.412 9.22816C116.409 9.38221 116.018 9.45297 115.433 9.47489C115.171 9.48467 114.91 9.49655 114.648 9.49974C112.073 9.53193 109.463 9.75028 106.936 9.53675C104.678 9.91538 102.116 9.78372 99.7006 9.8965C98.9269 9.93268 98.1923 9.90469 97.411 9.85896C95.5085 9.74743 83.9104 9.77311 82.1655 9.99701L77.1049 10.9254ZM5.29586 11.0847C5.22614 11.0145 4.75294 10.9231 4.46554 10.928C3.7288 10.9406 4.00427 11.0977 3.94338 11.1889C3.95488 11.2989 4.11333 11.3967 4.53178 11.3658C5.03015 11.3291 5.41945 11.2092 5.29586 11.0847ZM31.3356 5.29898C30.8973 5.19821 30.3769 5.11783 29.9937 5.04782C29.37 5.12436 28.8884 5.17471 28.4501 5.24262C28.3177 5.26303 28.195 5.35182 28.2634 5.37605C28.6019 5.49625 30.9988 5.59012 31.4676 5.51049C32.052 5.41138 31.5374 5.34557 31.3356 5.29898ZM42.3374 4.67904C41.2141 4.95641 40.5735 4.58053 39.6665 4.62522C38.6357 4.67601 36.4177 4.68353 35.7189 4.63285C35.5264 4.61892 35.375 4.57669 35.2042 4.5474C35.0395 4.80407 33.2902 4.8678 33.6318 5.13528C33.864 5.31631 34.8576 5.42424 35.7979 5.34202C36.1925 5.30754 36.4692 5.28189 36.9323 5.3561C38.5192 5.24503 40.1877 5.12815 41.918 5.00709C42.1356 4.99106 42.3264 4.92417 42.4733 4.87193C42.7024 4.79019 42.4946 4.64011 42.3374 4.67904ZM73.6164 8.48968C73.6729 8.46122 73.1856 8.35547 72.8805 8.31303C72.2965 8.23205 72.3005 8.37459 72.2405 8.44563C72.1659 8.5346 72.2144 8.62783 72.2104 8.71949C72.2533 8.80974 72.2599 8.90244 72.35 8.98916C72.4047 9.04191 72.5875 9.08521 72.7137 9.13278C72.8677 9.0974 73.1432 9.06272 73.1564 9.02643C73.2191 8.84364 73.2641 8.66539 73.6164 8.48968ZM44.059 6.97661C42.9912 6.89049 42.6879 7.09995 41.9477 7.16326C41.003 7.24425 41.0428 7.14861 40.8225 7.10449C40.22 6.98429 39.6197 7.06135 39.1628 7.14791C38.3104 7.30907 40.9677 7.51961 37.7944 7.64998C38.0129 7.68386 38.1714 7.73275 38.3294 7.7291C39.6978 7.69763 41.1195 7.68041 42.4151 7.61138C43.4996 7.55359 43.2568 7.40922 43.4423 7.29514C43.6184 7.18653 44.8959 7.04415 44.059 6.97661ZM89.3029 8.33402C89.4261 8.18303 88.9678 8.11727 88.134 8.12492C85.5783 8.14811 82.9488 8.33018 80.4698 8.14713C80.1701 8.12479 79.3751 8.19651 79.105 8.26147C78.167 8.48755 79.5398 8.57172 79.896 8.71853C80.0341 8.77581 80.1445 8.95097 80.7819 8.78753C82.3163 8.39412 84.5596 8.6562 86.2881 8.47121C87.0257 8.35121 87.5307 8.49429 88.1663 8.48838C88.7136 8.4834 89.2168 8.44 89.3029 8.33402ZM78.6114 6.70524C78.9239 6.55207 79.5027 6.35776 79.5027 6.35776C78.0667 6.03881 69.2773 6.47101 67.2751 6.312C67.2354 6.30886 66.1314 6.42476 66.1363 6.47015C66.1694 6.783 63.3651 6.87679 62.3238 7.1022C62.3132 6.94115 62.3613 6.77818 62.2594 6.61997C62.2197 6.55954 61.8413 6.50986 61.6166 6.45529C61.0773 6.50307 60.8463 6.56472 60.9227 6.63232C61.2524 6.92128 60.6014 7.08573 57.8416 6.99116C55.6813 7.25646 53.0726 7.05372 50.7199 7.24847C49.8402 7.3211 48.2828 7.24871 48.4982 7.07995C48.8412 6.81226 46.7639 6.94457 46.0374 6.86084C45.0994 6.99339 45.957 7.05699 46.2042 7.15623C46.4174 7.24183 45.7085 7.37329 45.6357 7.48135C45.5704 7.57512 45.9257 7.65756 46.8902 7.64718C50.734 7.60586 54.618 7.38112 58.4733 7.41679C58.7836 7.41967 59.0422 7.08405 60.2486 7.3522C60.7408 7.46128 61.0308 7.31397 61.1897 7.26469C61.4206 7.19327 61.6511 7.12991 62.3238 7.1022C62.8914 7.23496 63.3129 7.38286 65.2075 7.21014C66.4187 7.09974 67.8052 7.1028 69.1528 7.10724C72.5468 7.11855 72.5574 7.11468 73.0544 6.69585C73.1401 6.62283 73.3073 6.5585 74.0092 6.52854C74.1045 6.66334 74.1028 6.80256 74.3209 6.93186C74.5076 7.04236 75.5237 7.16376 76.1492 7.10423C76.1492 7.10423 78.2989 6.8584 78.6114 6.70524ZM150.703 4.91882C150.451 4.834 151.04 4.57511 149.96 4.63749C149.418 4.66875 148.958 4.80783 148.46 4.8982C149.095 5.02538 149.671 5.17953 150.4 5.26127C150.593 5.28285 150.757 5.05752 150.703 4.91882ZM157.416 4.5776C157.219 4.50639 156.583 4.4154 156.551 4.42368C155.639 4.66068 154.19 4.521 153.295 4.7394C153.14 4.7774 153.148 4.85442 153.082 4.91335L153.301 4.98297C154.397 4.69383 155.712 5.07171 156.805 4.86889C157.162 4.80243 157.836 4.7289 157.416 4.5776ZM142.974 5.25932C142.974 5.25932 143.23 5.01991 143.215 4.94263C143.199 4.86541 141.543 4.90186 141.543 4.90186C141.051 4.93573 139.806 4.95462 139.13 4.95057C136.688 4.93592 134.13 5.03428 131.619 5.10011C127.261 5.21434 122.931 5.39343 119.003 5.42909C117.478 5.47296 116.398 5.49879 115.356 5.53581C114.716 5.55855 114.534 5.59845 114.406 5.64132C114.27 5.68752 116.608 5.69061 114.26 5.76726C113.239 5.80062 111.136 5.89309 111.187 5.81112C111.243 5.72021 110.706 5.68747 109.991 5.76708C107.821 6.0095 103.866 5.91428 101.075 6.07889C100.209 6.12994 99.1848 6.01905 97.9589 6.12088C97.6614 6.14563 97.3136 6.35867 97.0925 6.38484C96.452 6.46076 97.1547 6.6421 97.6477 6.63344C101.383 6.56794 105.573 6.17533 109.196 6.20264C109.452 6.20459 109.962 6.17037 110.364 6.15816C114.434 6.03407 118.448 5.74557 122.623 5.83662C122.776 5.83991 123.328 5.79709 123.686 5.78889C125.541 5.74622 127.561 5.53368 129.253 5.66682C132.23 5.47062 136.075 5.50984 139.065 5.309C140.292 5.22651 140.969 5.25849 141.421 5.31042L142.974 5.25932ZM129.316 2.73837C129.382 2.70452 128.878 2.61402 128.45 2.50033C127.75 2.57161 127.928 2.83715 127.183 2.89191C126.502 2.94189 126.475 3.0367 126.983 3.14515C127.439 3.24231 127.852 3.23713 128.243 3.11594C128.633 2.99475 129.056 2.87396 129.316 2.73837Z" fill="#FFD750"/>
</svg>
