<svg width="71" height="14" viewBox="0 0 71 14" fill="none" xmlns="http://www.w3.org/2000/svg">
<g id="Isolation_Mode" clip-path="url(#clip0_7597_1479)">
<path id="Vector" d="M37.933 3.76347C38.3547 3.48377 38.6294 3.66566 38.6687 3.90125C38.7082 4.13837 38.5138 4.31715 37.991 4.22009C37.8083 4.18622 37.4795 4.41699 37.15 4.41946C36.8796 4.42148 36.6415 4.42331 36.5847 4.20478C36.5314 3.9984 36.7728 3.94253 36.9542 3.81859C37.3168 3.57068 37.616 3.8362 37.933 3.76347Z" fill="#FFD750"/>
<path id="Vector_2" d="M0.201294 11.6071C0.294436 11.5253 0.0499494 11.31 0.407836 11.3476C0.657611 11.3739 0.800459 11.542 0.79413 11.7229C0.789911 11.8485 0.795026 12.0219 0.493753 11.9976C0.156674 11.9704 0.238343 11.7634 0.201294 11.6071Z" fill="#FFD750"/>
<path id="Vector_3" d="M31.0119 12.0167C30.5724 12.0759 30.1485 11.7807 29.707 12.0719C29.6031 12.1403 29.4084 12.0643 29.3534 11.9603C29.2689 11.8018 29.1348 11.7383 28.9334 11.891C28.5499 12.1814 28.1767 12.4139 27.7204 11.9962C27.5927 11.8794 27.4771 11.967 27.3415 12.0008C26.4806 12.2151 25.5782 12.1689 24.6982 12.2681C24.379 12.3042 24.0764 12.3089 23.8265 12.1525C23.7214 12.0867 23.4846 11.9909 23.4575 12.0081C22.7671 12.4438 22.0593 12.0675 21.3707 12.1223C20.7332 12.1731 20.0839 12.2543 19.4743 12.395C18.7958 12.5516 18.1059 12.464 17.4505 12.4967C16.7996 12.5291 16.1861 12.5264 15.5321 12.6697C14.9128 12.8055 14.2374 12.8067 13.5927 12.8936C12.9824 12.9758 12.3519 12.9452 11.7666 13.197C11.4969 13.3132 11.0767 13.3257 10.7211 13.1882C9.69563 12.7914 8.63873 12.9133 7.69312 13.3749C7.15037 13.6397 6.59617 13.5804 6.04498 13.6468C5.31932 13.7342 4.6247 13.7164 3.90136 13.583C3.29584 13.4713 2.48409 13.7558 2.09676 13.2193C2.07118 13.1832 1.91472 13.1748 1.82019 13.1798C1.54504 13.1944 1.23195 13.558 1.04549 13.294C0.82326 12.9795 0.797135 12.5942 1.03139 12.2182C1.37604 11.6648 1.22912 11.3792 0.478234 11.0299C0.401854 10.9943 0.294262 10.9855 0.201294 10.9642C0.618452 10.6533 0.173955 10.2358 0.638393 9.90906C1.04795 9.62093 1.4078 9.43152 1.9874 9.64967C2.17224 9.71927 2.40968 9.68676 2.46152 9.51804C2.51001 9.36015 2.33983 9.27804 2.10629 9.26683C1.9151 9.25773 1.78756 9.07939 1.55137 9.19915C1.40373 9.27393 1.18502 9.23096 1.27498 9.15632C1.63833 8.85376 0.93455 8.5725 1.32402 8.32085C1.82586 7.99654 1.79375 7.62061 1.67538 7.27231C1.51311 6.7933 1.95899 6.28921 1.58807 5.82665C1.49707 5.71314 1.53817 5.53962 1.76551 5.47491C2.21689 5.34619 2.42291 5.00796 2.91538 4.91955C3.04696 4.89595 3.0997 4.77997 3.30855 4.8175C4.35805 5.00574 5.41743 4.86546 6.48332 4.73073C6.9638 4.67012 7.34284 5.09026 7.90287 4.8476C8.44262 4.61369 8.88694 4.94699 9.40955 4.9C9.90925 4.85514 10.4248 4.91684 10.9196 4.85889C11.1683 4.82982 11.2785 4.88826 11.4562 4.93634C11.8015 5.02985 12.397 4.98408 12.7083 4.80818C13.0851 4.59547 13.407 4.54618 13.8354 4.69969C14.2542 4.84954 14.9475 4.85817 15.2767 4.66032C15.9785 4.23846 16.9458 4.5024 17.6434 4.1369C18.0562 4.36467 18.8152 4.16797 19.0115 4.32814C19.3006 4.56412 19.5447 4.43924 19.7324 4.39968C20.3914 4.26076 21.0001 4.44276 21.6361 4.40151C21.9229 4.38276 21.9644 4.52692 21.9758 4.66035C21.9878 4.80041 21.9296 4.91753 21.6564 4.95842C20.7991 5.0863 19.9408 5.40883 19.0792 5.13479C18.6091 4.98507 18.5756 5.17135 18.4839 5.36766C18.4441 5.45257 18.3079 5.60584 18.5307 5.59216C18.9762 5.56487 19.3791 5.82856 19.7176 5.72972C20.3864 5.53452 21.0158 5.66678 21.6314 5.67596C22.2489 5.68515 22.8699 5.62292 23.489 5.66478C24.2034 5.71294 24.9451 5.46314 25.6644 5.62592C26.0248 5.1721 26.6009 5.49554 27.0676 5.42359C27.5881 5.34342 28.0853 5.16633 28.6732 5.27815C29.0373 5.34755 29.4803 5.33512 29.8756 5.35196L30.4238 5.16178C30.4238 5.16178 31.2029 5.25815 31.2724 5.1972C31.3418 5.13629 31.6099 5.03365 31.6637 4.91514C31.7177 4.79658 31.3195 4.59469 31.3195 4.59469C30.8997 4.56523 30.5108 4.56457 30.1048 4.69009C29.6539 4.82959 29.2294 4.81051 28.7766 4.66379C28.0056 4.41405 27.9889 4.44221 27.2786 4.70052C26.8893 4.84197 26.4915 5.07329 26.0955 4.72762C26.0356 4.67536 25.7549 4.65769 25.675 4.7013C24.8218 5.16702 23.8403 4.76016 22.9677 4.98197C22.5798 5.0805 22.5701 4.86588 22.3664 4.7732C22.4764 4.5829 22.5339 4.37202 22.7102 4.21371C22.8571 4.08114 23.0532 4.25371 23.2261 4.28059C23.6101 4.34046 23.9435 4.52038 24.3578 4.24068C24.7266 3.99155 25.2637 4.42701 25.7392 4.04905C26.0668 3.78891 26.6677 4.04947 27.1562 4.02597C27.9328 3.98863 28.7077 3.75204 29.4915 3.91515C29.5612 3.92974 29.6977 3.84014 29.7582 3.8577L30.2952 3.80513C30.7194 3.82477 30.4978 3.23461 31.0434 3.34959C31.3012 3.4041 31.5194 3.14609 31.6829 3.34171C31.7822 3.46091 32.6654 3.74577 33.1653 3.74416C33.6659 3.74261 33.9278 3.96347 33.9278 3.96347C34.4338 4.34875 34.9046 4.09612 35.4306 3.95598C35.64 3.90023 35.9561 3.88577 36.1368 4.03213C36.1799 4.0673 36.1585 4.17199 36.1063 4.21613C35.9213 4.37333 35.7842 5.11284 36.3727 5.07767C37.054 5.037 37.3544 5.18344 37.8573 4.95628C38.5064 4.66346 39.1873 5.09504 39.728 4.69325C39.8092 4.63311 40.1325 4.67264 40.3177 4.71103C40.8841 4.82832 41.4332 4.81816 41.9621 4.5912C42.4003 4.40309 42.9384 4.36323 43.3306 4.43377C44.4201 4.6297 45.4992 4.42115 46.5808 4.38509C46.8429 4.37638 47.1077 4.36129 47.3669 4.32842C47.7352 4.28181 48.2129 4.58182 48.4817 4.09027C48.5417 3.98131 49.262 3.99795 49.6781 3.95853C49.8328 3.94386 50.0395 3.90203 50.0214 3.81126C49.997 3.68813 49.8499 3.57978 49.7511 3.46679C49.646 3.3459 49.5162 3.40232 49.3918 3.46721C49.2363 3.54823 49.0447 3.71534 48.936 3.69878C48.5529 3.6398 48.3356 3.23674 47.9717 3.34421C47.7497 3.4097 47.4754 3.80483 47.217 3.78069C46.7993 3.7418 46.3878 3.96325 46.0151 3.80389C45.9105 3.7592 45.8595 3.57706 45.6997 3.71931C45.3136 4.06314 44.9162 3.98514 44.5005 3.82746C44.3204 3.75928 44.0482 3.65972 43.9443 3.76419C43.5159 4.19474 42.9322 4.06384 42.3532 4.12503C41.9822 4.16423 41.7125 4.34445 41.518 4.02481C41.4742 3.9526 41.3418 3.95335 41.2724 4.03357C40.8033 4.57453 40.1601 4.15923 39.6079 4.23244C39.032 4.30875 39.084 4.02977 39.0604 3.79601C39.0297 3.49578 39.3539 3.48482 39.6772 3.45289C39.9566 3.42526 40.1711 3.52332 40.4156 3.55106C40.9879 3.616 41.5878 3.75576 42.1334 3.40407C42.2369 3.33727 42.4819 3.25317 42.5348 3.27957C43.0192 3.52338 43.6658 3.06814 44.144 3.296C44.5171 2.9642 45.0736 2.99111 45.5727 2.97138C46.1126 2.95005 46.6571 2.98187 47.1903 3.02273C47.5487 3.05003 47.7534 2.87801 48.0208 2.7923C48.4995 2.63878 48.9723 2.41184 49.3745 2.79995C49.5574 2.97607 49.7015 2.80503 49.8714 2.77768C50.8523 2.62306 51.8288 2.65942 52.8241 2.50266C53.162 2.44527 53.6554 2.61351 53.6646 2.58403C53.8895 1.88753 54.6959 2.5149 55.2007 2.24385C55.5318 2.06607 56.2381 2.09472 56.7206 1.88898C56.8637 1.82811 57.0011 1.8196 57.1544 1.86942C57.9414 2.12415 58.6235 2.16981 59.098 1.86057C59.403 1.66162 59.4877 1.70903 59.6378 1.82179C59.9881 2.08493 60.3759 1.63077 60.7638 1.8325C61.1722 2.04482 61.396 1.73083 61.6554 1.57588C61.9255 1.41479 62.2117 1.43099 62.5351 1.4637C62.9049 1.50112 63.4158 1.58764 63.6498 1.46883C64.1762 1.20144 64.602 0.991953 65.3265 1.05018C65.8876 1.09523 66.5131 0.959137 67.0998 0.867124C67.7388 0.766927 67.9581 0.927874 67.9422 1.31615C67.9395 1.3901 68.0755 1.46037 68.1478 1.53227C68.1965 1.43831 68.2637 1.34552 68.2884 1.24993C68.3142 1.1499 68.2678 1.04291 68.3084 0.946432C68.374 0.78948 68.8028 0.75278 68.8028 0.75278C68.8028 0.75278 69.7637 0.66809 69.8274 0.714166C70.1964 0.9818 70.1151 1.78049 69.9888 2.36369C70.2382 2.71476 70.506 3.0604 70.7324 3.41827C70.9631 3.782 70.7975 3.99834 70.2479 4.08594C70.0436 4.11845 70.4241 4.18742 70.3917 4.73364C70.3687 5.11695 69.8983 5.49283 70.3973 5.32555C70.5366 5.27873 70.6215 5.96238 70.7656 6.5111C70.8005 6.64417 70.8178 6.86767 70.532 6.8994C70.1999 6.93627 70.4952 7.15325 70.2825 7.33109C70.0504 7.52507 70.3075 7.66591 70.3075 7.66591C70.4774 7.68927 70.1405 7.82633 70.2338 7.93554C70.2992 8.01199 70.2857 8.13743 70.2444 8.23208C70.1948 8.34676 69.9865 8.38903 69.863 8.34703C69.3354 8.16736 68.8989 8.19746 68.483 8.53916C68.1782 8.78932 67.6371 8.84485 67.3437 8.71348C66.8915 8.5107 66.4515 8.9147 66.0547 8.69004C65.9804 8.64801 65.6982 8.68787 65.6663 8.80263C65.55 9.21496 65.008 9.20872 64.6919 9.13496C63.9183 8.95451 63.1496 9.0919 62.3772 9.12369C61.9124 9.14275 61.4214 9.05454 61.0233 9.07956C60.0692 9.13951 59.032 8.99834 58.1831 9.26322C57.5305 9.46686 56.9248 9.24037 56.312 9.50001C55.7528 9.7373 54.9515 9.52134 54.386 9.87583C53.5032 9.61724 52.6031 10.2987 51.7217 9.96865C50.6563 10.3203 49.5883 10.3559 48.5122 10.1246C48.4268 10.1064 48.2869 10.1251 48.2076 10.1609C47.9012 10.2996 47.5823 10.5086 47.2313 10.329C46.9317 10.1756 47.1071 9.88726 47.0298 9.66562C47.0094 9.60614 46.9584 9.50825 46.9069 9.50625C46.7136 9.49915 46.7018 9.5973 46.7069 9.69494L46.7187 10.2017C46.7175 10.3664 46.5616 10.4421 46.3277 10.4656C46.2229 10.476 46.1185 10.4887 46.0139 10.4921C44.9852 10.5266 43.9422 10.7601 42.9322 10.5317C42.0298 10.9366 41.0063 10.7958 40.0411 10.9164C39.7319 10.9551 39.4384 10.9252 39.1262 10.8763C38.3659 10.757 33.7314 10.7845 33.0342 11.0239L31.0119 12.0167ZM2.31749 12.1871C2.28963 12.1121 2.10054 12.0143 1.9857 12.0196C1.6913 12.033 1.80138 12.201 1.77705 12.2985C1.78164 12.4162 1.84496 12.5208 2.01217 12.4878C2.21131 12.4485 2.36688 12.3203 2.31749 12.1871ZM12.7228 5.99972C12.5477 5.89195 12.3397 5.80598 12.1866 5.73111C11.9374 5.81297 11.7449 5.86681 11.5698 5.93944C11.5169 5.96127 11.4678 6.05622 11.4952 6.08213C11.6304 6.21068 12.5882 6.31107 12.7755 6.22591C13.0091 6.11991 12.8034 6.04954 12.7228 5.99972ZM17.1191 5.33673C16.6702 5.63336 16.4142 5.23138 16.0518 5.27917C15.6399 5.33349 14.7536 5.34153 14.4743 5.28733C14.3974 5.27243 14.3369 5.22727 14.2687 5.19595C14.2029 5.47044 13.5039 5.5386 13.6404 5.82465C13.7331 6.01825 14.1302 6.13367 14.5059 6.04574C14.6636 6.00887 14.7742 5.98143 14.9592 6.0608C15.5933 5.94202 16.2601 5.81702 16.9515 5.68756C17.0385 5.67042 17.1147 5.59888 17.1734 5.54301C17.2649 5.4556 17.1819 5.2951 17.1191 5.33673ZM29.618 9.41194C29.6405 9.38151 29.4458 9.26841 29.3239 9.22303C29.0906 9.13643 29.0921 9.28886 29.0682 9.36484C29.0384 9.45998 29.0578 9.55968 29.0562 9.65771C29.0733 9.75422 29.0759 9.85336 29.1119 9.9461C29.1338 10.0025 29.2068 10.0488 29.2572 10.0997C29.3188 10.0619 29.4289 10.0248 29.4342 9.98596C29.4592 9.79048 29.4772 9.59985 29.618 9.41194ZM17.807 7.79382C17.3803 7.70172 17.2591 7.92572 16.9633 7.99343C16.5859 8.08004 16.6018 7.97776 16.5137 7.93057C16.273 7.80203 16.0331 7.88444 15.8505 7.97701C15.5099 8.14936 16.5718 8.37452 15.3037 8.51394C15.391 8.55017 15.4543 8.60246 15.5175 8.59855C16.0643 8.5649 16.6324 8.54648 17.1501 8.47267C17.5835 8.41086 17.4865 8.25646 17.5606 8.13446C17.6309 8.01832 18.1414 7.86605 17.807 7.79382ZM35.8862 9.24547C35.9354 9.084 35.7523 9.01368 35.4191 9.02186C34.3979 9.04666 33.3471 9.24137 32.3566 9.04561C32.2368 9.02172 31.9191 9.09842 31.8112 9.16788C31.4363 9.40966 31.9849 9.49968 32.1273 9.65669C32.1825 9.71794 32.2266 9.90526 32.4813 9.73047C33.0944 9.30974 33.9908 9.59003 34.6815 9.39219C34.9763 9.26386 35.178 9.41688 35.432 9.41055C35.6507 9.40522 35.8518 9.35882 35.8862 9.24547ZM31.614 7.5036C31.7388 7.3398 31.9701 7.132 31.9701 7.132C31.3963 6.79091 27.8841 7.25311 27.084 7.08307C27.0682 7.07971 26.627 7.20365 26.629 7.2522C26.6422 7.58677 25.5216 7.68707 25.1055 7.92813C25.1013 7.7559 25.1205 7.58161 25.0798 7.41242C25.0639 7.34779 24.9127 7.29467 24.8229 7.2363C24.6074 7.2874 24.5151 7.35334 24.5457 7.42563C24.6774 7.73465 24.4173 7.91052 23.3145 7.80938C22.4512 8.0931 21.4088 7.87629 20.4687 8.08456C20.1171 8.16223 19.4948 8.08481 19.5809 7.90433C19.7179 7.61806 18.8879 7.75956 18.5976 7.67001C18.2227 7.81177 18.5654 7.87978 18.6642 7.98592C18.7494 8.07746 18.4662 8.21804 18.437 8.33361C18.411 8.43389 18.5529 8.52204 18.9383 8.51095C20.4743 8.46676 22.0263 8.22642 23.5669 8.26456C23.6909 8.26764 23.7942 7.90872 24.2763 8.19549C24.4729 8.31214 24.5888 8.1546 24.6523 8.1019C24.7446 8.02553 24.8367 7.95776 25.1055 7.92813C25.3323 8.07011 25.5008 8.22828 26.2578 8.04356C26.7418 7.9255 27.2958 7.92877 27.8343 7.93352C29.1906 7.94561 29.1948 7.94148 29.3934 7.49356C29.4276 7.41547 29.4945 7.34668 29.7749 7.31464C29.813 7.4588 29.8123 7.60768 29.8995 7.74597C29.9741 7.86414 30.3801 7.99396 30.6301 7.9303C30.6301 7.9303 31.4891 7.66741 31.614 7.5036ZM60.4215 5.59316C60.3208 5.50245 60.5561 5.22558 60.1243 5.29229C59.9077 5.32572 59.7241 5.47446 59.5251 5.57111C59.7788 5.70712 60.0091 5.87197 60.3002 5.95938C60.3772 5.98246 60.4429 5.74149 60.4215 5.59316ZM63.1038 5.22824C63.025 5.1521 62.7711 5.05479 62.7583 5.06363C62.3938 5.31709 61.8146 5.16771 61.457 5.40128C61.3953 5.44192 61.3983 5.52428 61.3718 5.58731L61.4593 5.66176C61.8975 5.35254 62.4229 5.75666 62.8597 5.53976C63.0024 5.46869 63.2717 5.39005 63.1038 5.22824ZM57.333 5.9573C57.333 5.9573 57.4353 5.70126 57.4291 5.61863C57.4229 5.53604 56.7611 5.57502 56.7611 5.57502C56.5642 5.61125 56.067 5.63144 55.797 5.62711C54.8212 5.61144 53.7987 5.71663 52.7956 5.78703C51.0541 5.9092 49.3236 6.10072 47.7543 6.13886C47.1449 6.18577 46.7134 6.2134 46.297 6.25298C46.0411 6.27731 45.9682 6.31997 45.9174 6.36583C45.8627 6.41523 46.7971 6.41853 45.859 6.5005C45.4509 6.53618 44.6104 6.63507 44.6309 6.54741C44.6533 6.45018 44.4386 6.41518 44.1532 6.50031C43.2859 6.75957 41.7055 6.65773 40.5902 6.83377C40.2443 6.88836 39.8349 6.76977 39.3451 6.87868C39.2262 6.90514 39.0872 7.13297 38.9989 7.16096C38.7429 7.24216 39.0237 7.43609 39.2208 7.42682C40.7135 7.35678 42.3878 6.93691 43.8354 6.96612C43.9378 6.9682 44.1414 6.93161 44.3019 6.91854C45.9284 6.78583 47.5326 6.47731 49.2009 6.57468C49.2621 6.5782 49.4825 6.5324 49.6256 6.52364C50.3669 6.47801 51.1741 6.25071 51.85 6.39309C53.0397 6.18327 54.5762 6.22521 55.7707 6.01042C56.261 5.92221 56.5316 5.95641 56.7124 6.01195L57.333 5.9573ZM51.8752 3.26132C51.9017 3.22512 51.7002 3.12834 51.5292 3.00675C51.2492 3.08298 51.3207 3.36695 51.0229 3.42551C50.7506 3.47897 50.74 3.58036 50.9429 3.69634C51.1251 3.80025 51.2903 3.7947 51.4463 3.6651C51.6024 3.5355 51.7713 3.40632 51.8752 3.26132Z" fill="#FFD750"/>
</g>
<defs>
<clipPath id="clip0_7597_1479">
<rect width="71" height="13" fill="white" transform="translate(0 0.700684)"/>
</clipPath>
</defs>
</svg>
