<svg width="56" height="33" viewBox="0 0 56 33" fill="none" xmlns="http://www.w3.org/2000/svg">
<path fill-rule="evenodd" clip-rule="evenodd" d="M24.9642 4.42774C26.3 3.85821 26.9305 4.24534 27.746 4.74599C28.0935 4.95934 28.4745 5.1933 28.9581 5.38263C29.6793 5.67136 30.5524 5.60352 31.0271 5.50903C31.4254 5.43249 31.4271 5.82789 31.2029 5.90442C30.1178 6.26907 29.0106 6.82856 28.356 7.31441C26.7903 8.35334 25.8852 10.1947 25.8852 12.5856C25.8852 16.3026 28.195 18.7376 31.7427 18.7376C35.3771 18.7376 37.6861 16.3025 37.6861 12.4975C37.6861 10.3105 36.9853 8.67792 35.5809 7.65114C34.7669 7.05514 34.0252 6.79888 33.2678 6.887C32.3487 6.9954 32.2272 7.68706 32.9402 7.94969C34.4135 8.51146 35.001 10.1041 35.001 12.5675C35.001 15.5559 33.7647 17.457 31.795 17.457C29.7704 17.457 28.5726 15.6261 28.5726 12.6032C28.5726 10.6537 28.853 9.11905 30.2393 7.76936C30.8648 7.16116 31.4713 6.86611 32.0645 6.57754C32.7878 6.22572 33.4912 5.88352 34.1852 4.99521C34.7201 4.30938 34.7143 3.71976 34.3061 3.60554C34.0553 3.53435 33.864 3.72605 33.6557 3.93471C33.5468 4.04389 33.4332 4.15772 33.304 4.24096C31.938 5.12564 30.3946 4.30126 29.5665 3.37883C28.7239 2.4402 27.629 2.47614 26.9825 2.61471C26.7033 2.67674 26.548 2.45585 26.8528 2.2251C27.5501 1.69808 28.9785 1.6639 29.8574 2.45585C30.609 3.13188 31.6152 3.66932 32.3609 3.52902C32.8029 3.44497 32.8432 2.93942 32.3363 2.76085C31.6979 2.53515 31.3761 2.08589 31.0358 1.61058C30.6234 1.03469 30.1836 0.420552 29.1198 0.119452C26.8307 -0.532759 24.7599 1.60133 24.1864 3.71575C24.0206 4.32566 24.3902 4.6724 24.9642 4.42774ZM6.35003 18.4934C6.21514 18.5937 5.99031 18.6795 5.76606 18.6795C5.26908 18.6795 5.02502 18.4748 4.78849 17.8289L1.42247 8.8709L1.42246 8.87053C1.16609 8.17073 1.08492 8.08669 0.535373 7.96841C0.169806 7.90174 0.0565186 7.78347 0.0565186 7.50867C0.0565186 7.21994 0.238715 7.06746 0.632315 7.06746H4.17408C4.56418 7.06746 4.7376 7.21994 4.7376 7.52664C4.7376 7.81362 4.56416 7.93015 4.11975 7.96841C3.74192 8.00204 3.58834 8.12263 3.58834 8.39338C3.58834 8.50992 3.60235 8.63225 3.65082 8.77255L3.7863 9.16157C3.7863 9.16157 5.67954 14.4852 5.97853 15.3414C6.02876 15.4782 6.18468 15.4718 6.23724 15.3194C6.5701 14.3709 7.47526 11.7614 7.50796 11.6552C7.60082 11.3543 7.64111 11.0372 7.53188 10.69C7.4939 10.5676 6.91404 8.87067 6.91404 8.87067C6.89359 8.8125 6.87575 8.75912 6.85971 8.71109L6.85968 8.71102L6.85966 8.71095L6.85965 8.71092L6.85964 8.71089C6.82486 8.60681 6.7985 8.52789 6.77213 8.47991C6.6711 8.23119 6.53212 8.14075 6.13621 8.03639C5.78232 7.95 5.64684 7.83405 5.64684 7.58127C5.64684 7.25429 5.84481 7.06761 6.24483 7.06761H9.61085C10.0009 7.06761 10.1907 7.22009 10.1907 7.52677C10.1907 7.79753 10.0173 7.93029 9.63533 7.98421C9.17866 8.03639 9.05547 8.14075 9.05547 8.4457C9.05547 8.59992 9.0899 8.7524 9.23124 9.16173C9.23124 9.16173 10.8921 14.3791 11.1549 15.1996C11.2051 15.3538 11.3528 15.3196 11.3949 15.1834C11.6536 14.3491 13.2963 8.87093 13.2963 8.87093C13.3448 8.70048 13.3629 8.56423 13.3629 8.46219C13.3629 8.2071 13.1789 8.07085 12.7625 8.01868C12.3847 7.98445 12.2113 7.81402 12.2113 7.54327C12.2113 7.20237 12.4075 7.06786 12.8635 7.06786L18.8079 7.06786C19.3738 7.06786 19.5612 7.18208 19.5612 7.55542C19.5612 7.83429 19.3738 8.03662 19.1373 8.03662H18.8079C18.6666 8.03662 18.5329 8.14098 18.4803 8.25346C18.4482 8.37984 18.4342 8.49811 18.4342 8.92311V11.1198C18.4342 11.906 18.5025 11.9721 19.1373 11.9721H21.4667C21.8078 11.9721 21.9841 11.9181 22.0706 11.8196C22.1494 11.7152 22.1494 11.6491 22.1494 11.0172V8.92308C22.1494 8.48014 22.1494 8.37986 22.1074 8.25343C22.0466 8.12299 21.9111 8.0366 21.7938 8.0366H21.4667C21.208 8.0366 21.0001 7.83426 21.0001 7.5554C21.0001 7.18203 21.208 7.06784 21.7938 7.06784H24.9116C25.4951 7.06784 25.7035 7.18205 25.7035 7.5554C25.7035 7.83426 25.495 8.0366 25.2609 8.0366H24.9116C24.7943 8.0366 24.657 8.14096 24.6202 8.25343C24.5718 8.37982 24.5601 8.49809 24.5601 8.92308V16.5695C24.5601 17.0124 24.5718 17.1127 24.6202 17.2513C24.6571 17.3695 24.7943 17.4542 24.9116 17.4542H25.2609C25.5155 17.4542 25.7035 17.6768 25.7035 17.929C25.7035 18.3065 25.5155 18.423 24.9116 18.423H21.7938C21.208 18.423 21.0224 18.3065 21.0224 17.929C21.0224 17.6768 21.2303 17.4542 21.4668 17.4542H21.7938C21.9112 17.4542 22.0467 17.3695 22.1074 17.2513C22.1494 17.1127 22.1494 17.0124 22.1494 16.5695V16.5695V14.084C22.1494 13.4521 22.1494 13.386 22.0706 13.2839C21.9842 13.1836 21.8078 13.1291 21.4668 13.1291H19.1373C18.5025 13.1291 18.4342 13.1958 18.4342 13.982V16.5695C18.4342 17.0124 18.4483 17.1127 18.4803 17.2513C18.5329 17.3696 18.6666 17.4542 18.808 17.4542H19.1373C19.3738 17.4542 19.5496 17.6768 19.5496 17.9493C19.5496 18.3065 19.3534 18.423 18.808 18.423H15.6825C15.1067 18.423 14.8982 18.3064 14.8982 17.929C14.8982 17.6768 15.1067 17.4542 15.3426 17.4542H15.6825C15.8034 17.4542 15.9447 17.3695 15.9774 17.2512C16.03 17.1127 16.03 17.0246 16.03 16.5694V8.92305C16.03 8.05457 15.6194 7.99659 15.3187 8.03662C15.0156 8.07896 14.8381 8.26968 14.6518 8.87092L11.9182 17.6086C11.6718 18.4412 11.4394 18.6795 10.9267 18.6795C10.4151 18.6795 10.1546 18.4592 9.94848 17.829L8.48971 13.4987C8.44124 13.3602 8.29583 13.3561 8.25554 13.4889C8.217 13.6228 6.6975 17.829 6.6975 17.829L6.66948 17.8981C6.52687 18.2506 6.48137 18.363 6.35003 18.4934ZM54.6385 16.3397C54.7535 16.1171 54.9352 16.0191 55.1027 16.0191C55.414 16.0191 55.5676 16.2539 55.4765 16.6911L55.212 18.0129L55.2123 18.0127C55.1439 18.3252 54.9477 18.44 54.602 18.44L54.1641 18.4418H47.4376C46.8601 18.4418 46.6639 18.3276 46.6639 17.9484C46.6639 17.698 46.8601 17.491 47.0902 17.491H47.4376C47.5568 17.491 47.6765 17.3866 47.7127 17.2724C47.7653 17.1339 47.7793 17.0498 47.7793 16.5906V8.97672C47.7793 8.53551 47.7653 8.44681 47.7127 8.30883C47.6765 8.15809 47.5387 8.05606 47.4376 8.05606H47.0902C46.8601 8.05606 46.6499 7.83343 46.6499 7.58065C46.6499 7.20322 46.8601 7.08089 47.4376 7.08089L54.2846 7.08089C54.6303 7.08089 54.8242 7.19569 54.8948 7.50818L55.1372 8.69205C55.23 9.1292 55.0747 9.36402 54.7617 9.36402C54.5958 9.36402 54.4364 9.32168 54.3208 9.09907C54.3009 9.06489 54.2302 8.94079 54.1514 8.73208C53.9838 8.29436 53.6381 8.24044 52.8398 8.24044H51.2239C50.2884 8.24044 50.1833 8.36277 50.1833 9.26722V11.2894C50.1833 11.6703 50.2376 11.8367 50.341 11.9051C50.4198 11.9591 50.5471 11.9712 51.0382 11.9712H51.8359C52.5554 11.9712 52.6582 11.9191 52.7107 11.5782L52.723 11.4738C52.7756 11.1851 52.9292 11.0488 53.1879 11.0488C53.547 11.0488 53.6667 11.2512 53.6667 11.8489V13.2792C53.6667 13.8746 53.547 14.0793 53.1879 14.0793C52.9292 14.0793 52.7756 13.9251 52.723 13.6363L52.7049 13.5239C52.6541 13.183 52.5513 13.1325 51.8301 13.1325H51.0383C50.5472 13.1325 50.4198 13.1447 50.341 13.1986C50.2376 13.267 50.1833 13.4317 50.1833 13.8149V15.9728C50.1833 16.8738 50.2376 17.0639 50.5086 17.1683C50.7288 17.2506 50.967 17.2866 51.5288 17.2866L53.234 17.2824C53.846 17.2824 54.2787 17.0922 54.4907 16.651C54.5394 16.5503 54.5713 16.4808 54.5936 16.4323L54.5936 16.4323C54.6157 16.3842 54.6283 16.3567 54.6385 16.3397ZM50.7736 24.8064C52.1273 25.7427 52.5717 26.0842 53.1235 26.6436C53.7034 27.2391 54.0509 28.0895 54.0509 28.9644C54.0509 30.9321 52.5717 32.232 50.307 32.232L50.307 32.2319C49.6746 32.2319 48.996 32.1432 48.5066 31.9907C48.4406 31.973 48.3903 31.9587 48.3501 31.9474C48.2402 31.9163 48.2062 31.9066 48.1352 31.9066C47.9898 31.9066 47.9168 31.9409 47.7696 32.0753C47.6079 32.1977 47.5232 32.2319 47.3714 32.2319C47.0846 32.2319 46.9433 32.0753 46.8423 31.6678L46.4096 29.965C46.3774 29.863 46.3652 29.7082 46.3652 29.6241C46.3652 29.3215 46.6017 29.0925 46.9066 29.0925C47.0847 29.0925 47.2318 29.183 47.3369 29.3215L47.5834 29.6584C48.1773 30.4909 49.1373 31.0063 50.1173 31.0063C51.2303 31.0063 51.9901 30.3883 51.9901 29.4879C51.9901 29.0264 51.798 28.6194 51.4324 28.2101C51.061 27.8031 50.6003 27.428 49.6139 26.7479L49.5541 26.7063C47.9861 25.6159 47.8315 25.5084 47.3049 24.9066C46.8728 24.4092 46.652 23.7992 46.652 23.1192C46.652 21.4686 47.9169 20.3775 49.806 20.3775C50.2907 20.3775 50.7859 20.4233 51.2852 20.53C51.3372 20.548 51.4768 20.5798 51.7191 20.6343L51.7239 20.6353L51.724 20.6353L51.724 20.6353L51.7241 20.6353C51.8017 20.6507 51.8887 20.6679 51.9539 20.6679C52.0672 20.6679 52.198 20.6123 52.3475 20.5137C52.5174 20.3914 52.5717 20.3775 52.7095 20.3775C52.9618 20.3775 53.1236 20.5479 53.1925 20.8529L53.6024 22.6942C53.6328 22.7742 53.6328 22.8768 53.6328 22.9308C53.6328 23.1534 53.4325 23.3378 53.1399 23.3378C52.956 23.3378 52.8427 23.2699 52.685 23.0514C52.299 22.4716 52.2266 22.4049 51.8686 22.1307C51.4084 21.7736 50.818 21.5828 50.2569 21.5828C49.4644 21.5828 48.9517 22.0304 48.9517 22.7285C48.9517 22.9789 48.996 23.2375 49.1374 23.4259C49.3108 23.6828 49.5858 23.9518 49.9251 24.2086L50.0774 24.3168C50.2637 24.4493 50.4902 24.6104 50.7736 24.8064ZM7.22291 26.7281C7.30172 26.6742 7.42674 26.662 7.92018 26.662H9.33222C10.0534 26.662 10.1562 26.7141 10.207 27.055L10.2252 27.1675C10.2777 27.4562 10.4313 27.6105 10.6877 27.6105C11.0497 27.6105 11.1689 27.4064 11.1689 26.8104V25.3784C11.1689 24.7824 11.0497 24.5777 10.6877 24.5777C10.4313 24.5777 10.2777 24.7146 10.2252 25.0033L10.2129 25.1094C10.1603 25.4503 10.0575 25.5025 9.33808 25.5025H7.9202C7.42674 25.5025 7.30177 25.4909 7.22293 25.4364C7.11782 25.3662 7.06351 25.2016 7.06351 24.8207V22.7967C7.06351 21.894 7.16862 21.7699 8.10588 21.7699H10.3081C11.1057 21.7699 11.4515 21.8262 11.6191 22.2633C11.7002 22.4697 11.7685 22.5961 11.789 22.6286C11.904 22.8512 12.0635 22.8952 12.2311 22.8952C12.5423 22.8952 12.6982 22.6581 12.6054 22.2233L12.3625 21.0394C12.2942 20.7269 12.0979 20.6127 11.7528 20.6127H4.31764C3.73954 20.6127 3.52989 20.735 3.52989 21.1101C3.52989 21.3647 3.73954 21.585 3.9702 21.585H4.31767C4.4187 21.585 4.55593 21.6893 4.59214 21.8401C4.64703 21.9763 4.66104 22.0644 4.66104 22.5056V30.1205C4.66104 30.5796 4.64294 30.662 4.60674 30.782C4.55009 30.9182 4.43446 31.0069 4.31767 31.0069H3.96787C3.73194 31.0069 3.5258 31.2255 3.5258 31.4823C3.5258 31.8575 3.73192 31.9757 4.31767 31.9757H7.47346C8.10592 31.9757 8.31615 31.8574 8.31615 31.4823C8.31615 31.2255 8.12987 31.0069 7.86124 31.0069H7.47348C7.33625 31.0069 7.18033 30.9182 7.10792 30.782C7.0676 30.662 7.0676 30.5797 7.0676 30.1205L7.06933 30.1202L7.06348 27.3461C7.06348 26.9629 7.11779 26.7982 7.22291 26.7281ZM38.6644 8.05606H38.3327C38.0746 8.05606 37.8661 7.8514 37.8661 7.58065C37.8661 7.20322 38.0746 7.08089 38.6644 7.08089L38.6641 7.08117H41.8322C42.45 7.08117 42.6602 7.2035 42.6602 7.58093C42.6602 7.85168 42.45 8.05633 42.2059 8.05633H41.8322C41.6745 8.05633 41.5209 8.1404 41.4724 8.27896C41.4216 8.39317 41.4216 8.49753 41.4216 8.94105V16.0912C41.4216 16.8397 41.4543 17.0141 41.6564 17.1301C41.8322 17.2507 42.0944 17.2826 42.7835 17.2826H43.7494C44.3614 17.2826 44.7941 17.0924 45.0061 16.6512C45.0527 16.5537 45.0839 16.4859 45.1059 16.438L45.106 16.4379C45.1298 16.3862 45.1429 16.3577 45.1532 16.3399C45.2689 16.1173 45.4505 16.017 45.6163 16.017C45.9293 16.017 46.0829 16.2541 45.9918 16.6913L45.7273 18.0131C45.6584 18.3256 45.4627 18.4404 45.117 18.4404H38.6644C38.0926 18.4404 37.9046 18.3279 37.9046 17.9488C37.9046 17.6983 38.0927 17.4913 38.3327 17.4913H38.6644C38.7777 17.4913 38.9167 17.387 38.9511 17.2728C39.0019 17.1464 39.0177 17.064 39.0177 16.6391V8.94077C39.0177 8.48103 39.002 8.41319 38.9511 8.27869C38.9166 8.14012 38.7777 8.05606 38.6644 8.05606ZM54.7101 31.8792C54.7101 31.6664 54.5991 31.5702 54.3544 31.5702H53.9626V32.605H54.1407V32.1859H54.2417L54.5407 32.605L54.7463 32.605L54.4438 32.1818C54.595 32.1656 54.7101 32.0856 54.7101 31.8792ZM54.1407 32.0238V31.7327H54.3019C54.4193 31.7327 54.5384 31.7612 54.5384 31.8794C54.5384 32.0157 54.4094 32.0238 54.2616 32.0238H54.1407ZM53.4103 32.1131C53.4103 31.6196 53.8062 31.2249 54.3014 31.2249C54.7943 31.2249 55.1926 31.6197 55.1926 32.1131C55.1926 32.6029 54.7943 33.0001 54.3014 33.0001C53.8062 33.0001 53.4103 32.603 53.4103 32.1131ZM53.5963 32.1137C53.5963 32.5271 53.8953 32.8239 54.2976 32.8239C54.7018 32.8239 54.9984 32.527 54.9984 32.1137C54.9984 31.7009 54.7018 31.4017 54.2976 31.4017C53.8953 31.4017 53.5963 31.7009 53.5963 32.1137ZM29.3398 20.3876C26.5259 20.3876 24.548 21.9338 23.9196 24.4853C23.9138 24.4876 23.9138 24.4916 23.9138 24.4958C23.8595 24.7741 23.6089 24.7961 23.5441 24.5033C22.9284 21.9524 20.9177 20.3876 18.0912 20.3876C14.6488 20.3876 12.4566 22.7025 12.4566 26.3406C12.4566 29.8952 14.6648 32.2259 18.0571 32.2259C20.8877 32.2259 22.8779 30.6836 23.5203 28.1484C23.5217 28.1447 23.5237 28.1411 23.5256 28.1376C23.5275 28.1341 23.5294 28.1306 23.5307 28.1271C23.5318 28.1242 23.5326 28.1212 23.5326 28.1182C23.5933 27.8192 23.8479 27.8395 23.9046 28.1201C23.9086 28.1404 23.9145 28.1583 23.9227 28.1763C24.559 30.6757 26.5389 32.226 29.3046 32.226L29.3053 32.2259C32.7829 32.2259 34.9927 29.8952 34.9927 26.2566C34.9927 22.684 32.7666 20.3876 29.3398 20.3876ZM18.781 30.9171C18.5677 30.9727 18.3424 31.0014 18.106 31.0014C16.8949 31.0014 15.9934 30.3174 15.4876 29.0982L15.4875 29.0981C15.184 28.3666 15.023 27.4425 15.023 26.3577C15.023 25.618 15.0957 24.9516 15.2343 24.3682C15.3382 23.9305 15.4792 23.5395 15.6543 23.1992C15.9169 22.6887 16.2562 22.2923 16.6623 22.0235C16.8886 21.8737 17.1357 21.7636 17.4017 21.6954C17.4554 21.6816 17.5097 21.6695 17.5649 21.6591C17.7291 21.628 17.9 21.6121 18.0773 21.6121C18.8499 21.6121 19.5067 21.9125 20.0143 22.4632C20.7562 23.2677 21.1795 24.607 21.1795 26.3246C21.1795 28.826 20.2727 30.532 18.781 30.9171ZM30.0277 30.917C29.8145 30.9727 29.5894 31.0014 29.3532 31.0014C28.1425 31.0014 27.24 30.3174 26.7334 29.0982C26.7313 29.0932 26.7292 29.0881 26.7272 29.0829C26.7245 29.076 26.7218 29.0691 26.7192 29.0621L26.709 29.036C26.4212 28.3144 26.2678 27.4124 26.2678 26.3577C26.2678 25.1557 26.4603 24.1474 26.8153 23.3738C27.0883 22.7786 27.4576 22.3222 27.9093 22.0235C28.136 21.8736 28.3834 21.7635 28.6499 21.6953L28.6526 21.6946C28.865 21.64 29.0894 21.6121 29.3251 21.6121C29.9786 21.6121 30.5491 21.8271 31.0163 22.2269C31.3989 22.5539 31.7123 23.0047 31.9455 23.5626C32.2564 24.3062 32.4249 25.2399 32.4249 26.3246C32.4249 28.826 31.5181 30.532 30.0277 30.917ZM45.9611 26.2869C45.9611 28.3467 45.2621 30.0495 43.9896 31.0548C43.0015 31.8491 41.7612 32.2103 39.8901 32.2103C37.7504 32.2103 36.3524 32.0196 35.8513 31.9471C35.352 31.8752 35.094 31.8231 35.094 31.4497V31.4494C35.094 31.1926 35.2656 30.9763 35.5016 30.9763H35.8514C35.9687 30.9763 36.0855 30.8859 36.1422 30.7537C36.1766 30.6314 36.1947 30.5288 36.1947 30.0835V22.5039C36.1947 22.0604 36.1767 21.9566 36.1422 21.8337C36.0855 21.7038 35.9687 21.6111 35.8514 21.6111H35.5016C35.2656 21.6111 35.094 21.3948 35.094 21.138C35.094 20.7669 35.3521 20.7148 35.8513 20.6406C36.3524 20.5681 37.7504 20.3779 39.8901 20.3779C42.0274 20.3779 43.3548 20.8388 44.4054 21.894C45.4139 22.8993 45.9611 24.4473 45.9611 26.2869ZM38.5867 29.922C38.5867 30.1652 38.6249 30.3512 38.6955 30.4942C38.9075 30.9233 39.4121 30.9649 40.0578 31.001C42.1589 31.1193 43.3795 29.2663 43.3795 26.2697C43.3795 25.2389 43.2362 24.3544 42.9654 23.6373C42.4483 22.2684 41.4663 21.5099 40.1284 21.5099L40.1284 21.5098C40.1284 21.5098 39.7383 21.5359 39.5468 21.566C38.8069 21.6843 38.5867 21.8832 38.5867 22.7876V29.922Z" fill="black"/>
</svg>
